<svg width="731" height="494" xmlns="http://www.w3.org/2000/svg" xmlns:xlink="http://www.w3.org/1999/xlink" overflow="hidden"><defs><clipPath id="clip0"><rect x="288" y="131" width="731" height="494"/></clipPath></defs><g clip-path="url(#clip0)" transform="translate(-288 -131)"><path d="M305.298 401.906 305.298 401.906C305.527 396.511 304.499 391.142 305.983 385.722 319.676 335.717 324.104 330.323 357.646 282.916 359.537 280.243 403.795 214.067 426.903 198.456 432.178 194.893 443.936 192.363 451.73 190.552L451.73 190.552C495.028 183.198 513.024 179.556 572.386 180.683 588.615 180.991 602.541 187.21 617.618 190.473 628.656 197.966 637.444 202.446 644.822 211.929 649.195 217.55 652.489 223.679 656.323 229.554 658.212 241.935 660.854 254.185 661.989 266.697 662.13 268.249 661.052 269.892 660.12 271.404 659.235 272.839 657.78 274.084 656.61 275.424 653.34 284.73 640.81 295.846 646.801 303.342 653.275 311.442 705.167 293.268 709.347 292.017 717.236 291.965 725.055 292.937 733.012 291.861 747.261 289.933 761.558 282.087 775.411 283.079 782.272 283.571 782.294 291.451 785.735 295.637 788.518 303.422 816.985 368.231 810.444 389.248 805.315 405.73 790.224 420.598 781.445 436.58 775.628 447.169 773.754 458.562 766.721 468.844 758.194 481.309 714.122 515.103 704.454 519.631 672.858 534.431 637.939 543.63 604.681 555.629 437.279 546.536 408.245 574.335 325.585 521.115 315.639 514.71 307.204 505.531 299.316 497.305 293.251 481.482 291.368 478.339 289.662 455.748 289.279 450.684 290.618 445.413 291.987 440.252 294.049 432.478 299.105 424.809 299.927 417.041 300.236 414.121 300.616 411.196 300.854 408.28 301.001 406.476 300.706 404.695 301.082 402.885 301.411 401.298 304.596 402.069 305.298 401.906Z" stroke="#787878" stroke-width="1.33333" stroke-miterlimit="8" fill="#A5A5A5" fill-rule="evenodd"/><path d="M448.5 390C448.5 384.753 452.977 380.5 458.5 380.5 464.023 380.5 468.5 384.753 468.5 390 468.5 395.247 464.023 399.5 458.5 399.5 452.977 399.5 448.5 395.247 448.5 390Z" stroke="#000000" stroke-width="1.33333" stroke-miterlimit="8" fill-rule="evenodd"/><text font-family="Yu Gothic,Yu Gothic_MSFontService,sans-serif" font-weight="400" font-size="43" transform="translate(402.933 362)">点</text><text font-family="Yu Gothic,Yu Gothic_MSFontService,sans-serif" font-weight="400" font-size="43" transform="translate(445.6 362)">O</text><path d="M841.349 156.465 832.894 152.748 740.348 363.286 723.438 355.853 815.984 145.316 807.529 141.599 831.872 132.122Z" stroke="#2F528F" stroke-width="1.33333" stroke-miterlimit="8" fill="#4472C4" fill-rule="evenodd"/><path d="M723.5 359C723.5 353.753 727.753 349.5 733 349.5 738.247 349.5 742.5 353.753 742.5 359 742.5 364.247 738.247 368.5 733 368.5 727.753 368.5 723.5 364.247 723.5 359Z" stroke="#000000" stroke-width="1.33333" stroke-miterlimit="8" fill-rule="evenodd"/><path d="M812 359 846.5 359 846.5 359 898.25 359 1019 359 1019 369.167 1019 369.167 1019 384.417 1019 420 898.25 420 846.5 420 846.5 420 812 420 812 384.417 746.199 362.269 812 369.167Z" fill="#000000" fill-rule="evenodd" fill-opacity="0.501961"/><text fill="#FFFFFF" font-family="Yu Gothic,Yu Gothic_MSFontService,sans-serif" font-weight="400" font-size="43" transform="translate(821.193 402)">作用点</text><text fill="#FFFFFF" font-family="Yu Gothic,Yu Gothic_MSFontService,sans-serif" font-weight="400" font-size="43" transform="translate(949.193 402)">P</text><path d="M0 0 255.382 30.6967" stroke="#FFC000" stroke-width="8" stroke-miterlimit="8" fill="none" fill-rule="evenodd" transform="matrix(1 0 0 -1 468 389.697)"/><path d="M0 0 107.439 257.717" stroke="#4472C4" stroke-width="8" stroke-miterlimit="8" stroke-dasharray="8 8" fill="none" fill-rule="evenodd" transform="matrix(-1 0 0 1 731.439 363)"/><path d="M465 396 667.739 498.174" stroke="#FFC000" stroke-width="8" stroke-miterlimit="8" stroke-dasharray="8 8" fill="none" fill-rule="evenodd"/><path d="M518 257 545.417 257 545.417 257 557.167 257 565 257 565 292.583 565 292.583 565 307.833 565 318 557.167 318 543.41 386.565 545.417 318 518 318 518 307.833 518 292.583 518 292.583Z" fill="#000000" fill-rule="evenodd" fill-opacity="0.501961"/><text fill="#FFFFFF" font-family="Yu Gothic,Yu Gothic_MSFontService,sans-serif" font-style="oblique" font-weight="400" font-size="43" transform="translate(527.511 301)">l</text><path d="M434 448 461.417 448 461.417 448 473.167 448 481 448 481 458.333 535.683 429.779 481 473.833 481 510 473.167 510 461.417 510 461.417 510 434 510 434 473.833 434 458.333 434 458.333Z" fill="#000000" fill-rule="evenodd" fill-opacity="0.501961"/><text fill="#FFFFFF" font-family="Yu Gothic,Yu Gothic_MSFontService,sans-serif" font-style="oblique" font-weight="400" font-size="43" transform="translate(443.825 492)">h</text><path d="M708.321 414.41C688.514 406.661 674.35 388.928 671.169 367.898L730 359Z" stroke="#AE5A21" stroke-width="1.33333" stroke-miterlimit="8" fill="#ED7D31" fill-rule="evenodd"/><path d="M782 478 793.167 478 700.33 389.417 809.917 478 849 478 849 488.167 849 488.167 849 503.417 849 539 809.917 539 793.167 539 793.167 539 782 539 782 503.417 782 488.167 782 488.167Z" fill="#000000" fill-rule="evenodd" fill-opacity="0.501961"/><text fill="#FFFFFF" font-family="Yu Gothic,Yu Gothic_MSFontService,sans-serif" font-weight="400" font-size="43" transform="translate(791.482 522)">θ</text></g></svg>