<svg width="810" height="553" xmlns="http://www.w3.org/2000/svg" xmlns:xlink="http://www.w3.org/1999/xlink" overflow="hidden"><defs><clipPath id="clip0"><rect x="296" y="41" width="810" height="553"/></clipPath></defs><g clip-path="url(#clip0)" transform="translate(-296 -41)"><path d="M297 84 949 84.0001 949 92.0001 297 92ZM945 76.0001 969 88.0001 945 100Z" fill="#70AD47"/><path d="M329 53 329 534.333 321 534.333 321 53ZM337 530.333 325 554.333 313 530.333Z" fill="#70AD47"/><path d="M301.5 88.5001C301.5 75.2452 312.469 64.5001 326 64.5001 339.531 64.5001 350.5 75.2452 350.5 88.5001 350.5 101.755 339.531 112.5 326 112.5 312.469 112.5 301.5 101.755 301.5 88.5001Z" stroke="#2F528F" stroke-width="1.33333" stroke-miterlimit="8" fill="#4472C4" fill-rule="evenodd"/><path d="M325.55 85.0003 333.549 85.1003 333.449 93.0997 325.45 92.9997ZM341.549 85.2003 349.548 85.3003 349.448 93.2997 341.449 93.1997ZM357.664 85.6171 365.656 85.9611 365.312 93.9537 357.32 93.6097ZM373.649 86.3051 375.406 86.3807 381.727 86.8021 381.195 94.7844 374.921 94.3661 375.015 94.3713 373.305 94.2977ZM389.71 87.3343 397.692 87.8664 397.16 95.8487 389.177 95.3165ZM405.776 88.5773 413.74 89.3406 412.976 97.3041 405.013 96.5408ZM421.703 90.104 424.125 90.3361 429.76 91.0349 428.775 98.9741 423.195 98.2821 423.306 98.2943 420.94 98.0674ZM437.699 92.0195 445.638 93.004 444.654 100.943 436.715 99.9586ZM453.658 94.1462 461.57 95.3308 460.385 103.243 452.473 102.058ZM469.482 96.5155 471.406 96.8036 477.487 97.9139 476.051 105.784 470.032 104.685 470.158 104.706 468.297 104.427ZM485.357 99.3506 493.227 100.787 491.79 108.657 483.921 107.221ZM501.162 102.409 508.994 104.04 507.362 111.872 499.531 110.241ZM516.826 105.672 517.064 105.722 524.725 107.567 522.853 115.344 515.251 113.514 515.372 113.541 515.194 113.504ZM532.503 109.439 539.237 111.061 540.375 111.367 538.299 119.093 537.212 118.8 537.314 118.826 530.63 117.217ZM548.101 113.443 555.827 115.52 553.75 123.246 546.025 121.169ZM563.66 117.727 571.309 120.071 568.964 127.72 561.316 125.375ZM578.958 122.416 582.096 123.378 586.666 124.906 584.129 132.493 579.607 130.981 579.703 131.012 576.613 130.065ZM594.253 127.443 601.84 129.979 599.303 137.567 591.716 135.03ZM609.476 132.792 616.971 135.588 614.175 143.083 606.68 140.287ZM624.568 138.487 631.967 141.529 628.926 148.928 621.526 145.887ZM639.366 144.57 642.269 145.763 646.823 147.812 643.54 155.107 639.046 153.085 639.167 153.137 636.325 151.969ZM654.118 151.095 661.141 154.255 661.53 154.447 658.003 161.627 657.674 161.465 657.796 161.523 650.835 158.39ZM668.711 157.975 675.891 161.503 672.363 168.683 665.183 165.155ZM683.13 165.235 690.176 169.024 686.388 176.07 679.342 172.282ZM697.338 172.895 704.246 176.931 700.21 183.838 693.303 179.803ZM711.153 180.967 713.717 182.464 718.092 185.278 713.765 192.007 709.461 189.239 709.607 189.329 707.117 187.874ZM724.821 189.606 729.792 192.803 731.631 194.09 727.045 200.645 725.269 199.403 725.399 199.489 720.493 196.334ZM738.187 198.676 744.742 203.262 740.156 209.817 733.601 205.231ZM751.245 208.194 757.609 213.042 752.76 219.406 746.397 214.557ZM763.958 218.211 770.085 223.354 764.942 229.482 758.814 224.338ZM776.24 228.763 782.108 234.2 776.671 240.068 770.803 234.631ZM788.041 239.864 793.623 245.594 787.894 251.177 782.311 245.447ZM799.296 251.518 804.581 257.523 798.576 262.808 793.29 256.803ZM809.982 263.724 814.923 270.016 808.631 274.957 803.69 268.665ZM819.986 276.507 824.552 283.075 817.984 287.642 813.417 281.073ZM829.236 289.865 833.384 296.706 826.544 300.854 822.396 294.014ZM837.63 303.799 841.311 310.902 834.208 314.582 830.527 307.479ZM845.04 318.273 848.247 325.602 840.917 328.809 837.711 321.479ZM851.436 333.266 854.074 340.818 846.522 343.457 843.884 335.904ZM856.622 348.683 857.795 352.952 850.082 355.073 848.908 350.804ZM864.942 328.188 856.043 361.667 831.281 337.441C829.701 335.896 829.674 333.364 831.219 331.785 832.763 330.206 835.296 330.178 836.875 331.723L856.736 351.153 850.073 352.985 857.21 326.133C857.778 323.998 859.969 322.727 862.104 323.294 864.239 323.862 865.51 326.053 864.942 328.188Z" fill="#ED7D31"/><path d="M325.5 76.5001 409.5 76.5001 409.5 64.5001 433.5 88.5001 409.5 112.5 409.5 100.5 325.5 100.5Z" stroke="#787878" stroke-width="1.33333" stroke-miterlimit="8" fill="#A5A5A5" fill-rule="evenodd"/><path d="M374 180 395.167 180 380.154 89.9678 426.917 180 501 180 501 197.667 501 197.667 501 224.167 501 286 426.917 286 395.167 286 395.167 286 374 286 374 224.167 374 197.667 374 197.667Z" fill="#000000" fill-rule="evenodd" fill-opacity="0.501961"/><text fill="#FFFFFF" font-family="Yu Gothic,Yu Gothic_MSFontService,sans-serif" font-style="oblique" font-weight="400" font-size="72" transform="translate(411.026 256)">v</text><text fill="#FFFFFF" font-family="Yu Gothic,Yu Gothic_MSFontService,sans-serif" font-weight="400" font-size="32" transform="translate(446.193 256)">0</text><rect x="359" y="453" width="126" height="106" fill="#000000" fill-opacity="0.501961"/><text fill="#FFFFFF" font-family="Yu Gothic,Yu Gothic_MSFontService,sans-serif" font-style="oblique" font-weight="400" font-size="72" transform="translate(404.38 529)">y</text><rect x="979" y="53" width="127" height="106" fill="#000000" fill-opacity="0.501961"/><text fill="#FFFFFF" font-family="Yu Gothic,Yu Gothic_MSFontService,sans-serif" font-style="oblique" font-weight="400" font-size="72" transform="translate(1024.83 129)">x</text></g></svg>