<svg width="806" height="565" xmlns="http://www.w3.org/2000/svg" xmlns:xlink="http://www.w3.org/1999/xlink" overflow="hidden"><defs><clipPath id="clip0"><rect x="300" y="29" width="806" height="565"/></clipPath></defs><g clip-path="url(#clip0)" transform="translate(-300 -29)"><path d="M301 281 953 281 953 289 301 289ZM949 273 973 285 949 297Z" fill="#70AD47"/><path d="M329 73.0002 329 554.333 321 554.333 321 73.0002ZM313 77 325 53 337 77Z" fill="#70AD47"/><path d="M301.5 280C301.5 266.469 312.469 255.5 326 255.5 339.531 255.5 350.5 266.469 350.5 280 350.5 293.531 339.531 304.5 326 304.5 312.469 304.5 301.5 293.531 301.5 280Z" stroke="#2F528F" stroke-width="1.33333" stroke-miterlimit="8" fill="#4472C4" fill-rule="evenodd"/><path d="M336.839 254.392 339.207 246.75 346.849 249.119 344.48 256.76ZM341.635 238.964 344.301 231.421 351.844 234.087 349.178 241.629ZM347.059 223.738 350.03 216.311 357.458 219.282 354.487 226.71ZM353.133 208.758 356.411 201.46 363.709 204.738 360.431 212.036ZM359.879 194.061 363.47 186.912 370.619 190.503 367.027 197.652ZM367.308 179.699 371.206 172.712 378.192 176.609 374.295 183.596ZM375.427 165.709 379.644 158.884 379.732 158.755 386.343 163.26 386.306 163.315 386.403 163.165 382.233 169.914ZM384.236 152.144 387.5 147.354 388.947 145.439 395.329 150.262 393.941 152.099 394.056 151.94 390.848 156.648ZM393.771 139.057 395.738 136.454 398.878 132.668 405.036 137.775 401.954 141.491 402.066 141.349 400.153 143.88ZM403.984 126.51 404.359 126.059 409.497 120.446 415.398 125.848 410.325 131.389 410.454 131.241 410.142 131.617ZM415.131 114.486 420.827 108.868 426.445 114.564 420.749 120.182ZM426.88 103.324 432.166 98.6331 433.039 97.9289 438.061 104.156 437.261 104.801 437.405 104.679 432.19 109.307ZM439.266 92.9069 442.015 90.6902 445.831 87.9542 450.492 94.4558 446.768 97.1258 446.948 96.9887 444.288 99.1342ZM452.522 83.1873 459.266 78.8843 463.569 85.6284 456.825 89.9315ZM466.347 74.6779 473.144 70.8926 473.527 70.7047 477.053 77.8855 476.763 78.0279 476.946 77.9322 470.239 81.6672ZM480.707 67.1781 483.92 65.6005 488.258 63.8199 491.295 71.2209 487.081 72.9505 487.326 72.8404 484.234 74.3588ZM495.878 60.7498 503.432 58.1166 506.065 65.6708 498.511 68.304ZM511.346 55.7408 517.501 54.0466 519.338 53.6669 520.957 61.5013 519.247 61.8547 519.499 61.794 513.469 63.4539ZM527.172 52.0475 528.935 51.683 535.314 50.7667 536.452 58.6855 530.194 59.5844 530.435 59.5422 528.791 59.8819ZM543.494 49.777 551.468 49.1235 552.121 57.0967 544.148 57.7503ZM559.748 48.9817 563.899 48.9363 568.002 49.1581 567.57 57.1465 563.597 56.9317 563.856 56.9373 559.836 56.9812ZM576.268 49.643 584.206 50.6353 583.214 58.5735 575.276 57.5812ZM592.345 51.9639 599.312 53.2821 600.452 53.5776 598.442 61.3212 597.433 61.0593 597.694 61.1178 590.858 59.8245ZM608.195 55.5868 611.133 56.349 616.097 57.9948 613.58 65.5884 608.741 63.9843 608.995 64.0593 606.186 63.3304ZM623.894 60.6485 631.325 63.6127 628.361 71.0433 620.93 68.0792ZM638.878 66.9807 646.088 70.4476 642.621 77.6574 635.411 74.1904ZM653.285 74.5586 660.226 78.5365 656.248 85.4774 649.307 81.4994ZM667.193 83.1191 673.765 87.6812 669.203 94.2529 662.631 89.6908ZM680.432 92.6545 686.613 97.7336 681.534 103.914 675.353 98.8354ZM692.985 103.058 698.76 108.595 693.223 114.369 687.448 108.832ZM704.534 114.132 706.254 115.781 710.204 120.194 704.243 125.529 700.395 121.23 700.607 121.45 698.997 119.906ZM715.54 126.154 719.26 130.31 720.917 132.439 714.603 137.352 713.031 135.332 713.207 135.543 709.579 131.49ZM725.83 138.752 730.743 145.066 724.43 149.979 719.516 143.666ZM735.435 151.876 739.907 158.509 733.274 162.982 728.802 156.349ZM744.354 165.446 748.416 172.338 741.523 176.4 737.462 169.507ZM752.477 179.23 753.199 180.456 756.282 186.558 749.141 190.165 746.117 184.178 746.241 184.406 745.585 183.292ZM759.888 193.699 762.626 199.119 763.485 201.115 756.137 204.278 755.326 202.394 755.43 202.616 752.748 197.306ZM766.648 208.463 769.811 215.812 762.462 218.974 759.3 211.626ZM772.788 223.483 775.52 231.002 768.001 233.734 765.269 226.215ZM778.252 238.521 778.423 238.991 780.646 246.391 772.984 248.692 770.794 241.4 770.865 241.616 770.733 241.253ZM782.947 254.053 784.737 260.016 785.206 261.952 777.43 263.833 776.987 262.003 777.044 262.213 775.285 256.354ZM787.087 269.727 788.969 277.503 781.193 279.384 779.312 271.609ZM790.689 285.539 792.138 293.407 784.27 294.855 782.822 286.988ZM793.587 301.274 794.08 303.952 794.763 309.418 786.825 310.41 786.156 305.059 786.191 305.287 785.719 302.723ZM795.755 317.356 796.748 325.294 788.809 326.287 787.817 318.348ZM797.405 333.479 797.974 341.459 789.994 342.028 789.425 334.048ZM809.861 318.983 794.578 350.072 775.039 321.466C773.793 319.642 774.262 317.153 776.086 315.907 777.91 314.661 780.399 315.13 781.645 316.954L797.317 339.898 790.424 340.389 802.681 315.454C803.656 313.472 806.053 312.655 808.036 313.629 810.018 314.604 810.835 317.001 809.861 318.983Z" fill="#ED7D31"/><path d="M311.184 272.613 354.744 201.812 344.334 195.408 377.962 187.397 385.972 221.026 375.563 214.621 332.003 285.422Z" stroke="#787878" stroke-width="1.33333" stroke-miterlimit="8" fill="#A5A5A5" fill-rule="evenodd"/><path d="M417 300 438.167 300 438.167 300 469.917 300 544 300 544 317.667 544 317.667 544 344.167 544 406 469.917 406 438.167 406 438.167 406 417 406 417 344.167 344.118 239.865 417 317.667Z" fill="#000000" fill-rule="evenodd" fill-opacity="0.501961"/><text fill="#FFFFFF" font-family="Yu Gothic,Yu Gothic_MSFontService,sans-serif" font-style="oblique" font-weight="400" font-size="72" transform="translate(453.791 376)">v</text><text fill="#FFFFFF" font-family="Yu Gothic,Yu Gothic_MSFontService,sans-serif" font-weight="400" font-size="32" transform="translate(488.957 376)">0</text><rect x="359" y="453" width="126" height="106" fill="#000000" fill-opacity="0.501961"/><text fill="#FFFFFF" font-family="Yu Gothic,Yu Gothic_MSFontService,sans-serif" font-style="oblique" font-weight="400" font-size="72" transform="translate(404.38 529)">y</text><rect x="979" y="53" width="127" height="106" fill="#000000" fill-opacity="0.501961"/><text fill="#FFFFFF" font-family="Yu Gothic,Yu Gothic_MSFontService,sans-serif" font-style="oblique" font-weight="400" font-size="72" transform="translate(1024.83 129)">x</text></g></svg>