<svg width="776" height="310" xmlns="http://www.w3.org/2000/svg" xmlns:xlink="http://www.w3.org/1999/xlink" overflow="hidden"><defs><clipPath id="clip0"><rect x="423" y="128" width="776" height="310"/></clipPath></defs><g clip-path="url(#clip0)" transform="translate(-423 -128)"><rect x="437.5" y="327.5" width="502" height="110" stroke="#787878" stroke-width="1.33333" stroke-miterlimit="8" fill="#A5A5A5"/><path d="M461.5 383C461.5 379.962 463.962 377.5 467 377.5 470.038 377.5 472.5 379.962 472.5 383 472.5 386.038 470.038 388.5 467 388.5 463.962 388.5 461.5 386.038 461.5 383Z" stroke="#000000" stroke-width="1.33333" stroke-miterlimit="8" fill-rule="evenodd"/><text font-family="Yu Gothic,Yu Gothic_MSFontService,sans-serif" font-weight="700" font-size="37" transform="translate(446.489 377)">O</text><path d="M931.504 377.222 1063.73 148.206 1057.76 144.762 1076.58 139.719 1081.62 158.54 1075.66 155.095 943.435 384.111Z" stroke="#2F528F" stroke-width="1.33333" stroke-miterlimit="8" fill="#4472C4" fill-rule="evenodd"/><path d="M934.5 383C934.5 379.962 936.739 377.5 939.5 377.5 942.261 377.5 944.5 379.962 944.5 383 944.5 386.038 942.261 388.5 939.5 388.5 936.739 388.5 934.5 386.038 934.5 383Z" stroke="#000000" stroke-width="1.33333" stroke-miterlimit="8" fill-rule="evenodd"/><text font-family="Yu Gothic,Yu Gothic_MSFontService,sans-serif" font-weight="700" font-size="37" transform="translate(898.489 377)">P</text><path d="M933 377 933 147 926 147 940 133 954 147 947 147 947 377Z" fill="#4472C4" fill-rule="evenodd" fill-opacity="0.501961"/><path d="M895 133 1154.56 133" stroke="#7F7F7F" stroke-width="8" stroke-miterlimit="8" stroke-dasharray="32 24" fill="none" fill-rule="evenodd"/><rect x="1030" y="216" width="49" height="55" fill="#000000" fill-opacity="0.501961"/><text fill="#FFFFFF" font-family="Yu Gothic,Yu Gothic_MSFontService,sans-serif" font-style="oblique" font-weight="700" font-size="37" transform="translate(1039.49 255)">F</text><path d="M934 385 1193.56 385" stroke="#7F7F7F" stroke-width="8" stroke-miterlimit="8" stroke-dasharray="32 24" fill="none" fill-rule="evenodd"/><rect x="970" y="332" width="49" height="61" fill="#000000" fill-opacity="0.501961"/><text fill="#FFFFFF" font-family="Yu Gothic,Yu Gothic_MSFontService,sans-serif" font-weight="700" font-size="43" transform="translate(980.044 376)">θ</text><rect x="782" y="227" width="152" height="55" fill="#000000" fill-opacity="0.501961"/><text fill="#FFFFFF" font-family="Yu Gothic,Yu Gothic_MSFontService,sans-serif" font-style="oblique" font-weight="700" font-size="37" transform="translate(791.822 266)">F</text><text fill="#FFFFFF" font-family="Yu Gothic,Yu Gothic_MSFontService,sans-serif" font-weight="700" font-size="37" transform="translate(826.156 266)">sinθ</text></g></svg>