<svg width="1311" height="701" xmlns="http://www.w3.org/2000/svg" xmlns:xlink="http://www.w3.org/1999/xlink" overflow="hidden"><g transform="translate(-13 -43)"><rect x="277.5" y="44.5001" width="26" height="289" stroke="#172C51" stroke-width="1.33333" stroke-miterlimit="8" fill="#4472C4"/><rect x="277.5" y="387.5" width="26" height="289" stroke="#172C51" stroke-width="1.33333" stroke-miterlimit="8" fill="#4472C4"/><rect x="548.5" y="263.5" width="26" height="194" stroke="#172C51" stroke-width="1.33333" stroke-miterlimit="8" fill="#4472C4"/><rect x="548.5" y="482.5" width="26" height="194" stroke="#172C51" stroke-width="1.33333" stroke-miterlimit="8" fill="#4472C4"/><rect x="548.5" y="44.5001" width="26" height="194" stroke="#172C51" stroke-width="1.33333" stroke-miterlimit="8" fill="#4472C4"/><rect x="1216.5" y="44.5001" width="26" height="632" stroke="#172C51" stroke-width="1.33333" stroke-miterlimit="8" fill="#4472C4"/><rect x="495" y="322" width="66" height="68" fill="#000000" fill-opacity="0.501961"/><text fill="#FFFFFF" font-family="Yu Mincho,Yu Mincho_MSFontService,sans-serif" font-style="oblique" font-weight="700" font-size="48" transform="translate(514.75 372)">d</text><rect x="190" y="258" width="87" height="68" fill="#000000" fill-opacity="0.501961"/><text fill="#FFFFFF" font-family="Yu Mincho,Yu Mincho_MSFontService,sans-serif" font-weight="700" font-size="48" transform="translate(212.083 308)">S</text><text fill="#FFFFFF" font-family="Yu Mincho,Yu Mincho_MSFontService,sans-serif" font-weight="700" font-size="32" transform="translate(238.417 319)">0</text><rect x="474" y="160" width="87" height="68" fill="#000000" fill-opacity="0.501961"/><text fill="#FFFFFF" font-family="Yu Mincho,Yu Mincho_MSFontService,sans-serif" font-weight="700" font-size="48" transform="translate(496.083 210)">S</text><text fill="#FFFFFF" font-family="Yu Mincho,Yu Mincho_MSFontService,sans-serif" font-weight="700" font-size="32" transform="translate(522.417 221)">1</text><rect x="480" y="484" width="87" height="68" fill="#000000" fill-opacity="0.501961"/><text fill="#FFFFFF" font-family="Yu Mincho,Yu Mincho_MSFontService,sans-serif" font-weight="700" font-size="48" transform="translate(502.083 534)">S</text><text fill="#FFFFFF" font-family="Yu Mincho,Yu Mincho_MSFontService,sans-serif" font-weight="700" font-size="32" transform="translate(528.417 545)">2</text><rect x="1242" y="333" width="66" height="68" fill="#000000" fill-opacity="0.501961"/><text fill="#FFFFFF" font-family="Yu Mincho,Yu Mincho_MSFontService,sans-serif" font-weight="700" font-size="48" transform="translate(1254.75 383)">O</text><rect x="1216" y="188" width="72" height="68" fill="#000000" fill-opacity="0.501961"/><text fill="#FFFFFF" font-family="Yu Mincho,Yu Mincho_MSFontService,sans-serif" font-weight="700" font-size="48" transform="translate(1236.08 238)">P</text><path d="M13 360 302.667 360" stroke="#ED7D31" stroke-width="8" stroke-miterlimit="8" fill="none" fill-rule="evenodd"/><path d="M0 0 261.833 97" stroke="#ED7D31" stroke-width="8" stroke-miterlimit="8" fill="none" fill-rule="evenodd" transform="matrix(1 0 0 -1 299 360)"/><path d="M560.833 457 299 362" stroke="#ED7D31" stroke-width="8" stroke-miterlimit="8" fill="none" fill-rule="evenodd"/><path d="M0 0 654.667 234.572" stroke="#ED7D31" stroke-width="8" stroke-miterlimit="8" fill="none" fill-rule="evenodd" transform="matrix(1 0 0 -1 561 456.572)"/><path d="M0 0 667.667 42.6773" stroke="#ED7D31" stroke-width="8" stroke-miterlimit="8" fill="none" fill-rule="evenodd" transform="matrix(1 0 0 -1 561 262.677)"/><path d="M566 263 703.71 642.072" stroke="#A5A5A5" stroke-width="8" stroke-miterlimit="8" stroke-dasharray="32 24" fill="none" fill-rule="evenodd"/><path d="M0 0 641.667 137.572" stroke="#A5A5A5" stroke-width="8" stroke-miterlimit="8" stroke-dasharray="32 24" fill="none" fill-rule="evenodd" transform="matrix(1 0 0 -1 574 359.572)"/><path d="M574 360 1215.67 360" stroke="#A5A5A5" stroke-width="8" stroke-miterlimit="8" stroke-dasharray="32 24" fill="none" fill-rule="evenodd"/><rect x="644" y="309" width="66" height="68" fill="#000000" fill-opacity="0.501961"/><text fill="#FFFFFF" font-family="Yu Mincho,Yu Mincho_MSFontService,sans-serif" font-weight="700" font-size="48" transform="translate(653.842 359)">θ</text><rect x="1196" y="254" width="66" height="68" fill="#000000" fill-opacity="0.501961"/><text fill="#FFFFFF" font-family="Yu Mincho,Yu Mincho_MSFontService,sans-serif" font-style="oblique" font-weight="700" font-size="48" transform="translate(1217.5 304)">x</text><path d="M561 676 1228.67 676" stroke="#A5A5A5" stroke-width="8" stroke-miterlimit="8" stroke-dasharray="32 24" fill="none" fill-rule="evenodd"/><rect x="903" y="652" width="66" height="68" fill="#000000" fill-opacity="0.501961"/><text fill="#FFFFFF" font-family="Yu Mincho,Yu Mincho_MSFontService,sans-serif" font-style="oblique" font-weight="700" font-size="48" transform="translate(912.706 702)">ℓ</text></g></svg>