<svg width="537" height="712" xmlns="http://www.w3.org/2000/svg" xmlns:xlink="http://www.w3.org/1999/xlink" overflow="hidden"><defs><clipPath id="clip0"><rect x="307" y="19" width="537" height="712"/></clipPath></defs><g clip-path="url(#clip0)" transform="translate(-307 -19)"><path d="M429.426 87.9814C407.522 70.7321 315.677 37.2387 310 22.9427L379.172 22C389.358 23.7281 395.109 45.2506 407.655 54.0481 420.201 62.8456 445.124 62.8457 454.448 74.7851L470.724 117.202 509.862 94.5795 588.724 101.178 841 289.696 610.164 500.837 587.118 502.193C587.138 508.932 587.158 515.671 587.178 522.41L355.028 728 431.699 469.73 452.93 339.653 422.262 230.312 456.469 134.168C457.663 110.446 453.838 106.519 429.426 87.9814Z" stroke="#70AD47" stroke-width="4" stroke-linejoin="round" stroke-miterlimit="10" fill="none" fill-rule="evenodd"/><path d="M591 503C587.749 500.425 583.022 497.235 580.059 493.714 579.07 492.539 578.207 491.259 577.323 490 576.687 489.092 576.202 488.072 575.5 487.214 574.674 486.205 573.677 485.357 572.765 484.428 572.157 481.643 571.947 478.735 570.941 476.071 570.396 474.627 569.089 473.616 568.206 472.357 566.474 469.888 566.711 469.541 564.559 467.714 558.572 462.633 562.551 466.598 560 464" stroke="#BDD7EE" stroke-width="8" stroke-miterlimit="8" fill="none" fill-rule="evenodd"/><path d="M666 160C661.726 161.241 657.373 162.231 653.177 163.724 647.249 165.833 649.242 166.784 644.018 167.448 631.229 169.073 607.613 169.078 599.137 169.31 597.306 169.621 595.427 169.723 593.642 170.241 591.134 170.97 588.895 172.649 586.314 173.035 578.438 174.212 570.438 174.276 562.5 174.897 561.279 175.207 560.047 175.476 558.837 175.828 557.908 176.097 557.048 176.644 556.089 176.759 551.833 177.268 547.54 177.379 543.266 177.69 541.054 179.188 538.696 181.063 535.938 181.414 534.98 181.535 534.107 180.793 533.191 180.483 527.084 181.414 520.955 182.2 514.872 183.276 513.921 183.444 512.988 183.768 512.124 184.207 511.14 184.707 510.462 185.885 509.377 186.069 503.759 187.021 490.487 187 496.554 187" stroke="#BDD7EE" stroke-width="8" stroke-miterlimit="8" fill="none" fill-rule="evenodd"/><path d="M478.696 200C477.709 201.958 476.433 203.798 475.736 205.875 474.777 208.73 474.444 211.756 473.762 214.688 473.457 216 473.309 217.368 472.775 218.605 471.327 221.96 469.486 225.134 467.841 228.398 468.499 237.211 468.743 246.064 469.815 254.837 470.065 256.886 471.284 258.709 471.788 260.712 472.725 264.428 472.657 267.827 473.762 271.484 474.271 273.167 475.078 274.748 475.736 276.38 476.222 279.273 476.728 283.25 477.709 286.172 478.598 288.818 479.724 291.38 480.67 294.006 483.503 301.879 481.126 297.874 485.603 303.798 485.932 305.43 485.929 307.165 486.59 308.694 486.957 309.543 488.148 309.827 488.564 310.653 489.17 311.857 489 313.34 489.551 314.57 490.329 316.309 491.524 317.834 492.511 319.466 492.84 320.772 493.318 322.049 493.498 323.383 493.978 326.956 493.723 330.629 494.484 334.154 494.733 335.305 495.8 336.113 496.458 337.092 496.787 345.905 496.938 354.726 497.445 363.531 497.596 366.158 498.432 368.733 498.432 371.365 498.432 399.904 500.924 392.11 495.471 405.638 495.142 408.902 494.987 412.188 494.484 415.43 494.11 417.845 491.184 422.961 490.537 424.243 488.789 436.388 490.625 425.854 487.577 437.953 487.17 439.567 487.154 441.281 486.59 442.849 485.501 445.876 483.763 448.645 482.643 451.662 481.456 454.859 480.769 458.221 479.683 461.454 479.123 463.121 478.367 464.718 477.709 466.35 477.38 468.309 477.319 470.33 476.722 472.226 470.87 490.81 474.723 473.062 467.841 492.789 466.171 497.578 465.133 502.562 463.894 507.478 463.159 510.397 462.615 513.361 461.921 516.291 460.077 524.066 460.922 523.163 456.987 529.021 456.729 529.405 456.329 529.674 456 530" stroke="#ED7D31" stroke-width="8" stroke-miterlimit="8" fill="none" fill-rule="evenodd"/><path d="M410 335.5C410 260.665 424.327 200 442 200 459.673 200 474 260.665 474 335.5 474 410.335 459.673 471 442 471 424.327 471 410 410.335 410 335.5Z" fill="#ED7D31" fill-rule="evenodd" fill-opacity="0.701961"/><text fill="#FFFFFF" font-family="Yu Gothic,Yu Gothic_MSFontService,sans-serif" font-weight="700" font-size="72" transform="translate(417.111 358)">A</text><path d="M514 315.5C514 263.309 561.906 221 621 221 680.094 221 728 263.309 728 315.5 728 367.691 680.094 410 621 410 561.906 410 514 367.691 514 315.5Z" fill="#ED7D31" fill-rule="evenodd" fill-opacity="0.701961"/><text fill="#FFFFFF" font-family="Yu Gothic,Yu Gothic_MSFontService,sans-serif" font-weight="700" font-size="72" transform="translate(615.716 338)">B</text><path d="M454 119C454 85.8629 496.085 59 548 59 599.915 59 642 85.8629 642 119 642 152.137 599.915 179 548 179 496.085 179 454 152.137 454 119Z" fill="#ED7D31" fill-rule="evenodd" fill-opacity="0.701961"/><text fill="#FFFFFF" font-family="Yu Gothic,Yu Gothic_MSFontService,sans-serif" font-weight="700" font-size="72" transform="translate(522.237 142)">C</text><path d="M556.5 281C556.5 265.26 569.26 252.5 585 252.5 600.74 252.5 613.5 265.26 613.5 281 613.5 296.74 600.74 309.5 585 309.5 569.26 309.5 556.5 296.74 556.5 281Z" stroke="#2F528F" stroke-width="1.33333" stroke-miterlimit="8" fill="#4472C4" fill-rule="evenodd"/><text fill="#FFFFFF" font-family="Yu Gothic,Yu Gothic_MSFontService,sans-serif" font-weight="700" font-size="48" transform="translate(570.701 296)">1</text><path d="M584.5 411C584.5 395.26 597.484 382.5 613.5 382.5 629.516 382.5 642.5 395.26 642.5 411 642.5 426.74 629.516 439.5 613.5 439.5 597.484 439.5 584.5 426.74 584.5 411Z" stroke="#2F528F" stroke-width="1.33333" stroke-miterlimit="8" fill="#4472C4" fill-rule="evenodd"/><text fill="#FFFFFF" font-family="Yu Gothic,Yu Gothic_MSFontService,sans-serif" font-weight="700" font-size="48" transform="translate(599.599 426)">2</text><path d="M681 465.5C681 419.384 714.579 382 756 382 797.421 382 831 419.384 831 465.5 831 511.616 797.421 549 756 549 714.579 549 681 511.616 681 465.5Z" fill="#ED7D31" fill-rule="evenodd" fill-opacity="0.701961"/><text fill="#FFFFFF" font-family="Yu Gothic,Yu Gothic_MSFontService,sans-serif" font-weight="700" font-size="72" transform="translate(728.325 488)">D</text></g></svg>