<svg width="547" height="712" xmlns="http://www.w3.org/2000/svg" xmlns:xlink="http://www.w3.org/1999/xlink" overflow="hidden"><defs><clipPath id="clip0"><rect x="307" y="19" width="547" height="712"/></clipPath></defs><g clip-path="url(#clip0)" transform="translate(-307 -19)"><path d="M429.426 87.9814C407.522 70.7321 315.677 37.2387 310 22.9427L379.172 22C389.358 23.7281 395.109 45.2506 407.655 54.0481 420.201 62.8456 445.124 62.8457 454.448 74.7851L470.724 117.202 509.862 94.5795 588.724 101.178 841 289.696 610.164 500.837 587.118 502.193C587.138 508.932 587.158 515.671 587.178 522.41L355.028 728 431.699 469.73 452.93 339.653 422.262 230.312 456.469 134.168C457.663 110.446 453.838 106.519 429.426 87.9814Z" stroke="#70AD47" stroke-width="4" stroke-linejoin="round" stroke-miterlimit="10" fill="none" fill-rule="evenodd"/><path d="M591 503C587.749 500.425 583.022 497.235 580.059 493.714 579.07 492.539 578.207 491.259 577.323 490 576.687 489.092 576.202 488.072 575.5 487.214 574.674 486.205 573.677 485.357 572.765 484.428 572.157 481.643 571.947 478.735 570.941 476.071 570.396 474.627 569.089 473.616 568.206 472.357 566.474 469.888 566.711 469.541 564.559 467.714 558.572 462.633 562.551 466.598 560 464" stroke="#BDD7EE" stroke-width="8" stroke-miterlimit="8" fill="none" fill-rule="evenodd"/><path d="M666 160C661.726 161.241 657.373 162.231 653.177 163.724 647.249 165.833 649.242 166.784 644.018 167.448 631.229 169.073 607.613 169.078 599.137 169.31 597.306 169.621 595.427 169.723 593.642 170.241 591.134 170.97 588.895 172.649 586.314 173.035 578.438 174.212 570.438 174.276 562.5 174.897 561.279 175.207 560.047 175.476 558.837 175.828 557.908 176.097 557.048 176.644 556.089 176.759 551.833 177.268 547.54 177.379 543.266 177.69 541.054 179.188 538.696 181.063 535.938 181.414 534.98 181.535 534.107 180.793 533.191 180.483 527.084 181.414 520.955 182.2 514.872 183.276 513.921 183.444 512.988 183.768 512.124 184.207 511.14 184.707 510.462 185.885 509.377 186.069 503.759 187.021 490.487 187 496.554 187" stroke="#BDD7EE" stroke-width="8" stroke-miterlimit="8" fill="none" fill-rule="evenodd"/><path d="M478.696 200C477.709 201.958 476.433 203.798 475.736 205.875 474.777 208.73 474.444 211.756 473.762 214.688 473.457 216 473.309 217.368 472.775 218.605 471.327 221.96 469.486 225.134 467.841 228.398 468.499 237.211 468.743 246.064 469.815 254.837 470.065 256.886 471.284 258.709 471.788 260.712 472.725 264.428 472.657 267.827 473.762 271.484 474.271 273.167 475.078 274.748 475.736 276.38 476.222 279.273 476.728 283.25 477.709 286.172 478.598 288.818 479.724 291.38 480.67 294.006 483.503 301.879 481.126 297.874 485.603 303.798 485.932 305.43 485.929 307.165 486.59 308.694 486.957 309.543 488.148 309.827 488.564 310.653 489.17 311.857 489 313.34 489.551 314.57 490.329 316.309 491.524 317.834 492.511 319.466 492.84 320.772 493.318 322.049 493.498 323.383 493.978 326.956 493.723 330.629 494.484 334.154 494.733 335.305 495.8 336.113 496.458 337.092 496.787 345.905 496.938 354.726 497.445 363.531 497.596 366.158 498.432 368.733 498.432 371.365 498.432 399.904 500.924 392.11 495.471 405.638 495.142 408.902 494.987 412.188 494.484 415.43 494.11 417.845 491.184 422.961 490.537 424.243 488.789 436.388 490.625 425.854 487.577 437.953 487.17 439.567 487.154 441.281 486.59 442.849 485.501 445.876 483.763 448.645 482.643 451.662 481.456 454.859 480.769 458.221 479.683 461.454 479.123 463.121 478.367 464.718 477.709 466.35 477.38 468.309 477.319 470.33 476.722 472.226 470.87 490.81 474.723 473.062 467.841 492.789 466.171 497.578 465.133 502.562 463.894 507.478 463.159 510.397 462.615 513.361 461.921 516.291 460.077 524.066 460.922 523.163 456.987 529.021 456.729 529.405 456.329 529.674 456 530" stroke="#ED7D31" stroke-width="8" stroke-miterlimit="8" fill="none" fill-rule="evenodd"/><path d="M456.5 328C456.5 312.26 469.484 299.5 485.5 299.5 501.516 299.5 514.5 312.26 514.5 328 514.5 343.74 501.516 356.5 485.5 356.5 469.484 356.5 456.5 343.74 456.5 328Z" stroke="#2F528F" stroke-width="1.33333" stroke-miterlimit="8" fill="#4472C4" fill-rule="evenodd"/><text fill="#FFFFFF" font-family="Yu Gothic,Yu Gothic_MSFontService,sans-serif" font-weight="700" font-size="37" transform="translate(466.721 339)">１</text><path d="M595.5 535.5C595.5 519.484 608.484 506.5 624.5 506.5 640.516 506.5 653.5 519.484 653.5 535.5 653.5 551.516 640.516 564.5 624.5 564.5 608.484 564.5 595.5 551.516 595.5 535.5Z" stroke="#2F528F" stroke-width="1.33333" stroke-miterlimit="8" fill="#4472C4" fill-rule="evenodd"/><text fill="#FFFFFF" font-family="Yu Gothic,Yu Gothic_MSFontService,sans-serif" font-weight="700" font-size="37" transform="translate(613.031 546)">3</text><path d="M577.224 626 540 545.717 645.796 439 732 489.911" stroke="#A5A5A5" stroke-width="4" stroke-linejoin="round" stroke-miterlimit="10" stroke-dasharray="16 12" fill="none" fill-rule="evenodd"/><path d="M637.5 500.5C637.5 484.484 650.484 471.5 666.5 471.5 682.516 471.5 695.5 484.484 695.5 500.5 695.5 516.516 682.516 529.5 666.5 529.5 650.484 529.5 637.5 516.516 637.5 500.5Z" stroke="#787878" stroke-width="1.33333" stroke-miterlimit="8" fill="#A5A5A5" fill-rule="evenodd"/><text fill="#FFFFFF" font-family="Yu Gothic,Yu Gothic_MSFontService,sans-serif" font-weight="700" font-size="24" transform="translate(655.491 507)">iii</text><path d="M473.5 468.5C473.5 452.484 486.26 439.5 502 439.5 517.74 439.5 530.5 452.484 530.5 468.5 530.5 484.516 517.74 497.5 502 497.5 486.26 497.5 473.5 484.516 473.5 468.5Z" stroke="#787878" stroke-width="1.33333" stroke-miterlimit="8" fill="#A5A5A5" fill-rule="evenodd"/><text fill="#FFFFFF" font-family="Yu Gothic,Yu Gothic_MSFontService,sans-serif" font-weight="700" font-size="24" transform="translate(494.609 476)">ii</text><path d="M363.5 538.5C363.5 522.484 376.484 509.5 392.5 509.5 408.516 509.5 421.5 522.484 421.5 538.5 421.5 554.516 408.516 567.5 392.5 567.5 376.484 567.5 363.5 554.516 363.5 538.5Z" stroke="#787878" stroke-width="1.33333" stroke-miterlimit="8" fill="#A5A5A5" fill-rule="evenodd"/><text fill="#FFFFFF" font-family="Yu Gothic,Yu Gothic_MSFontService,sans-serif" font-weight="700" font-size="24" transform="translate(388.366 545)">i</text><path d="M646.5 393.5C646.5 377.484 659.484 364.5 675.5 364.5 691.516 364.5 704.5 377.484 704.5 393.5 704.5 409.516 691.516 422.5 675.5 422.5 659.484 422.5 646.5 409.516 646.5 393.5Z" stroke="#787878" stroke-width="1.33333" stroke-miterlimit="8" fill="#A5A5A5" fill-rule="evenodd"/><text fill="#FFFFFF" font-family="Yu Gothic,Yu Gothic_MSFontService,sans-serif" font-weight="700" font-size="24" transform="translate(665.18 400)">iv</text><path d="M657.5 314.5C657.5 298.484 670.26 285.5 686 285.5 701.74 285.5 714.5 298.484 714.5 314.5 714.5 330.516 701.74 343.5 686 343.5 670.26 343.5 657.5 330.516 657.5 314.5Z" stroke="#787878" stroke-width="1.33333" stroke-miterlimit="8" fill="#A5A5A5" fill-rule="evenodd"/><text fill="#FFFFFF" font-family="Yu Gothic,Yu Gothic_MSFontService,sans-serif" font-weight="700" font-size="24" transform="translate(679.069 322)">v</text><path d="M845.568 355.861 544 350" stroke="#A5A5A5" stroke-width="4" stroke-miterlimit="8" stroke-dasharray="16 12" fill="none" fill-rule="evenodd"/><path d="M0 0 308.921 45.7526" stroke="#A5A5A5" stroke-width="4" stroke-miterlimit="8" stroke-dasharray="16 12" fill="none" fill-rule="evenodd" transform="matrix(-1 0 0 1 852.921 203)"/><path d="M370 598 433.099 565.567 440 369 440 369 440 369" stroke="#A5A5A5" stroke-width="4" stroke-miterlimit="8" stroke-dasharray="16 12" fill="none" fill-rule="evenodd"/><path d="M686.5 131.5C686.5 115.484 699.484 102.5 715.5 102.5 731.516 102.5 744.5 115.484 744.5 131.5 744.5 147.516 731.516 160.5 715.5 160.5 699.484 160.5 686.5 147.516 686.5 131.5Z" stroke="#787878" stroke-width="1.33333" stroke-miterlimit="8" fill="#A5A5A5" fill-rule="evenodd"/><text fill="#FFFFFF" font-family="Yu Gothic,Yu Gothic_MSFontService,sans-serif" font-weight="700" font-size="24" transform="translate(705.488 138)">vi</text><path d="M0 0 75.6458 212.337" stroke="#A5A5A5" stroke-width="4" stroke-miterlimit="8" stroke-dasharray="16 12" fill="none" fill-rule="evenodd" transform="matrix(-1 0 0 1 605.646 34)"/><path d="M576.5 159.5C576.5 143.484 589.26 130.5 605 130.5 620.74 130.5 633.5 143.484 633.5 159.5 633.5 175.516 620.74 188.5 605 188.5 589.26 188.5 576.5 175.516 576.5 159.5Z" stroke="#2F528F" stroke-width="1.33333" stroke-miterlimit="8" fill="#4472C4" fill-rule="evenodd"/><text fill="#FFFFFF" font-family="Yu Gothic,Yu Gothic_MSFontService,sans-serif" font-weight="700" font-size="37" transform="translate(593.741 171)">2</text><path d="M473.5 139C473.5 123.26 486.26 110.5 502 110.5 517.74 110.5 530.5 123.26 530.5 139 530.5 154.74 517.74 167.5 502 167.5 486.26 167.5 473.5 154.74 473.5 139Z" stroke="#787878" stroke-width="1.33333" stroke-miterlimit="8" fill="#A5A5A5" fill-rule="evenodd"/><text fill="#FFFFFF" font-family="Yu Gothic,Yu Gothic_MSFontService,sans-serif" font-weight="700" font-size="19" transform="translate(491.109 144)">vii</text><path d="M440.5 600.5C440.5 584.484 453.484 571.5 469.5 571.5 485.516 571.5 498.5 584.484 498.5 600.5 498.5 616.516 485.516 629.5 469.5 629.5 453.484 629.5 440.5 616.516 440.5 600.5Z" stroke="#787878" stroke-width="1.33333" stroke-miterlimit="8" fill="#A5A5A5" fill-rule="evenodd"/><text fill="#FFFFFF" font-family="Yu Gothic,Yu Gothic_MSFontService,sans-serif" font-weight="700" font-size="15" transform="translate(458.279 605)">viii</text><path d="M539.468 545.87 481 517" stroke="#A5A5A5" stroke-width="4" stroke-miterlimit="8" stroke-dasharray="16 12" fill="none" fill-rule="evenodd"/><path d="M0 0 25.23 89.5884" stroke="#A5A5A5" stroke-width="4" stroke-miterlimit="8" stroke-dasharray="16 12" fill="none" fill-rule="evenodd" transform="matrix(1 0 0 -1 523 511.588)"/><path d="M564.5 436C564.5 420.26 577.484 407.5 593.5 407.5 609.516 407.5 622.5 420.26 622.5 436 622.5 451.74 609.516 464.5 593.5 464.5 577.484 464.5 564.5 451.74 564.5 436Z" stroke="#787878" stroke-width="1.33333" stroke-miterlimit="8" fill="#A5A5A5" fill-rule="evenodd"/><text fill="#FFFFFF" font-family="Yu Gothic,Yu Gothic_MSFontService,sans-serif" font-weight="700" font-size="19" transform="translate(583.184 441)">vx</text><path d="M595.5 245.5C595.5 229.484 608.484 216.5 624.5 216.5 640.516 216.5 653.5 229.484 653.5 245.5 653.5 261.516 640.516 274.5 624.5 274.5 608.484 274.5 595.5 261.516 595.5 245.5Z" stroke="#2F528F" stroke-width="1.33333" stroke-miterlimit="8" fill="#4472C4" fill-rule="evenodd"/><text fill="#FFFFFF" font-family="Yu Gothic,Yu Gothic_MSFontService,sans-serif" font-weight="700" font-size="37" transform="translate(610.865 256)">A</text></g></svg>