<svg width="537" height="712" xmlns="http://www.w3.org/2000/svg" xmlns:xlink="http://www.w3.org/1999/xlink" overflow="hidden"><defs><clipPath id="clip0"><rect x="307" y="19" width="537" height="712"/></clipPath></defs><g clip-path="url(#clip0)" transform="translate(-307 -19)"><path d="M429.426 87.9814C407.522 70.7321 315.677 37.2387 310 22.9427L379.172 22C389.358 23.7281 395.109 45.2506 407.655 54.0481 420.201 62.8456 445.124 62.8457 454.448 74.7851L470.724 117.202 509.862 94.5795 588.724 101.178 841 289.696 610.164 500.837 587.118 502.193C587.138 508.932 587.158 515.671 587.178 522.41L355.028 728 431.699 469.73 452.93 339.653 422.262 230.312 456.469 134.168C457.663 110.446 453.838 106.519 429.426 87.9814Z" stroke="#70AD47" stroke-width="4" stroke-linejoin="round" stroke-miterlimit="10" fill="none" fill-rule="evenodd"/><path d="M591 503C587.749 500.425 583.022 497.235 580.059 493.714 579.07 492.539 578.207 491.259 577.323 490 576.687 489.092 576.202 488.072 575.5 487.214 574.674 486.205 573.677 485.357 572.765 484.428 572.157 481.643 571.947 478.735 570.941 476.071 570.396 474.627 569.089 473.616 568.206 472.357 566.474 469.888 566.711 469.541 564.559 467.714 558.572 462.633 562.551 466.598 560 464" stroke="#BDD7EE" stroke-width="8" stroke-miterlimit="8" fill="none" fill-rule="evenodd"/><path d="M666 160C661.726 161.241 657.373 162.231 653.177 163.724 647.249 165.833 649.242 166.784 644.018 167.448 631.229 169.073 607.613 169.078 599.137 169.31 597.306 169.621 595.427 169.723 593.642 170.241 591.134 170.97 588.895 172.649 586.314 173.035 578.438 174.212 570.438 174.276 562.5 174.897 561.279 175.207 560.047 175.476 558.837 175.828 557.908 176.097 557.048 176.644 556.089 176.759 551.833 177.268 547.54 177.379 543.266 177.69 541.054 179.188 538.696 181.063 535.938 181.414 534.98 181.535 534.107 180.793 533.191 180.483 527.084 181.414 520.955 182.2 514.872 183.276 513.921 183.444 512.988 183.768 512.124 184.207 511.14 184.707 510.462 185.885 509.377 186.069 503.759 187.021 490.487 187 496.554 187" stroke="#BDD7EE" stroke-width="8" stroke-miterlimit="8" fill="none" fill-rule="evenodd"/><path d="M471 412 719.422 476.835" stroke="#A5A5A5" stroke-width="4" stroke-miterlimit="8" stroke-dasharray="16 12" fill="none" fill-rule="evenodd"/><path d="M554.5 383.5C554.5 367.484 567.484 354.5 583.5 354.5 599.516 354.5 612.5 367.484 612.5 383.5 612.5 399.516 599.516 412.5 583.5 412.5 567.484 412.5 554.5 399.516 554.5 383.5Z" stroke="#787878" stroke-width="1.33333" stroke-miterlimit="8" fill="#A5A5A5" fill-rule="evenodd"/><text fill="#FFFFFF" font-family="Yu Gothic,Yu Gothic_MSFontService,sans-serif" font-weight="700" font-size="37" transform="translate(569.576 395)">C</text><path d="M0 0 144.884 134.302" stroke="#A5A5A5" stroke-width="4" stroke-miterlimit="8" stroke-dasharray="16 12" fill="none" fill-rule="evenodd" transform="matrix(1 0 0 -1 677 363.302)"/><path d="M722.5 384.5C722.5 368.484 735.484 355.5 751.5 355.5 767.516 355.5 780.5 368.484 780.5 384.5 780.5 400.516 767.516 413.5 751.5 413.5 735.484 413.5 722.5 400.516 722.5 384.5Z" stroke="#787878" stroke-width="1.33333" stroke-miterlimit="8" fill="#A5A5A5" fill-rule="evenodd"/><text fill="#FFFFFF" font-family="Yu Gothic,Yu Gothic_MSFontService,sans-serif" font-weight="700" font-size="37" transform="translate(737.93 396)">C</text><path d="M392.5 117.5C392.5 101.484 405.484 88.5001 421.5 88.5001 437.516 88.5001 450.5 101.484 450.5 117.5 450.5 133.516 437.516 146.5 421.5 146.5 405.484 146.5 392.5 133.516 392.5 117.5Z" stroke="#787878" stroke-width="1.33333" stroke-miterlimit="8" fill="#A5A5A5" fill-rule="evenodd"/><text fill="#FFFFFF" font-family="Yu Gothic,Yu Gothic_MSFontService,sans-serif" font-weight="700" font-size="37" transform="translate(407.861 129)">C</text><path d="M0 0 69.4013 193.319" stroke="#A5A5A5" stroke-width="4" stroke-miterlimit="8" stroke-dasharray="16 12" fill="none" fill-rule="evenodd" transform="matrix(-1 0 0 1 536.401 477)"/><path d="M528.5 568.5C528.5 552.484 541.26 539.5 557 539.5 572.74 539.5 585.5 552.484 585.5 568.5 585.5 584.516 572.74 597.5 557 597.5 541.26 597.5 528.5 584.516 528.5 568.5Z" stroke="#787878" stroke-width="1.33333" stroke-miterlimit="8" fill="#A5A5A5" fill-rule="evenodd"/><text fill="#FFFFFF" font-family="Yu Gothic,Yu Gothic_MSFontService,sans-serif" font-weight="700" font-size="37" transform="translate(543.574 580)">A</text><path d="M428.5 574.5C428.5 558.484 441.484 545.5 457.5 545.5 473.516 545.5 486.5 558.484 486.5 574.5 486.5 590.516 473.516 603.5 457.5 603.5 441.484 603.5 428.5 590.516 428.5 574.5Z" stroke="#787878" stroke-width="1.33333" stroke-miterlimit="8" fill="#A5A5A5" fill-rule="evenodd"/><text fill="#FFFFFF" font-family="Yu Gothic,Yu Gothic_MSFontService,sans-serif" font-weight="700" font-size="37" transform="translate(443.879 585)">B</text><path d="M0 0 69.4013 193.319" stroke="#A5A5A5" stroke-width="4" stroke-miterlimit="8" stroke-dasharray="16 12" fill="none" fill-rule="evenodd" transform="matrix(-1 0 0 1 467.401 485)"/><path d="M676.517 363.455 489 303" stroke="#A5A5A5" stroke-width="4" stroke-miterlimit="8" stroke-dasharray="16 12" fill="none" fill-rule="evenodd"/><path d="M0 0 20.9869 257.53" stroke="#A5A5A5" stroke-width="4" stroke-miterlimit="8" stroke-dasharray="16 12" fill="none" fill-rule="evenodd" transform="matrix(1 0 0 -1 502 303.53)"/><path d="M464 496 652.902 516.026" stroke="#A5A5A5" stroke-width="4" stroke-miterlimit="8" stroke-dasharray="16 12" fill="none" fill-rule="evenodd"/><path d="M513 210 742.488 288.202" stroke="#A5A5A5" stroke-width="4" stroke-miterlimit="8" stroke-dasharray="16 12" fill="none" fill-rule="evenodd"/><path d="M559.5 295.5C559.5 279.484 572.484 266.5 588.5 266.5 604.516 266.5 617.5 279.484 617.5 295.5 617.5 311.516 604.516 324.5 588.5 324.5 572.484 324.5 559.5 311.516 559.5 295.5Z" stroke="#787878" stroke-width="1.33333" stroke-miterlimit="8" fill="#A5A5A5" fill-rule="evenodd"/><text fill="#FFFFFF" font-family="Yu Gothic,Yu Gothic_MSFontService,sans-serif" font-weight="700" font-size="37" transform="translate(573.788 307)">D</text></g></svg>