<svg width="1082" height="713" xmlns="http://www.w3.org/2000/svg" xmlns:xlink="http://www.w3.org/1999/xlink" overflow="hidden"><defs><clipPath id="clip0"><rect x="99" y="3" width="1082" height="713"/></clipPath></defs><g clip-path="url(#clip0)" transform="translate(-99 -3)"><path d="M632.986 10 528.052 145.025 533.388 183.223 576.962 179.67 615.201 138.807 625.872 143.249 630.318 161.015 592.08 194.772 589.412 227.64 638.322 208.985 714.799 130.812 765.488 126.371 768.156 145.025 736.142 277.386 643.657 307.589 605.419 295.152 593.858 299.594 590.301 327.132 424.896 359.112 379.543 368.883 357.311 387.538 334.19 426.624 316.405 439.061 193.685 469.264 176.789 486.142 151.889 515.457 151 559.873 197.242 606.954 224.81 623.833 240.817 626.497 278.166 638.046 423.118 526.117 510.266 508.35 569.848 646.929 564.512 679.797 587.633 679.797 612.533 661.142 634.765 665.584 645.436 651.371 621.426 639.822 582.298 511.015 585.855 505.685 608.086 499.467 720.135 710 809.062 462.157 862.419 404.416 914.886 396.421 981.581 400.863 1002.92 429.289 1040.27 480.812C1039.98 505.685 1057.17 531.743 1039.38 555.431L963.796 604.289 922 628.274 893.543 670.914 917.554 691.345 1011.82 694.898 1092.74 687.792 1179 620.279" stroke="#70AD47" stroke-width="4" stroke-miterlimit="8" fill="none" fill-rule="evenodd"/><path d="M571 142C575.151 135.786 575.913 134.312 581.677 127.793 583.62 125.596 585.966 123.777 587.906 121.578 592.496 116.372 598.144 111.798 601.252 105.595 603.695 100.72 602.236 103.103 605.701 98.492 605.997 97.0122 605.94 95.4151 606.591 94.0525 609.36 88.249 612.957 81.5524 617.268 76.2941 618.999 74.1822 620.673 72.0083 622.606 70.0787 623.655 69.0323 625.057 68.3982 626.165 67.415 627.733 66.0246 628.952 64.2514 630.614 62.9753 632.832 61.273 635.592 60.3343 637.732 58.5358 641.261 55.57 644.154 51.9177 647.52 48.7687 662.573 34.6851 641.913 54.801 656.417 42.5533 658.979 40.3903 660.805 37.3963 663.535 35.45 668.008 32.2621 669.72 30.7919 674.213 28.3466 675.959 27.3958 677.896 26.7842 679.551 25.6828 684.184 22.6005 680.234 23.0191 684 23.0191" stroke="#ED7D31" stroke-width="8" stroke-miterlimit="8" fill="none" fill-rule="evenodd"/><path d="M284 500C285.465 501.489 286.697 503.26 288.394 504.468 289.686 505.388 291.526 505.293 292.788 506.255 293.96 507.149 294.591 508.605 295.424 509.83 297.228 512.479 298.939 515.192 300.697 517.872 302.09 519.997 305.607 525.178 306.848 527.702 307.846 529.731 308.562 531.892 309.485 533.957 310.027 535.17 310.726 536.307 311.242 537.532 314.5 545.262 310.171 536.247 313 542" stroke="#ED7D31" stroke-width="8" stroke-miterlimit="8" fill="none" fill-rule="evenodd"/><path d="M549 516C556.912 529.246 548.537 514.493 552.556 523.143 554.237 526.761 556.632 530.069 557.889 533.857 558.481 535.643 558.906 537.494 559.667 539.214 560.101 540.195 561.002 540.916 561.444 541.893 562.492 544.208 563.114 546.699 564.111 549.036 564.894 550.871 566.04 552.539 566.778 554.393 567.822 557.014 568.72 559.7 569.444 562.429 569.909 564.178 569.64 566.115 570.333 567.786 571.155 569.767 573.889 573.143 573.889 573.143 574.185 574.036 574.52 574.917 574.778 575.821 575.113 577.001 575.185 578.265 575.667 579.393 576.087 580.379 576.967 581.112 577.444 582.071 578.158 583.505 578.718 585.015 579.222 586.536 579.904 588.591 580.263 590.75 581 592.786 581.453 594.037 582.229 595.145 582.778 596.357 583.711 598.421 584.664 600.48 585.444 602.607 586.74 606.14 587.815 609.75 589 613.321 589.593 615.107 590.082 616.931 590.778 618.679 591.37 620.167 591.908 621.678 592.556 623.143 593.094 624.359 593.914 625.452 594.333 626.714 595.106 629.042 595.519 631.476 596.111 633.857 596.407 635.048 597 636.201 597 637.429L597 641" stroke="#ED7D31" stroke-width="8" stroke-miterlimit="8" fill="none" fill-rule="evenodd"/><path d="M460.316 194.167 429 242.046 451.368 254.459 441.526 289.038C447.007 289.999 444.695 299.309 454.276 301.562 463.857 303.816 466.057 296.759 471.947 294.358L492.75 273.078 490.401 263.99 499.572 260.444 514 226.973 482.684 211.9 485.033 189.734C483.169 188.662 484.026 180.996 480.783 179.537 477.539 178.078 469.412 179.943 465.572 180.978L460.316 194.167Z" stroke="#70AD47" stroke-width="4" stroke-miterlimit="8" fill="none" fill-rule="evenodd"/><path d="M463.803 216C460.173 225.358 460.268 223.344 462.944 239.902 464.241 247.923 466.007 244.792 468.096 249.639 468.831 251.345 469.656 253.092 469.813 254.951 470.234 259.948 469.813 264.984 469.813 270" stroke="#ED7D31" stroke-width="8" stroke-miterlimit="8" fill="none" fill-rule="evenodd"/><path d="M527 344C528.273 347.168 529.67 351.965 532.333 354.615 533.466 355.743 535 356.385 536.333 357.269 537.222 358.596 537.945 360.05 539 361.25 541.07 363.604 543.781 365.383 545.667 367.885 546.51 369.004 546.556 370.538 547 371.865 547.444 377.615 547.265 383.447 548.333 389.115 548.629 390.683 550.205 391.712 551 393.096 551.986 394.814 552.778 396.635 553.667 398.404L555 413" stroke="#BDD7EE" stroke-width="8" stroke-miterlimit="8" fill="none" fill-rule="evenodd"/><path d="M797 488C785 487.127 772.977 486.52 761 485.382 759.176 485.208 757.464 484.425 755.667 484.073 750.794 483.116 745.889 482.327 741 481.454 731.222 481.891 721.452 482.992 711.667 482.763 702.736 482.555 693.916 480.692 685 480.145 679.677 479.818 674.333 480.145 669 480.145" stroke="#BDD7EE" stroke-width="8" stroke-miterlimit="8" fill="none" fill-rule="evenodd"/><path d="M474.86 497C472.635 496.119 469.88 496.035 468.186 494.358 466.888 493.075 466.851 490.89 466.851 489.075 466.851 477.947 462.852 467.498 472.19 461.338 473.361 460.565 474.965 460.693 476.195 460.017 479 458.475 481.072 455.422 484.204 454.734 488.209 453.853 492.239 453.076 496.218 452.092 502.566 450.522 498.072 450.686 505.563 449.45 540.375 443.709 496.522 451.797 524.251 446.809 528.778 445.994 535.936 444.256 540.27 444.167 558.509 443.791 576.757 444.167 595 444.167" stroke="#ED7D31" stroke-width="8" stroke-miterlimit="8" fill="none" fill-rule="evenodd"/><path d="M653 437C655.229 435.248 657.193 433.107 659.688 431.745 661.296 430.868 663.311 431.048 665.039 430.431 668.231 429.291 671.205 427.611 674.403 426.489 677.46 425.417 680.727 424.981 683.767 423.862 687.879 422.347 691.627 419.931 695.806 418.607 706.132 415.335 723.562 411.134 735.937 408.096 739.504 407.22 743.196 406.736 746.638 405.468 758.66 401.041 753.726 402.71 761.353 400.213 770.717 400.651 780.491 398.798 789.445 401.527 794.263 402.995 796.579 408.534 800.146 412.037 802.283 414.136 808.857 420.302 809.51 422.548 810.612 426.338 809.51 430.431 809.51 434.372" stroke="#ED7D31" stroke-width="8" stroke-miterlimit="8" fill="none" fill-rule="evenodd"/><path d="M540.5 584.5C540.5 568.484 553.26 555.5 569 555.5 584.74 555.5 597.5 568.484 597.5 584.5 597.5 600.516 584.74 613.5 569 613.5 553.26 613.5 540.5 600.516 540.5 584.5Z" stroke="#2F528F" stroke-width="1.33333" stroke-miterlimit="8" fill="#4472C4" fill-rule="evenodd"/><text fill="#FFFFFF" font-family="Yu Gothic,Yu Gothic_MSFontService,sans-serif" font-weight="700" font-size="37" transform="translate(549.769 596)">１</text><path d="M472.5 459.5C472.5 443.484 485.484 430.5 501.5 430.5 517.516 430.5 530.5 443.484 530.5 459.5 530.5 475.516 517.516 488.5 501.5 488.5 485.484 488.5 472.5 475.516 472.5 459.5Z" stroke="#2F528F" stroke-width="1.33333" stroke-miterlimit="8" fill="#4472C4" fill-rule="evenodd"/><text fill="#FFFFFF" font-family="Yu Gothic,Yu Gothic_MSFontService,sans-serif" font-weight="700" font-size="37" transform="translate(490.677 470)">2</text><path d="M261.5 471C261.5 455.26 274.484 442.5 290.5 442.5 306.516 442.5 319.5 455.26 319.5 471 319.5 486.74 306.516 499.5 290.5 499.5 274.484 499.5 261.5 486.74 261.5 471Z" stroke="#2F528F" stroke-width="1.33333" stroke-miterlimit="8" fill="#4472C4" fill-rule="evenodd"/><text fill="#FFFFFF" font-family="Yu Gothic,Yu Gothic_MSFontService,sans-serif" font-weight="700" font-size="37" transform="translate(279.392 482)">3</text><path d="M725.5 401.5C725.5 385.484 738.484 372.5 754.5 372.5 770.516 372.5 783.5 385.484 783.5 401.5 783.5 417.516 770.516 430.5 754.5 430.5 738.484 430.5 725.5 417.516 725.5 401.5Z" stroke="#2F528F" stroke-width="1.33333" stroke-miterlimit="8" fill="#4472C4" fill-rule="evenodd"/><text fill="#FFFFFF" font-family="Yu Gothic,Yu Gothic_MSFontService,sans-serif" font-weight="700" font-size="37" transform="translate(743.565 412)">4</text><path d="M387.5 245.5C387.5 229.484 400.484 216.5 416.5 216.5 432.516 216.5 445.5 229.484 445.5 245.5 445.5 261.516 432.516 274.5 416.5 274.5 400.484 274.5 387.5 261.516 387.5 245.5Z" stroke="#2F528F" stroke-width="1.33333" stroke-miterlimit="8" fill="#4472C4" fill-rule="evenodd"/><text fill="#FFFFFF" font-family="Yu Gothic,Yu Gothic_MSFontService,sans-serif" font-weight="700" font-size="37" transform="translate(405.651 257)">5</text><path d="M606.5 83.5001C606.5 67.4838 619.484 54.5001 635.5 54.5001 651.516 54.5001 664.5 67.4838 664.5 83.5001 664.5 99.5163 651.516 112.5 635.5 112.5 619.484 112.5 606.5 99.5163 606.5 83.5001Z" stroke="#2F528F" stroke-width="1.33333" stroke-miterlimit="8" fill="#4472C4" fill-rule="evenodd"/><text fill="#FFFFFF" font-family="Yu Gothic,Yu Gothic_MSFontService,sans-serif" font-weight="700" font-size="37" transform="translate(623.991 94)">6</text><path d="M502.5 316.5C502.5 300.484 515.484 287.5 531.5 287.5 547.516 287.5 560.5 300.484 560.5 316.5 560.5 332.516 547.516 345.5 531.5 345.5 515.484 345.5 502.5 332.516 502.5 316.5Z" stroke="#2F528F" stroke-width="1.33333" stroke-miterlimit="8" fill="#4472C4" fill-rule="evenodd"/><text fill="#FFFFFF" font-family="Yu Gothic,Yu Gothic_MSFontService,sans-serif" font-weight="700" font-size="37" transform="translate(520.127 328)">8</text><path d="M789.5 501C789.5 485.26 802.484 472.5 818.5 472.5 834.516 472.5 847.5 485.26 847.5 501 847.5 516.74 834.516 529.5 818.5 529.5 802.484 529.5 789.5 516.74 789.5 501Z" stroke="#2F528F" stroke-width="1.33333" stroke-miterlimit="8" fill="#4472C4" fill-rule="evenodd"/><text fill="#FFFFFF" font-family="Yu Gothic,Yu Gothic_MSFontService,sans-serif" font-weight="700" font-size="37" transform="translate(807.238 512)">9</text><path d="M0 0 104.889 135.111" stroke="#70AD47" stroke-width="12" stroke-miterlimit="8" fill="none" fill-rule="evenodd" transform="matrix(-1 0 0 1 632.889 10)"/><path d="M0 0 41.7777 46.2222" stroke="#70AD47" stroke-width="12" stroke-miterlimit="8" fill="none" fill-rule="evenodd" transform="matrix(-1 0 0 1 193.778 469)"/><path d="M515.5 57.5001C515.5 41.4838 528.484 28.5001 544.5 28.5001 560.516 28.5001 573.5 41.4838 573.5 57.5001 573.5 73.5163 560.516 86.5001 544.5 86.5001 528.484 86.5001 515.5 73.5163 515.5 57.5001Z" stroke="#507E32" stroke-width="1.33333" stroke-miterlimit="8" fill="#70AD47" fill-rule="evenodd"/><text fill="#FFFFFF" font-family="Yu Gothic,Yu Gothic_MSFontService,sans-serif" font-weight="700" font-size="37" transform="translate(525.342 68)">β</text><path d="M112.5 469.5C112.5 453.484 125.26 440.5 141 440.5 156.74 440.5 169.5 453.484 169.5 469.5 169.5 485.516 156.74 498.5 141 498.5 125.26 498.5 112.5 485.516 112.5 469.5Z" stroke="#507E32" stroke-width="1.33333" stroke-miterlimit="8" fill="#70AD47" fill-rule="evenodd"/><text fill="#FFFFFF" font-family="Yu Gothic,Yu Gothic_MSFontService,sans-serif" font-weight="700" font-size="37" transform="translate(121.915 481)">α</text><path d="M456.809 568.824 101 508" stroke="#A5A5A5" stroke-width="4" stroke-miterlimit="8" stroke-dasharray="16 12" fill="none" fill-rule="evenodd"/><path d="M0 0 550.667 123.39" stroke="#A5A5A5" stroke-width="4" stroke-miterlimit="8" stroke-dasharray="16 12" fill="none" fill-rule="evenodd" transform="matrix(-1 0 0 1 1105.67 71)"/><path d="M653.555 619.727 586 276" stroke="#A5A5A5" stroke-width="4" stroke-miterlimit="8" stroke-dasharray="16 12" fill="none" fill-rule="evenodd"/><path d="M214.5 577.5C214.5 561.484 227.484 548.5 243.5 548.5 259.516 548.5 272.5 561.484 272.5 577.5 272.5 593.516 259.516 606.5 243.5 606.5 227.484 606.5 214.5 593.516 214.5 577.5Z" stroke="#787878" stroke-width="1.33333" stroke-miterlimit="8" fill="#A5A5A5" fill-rule="evenodd"/><text fill="#FFFFFF" font-family="Yu Gothic,Yu Gothic_MSFontService,sans-serif" font-weight="700" font-size="24" transform="translate(239.3 584)">i</text><path d="M331.5 455.5C331.5 439.484 344.484 426.5 360.5 426.5 376.516 426.5 389.5 439.484 389.5 455.5 389.5 471.516 376.516 484.5 360.5 484.5 344.484 484.5 331.5 471.516 331.5 455.5Z" stroke="#787878" stroke-width="1.33333" stroke-miterlimit="8" fill="#A5A5A5" fill-rule="evenodd"/><text fill="#FFFFFF" font-family="Yu Gothic,Yu Gothic_MSFontService,sans-serif" font-weight="700" font-size="24" transform="translate(353.148 463)">ii</text><path d="M539.5 481.5C539.5 465.484 552.484 452.5 568.5 452.5 584.516 452.5 597.5 465.484 597.5 481.5 597.5 497.516 584.516 510.5 568.5 510.5 552.484 510.5 539.5 497.516 539.5 481.5Z" stroke="#787878" stroke-width="1.33333" stroke-miterlimit="8" fill="#A5A5A5" fill-rule="evenodd"/><text fill="#FFFFFF" font-family="Yu Gothic,Yu Gothic_MSFontService,sans-serif" font-weight="700" font-size="24" transform="translate(560.847 488)">ii</text><path d="M796.5 34.0001C796.5 18.2599 809.484 5.50005 825.5 5.50005 841.516 5.50005 854.5 18.2599 854.5 34.0001 854.5 49.7402 841.516 62.5001 825.5 62.5001 809.484 62.5001 796.5 49.7402 796.5 34.0001Z" stroke="#787878" stroke-width="1.33333" stroke-miterlimit="8" fill="#A5A5A5" fill-rule="evenodd"/><text fill="#FFFFFF" font-family="Yu Gothic,Yu Gothic_MSFontService,sans-serif" font-weight="700" font-size="24" transform="translate(814.814 41)">iv</text><path d="M818.5 331.5C818.5 315.484 831.484 302.5 847.5 302.5 863.516 302.5 876.5 315.484 876.5 331.5 876.5 347.516 863.516 360.5 847.5 360.5 831.484 360.5 818.5 347.516 818.5 331.5Z" stroke="#787878" stroke-width="1.33333" stroke-miterlimit="8" fill="#A5A5A5" fill-rule="evenodd"/><text fill="#FFFFFF" font-family="Yu Gothic,Yu Gothic_MSFontService,sans-serif" font-weight="700" font-size="24" transform="translate(836.552 338)">iii</text><path d="M1102.5 283.5C1102.5 267.484 1115.48 254.5 1131.5 254.5 1147.52 254.5 1160.5 267.484 1160.5 283.5 1160.5 299.516 1147.52 312.5 1131.5 312.5 1115.48 312.5 1102.5 299.516 1102.5 283.5Z" stroke="#787878" stroke-width="1.33333" stroke-miterlimit="8" fill="#A5A5A5" fill-rule="evenodd"/><text fill="#FFFFFF" font-family="Yu Gothic,Yu Gothic_MSFontService,sans-serif" font-weight="700" font-size="24" transform="translate(1120.45 291)">iii</text><path d="M1096.5 444.5C1096.5 428.484 1109.48 415.5 1125.5 415.5 1141.52 415.5 1154.5 428.484 1154.5 444.5 1154.5 460.516 1141.52 473.5 1125.5 473.5 1109.48 473.5 1096.5 460.516 1096.5 444.5Z" stroke="#787878" stroke-width="1.33333" stroke-miterlimit="8" fill="#A5A5A5" fill-rule="evenodd"/><text fill="#FFFFFF" font-family="Yu Gothic,Yu Gothic_MSFontService,sans-serif" font-weight="700" font-size="24" transform="translate(1114.63 451)">iii</text><path d="M133.086 261.118 321.269 137.428 309.879 120.099 367.316 131.977 355.439 189.413 344.049 172.084 155.866 295.775Z" stroke="#41719C" stroke-width="1.33333" stroke-miterlimit="8" fill="#5B9BD5" fill-rule="evenodd"/><path d="M193.5 216.5C193.5 188.886 215.886 166.5 243.5 166.5 271.114 166.5 293.5 188.886 293.5 216.5 293.5 244.114 271.114 266.5 243.5 266.5 215.886 266.5 193.5 244.114 193.5 216.5Z" stroke="#41719C" stroke-width="1.33333" stroke-miterlimit="8" fill="#5B9BD5" fill-rule="evenodd"/><text fill="#FFFFFF" font-family="Yu Gothic,Yu Gothic_MSFontService,sans-serif" font-weight="700" font-size="43" transform="translate(221.383 229)">γ</text><path d="M1047 471C1053.28 471.794 1062.69 472.524 1069.27 474.602 1071.42 475.284 1073.39 476.479 1075.5 477.304 1082.6 480.082 1089.58 483.224 1096.88 485.41L1120.92 492.614C1120.92 492.615 1138.73 498.018 1138.73 498.018 1141.11 498.618 1143.42 499.622 1145.86 499.819 1150.89 500.226 1155.95 499.819 1161 499.819" stroke="#ED7D31" stroke-width="8" stroke-miterlimit="8" fill="none" fill-rule="evenodd"/><path d="M1080.5 481.5C1080.5 465.484 1093.26 452.5 1109 452.5 1124.74 452.5 1137.5 465.484 1137.5 481.5 1137.5 497.516 1124.74 510.5 1109 510.5 1093.26 510.5 1080.5 497.516 1080.5 481.5Z" stroke="#2F528F" stroke-width="1.33333" stroke-miterlimit="8" fill="#4472C4" fill-rule="evenodd"/><text fill="#FFFFFF" font-family="Yu Gothic,Yu Gothic_MSFontService,sans-serif" font-weight="700" font-size="37" transform="translate(1097.85 492)">7</text><path d="M653.5 335.5C653.5 319.484 666.484 306.5 682.5 306.5 698.516 306.5 711.5 319.484 711.5 335.5 711.5 351.516 698.516 364.5 682.5 364.5 666.484 364.5 653.5 351.516 653.5 335.5Z" stroke="#2F528F" stroke-width="1.33333" stroke-miterlimit="8" fill="#4472C4" fill-rule="evenodd"/><text fill="#FFFFFF" font-family="Yu Gothic,Yu Gothic_MSFontService,sans-serif" font-weight="700" font-size="37" transform="translate(669.398 347)">A</text><path d="M815.5 230.5C815.5 214.484 828.26 201.5 844 201.5 859.74 201.5 872.5 214.484 872.5 230.5 872.5 246.516 859.74 259.5 844 259.5 828.26 259.5 815.5 246.516 815.5 230.5Z" stroke="#2F528F" stroke-width="1.33333" stroke-miterlimit="8" fill="#4472C4" fill-rule="evenodd"/><text fill="#FFFFFF" font-family="Yu Gothic,Yu Gothic_MSFontService,sans-serif" font-weight="700" font-size="37" transform="translate(830.324 241)">B</text><path d="M338.5 400.5C338.5 384.484 351.484 371.5 367.5 371.5 383.516 371.5 396.5 384.484 396.5 400.5 396.5 416.516 383.516 429.5 367.5 429.5 351.484 429.5 338.5 416.516 338.5 400.5Z" stroke="#2F528F" stroke-width="1.33333" stroke-miterlimit="8" fill="#4472C4" fill-rule="evenodd"/><text fill="#FFFFFF" font-family="Yu Gothic,Yu Gothic_MSFontService,sans-serif" font-weight="700" font-size="37" transform="translate(353.753 411)">C</text><path d="M416.5 642.5C416.5 614.886 438.886 592.5 466.5 592.5 494.114 592.5 516.5 614.886 516.5 642.5 516.5 670.114 494.114 692.5 466.5 692.5 438.886 692.5 416.5 670.114 416.5 642.5Z" stroke="#41719C" stroke-width="1.33333" stroke-miterlimit="8" fill="#5B9BD5" fill-rule="evenodd"/><text fill="#FFFFFF" font-family="Yu Gothic,Yu Gothic_MSFontService,sans-serif" font-weight="700" font-size="43" transform="translate(453.872 656)">a</text><path d="M872.5 527.5C872.5 499.886 894.886 477.5 922.5 477.5 950.114 477.5 972.5 499.886 972.5 527.5 972.5 555.114 950.114 577.5 922.5 577.5 894.886 577.5 872.5 555.114 872.5 527.5Z" stroke="#41719C" stroke-width="1.33333" stroke-miterlimit="8" fill="#5B9BD5" fill-rule="evenodd"/><text fill="#FFFFFF" font-family="Yu Gothic,Yu Gothic_MSFontService,sans-serif" font-weight="700" font-size="43" transform="translate(909.197 540)">b</text></g></svg>