<svg width="1033" height="708" xmlns="http://www.w3.org/2000/svg" xmlns:xlink="http://www.w3.org/1999/xlink" overflow="hidden"><defs><clipPath id="clip0"><rect x="148" y="8" width="1033" height="708"/></clipPath></defs><g clip-path="url(#clip0)" transform="translate(-148 -8)"><path d="M632.986 10 528.052 145.025 533.388 183.223 576.962 179.67 615.201 138.807 625.872 143.249 630.318 161.015 592.08 194.772 589.412 227.64 638.322 208.985 714.799 130.812 765.488 126.371 768.156 145.025 736.142 277.386 643.657 307.589 605.419 295.152 593.858 299.594 590.301 327.132 424.896 359.112 379.543 368.883 357.311 387.538 334.19 426.624 316.405 439.061 193.685 469.264 176.789 486.142 151.889 515.457 151 559.873 197.242 606.954 224.81 623.833 240.817 626.497 278.166 638.046 423.118 526.117 510.266 508.35 569.848 646.929 564.512 679.797 587.633 679.797 612.533 661.142 634.765 665.584 645.436 651.371 621.426 639.822 582.298 511.015 585.855 505.685 608.086 499.467 720.135 710 809.062 462.157 862.419 404.416 914.886 396.421 981.581 400.863 1002.92 429.289 1040.27 480.812C1039.98 505.685 1057.17 531.743 1039.38 555.431L963.796 604.289 922 628.274 893.543 670.914 917.554 691.345 1011.82 694.898 1092.74 687.792 1179 620.279" stroke="#70AD47" stroke-width="4" stroke-miterlimit="8" fill="none" fill-rule="evenodd"/><path d="M571 142C575.151 135.786 575.913 134.312 581.677 127.793 583.62 125.596 585.966 123.777 587.906 121.578 592.496 116.372 598.144 111.798 601.252 105.595 603.695 100.72 602.236 103.103 605.701 98.492 605.997 97.0122 605.94 95.4151 606.591 94.0525 609.36 88.249 612.957 81.5524 617.268 76.2941 618.999 74.1822 620.673 72.0083 622.606 70.0787 623.655 69.0323 625.057 68.3982 626.165 67.415 627.733 66.0246 628.952 64.2514 630.614 62.9753 632.832 61.273 635.592 60.3343 637.732 58.5358 641.261 55.57 644.154 51.9177 647.52 48.7687 662.573 34.6851 641.913 54.801 656.417 42.5533 658.979 40.3903 660.805 37.3963 663.535 35.45 668.008 32.2621 669.72 30.7919 674.213 28.3466 675.959 27.3958 677.896 26.7842 679.551 25.6828 684.184 22.6005 680.234 23.0191 684 23.0191" stroke="#ED7D31" stroke-width="8" stroke-miterlimit="8" fill="none" fill-rule="evenodd"/><path d="M284 500C285.465 501.489 286.697 503.26 288.394 504.468 289.686 505.388 291.526 505.293 292.788 506.255 293.96 507.149 294.591 508.605 295.424 509.83 297.228 512.479 298.939 515.192 300.697 517.872 302.09 519.997 305.607 525.178 306.848 527.702 307.846 529.731 308.562 531.892 309.485 533.957 310.027 535.17 310.726 536.307 311.242 537.532 314.5 545.262 310.171 536.247 313 542" stroke="#ED7D31" stroke-width="8" stroke-miterlimit="8" fill="none" fill-rule="evenodd"/><path d="M549 516C556.912 529.246 548.537 514.493 552.556 523.143 554.237 526.761 556.632 530.069 557.889 533.857 558.481 535.643 558.906 537.494 559.667 539.214 560.101 540.195 561.002 540.916 561.444 541.893 562.492 544.208 563.114 546.699 564.111 549.036 564.894 550.871 566.04 552.539 566.778 554.393 567.822 557.014 568.72 559.7 569.444 562.429 569.909 564.178 569.64 566.115 570.333 567.786 571.155 569.767 573.889 573.143 573.889 573.143 574.185 574.036 574.52 574.917 574.778 575.821 575.113 577.001 575.185 578.265 575.667 579.393 576.087 580.379 576.967 581.112 577.444 582.071 578.158 583.505 578.718 585.015 579.222 586.536 579.904 588.591 580.263 590.75 581 592.786 581.453 594.037 582.229 595.145 582.778 596.357 583.711 598.421 584.664 600.48 585.444 602.607 586.74 606.14 587.815 609.75 589 613.321 589.593 615.107 590.082 616.931 590.778 618.679 591.37 620.167 591.908 621.678 592.556 623.143 593.094 624.359 593.914 625.452 594.333 626.714 595.106 629.042 595.519 631.476 596.111 633.857 596.407 635.048 597 636.201 597 637.429L597 641" stroke="#ED7D31" stroke-width="8" stroke-miterlimit="8" fill="none" fill-rule="evenodd"/><path d="M460.316 194.167 429 242.046 451.368 254.459 441.526 289.038C447.007 289.999 444.695 299.309 454.276 301.562 463.857 303.816 466.057 296.759 471.947 294.358L492.75 273.078 490.401 263.99 499.572 260.444 514 226.973 482.684 211.9 485.033 189.734C483.169 188.662 484.026 180.996 480.783 179.537 477.539 178.078 469.412 179.943 465.572 180.978L460.316 194.167Z" stroke="#70AD47" stroke-width="4" stroke-miterlimit="8" fill="none" fill-rule="evenodd"/><path d="M463.803 216C460.173 225.358 460.268 223.344 462.944 239.902 464.241 247.923 466.007 244.792 468.096 249.639 468.831 251.345 469.656 253.092 469.813 254.951 470.234 259.948 469.813 264.984 469.813 270" stroke="#ED7D31" stroke-width="8" stroke-miterlimit="8" fill="none" fill-rule="evenodd"/><path d="M527 344C528.273 347.168 529.67 351.965 532.333 354.615 533.466 355.743 535 356.385 536.333 357.269 537.222 358.596 537.945 360.05 539 361.25 541.07 363.604 543.781 365.383 545.667 367.885 546.51 369.004 546.556 370.538 547 371.865 547.444 377.615 547.265 383.447 548.333 389.115 548.629 390.683 550.205 391.712 551 393.096 551.986 394.814 552.778 396.635 553.667 398.404L555 413" stroke="#BDD7EE" stroke-width="8" stroke-miterlimit="8" fill="none" fill-rule="evenodd"/><path d="M797 488C785 487.127 772.977 486.52 761 485.382 759.176 485.208 757.464 484.425 755.667 484.073 750.794 483.116 745.889 482.327 741 481.454 731.222 481.891 721.452 482.992 711.667 482.763 702.736 482.555 693.916 480.692 685 480.145 679.677 479.818 674.333 480.145 669 480.145" stroke="#BDD7EE" stroke-width="8" stroke-miterlimit="8" fill="none" fill-rule="evenodd"/><path d="M474.86 497C472.635 496.119 469.88 496.035 468.186 494.358 466.888 493.075 466.851 490.89 466.851 489.075 466.851 477.947 462.852 467.498 472.19 461.338 473.361 460.565 474.965 460.693 476.195 460.017 479 458.475 481.072 455.422 484.204 454.734 488.209 453.853 492.239 453.076 496.218 452.092 502.566 450.522 498.072 450.686 505.563 449.45 540.375 443.709 496.522 451.797 524.251 446.809 528.778 445.994 535.936 444.256 540.27 444.167 558.509 443.791 576.757 444.167 595 444.167" stroke="#ED7D31" stroke-width="8" stroke-miterlimit="8" fill="none" fill-rule="evenodd"/><path d="M653 437C655.229 435.248 657.193 433.107 659.688 431.745 661.296 430.868 663.311 431.048 665.039 430.431 668.231 429.291 671.205 427.611 674.403 426.489 677.46 425.417 680.727 424.981 683.767 423.862 687.879 422.347 691.627 419.931 695.806 418.607 706.132 415.335 723.562 411.134 735.937 408.096 739.504 407.22 743.196 406.736 746.638 405.468 758.66 401.041 753.726 402.71 761.353 400.213 770.717 400.651 780.491 398.798 789.445 401.527 794.263 402.995 796.579 408.534 800.146 412.037 802.283 414.136 808.857 420.302 809.51 422.548 810.612 426.338 809.51 430.431 809.51 434.372" stroke="#ED7D31" stroke-width="8" stroke-miterlimit="8" fill="none" fill-rule="evenodd"/><path d="M233.5 590.5C233.5 574.484 246.484 561.5 262.5 561.5 278.516 561.5 291.5 574.484 291.5 590.5 291.5 606.516 278.516 619.5 262.5 619.5 246.484 619.5 233.5 606.516 233.5 590.5Z" stroke="#787878" stroke-width="1.33333" stroke-miterlimit="8" fill="#A5A5A5" fill-rule="evenodd"/><text fill="#FFFFFF" font-family="Yu Gothic,Yu Gothic_MSFontService,sans-serif" font-weight="700" font-size="37" transform="translate(249.444 602)">A</text><path d="M173 428 379.338 591.468" stroke="#A5A5A5" stroke-width="4" stroke-miterlimit="8" stroke-dasharray="16 12" fill="none" fill-rule="evenodd"/><path d="M0 0 574.589 179.419" stroke="#A5A5A5" stroke-width="4" stroke-miterlimit="8" stroke-dasharray="16 12" fill="none" fill-rule="evenodd" transform="matrix(-1 0 0 1 836.589 311)"/><path d="M442.5 236.5C442.5 220.484 455.26 207.5 471 207.5 486.74 207.5 499.5 220.484 499.5 236.5 499.5 252.516 486.74 265.5 471 265.5 455.26 265.5 442.5 252.516 442.5 236.5Z" stroke="#787878" stroke-width="1.33333" stroke-miterlimit="8" fill="#A5A5A5" fill-rule="evenodd"/><text fill="#FFFFFF" font-family="Yu Gothic,Yu Gothic_MSFontService,sans-serif" font-weight="700" font-size="37" transform="translate(457.166 248)">B</text><path d="M573.5 328.5C573.5 312.484 586.484 299.5 602.5 299.5 618.516 299.5 631.5 312.484 631.5 328.5 631.5 344.516 618.516 357.5 602.5 357.5 586.484 357.5 573.5 344.516 573.5 328.5Z" stroke="#787878" stroke-width="1.33333" stroke-miterlimit="8" fill="#A5A5A5" fill-rule="evenodd"/><text fill="#FFFFFF" font-family="Yu Gothic,Yu Gothic_MSFontService,sans-serif" font-weight="700" font-size="37" transform="translate(588.815 340)">C</text><path d="M927.9 418.872 706 187" stroke="#A5A5A5" stroke-width="4" stroke-miterlimit="8" stroke-dasharray="16 12" fill="none" fill-rule="evenodd"/><path d="M611.5 465.5C611.5 449.484 624.26 436.5 640 436.5 655.74 436.5 668.5 449.484 668.5 465.5 668.5 481.516 655.74 494.5 640 494.5 624.26 494.5 611.5 481.516 611.5 465.5Z" stroke="#787878" stroke-width="1.33333" stroke-miterlimit="8" fill="#A5A5A5" fill-rule="evenodd"/><text fill="#FFFFFF" font-family="Yu Gothic,Yu Gothic_MSFontService,sans-serif" font-weight="700" font-size="37" transform="translate(625.148 477)">D</text><path d="M356 572 810.273 572" stroke="#A5A5A5" stroke-width="4" stroke-miterlimit="8" stroke-dasharray="16 12" fill="none" fill-rule="evenodd"/><path d="M669.5 628.5C669.5 612.484 682.484 599.5 698.5 599.5 714.516 599.5 727.5 612.484 727.5 628.5 727.5 644.516 714.516 657.5 698.5 657.5 682.484 657.5 669.5 644.516 669.5 628.5Z" stroke="#787878" stroke-width="1.33333" stroke-miterlimit="8" fill="#A5A5A5" fill-rule="evenodd"/><text fill="#FFFFFF" font-family="Yu Gothic,Yu Gothic_MSFontService,sans-serif" font-weight="700" font-size="37" transform="translate(685.398 639)">A</text><path d="M514.5 642.5C514.5 626.484 527.484 613.5 543.5 613.5 559.516 613.5 572.5 626.484 572.5 642.5 572.5 658.516 559.516 671.5 543.5 671.5 527.484 671.5 514.5 658.516 514.5 642.5Z" stroke="#787878" stroke-width="1.33333" stroke-miterlimit="8" fill="#A5A5A5" fill-rule="evenodd"/><text fill="#FFFFFF" font-family="Yu Gothic,Yu Gothic_MSFontService,sans-serif" font-weight="700" font-size="37" transform="translate(529.842 654)">A</text></g></svg>