<svg width="1033" height="708" xmlns="http://www.w3.org/2000/svg" xmlns:xlink="http://www.w3.org/1999/xlink" overflow="hidden"><defs><clipPath id="clip0"><rect x="148" y="8" width="1033" height="708"/></clipPath></defs><g clip-path="url(#clip0)" transform="translate(-148 -8)"><path d="M632.986 10 528.052 145.025 533.388 183.223 576.962 179.67 615.201 138.807 625.872 143.249 630.318 161.015 592.08 194.772 589.412 227.64 638.322 208.985 714.799 130.812 765.488 126.371 768.156 145.025 736.142 277.386 643.657 307.589 605.419 295.152 593.858 299.594 590.301 327.132 424.896 359.112 379.543 368.883 357.311 387.538 334.19 426.624 316.405 439.061 193.685 469.264 176.789 486.142 151.889 515.457 151 559.873 197.242 606.954 224.81 623.833 240.817 626.497 278.166 638.046 423.118 526.117 510.266 508.35 569.848 646.929 564.512 679.797 587.633 679.797 612.533 661.142 634.765 665.584 645.436 651.371 621.426 639.822 582.298 511.015 585.855 505.685 608.086 499.467 720.135 710 809.062 462.157 862.419 404.416 914.886 396.421 981.581 400.863 1002.92 429.289 1040.27 480.812C1039.98 505.685 1057.17 531.743 1039.38 555.431L963.796 604.289 922 628.274 893.543 670.914 917.554 691.345 1011.82 694.898 1092.74 687.792 1179 620.279" stroke="#70AD47" stroke-width="4" stroke-miterlimit="8" fill="none" fill-rule="evenodd"/><path d="M571 142C575.151 135.786 575.913 134.312 581.677 127.793 583.62 125.596 585.966 123.777 587.906 121.578 592.496 116.372 598.144 111.798 601.252 105.595 603.695 100.72 602.236 103.103 605.701 98.492 605.997 97.0122 605.94 95.4151 606.591 94.0525 609.36 88.249 612.957 81.5524 617.268 76.2941 618.999 74.1822 620.673 72.0083 622.606 70.0787 623.655 69.0323 625.057 68.3982 626.165 67.415 627.733 66.0246 628.952 64.2514 630.614 62.9753 632.832 61.273 635.592 60.3343 637.732 58.5358 641.261 55.57 644.154 51.9177 647.52 48.7687 662.573 34.6851 641.913 54.801 656.417 42.5533 658.979 40.3903 660.805 37.3963 663.535 35.45 668.008 32.2621 669.72 30.7919 674.213 28.3466 675.959 27.3958 677.896 26.7842 679.551 25.6828 684.184 22.6005 680.234 23.0191 684 23.0191" stroke="#ED7D31" stroke-width="8" stroke-miterlimit="8" fill="none" fill-rule="evenodd"/><path d="M284 500C285.465 501.489 286.697 503.26 288.394 504.468 289.686 505.388 291.526 505.293 292.788 506.255 293.96 507.149 294.591 508.605 295.424 509.83 297.228 512.479 298.939 515.192 300.697 517.872 302.09 519.997 305.607 525.178 306.848 527.702 307.846 529.731 308.562 531.892 309.485 533.957 310.027 535.17 310.726 536.307 311.242 537.532 314.5 545.262 310.171 536.247 313 542" stroke="#ED7D31" stroke-width="8" stroke-miterlimit="8" fill="none" fill-rule="evenodd"/><path d="M549 516C556.912 529.246 548.537 514.493 552.556 523.143 554.237 526.761 556.632 530.069 557.889 533.857 558.481 535.643 558.906 537.494 559.667 539.214 560.101 540.195 561.002 540.916 561.444 541.893 562.492 544.208 563.114 546.699 564.111 549.036 564.894 550.871 566.04 552.539 566.778 554.393 567.822 557.014 568.72 559.7 569.444 562.429 569.909 564.178 569.64 566.115 570.333 567.786 571.155 569.767 573.889 573.143 573.889 573.143 574.185 574.036 574.52 574.917 574.778 575.821 575.113 577.001 575.185 578.265 575.667 579.393 576.087 580.379 576.967 581.112 577.444 582.071 578.158 583.505 578.718 585.015 579.222 586.536 579.904 588.591 580.263 590.75 581 592.786 581.453 594.037 582.229 595.145 582.778 596.357 583.711 598.421 584.664 600.48 585.444 602.607 586.74 606.14 587.815 609.75 589 613.321 589.593 615.107 590.082 616.931 590.778 618.679 591.37 620.167 591.908 621.678 592.556 623.143 593.094 624.359 593.914 625.452 594.333 626.714 595.106 629.042 595.519 631.476 596.111 633.857 596.407 635.048 597 636.201 597 637.429L597 641" stroke="#ED7D31" stroke-width="8" stroke-miterlimit="8" fill="none" fill-rule="evenodd"/><path d="M460.316 194.167 429 242.046 451.368 254.459 441.526 289.038C447.007 289.999 444.695 299.309 454.276 301.562 463.857 303.816 466.057 296.759 471.947 294.358L492.75 273.078 490.401 263.99 499.572 260.444 514 226.973 482.684 211.9 485.033 189.734C483.169 188.662 484.026 180.996 480.783 179.537 477.539 178.078 469.412 179.943 465.572 180.978L460.316 194.167Z" stroke="#70AD47" stroke-width="4" stroke-miterlimit="8" fill="none" fill-rule="evenodd"/><path d="M463.803 216C460.173 225.358 460.268 223.344 462.944 239.902 464.241 247.923 466.007 244.792 468.096 249.639 468.831 251.345 469.656 253.092 469.813 254.951 470.234 259.948 469.813 264.984 469.813 270" stroke="#ED7D31" stroke-width="8" stroke-miterlimit="8" fill="none" fill-rule="evenodd"/><path d="M527 344C528.273 347.168 529.67 351.965 532.333 354.615 533.466 355.743 535 356.385 536.333 357.269 537.222 358.596 537.945 360.05 539 361.25 541.07 363.604 543.781 365.383 545.667 367.885 546.51 369.004 546.556 370.538 547 371.865 547.444 377.615 547.265 383.447 548.333 389.115 548.629 390.683 550.205 391.712 551 393.096 551.986 394.814 552.778 396.635 553.667 398.404L555 413" stroke="#BDD7EE" stroke-width="8" stroke-miterlimit="8" fill="none" fill-rule="evenodd"/><path d="M797 488C785 487.127 772.977 486.52 761 485.382 759.176 485.208 757.464 484.425 755.667 484.073 750.794 483.116 745.889 482.327 741 481.454 731.222 481.891 721.452 482.992 711.667 482.763 702.736 482.555 693.916 480.692 685 480.145 679.677 479.818 674.333 480.145 669 480.145" stroke="#BDD7EE" stroke-width="8" stroke-miterlimit="8" fill="none" fill-rule="evenodd"/><path d="M474.86 497C472.635 496.119 469.88 496.035 468.186 494.358 466.888 493.075 466.851 490.89 466.851 489.075 466.851 477.947 462.852 467.498 472.19 461.338 473.361 460.565 474.965 460.693 476.195 460.017 479 458.475 481.072 455.422 484.204 454.734 488.209 453.853 492.239 453.076 496.218 452.092 502.566 450.522 498.072 450.686 505.563 449.45 540.375 443.709 496.522 451.797 524.251 446.809 528.778 445.994 535.936 444.256 540.27 444.167 558.509 443.791 576.757 444.167 595 444.167" stroke="#ED7D31" stroke-width="8" stroke-miterlimit="8" fill="none" fill-rule="evenodd"/><path d="M653 437C655.229 435.248 657.193 433.107 659.688 431.745 661.296 430.868 663.311 431.048 665.039 430.431 668.231 429.291 671.205 427.611 674.403 426.489 677.46 425.417 680.727 424.981 683.767 423.862 687.879 422.347 691.627 419.931 695.806 418.607 706.132 415.335 723.562 411.134 735.937 408.096 739.504 407.22 743.196 406.736 746.638 405.468 758.66 401.041 753.726 402.71 761.353 400.213 770.717 400.651 780.491 398.798 789.445 401.527 794.263 402.995 796.579 408.534 800.146 412.037 802.283 414.136 808.857 420.302 809.51 422.548 810.612 426.338 809.51 430.431 809.51 434.372" stroke="#ED7D31" stroke-width="8" stroke-miterlimit="8" fill="none" fill-rule="evenodd"/><path d="M509.507 196.706C516.506 203.273 505.4 188.11 526.799 236.111 529.496 242.159 533.387 247.604 536.681 253.35 537.504 258.276 538.255 263.214 539.151 268.127 539.902 272.245 540.932 276.312 541.622 280.441 542.579 286.167 543.135 291.955 544.092 297.681 546.429 311.659 547.008 326.104 551.503 339.548 555.572 351.718 558.199 358.86 561.385 371.565 562.403 375.626 563.104 379.76 563.855 383.879 566.187 396.665 567.89 410.941 571.267 423.284 574.007 433.302 575.37 444.197 581.148 452.837L586.089 460.226C586.912 464.33 587.232 468.568 588.559 472.54 589.724 476.023 592.004 479.036 593.5 482.391 595.301 486.431 597.167 490.47 598.441 494.705 608.461 528.002 592.297 485.55 605.852 519.333 609.198 562.695 610.823 568.261 605.852 622.771 605.519 626.427 602.558 629.338 600.911 632.622 600.088 637.547 600.926 643.063 598.441 647.399 597.149 649.653 593.592 650.326 591.03 649.861 581.911 648.209 570.183 641.933 561.385 637.547 555.621 630.98 550.03 624.257 544.092 617.845 525.651 597.929 521.532 600.423 502.095 568.589 490.567 549.707 478.917 530.899 467.51 511.944 464.094 506.269 459.728 500.984 457.628 494.705 447.76 465.192 454.357 479.144 437.865 452.837 431.426 401.487 441.095 460.841 427.983 418.358 426.271 412.81 426.555 406.83 425.513 401.118 424.906 397.788 424.018 394.509 423.043 391.267 420.571 383.055 417.055 375.154 415.631 366.639 414.54 360.111 413.937 353.51 413.161 346.937 410.381 323.381 410.518 322.879 408.22 297.681 409.872 264.75 403.54 258.664 415.631 238.573 418.687 233.497 420.202 226.444 425.513 223.797 428.807 222.155 432.272 220.817 435.395 218.871 438.886 216.696 441.538 213.203 445.276 211.483 452.369 208.219 467.51 204.094 467.51 204.094 469.98 202.452 472.192 200.334 474.921 199.169 478.042 197.835 481.473 197.37 484.802 196.706 499.862 193.703 502.507 190.138 509.507 196.706Z" stroke="#ED7D31" stroke-width="8" stroke-miterlimit="8" stroke-dasharray="32 24" fill="none" fill-rule="evenodd"/><path d="M466.5 464.5C466.5 448.484 479.484 435.5 495.5 435.5 511.516 435.5 524.5 448.484 524.5 464.5 524.5 480.516 511.516 493.5 495.5 493.5 479.484 493.5 466.5 480.516 466.5 464.5Z" stroke="#2F528F" stroke-width="1.33333" stroke-miterlimit="8" fill="#4472C4" fill-rule="evenodd"/><text fill="#FFFFFF" font-family="Yu Gothic,Yu Gothic_MSFontService,sans-serif" font-weight="700" font-size="48" transform="translate(480.905 479)">2</text><path d="M417.5 441.5C417.5 425.484 430.484 412.5 446.5 412.5 462.516 412.5 475.5 425.484 475.5 441.5 475.5 457.516 462.516 470.5 446.5 470.5 430.484 470.5 417.5 457.516 417.5 441.5Z" stroke="#2F528F" stroke-width="1.33333" stroke-miterlimit="8" fill="#4472C4" fill-rule="evenodd"/><text fill="#FFFFFF" font-family="Yu Gothic,Yu Gothic_MSFontService,sans-serif" font-weight="700" font-size="48" transform="translate(432.529 457)">3</text><path d="M502 371.5C502 339.191 531.773 313 568.5 313 605.227 313 635 339.191 635 371.5 635 403.809 605.227 430 568.5 430 531.773 430 502 403.809 502 371.5Z" fill="#ED7D31" fill-rule="evenodd" fill-opacity="0.701961"/><text fill="#FFFFFF" font-family="Yu Gothic,Yu Gothic_MSFontService,sans-serif" font-weight="700" font-size="72" transform="translate(543.964 394)">A</text><path d="M528.5 233.5C528.5 217.484 541.26 204.5 557 204.5 572.74 204.5 585.5 217.484 585.5 233.5 585.5 249.516 572.74 262.5 557 262.5 541.26 262.5 528.5 249.516 528.5 233.5Z" stroke="#2F528F" stroke-width="1.33333" stroke-miterlimit="8" fill="#4472C4" fill-rule="evenodd"/><text fill="#FFFFFF" font-family="Yu Gothic,Yu Gothic_MSFontService,sans-serif" font-weight="700" font-size="48" transform="translate(542.762 248)">4</text><path d="M542 556.5C542 524.191 571.773 498 608.5 498 645.227 498 675 524.191 675 556.5 675 588.809 645.227 615 608.5 615 571.773 615 542 588.809 542 556.5Z" fill="#ED7D31" fill-rule="evenodd" fill-opacity="0.701961"/><text fill="#FFFFFF" font-family="Yu Gothic,Yu Gothic_MSFontService,sans-serif" font-weight="700" font-size="72" transform="translate(582.842 579)">C</text><path d="M251 475.5C251 443.191 280.773 417 317.5 417 354.227 417 384 443.191 384 475.5 384 507.809 354.227 534 317.5 534 280.773 534 251 507.809 251 475.5Z" fill="#ED7D31" fill-rule="evenodd" fill-opacity="0.701961"/><text fill="#FFFFFF" font-family="Yu Gothic,Yu Gothic_MSFontService,sans-serif" font-weight="700" font-size="72" transform="translate(289.771 498)">D</text><path d="M556.436 282.216C555.501 281.95 553.63 282.061 552.432 281.417 551.056 280.678 545.396 276.501 543.625 274.23 542.443 272.715 541.604 270.954 540.422 269.439 539.727 268.547 538.678 267.962 538.02 267.043 537.326 266.075 537.081 264.839 536.419 263.849 535.471 262.431 534.077 261.328 533.216 259.856 532.192 258.105 531.67 256.105 530.814 254.266 528.2 248.651 524.77 243.37 522.807 237.496 520.64 231.011 521.961 234.211 518.804 227.914 518.537 225.518 518.477 223.09 518.003 220.727 517.672 219.076 516.866 217.554 516.402 215.935 514.806 210.364 514.868 209.951 514 204.755 514.267 201.295 514.084 197.77 514.801 194.374 515.169 192.627 516.241 191.089 517.203 189.583 520.366 184.625 519.425 186.377 523.608 183.993 524.443 183.517 525.097 182.699 526.01 182.396 527.55 181.884 529.205 181.811 530.814 181.597 537.277 180.738 541.66 180.519 548.429 180 555.925 181.725 559.624 181.883 566.044 185.59 573.591 189.948 576.377 193.039 582.057 199.964 584.356 202.766 586.595 205.644 588.462 208.748 590.612 212.321 592.259 216.172 594.067 219.928 595.463 222.828 596.873 225.726 598.07 228.712 599.011 231.057 599.63 233.518 600.473 235.899 601.232 238.044 602.074 240.158 602.875 242.288 604.408 252.991 604.586 251.307 602.074 267.842 601.225 273.429 599.659 273.199 598.07 277.424 597.684 278.452 597.762 279.637 597.27 280.619 595.775 283.6 594.227 284.292 591.665 286.209 591.131 287.273 590.908 288.561 590.064 289.403 589.681 289.785 584.487 290.993 584.459 291 578.588 290.468 572.541 290.918 566.844 289.403 564.266 288.717 562.66 286.088 560.439 284.612 559.638 284.079 558.788 283.614 558.037 283.014 557.447 282.544 557.37 282.482 556.436 282.216Z" stroke="#4472C4" stroke-width="4" stroke-miterlimit="8" stroke-dasharray="16 12" fill="none" fill-rule="evenodd"/><path d="M369 363.5C369 331.191 398.773 305 435.5 305 472.227 305 502 331.191 502 363.5 502 395.809 472.227 422 435.5 422 398.773 422 369 395.809 369 363.5Z" fill="#ED7D31" fill-rule="evenodd" fill-opacity="0.701961"/><text fill="#FFFFFF" font-family="Yu Gothic,Yu Gothic_MSFontService,sans-serif" font-weight="700" font-size="72" transform="translate(410.091 386)">B</text><path d="M490.5 394C490.5 378.26 503.484 365.5 519.5 365.5 535.516 365.5 548.5 378.26 548.5 394 548.5 409.74 535.516 422.5 519.5 422.5 503.484 422.5 490.5 409.74 490.5 394Z" stroke="#2F528F" stroke-width="1.33333" stroke-miterlimit="8" fill="#4472C4" fill-rule="evenodd"/><text fill="#FFFFFF" font-family="Yu Gothic,Yu Gothic_MSFontService,sans-serif" font-weight="700" font-size="48" transform="translate(505.097 409)">1</text><path d="M1047 471C1053.28 471.794 1062.69 472.524 1069.27 474.602 1071.42 475.284 1073.39 476.479 1075.5 477.304 1082.6 480.082 1089.58 483.224 1096.88 485.41L1120.92 492.614C1120.92 492.615 1138.73 498.018 1138.73 498.018 1141.11 498.618 1143.42 499.622 1145.86 499.819 1150.89 500.226 1155.95 499.819 1161 499.819" stroke="#ED7D31" stroke-width="8" stroke-miterlimit="8" fill="none" fill-rule="evenodd"/><path d="M741.5 439.5C741.5 423.484 754.484 410.5 770.5 410.5 786.516 410.5 799.5 423.484 799.5 439.5 799.5 455.516 786.516 468.5 770.5 468.5 754.484 468.5 741.5 455.516 741.5 439.5Z" stroke="#2F528F" stroke-width="1.33333" stroke-miterlimit="8" fill="#4472C4" fill-rule="evenodd"/><text fill="#FFFFFF" font-family="Yu Gothic,Yu Gothic_MSFontService,sans-serif" font-weight="700" font-size="48" transform="translate(756.347 454)">5</text></g></svg>