<svg width="803" height="667" xmlns="http://www.w3.org/2000/svg" xmlns:xlink="http://www.w3.org/1999/xlink" overflow="hidden"><defs><clipPath id="clip0"><rect x="268" y="25" width="803" height="667"/></clipPath></defs><g clip-path="url(#clip0)" transform="translate(-268 -25)"><path d="M274 196.779 316.228 225.246 297.106 234.985 375.984 255.961 403.073 333.123 441.317 315.143 552.862 659 642.894 587.082 673.171 470.965 888.293 291.92 889.089 282.93 960.797 265.7 960.797 255.961 976.732 279.934 1058 182.545C975.986 168.62 869.311 160.577 811.959 140.769 754.607 120.961 739.233 114.092 713.888 92.3859L679.138 28 541.165 29.4027C504.249 48.1313 459.519 128.731 410.754 161.409 361.989 194.087 331.733 191.896 274 196.779Z" stroke="#70AD47" stroke-width="4" stroke-miterlimit="8" fill="none" fill-rule="evenodd"/><path d="M690.054 579.682 642.275 675.033 714.817 684.446 735.159 664.044 690.054 579.682Z" stroke="#70AD47" stroke-width="4" stroke-miterlimit="8" fill="none" fill-rule="evenodd"/><path d="M381 272C382.086 269.285 384.37 263.173 386 261 387.697 258.737 390 257 392 255 403.79 243.21 383.129 264.092 399 247 401.887 243.891 405.35 241.313 408 238 411.615 233.481 414.273 229.782 419 226 420.667 224.667 422.239 223.205 424 222 428.579 218.867 434.39 217.212 438 213 440 210.667 441.628 207.954 444 206 447.355 203.237 451.325 201.321 455 199 457.659 197.321 460.776 196.224 463 194 464.667 192.333 466.114 190.414 468 189 470.555 187.084 477.91 183.545 481 182 482.333 180.333 483.564 178.579 485 177 486.903 174.907 489.173 173.159 491 171 492.852 168.811 494.134 166.177 496 164 498.147 161.495 500.575 159.238 503 157 504.913 155.234 507.345 154.01 509 152 512.056 148.289 513.35 143.129 517 140 526.706 131.681 523.772 135.291 532 122 533.556 119.487 541.171 105.488 542 103 542.667 101 543.394 99.0193 544 97 544.395 95.6836 545 93 545 93" stroke="#BDD7EE" stroke-width="8" stroke-miterlimit="8" fill="none" fill-rule="evenodd"/><path d="M937 271C936.333 254.667 936.106 238.31 935 222 934.426 213.54 933.715 212.945 930 207 929.363 205.981 928.596 205.043 928 204 927.26 202.706 926.894 201.193 926 200 924.129 197.505 919.354 193.766 917 192 916.039 191.279 915.105 190.473 914 190 912.856 189.51 905.777 188.129 905 188 882.033 184.172 890.557 185.253 868 184 862.574 182.915 863.169 183.349 858 181 855.964 180.075 854.121 178.707 852 178 850.076 177.359 847.993 177.374 846 177 842.659 176.374 839.285 175.876 836 175 834.266 174.538 832.681 173.63 831 173 830.013 172.63 829.014 172.29 828 172 826.679 171.622 825.287 171.483 824 171 822.604 170.477 821.425 169.438 820 169 817.063 168.096 813.955 167.844 811 167 809.274 166.507 807.681 165.63 806 165 801.268 163.226 804.551 165.034 800 162" stroke="#BDD7EE" stroke-width="8" stroke-miterlimit="8" fill="none" fill-rule="evenodd"/><path d="M857 319C854.667 313.334 853.04 307.321 850 302.001 848.941 300.148 846.509 299.51 845 298.001 844.15 297.151 843.85 295.851 843 295.001 841.159 293.16 838.946 291.731 837 290.002 835.943 289.062 835.116 287.87 834 287.002 829.425 283.444 825.306 281.478 820 279.002 813.616 276.023 813.288 276.098 807 274.002 801.499 268.502 806.948 272.841 799 270.003 795.908 268.899 793.114 267.041 790 266.003 788.076 265.362 785.988 265.401 784 265.003 782.652 264.733 781.364 264.173 780 264.003 771.114 262.892 770.538 263.003 764 263.003" stroke="#BDD7EE" stroke-width="8" stroke-miterlimit="8" fill="none" fill-rule="evenodd"/><path d="M481 42C494.062 43.244 512.219 44.7279 525 47 532.404 48.3163 539.577 50.7917 547 52 553.94 53.1299 560.994 53.3995 568 54 586.538 55.589 592.471 55.3173 615 56L736 55C740.013 54.9396 744.02 54.5192 748 54 765.162 51.7615 753.538 52 763 52" stroke="#ED7D31" stroke-width="8" stroke-miterlimit="8" fill="none" fill-rule="evenodd"/><path d="M500 371C500.724 389.823 500.557 394.125 502 410 502.273 413.006 502.573 416.012 503 419 503.978 425.85 503.604 421.881 505 427 505.723 429.652 506.333 432.333 507 435 507.667 441.333 508.21 447.681 509 454 509.333 456.667 509.519 459.356 510 462 510.189 463.037 510.744 463.977 511 465 511.412 466.649 511.618 468.344 512 470L515 482 516 486 517 490C517.333 493 517.321 496.059 518 499 518.335 500.452 519.465 501.609 520 503 521.135 505.951 522.07 508.978 523 512 523.404 513.314 523.517 514.713 524 516 524.523 517.396 525.333 518.667 526 520 526.333 525.333 526.244 530.71 527 536 527.254 537.777 528.528 539.268 529 541 529.534 542.956 529.318 545.091 530 547 531.003 549.808 533.277 552.108 534 555 534.333 556.333 534.517 557.713 535 559 536.28 562.414 537.187 563.099 539 566 540.03 567.648 541.056 569.301 542 571 542.724 572.303 543.413 573.63 544 575 544.415 575.969 545 578 545 578" stroke="#ED7D31" stroke-width="8" stroke-miterlimit="8" fill="none" fill-rule="evenodd"/><path d="M620 564C623.73 545.348 619.74 561.727 625 547 629.518 534.35 624.62 544.761 629 536 629.667 530.667 629.809 525.241 631 520 631.496 517.82 633.342 516.137 634 514 635.986 507.547 633.64 506.881 637 501 649.209 479.634 637.714 504.025 647 487 652.984 476.029 644.084 488.145 653 477 654.763 469.949 652.881 475.826 657 468 668.886 445.417 658.322 461.603 671 446 680.764 433.983 673.743 442.441 681 430 681.84 428.56 683.117 427.413 684 426 685.991 422.815 686.378 419.949 689 417 690.418 415.405 692.414 414.428 694 413 700.459 407.187 697.611 408.374 705 403 706.572 401.857 708.445 401.166 710 400L715 395" stroke="#ED7D31" stroke-width="8" stroke-miterlimit="8" fill="none" fill-rule="evenodd"/><path d="M930 212C931.667 210.333 933.946 209.108 935 207 936.054 204.892 935.125 202.188 936 200 937.168 197.08 939.416 194.716 941 192 941.751 190.712 942.018 189.122 943 188 944.405 186.394 946.394 185.405 948 184 954.445 178.361 963.987 168.047 973 163 979.245 159.503 985.21 155.263 992 153 994 152.333 996.073 151.856 998 151 999.098 150.512 999.851 149.353 1001 149 1004.25 148 1007.65 147.559 1011 147 1013.65 146.558 1019 146 1019 146" stroke="#BDD7EE" stroke-width="8" stroke-miterlimit="8" fill="none" fill-rule="evenodd"/><path d="M573.611 613.24 481 344" stroke="#A5A5A5" stroke-width="4" stroke-miterlimit="8" stroke-dasharray="16 12" fill="none" fill-rule="evenodd"/><path d="M0 0 165.194 293.8" stroke="#A5A5A5" stroke-width="4" stroke-miterlimit="8" stroke-dasharray="16 12" fill="none" fill-rule="evenodd" transform="matrix(1 0 0 -1 579 612.8)"/><path d="M0 0 61.1729 28.0332" stroke="#A5A5A5" stroke-width="4" stroke-miterlimit="8" stroke-dasharray="16 12" fill="none" fill-rule="evenodd" transform="matrix(1 0 0 -1 421 370.033)"/><path d="M0 0 26.332 71.7163" stroke="#A5A5A5" stroke-width="4" stroke-miterlimit="8" stroke-dasharray="16 12" fill="none" fill-rule="evenodd" transform="matrix(-1 0 0 1 571.332 617)"/><path d="M739 330 825.212 400.758" stroke="#A5A5A5" stroke-width="4" stroke-miterlimit="8" stroke-dasharray="16 12" fill="none" fill-rule="evenodd"/><path d="M0 0 36.9328 235.667" stroke="#A5A5A5" stroke-width="4" stroke-miterlimit="8" stroke-dasharray="16 12" fill="none" fill-rule="evenodd" transform="matrix(-1 0 0 1 644.933 319)"/><path d="M0 0 166.999 16.6406" stroke="#A5A5A5" stroke-width="4" stroke-miterlimit="8" stroke-dasharray="16 12" fill="none" fill-rule="evenodd" transform="matrix(-1 0 0 1 637.999 324)"/><path d="M679.667 197.094C673.222 197.094 653.876 197.69 641 198.425 638.301 198.579 635.66 199.273 633 199.756 625.882 201.048 618.638 201.816 611.667 203.748 602.593 206.264 593.268 208.563 585 213.065 580.111 215.727 575.573 219.168 570.333 221.05 564.346 223.202 557.889 223.712 551.667 225.043 546.778 227.262 542.251 230.575 537 231.698 529.599 233.281 521.876 232.401 514.333 233.029 511.201 233.289 508.111 233.916 505 234.36 489.691 243.529 507.487 233.976 490.333 239.683 487.505 240.625 485.183 242.801 482.333 243.676 480.831 244.138 463.146 246.186 462.333 246.338 458.731 247.012 455.222 248.113 451.667 249 445 248.556 438.218 248.977 431.667 247.669 429.125 247.162 427.123 245.16 425 243.676 422.669 242.047 420.431 240.272 418.333 238.353 415.09 235.385 412.661 231.472 409 229.036 402.435 224.668 406.954 228.314 401 221.05 398.405 217.885 395.431 215.027 393 211.734 389.198 206.583 386.866 200.287 382.333 195.763 373.996 187.441 379.388 193.945 374.333 185.115 371.52 180.201 371.198 181.649 369 175.799 368.357 174.086 368.064 172.261 367.667 170.475 366.107 163.469 366.113 162.282 365 154.504 365.444 142.969 364.825 131.344 366.333 119.9 367.102 114.071 371.256 102.934 375.667 97.2741 380.962 90.4782 388.841 86.5824 397 83.9648 403.888 81.7548 411.298 81.6574 418.333 79.972 422.433 78.9898 426.309 77.2346 430.333 75.9792 455.011 68.2812 425.826 77.4367 447.667 71.9864 463.13 68.1277 448.812 68.2362 473 67.9936L721 66.6627C723.222 65.7754 725.273 64.0008 727.667 64.0008 749.018 64.0008 770.499 63.8719 791.667 66.6627 795.557 67.1756 798.583 74.4156 801 77.3101 802.207 78.7561 803.988 79.7149 805 81.3029 812.796 93.5312 808.612 88.1262 811.667 97.2741 812.359 99.3464 815.042 105.118 815.667 107.922 816.253 110.556 816.556 113.245 817 115.907 815.667 130.104 815.414 144.443 813 158.497 812.681 160.352 810.637 161.556 809 162.49 807.866 163.136 797.551 164.986 797 165.151 794.708 165.838 792.52 166.843 790.333 167.813 788.517 168.619 786.845 169.738 785 170.475 770.746 176.167 777.063 170.444 755.667 181.123 754.687 181.612 746.593 186.122 743.667 186.446 737.026 187.183 730.333 187.334 723.667 187.777 721.889 188.221 720.125 188.725 718.333 189.108 713.901 190.056 705 191.77 705 191.77 696.128 196.198 703.339 193.183 693 195.763 691.637 196.103 690.378 196.819 689 197.094 685.918 197.709 682.555 197.189 679.667 198.425 678.85 198.774 686.111 197.094 679.667 197.094Z" stroke="#A5A5A5" stroke-width="4" stroke-miterlimit="8" stroke-dasharray="16 12" fill="none" fill-rule="evenodd"/><path d="M879.555 252.129C878.091 244.743 882.891 237.567 890.278 236.103L980.373 218.239C987.759 216.774 994.935 221.575 996.399 228.961L1007.01 282.458C1008.47 289.844 1003.67 297.019 996.284 298.484L906.189 316.348C898.802 317.813 891.627 313.012 890.162 305.626Z" stroke="#A5A5A5" stroke-width="4" stroke-miterlimit="8" stroke-dasharray="16 12" fill="none" fill-rule="evenodd"/><path d="M800.076 134.764C802.065 127.502 809.565 123.226 816.828 125.216L905.414 149.479C912.677 151.468 916.952 158.969 914.963 166.231L900.556 218.832C898.567 226.095 891.066 230.37 883.804 228.381L795.217 204.117C787.954 202.128 783.679 194.628 785.669 187.365Z" stroke="#A5A5A5" stroke-width="4" stroke-miterlimit="8" stroke-dasharray="16 12" fill="none" fill-rule="evenodd"/><path d="M938.323 172.191C935.213 168.187 935.937 162.419 939.941 159.309L1002.36 110.822C1006.36 107.711 1012.13 108.436 1015.24 112.44L1037.77 141.44C1040.88 145.445 1040.15 151.212 1036.15 154.323L973.734 202.81C969.73 205.92 963.962 205.196 960.851 201.191Z" stroke="#A5A5A5" stroke-width="4" stroke-miterlimit="8" stroke-dasharray="16 12" fill="none" fill-rule="evenodd"/><path d="M479.5 543.5C479.5 527.484 492.26 514.5 508 514.5 523.74 514.5 536.5 527.484 536.5 543.5 536.5 559.516 523.74 572.5 508 572.5 492.26 572.5 479.5 559.516 479.5 543.5Z" stroke="#787878" stroke-width="1.33333" stroke-miterlimit="8" fill="#A5A5A5" fill-rule="evenodd"/><text fill="#FFFFFF" font-family="Yu Gothic,Yu Gothic_MSFontService,sans-serif" font-weight="700" font-size="37" transform="translate(494.574 554)">A</text><path d="M638.5 541.5C638.5 525.484 651.484 512.5 667.5 512.5 683.516 512.5 696.5 525.484 696.5 541.5 696.5 557.516 683.516 570.5 667.5 570.5 651.484 570.5 638.5 557.516 638.5 541.5Z" stroke="#787878" stroke-width="1.33333" stroke-miterlimit="8" fill="#A5A5A5" fill-rule="evenodd"/><text fill="#FFFFFF" font-family="Yu Gothic,Yu Gothic_MSFontService,sans-serif" font-weight="700" font-size="37" transform="translate(654.371 552)">A</text><path d="M528.5 429.5C528.5 413.484 541.484 400.5 557.5 400.5 573.516 400.5 586.5 413.484 586.5 429.5 586.5 445.516 573.516 458.5 557.5 458.5 541.484 458.5 528.5 445.516 528.5 429.5Z" stroke="#787878" stroke-width="1.33333" stroke-miterlimit="8" fill="#A5A5A5" fill-rule="evenodd"/><text fill="#FFFFFF" font-family="Yu Gothic,Yu Gothic_MSFontService,sans-serif" font-weight="700" font-size="37" transform="translate(544.046 440)">B</text><path d="M581.5 139.5C581.5 123.484 594.26 110.5 610 110.5 625.74 110.5 638.5 123.484 638.5 139.5 638.5 155.516 625.74 168.5 610 168.5 594.26 168.5 581.5 155.516 581.5 139.5Z" stroke="#787878" stroke-width="1.33333" stroke-miterlimit="8" fill="#A5A5A5" fill-rule="evenodd"/><text fill="#FFFFFF" font-family="Yu Gothic,Yu Gothic_MSFontService,sans-serif" font-weight="700" font-size="37" transform="translate(596.109 151)">C</text><path d="M960.5 302.5C960.5 286.484 973.484 273.5 989.5 273.5 1005.52 273.5 1018.5 286.484 1018.5 302.5 1018.5 318.516 1005.52 331.5 989.5 331.5 973.484 331.5 960.5 318.516 960.5 302.5Z" stroke="#787878" stroke-width="1.33333" stroke-miterlimit="8" fill="#A5A5A5" fill-rule="evenodd"/><text fill="#FFFFFF" font-family="Yu Gothic,Yu Gothic_MSFontService,sans-serif" font-weight="700" font-size="37" transform="translate(974.621 313)">D</text><path d="M1007.5 139.5C1007.5 123.484 1020.48 110.5 1036.5 110.5 1052.52 110.5 1065.5 123.484 1065.5 139.5 1065.5 155.516 1052.52 168.5 1036.5 168.5 1020.48 168.5 1007.5 155.516 1007.5 139.5Z" stroke="#787878" stroke-width="1.33333" stroke-miterlimit="8" fill="#A5A5A5" fill-rule="evenodd"/><text fill="#FFFFFF" font-family="Yu Gothic,Yu Gothic_MSFontService,sans-serif" font-weight="700" font-size="37" transform="translate(1024.38 151)">F</text><path d="M858.5 124.5C858.5 108.484 871.484 95.5001 887.5 95.5001 903.516 95.5001 916.5 108.484 916.5 124.5 916.5 140.516 903.516 153.5 887.5 153.5 871.484 153.5 858.5 140.516 858.5 124.5Z" stroke="#787878" stroke-width="1.33333" stroke-miterlimit="8" fill="#A5A5A5" fill-rule="evenodd"/><text fill="#FFFFFF" font-family="Yu Gothic,Yu Gothic_MSFontService,sans-serif" font-weight="700" font-size="37" transform="translate(874.954 136)">E</text></g></svg>