<svg width="837" height="721" xmlns="http://www.w3.org/2000/svg" xmlns:xlink="http://www.w3.org/1999/xlink" overflow="hidden"><defs><clipPath id="clip0"><rect x="246" y="-17" width="837" height="721"/></clipPath></defs><g clip-path="url(#clip0)" transform="translate(-246 17)"><path d="M274 196.779 316.228 225.246 297.106 234.985 375.984 255.961 403.073 333.123 441.317 315.143 552.862 659 642.894 587.082 673.171 470.965 888.293 291.92 889.089 282.93 960.797 265.7 960.797 255.961 976.732 279.934 1058 182.545C975.986 168.62 869.311 160.577 811.959 140.769 754.607 120.961 739.233 114.092 713.888 92.3859L679.138 28 541.165 29.4027C504.249 48.1313 459.519 128.731 410.754 161.409 361.989 194.087 331.733 191.896 274 196.779Z" stroke="#70AD47" stroke-width="4" stroke-miterlimit="8" fill="none" fill-rule="evenodd"/><path d="M690.054 579.682 642.275 675.033 714.817 684.446 735.159 664.044 690.054 579.682Z" stroke="#70AD47" stroke-width="4" stroke-miterlimit="8" fill="none" fill-rule="evenodd"/><path d="M381 272C382.086 269.285 384.37 263.173 386 261 387.697 258.737 390 257 392 255 403.79 243.21 383.129 264.092 399 247 401.887 243.891 405.35 241.313 408 238 411.615 233.481 414.273 229.782 419 226 420.667 224.667 422.239 223.205 424 222 428.579 218.867 434.39 217.212 438 213 440 210.667 441.628 207.954 444 206 447.355 203.237 451.325 201.321 455 199 457.659 197.321 460.776 196.224 463 194 464.667 192.333 466.114 190.414 468 189 470.555 187.084 477.91 183.545 481 182 482.333 180.333 483.564 178.579 485 177 486.903 174.907 489.173 173.159 491 171 492.852 168.811 494.134 166.177 496 164 498.147 161.495 500.575 159.238 503 157 504.913 155.234 507.345 154.01 509 152 512.056 148.289 513.35 143.129 517 140 526.706 131.681 523.772 135.291 532 122 533.556 119.487 541.171 105.488 542 103 542.667 101 543.394 99.0193 544 97 544.395 95.6836 545 93 545 93" stroke="#BDD7EE" stroke-width="8" stroke-miterlimit="8" fill="none" fill-rule="evenodd"/><path d="M937 271C936.333 254.667 936.106 238.31 935 222 934.426 213.54 933.715 212.945 930 207 929.363 205.981 928.596 205.043 928 204 927.26 202.706 926.894 201.193 926 200 924.129 197.505 919.354 193.766 917 192 916.039 191.279 915.105 190.473 914 190 912.856 189.51 905.777 188.129 905 188 882.033 184.172 890.557 185.253 868 184 862.574 182.915 863.169 183.349 858 181 855.964 180.075 854.121 178.707 852 178 850.076 177.359 847.993 177.374 846 177 842.659 176.374 839.285 175.876 836 175 834.266 174.538 832.681 173.63 831 173 830.013 172.63 829.014 172.29 828 172 826.679 171.622 825.287 171.483 824 171 822.604 170.477 821.425 169.438 820 169 817.063 168.096 813.955 167.844 811 167 809.274 166.507 807.681 165.63 806 165 801.268 163.226 804.551 165.034 800 162" stroke="#BDD7EE" stroke-width="8" stroke-miterlimit="8" fill="none" fill-rule="evenodd"/><path d="M857 319C854.667 313.334 853.04 307.321 850 302.001 848.941 300.148 846.509 299.51 845 298.001 844.15 297.151 843.85 295.851 843 295.001 841.159 293.16 838.946 291.731 837 290.002 835.943 289.062 835.116 287.87 834 287.002 829.425 283.444 825.306 281.478 820 279.002 813.616 276.023 813.288 276.098 807 274.002 801.499 268.502 806.948 272.841 799 270.003 795.908 268.899 793.114 267.041 790 266.003 788.076 265.362 785.988 265.401 784 265.003 782.652 264.733 781.364 264.173 780 264.003 771.114 262.892 770.538 263.003 764 263.003" stroke="#BDD7EE" stroke-width="8" stroke-miterlimit="8" fill="none" fill-rule="evenodd"/><path d="M481 42C494.062 43.244 512.219 44.7279 525 47 532.404 48.3163 539.577 50.7917 547 52 553.94 53.1299 560.994 53.3995 568 54 586.538 55.589 592.471 55.3173 615 56L736 55C740.013 54.9396 744.02 54.5192 748 54 765.162 51.7615 753.538 52 763 52" stroke="#ED7D31" stroke-width="8" stroke-miterlimit="8" fill="none" fill-rule="evenodd"/><path d="M500 371C500.724 389.823 500.557 394.125 502 410 502.273 413.006 502.573 416.012 503 419 503.978 425.85 503.604 421.881 505 427 505.723 429.652 506.333 432.333 507 435 507.667 441.333 508.21 447.681 509 454 509.333 456.667 509.519 459.356 510 462 510.189 463.037 510.744 463.977 511 465 511.412 466.649 511.618 468.344 512 470L515 482 516 486 517 490C517.333 493 517.321 496.059 518 499 518.335 500.452 519.465 501.609 520 503 521.135 505.951 522.07 508.978 523 512 523.404 513.314 523.517 514.713 524 516 524.523 517.396 525.333 518.667 526 520 526.333 525.333 526.244 530.71 527 536 527.254 537.777 528.528 539.268 529 541 529.534 542.956 529.318 545.091 530 547 531.003 549.808 533.277 552.108 534 555 534.333 556.333 534.517 557.713 535 559 536.28 562.414 537.187 563.099 539 566 540.03 567.648 541.056 569.301 542 571 542.724 572.303 543.413 573.63 544 575 544.415 575.969 545 578 545 578" stroke="#ED7D31" stroke-width="8" stroke-miterlimit="8" fill="none" fill-rule="evenodd"/><path d="M620 564C623.73 545.348 619.74 561.727 625 547 629.518 534.35 624.62 544.761 629 536 629.667 530.667 629.809 525.241 631 520 631.496 517.82 633.342 516.137 634 514 635.986 507.547 633.64 506.881 637 501 649.209 479.634 637.714 504.025 647 487 652.984 476.029 644.084 488.145 653 477 654.763 469.949 652.881 475.826 657 468 668.886 445.417 658.322 461.603 671 446 680.764 433.983 673.743 442.441 681 430 681.84 428.56 683.117 427.413 684 426 685.991 422.815 686.378 419.949 689 417 690.418 415.405 692.414 414.428 694 413 700.459 407.187 697.611 408.374 705 403 706.572 401.857 708.445 401.166 710 400L715 395" stroke="#ED7D31" stroke-width="8" stroke-miterlimit="8" fill="none" fill-rule="evenodd"/><path d="M930 212C931.667 210.333 933.946 209.108 935 207 936.054 204.892 935.125 202.188 936 200 937.168 197.08 939.416 194.716 941 192 941.751 190.712 942.018 189.122 943 188 944.405 186.394 946.394 185.405 948 184 954.445 178.361 963.987 168.047 973 163 979.245 159.503 985.21 155.263 992 153 994 152.333 996.073 151.856 998 151 999.098 150.512 999.851 149.353 1001 149 1004.25 148 1007.65 147.559 1011 147 1013.65 146.558 1019 146 1019 146" stroke="#BDD7EE" stroke-width="8" stroke-miterlimit="8" fill="none" fill-rule="evenodd"/><path d="M481.5 453C481.5 437.26 494.484 424.5 510.5 424.5 526.516 424.5 539.5 437.26 539.5 453 539.5 468.74 526.516 481.5 510.5 481.5 494.484 481.5 481.5 468.74 481.5 453Z" stroke="#2F528F" stroke-width="1.33333" stroke-miterlimit="8" fill="#4472C4" fill-rule="evenodd"/><text fill="#FFFFFF" font-family="Yu Gothic,Yu Gothic_MSFontService,sans-serif" font-weight="700" font-size="37" transform="translate(491.231 464)">１</text><path d="M624.5 474.5C624.5 458.484 637.484 445.5 653.5 445.5 669.516 445.5 682.5 458.484 682.5 474.5 682.5 490.516 669.516 503.5 653.5 503.5 637.484 503.5 624.5 490.516 624.5 474.5Z" stroke="#2F528F" stroke-width="1.33333" stroke-miterlimit="8" fill="#4472C4" fill-rule="evenodd"/><text fill="#FFFFFF" font-family="Yu Gothic,Yu Gothic_MSFontService,sans-serif" font-weight="700" font-size="37" transform="translate(642 486)">2</text><path d="M608.5 56.5001C608.5 40.4838 621.484 27.5001 637.5 27.5001 653.516 27.5001 666.5 40.4838 666.5 56.5001 666.5 72.5163 653.516 85.5001 637.5 85.5001 621.484 85.5001 608.5 72.5163 608.5 56.5001Z" stroke="#2F528F" stroke-width="1.33333" stroke-miterlimit="8" fill="#4472C4" fill-rule="evenodd"/><text fill="#FFFFFF" font-family="Yu Gothic,Yu Gothic_MSFontService,sans-serif" font-weight="700" font-size="37" transform="translate(626.602 68)">3</text><path d="M434.5 197C434.5 181.26 447.484 168.5 463.5 168.5 479.516 168.5 492.5 181.26 492.5 197 492.5 212.74 479.516 225.5 463.5 225.5 447.484 225.5 434.5 212.74 434.5 197Z" stroke="#2F528F" stroke-width="1.33333" stroke-miterlimit="8" fill="#4472C4" fill-rule="evenodd"/><text fill="#FFFFFF" font-family="Yu Gothic,Yu Gothic_MSFontService,sans-serif" font-weight="700" font-size="37" transform="translate(452.333 208)">4</text><path d="M789.5 290.5C789.5 274.484 802.484 261.5 818.5 261.5 834.516 261.5 847.5 274.484 847.5 290.5 847.5 306.516 834.516 319.5 818.5 319.5 802.484 319.5 789.5 306.516 789.5 290.5Z" stroke="#2F528F" stroke-width="1.33333" stroke-miterlimit="8" fill="#4472C4" fill-rule="evenodd"/><text fill="#FFFFFF" font-family="Yu Gothic,Yu Gothic_MSFontService,sans-serif" font-weight="700" font-size="37" transform="translate(807.333 302)">5</text><path d="M836.5 185.5C836.5 169.484 849.484 156.5 865.5 156.5 881.516 156.5 894.5 169.484 894.5 185.5 894.5 201.516 881.516 214.5 865.5 214.5 849.484 214.5 836.5 201.516 836.5 185.5Z" stroke="#2F528F" stroke-width="1.33333" stroke-miterlimit="8" fill="#4472C4" fill-rule="evenodd"/><text fill="#FFFFFF" font-family="Yu Gothic,Yu Gothic_MSFontService,sans-serif" font-weight="700" font-size="37" transform="translate(854.333 197)">6</text><path d="M1020.5 139.5C1020.5 123.484 1033.48 110.5 1049.5 110.5 1065.52 110.5 1078.5 123.484 1078.5 139.5 1078.5 155.516 1065.52 168.5 1049.5 168.5 1033.48 168.5 1020.5 155.516 1020.5 139.5Z" stroke="#2F528F" stroke-width="1.33333" stroke-miterlimit="8" fill="#4472C4" fill-rule="evenodd"/><text fill="#FFFFFF" font-family="Yu Gothic,Yu Gothic_MSFontService,sans-serif" font-weight="700" font-size="37" transform="translate(1038.44 150)">7</text><path d="M559.5 465.5C559.5 449.484 572.26 436.5 588 436.5 603.74 436.5 616.5 449.484 616.5 465.5 616.5 481.516 603.74 494.5 588 494.5 572.26 494.5 559.5 481.516 559.5 465.5Z" stroke="#2F528F" stroke-width="1.33333" stroke-miterlimit="8" fill="#4472C4" fill-rule="evenodd"/><text fill="#FFFFFF" font-family="Yu Gothic,Yu Gothic_MSFontService,sans-serif" font-weight="700" font-size="37" transform="translate(574.6 477)">A</text><path d="M522.5 217C522.5 201.26 535.484 188.5 551.5 188.5 567.516 188.5 580.5 201.26 580.5 217 580.5 232.74 567.516 245.5 551.5 245.5 535.484 245.5 522.5 232.74 522.5 217Z" stroke="#2F528F" stroke-width="1.33333" stroke-miterlimit="8" fill="#4472C4" fill-rule="evenodd"/><text fill="#FFFFFF" font-family="Yu Gothic,Yu Gothic_MSFontService,sans-serif" font-weight="700" font-size="37" transform="translate(538.148 228)">B</text><path d="M686.5 217C686.5 201.26 699.484 188.5 715.5 188.5 731.516 188.5 744.5 201.26 744.5 217 744.5 232.74 731.516 245.5 715.5 245.5 699.484 245.5 686.5 232.74 686.5 217Z" stroke="#2F528F" stroke-width="1.33333" stroke-miterlimit="8" fill="#4472C4" fill-rule="evenodd"/><text fill="#FFFFFF" font-family="Yu Gothic,Yu Gothic_MSFontService,sans-serif" font-weight="700" font-size="37" transform="translate(701.583 228)">C</text><path d="M1000.47 325.653 652 166" stroke="#A5A5A5" stroke-width="4" stroke-miterlimit="8" stroke-dasharray="16 12" fill="none" fill-rule="evenodd"/><path d="M667.5 674C667.5 658.26 680.484 645.5 696.5 645.5 712.516 645.5 725.5 658.26 725.5 674 725.5 689.74 712.516 702.5 696.5 702.5 680.484 702.5 667.5 689.74 667.5 674Z" stroke="#787878" stroke-width="1.33333" stroke-miterlimit="8" fill="#A5A5A5" fill-rule="evenodd"/><text fill="#FFFFFF" font-family="Yu Gothic,Yu Gothic_MSFontService,sans-serif" font-weight="700" font-size="24" transform="translate(692.981 681)">i</text><path d="M487.5 347.5C487.5 331.484 500.26 318.5 516 318.5 531.74 318.5 544.5 331.484 544.5 347.5 544.5 363.516 531.74 376.5 516 376.5 500.26 376.5 487.5 363.516 487.5 347.5Z" stroke="#787878" stroke-width="1.33333" stroke-miterlimit="8" fill="#A5A5A5" fill-rule="evenodd"/><text fill="#FFFFFF" font-family="Yu Gothic,Yu Gothic_MSFontService,sans-serif" font-weight="700" font-size="24" transform="translate(508.602 354)">ii</text><path d="M677.5 355.5C677.5 339.484 690.484 326.5 706.5 326.5 722.516 326.5 735.5 339.484 735.5 355.5 735.5 371.516 722.516 384.5 706.5 384.5 690.484 384.5 677.5 371.516 677.5 355.5Z" stroke="#787878" stroke-width="1.33333" stroke-miterlimit="8" fill="#A5A5A5" fill-rule="evenodd"/><text fill="#FFFFFF" font-family="Yu Gothic,Yu Gothic_MSFontService,sans-serif" font-weight="700" font-size="24" transform="translate(699.269 362)">ii</text><path d="M454.5 264C454.5 248.26 467.484 235.5 483.5 235.5 499.516 235.5 512.5 248.26 512.5 264 512.5 279.74 499.516 292.5 483.5 292.5 467.484 292.5 454.5 279.74 454.5 264Z" stroke="#787878" stroke-width="1.33333" stroke-miterlimit="8" fill="#A5A5A5" fill-rule="evenodd"/><text fill="#FFFFFF" font-family="Yu Gothic,Yu Gothic_MSFontService,sans-serif" font-weight="700" font-size="24" transform="translate(472.49 271)">iii</text><path d="M326.5 179.5C326.5 163.484 339.484 150.5 355.5 150.5 371.516 150.5 384.5 163.484 384.5 179.5 384.5 195.516 371.516 208.5 355.5 208.5 339.484 208.5 326.5 195.516 326.5 179.5Z" stroke="#787878" stroke-width="1.33333" stroke-miterlimit="8" fill="#A5A5A5" fill-rule="evenodd"/><text fill="#FFFFFF" font-family="Yu Gothic,Yu Gothic_MSFontService,sans-serif" font-weight="700" font-size="24" transform="translate(345.019 187)">iv</text><path d="M788.5 205.5C788.5 189.484 801.26 176.5 817 176.5 832.74 176.5 845.5 189.484 845.5 205.5 845.5 221.516 832.74 234.5 817 234.5 801.26 234.5 788.5 221.516 788.5 205.5Z" stroke="#787878" stroke-width="1.33333" stroke-miterlimit="8" fill="#A5A5A5" fill-rule="evenodd"/><text fill="#FFFFFF" font-family="Yu Gothic,Yu Gothic_MSFontService,sans-serif" font-weight="700" font-size="24" transform="translate(810.019 213)">v</text><path d="M0 0 382.3 4.45386" stroke="#A5A5A5" stroke-width="4" stroke-miterlimit="8" stroke-dasharray="16 12" fill="none" fill-rule="evenodd" transform="matrix(-1 0 0 1 990.3 633)"/><path d="M0 0 246.677 200.925" stroke="#A5A5A5" stroke-width="4" stroke-miterlimit="8" stroke-dasharray="16 12" fill="none" fill-rule="evenodd" transform="matrix(-1 0 0 1 495.677 125)"/><path d="M0 0 142.874 128.412" stroke="#A5A5A5" stroke-width="4" stroke-miterlimit="8" stroke-dasharray="16 12" fill="none" fill-rule="evenodd" transform="matrix(-1 0 0 1 542.874 273)"/><path d="M521 101 538.946 282.092" stroke="#A5A5A5" stroke-width="4" stroke-miterlimit="8" stroke-dasharray="16 12" fill="none" fill-rule="evenodd"/><path d="M652.667 166.302 381-14" stroke="#A5A5A5" stroke-width="4" stroke-miterlimit="8" stroke-dasharray="16 12" fill="none" fill-rule="evenodd"/></g></svg>