<svg width="358" height="366" xmlns="http://www.w3.org/2000/svg" xmlns:xlink="http://www.w3.org/1999/xlink" overflow="hidden"><defs><clipPath id="clip0"><rect x="429" y="266" width="358" height="366"/></clipPath><linearGradient x1="697" y1="631" x2="697" y2="267" gradientUnits="userSpaceOnUse" spreadMethod="reflect" id="fill1"><stop offset="0" stop-color="#B0500F"/><stop offset="0.48" stop-color="#EE8137"/><stop offset="1" stop-color="#F4B183"/></linearGradient><linearGradient x1="89" y1="364" x2="89" y2="0" gradientUnits="userSpaceOnUse" spreadMethod="reflect" id="fill2"><stop offset="0" stop-color="#2A4B86"/><stop offset="0.48" stop-color="#4A76C6"/><stop offset="1" stop-color="#8FAADC"/></linearGradient></defs><g clip-path="url(#clip0)" transform="translate(-429 -266)"><path d="M608 631 608 267C663.112 313.787 674.318 305.442 707.078 345.837 734.22 396.531 761.687 436.009 767.66 475.279 768.044 507.359 802.785 621.027 775.643 631L608 631Z" fill="url(#fill1)" fill-rule="evenodd"/><path d="M0 364 0 0C55.1122 46.7874 66.318 38.442 99.0778 78.8372 126.22 129.531 153.687 169.009 159.66 208.279 160.044 240.359 194.785 354.027 167.643 364L0 364Z" fill="url(#fill2)" fill-rule="evenodd" transform="matrix(-1 0 0 1 608 267)"/></g></svg>