<svg width="482" height="366" xmlns="http://www.w3.org/2000/svg" xmlns:xlink="http://www.w3.org/1999/xlink" overflow="hidden"><defs><clipPath id="clip0"><rect x="82" y="177" width="482" height="366"/></clipPath><linearGradient x1="443" y1="542" x2="443" y2="178" gradientUnits="userSpaceOnUse" spreadMethod="reflect" id="fill1"><stop offset="0" stop-color="#B0500F"/><stop offset="0.48" stop-color="#EE8137"/><stop offset="1" stop-color="#F4B183"/></linearGradient><linearGradient x1="120" y1="364" x2="120" y2="0" gradientUnits="userSpaceOnUse" spreadMethod="reflect" id="fill2"><stop offset="0" stop-color="#2A4B86"/><stop offset="0.48" stop-color="#4A76C6"/><stop offset="1" stop-color="#8FAADC"/></linearGradient></defs><g clip-path="url(#clip0)" transform="translate(-82 -177)"><path d="M323 542 323 178C356.33 282.302 349.993 286.919 389.453 334.431 428.913 381.944 536.572 433.643 559.76 463.074 582.947 492.505 474.488 489.871 463.012 503.025 451.537 516.18 476.398 519.257 490.908 542L323 542Z" fill="url(#fill1)" fill-rule="evenodd"/><path d="M0 364 0 0C33.3299 104.302 26.9927 108.919 66.4526 156.431 105.913 203.944 213.572 255.643 236.76 285.074 259.947 314.505 151.488 311.871 140.012 325.025 128.537 338.18 153.398 341.257 167.908 364L0 364Z" fill="url(#fill2)" fill-rule="evenodd" transform="matrix(-1 0 0 1 323 178)"/></g></svg>