<svg width="372" height="366" xmlns="http://www.w3.org/2000/svg" xmlns:xlink="http://www.w3.org/1999/xlink" overflow="hidden"><defs><clipPath id="clip0"><rect x="699" y="221" width="372" height="366"/></clipPath><linearGradient x1="977.5" y1="586" x2="977.5" y2="222" gradientUnits="userSpaceOnUse" spreadMethod="reflect" id="fill1"><stop offset="0" stop-color="#B0500F"/><stop offset="0.48" stop-color="#EE8137"/><stop offset="1" stop-color="#F4B183"/></linearGradient><linearGradient x1="92.5" y1="364" x2="92.5" y2="0" gradientUnits="userSpaceOnUse" spreadMethod="reflect" id="fill2"><stop offset="0" stop-color="#2A4B86"/><stop offset="0.48" stop-color="#4A76C6"/><stop offset="1" stop-color="#8FAADC"/></linearGradient></defs><g clip-path="url(#clip0)" transform="translate(-699 -221)"><path d="M885 586 885 222C895.687 245.083 953.533 253.783 964.22 276.866 980.472 334.662 916.795 422.022 947.435 482.216 969.282 518.438 1036.69 511.513 1063.33 537.348 1072.63 555.963 1074.73 568.984 1052.85 586L885 586Z" fill="url(#fill1)" fill-rule="evenodd"/><path d="M0 364 0 0C10.687 23.0829 68.533 31.7835 79.22 54.8663 95.4725 112.662 31.7946 200.022 62.4346 260.216 84.2822 296.438 151.69 289.513 178.334 315.348 187.629 333.963 189.731 346.984 167.854 364L0 364Z" fill="url(#fill2)" fill-rule="evenodd" transform="matrix(-1 0 0 1 885 222)"/></g></svg>