<svg width="1007" height="585" xmlns="http://www.w3.org/2000/svg" xmlns:xlink="http://www.w3.org/1999/xlink" overflow="hidden"><defs><clipPath id="clip0"><rect x="146" y="29" width="1007" height="585"/></clipPath></defs><g clip-path="url(#clip0)" transform="translate(-146 -29)"><path d="M338.034 69.2095 530.007 178.939 812.089 182.858 1061.85 80.9662 1150 31 1149.02 84.8852 1124.53 298.466 1110.82 167.182 1040.3 280.831 1054.01 428.77 1023.65 558.095 993.288 611 972.719 589.446 971.74 537.52 978.596 468.939 874.774 476.777 506.5 489.513 365.459 441.507 311.589 446.405 293.959 484.615 249.884 472.858 221.479 511.068 149.979 456.203 149 407.216 203.849 359.209 193.075 301.405 241.068 224.007 244.986 191.676 271.431 148.568 283.185 113.297 338.034 69.2095Z" stroke="#70AD47" stroke-width="4" stroke-linejoin="round" stroke-miterlimit="10" fill="none" fill-rule="evenodd"/><path d="M498 213C496.009 221.145 493.661 229.214 492.028 237.435 491.003 242.591 491.011 247.908 490.037 253.073 488.771 259.787 486.127 266.142 484.064 272.621 483.344 274.885 482.696 277.171 482.074 279.463 481.369 282.059 480.907 284.721 480.083 287.282 478.913 290.919 477.428 294.45 476.101 298.034 475.769 300.966 475.531 303.91 475.106 306.831 473.46 318.142 472.293 319.545 472.12 331.266 471.85 349.508 472.12 367.755 472.12 386" stroke="#ED7D31" stroke-width="8" stroke-miterlimit="8" fill="none" fill-rule="evenodd"/><path d="M868 194C864.098 224.694 860.524 255.432 856.293 286.082 855.968 288.436 854.939 290.639 854.341 292.939 852.988 298.15 851.74 303.388 850.439 308.612 844.046 334.288 850.568 307.012 845.561 331.143 844.676 335.408 843.575 339.625 842.634 343.878 842.275 345.503 842.135 347.181 841.659 348.776 841.155 350.46 840.188 351.983 839.707 353.673 838.234 358.852 837.797 364.347 835.805 369.347 835.155 370.98 834.565 372.638 833.854 374.245 833.263 375.579 832.413 376.796 831.903 378.163 829.163 385.5 833.393 378.781 828 386" stroke="#ED7D31" stroke-width="8" stroke-miterlimit="8" fill="none" fill-rule="evenodd"/><path d="M190 386C203.929 387.967 208.937 388.49 227.2 393.742 285.73 410.574 230.941 398.112 259.505 404.387 270.713 413.251 256.918 403.109 279.084 414.065L283 416" stroke="#ED7D31" stroke-width="8" stroke-miterlimit="8" fill="none" fill-rule="evenodd"/><path d="M536 177C542.601 223.401 536.001 175.117 537.671 305.271 537.705 307.902 538.335 310.481 538.507 313.104 538.614 314.731 538.507 316.368 538.507 318" stroke="#BDD7EE" stroke-width="8" stroke-miterlimit="8" fill="none" fill-rule="evenodd"/><path d="M661 190C659.333 203.358 659.339 217.02 656 230.075 654.588 235.597 655.27 232.668 654 238.872 654.527 246.598 654.967 255.481 656 263.308 656.905 270.163 658.496 276.941 659 283.835 660.128 299.269 658.263 293.273 662 302.406L661 320" stroke="#BDD7EE" stroke-width="8" stroke-miterlimit="8" fill="none" fill-rule="evenodd"/><path d="M776 186C777.16 193.101 779.393 235.192 788.5 255.626 789.39 257.622 790.423 259.548 791.385 261.51 791.705 263.471 791.844 265.472 792.346 267.394 794.067 273.974 795.587 277.067 798.115 283.084 800.258 296.194 798.069 281.56 800.038 304.658 800.235 306.961 800.68 309.234 801 311.523 800.038 318.714 799.659 326.012 798.115 333.097 797.71 334.957 795.231 338 795.231 338" stroke="#BDD7EE" stroke-width="8" stroke-miterlimit="8" fill="none" fill-rule="evenodd"/><path d="M1032.5 430.5C1032.5 414.484 1045.48 401.5 1061.5 401.5 1077.52 401.5 1090.5 414.484 1090.5 430.5 1090.5 446.516 1077.52 459.5 1061.5 459.5 1045.48 459.5 1032.5 446.516 1032.5 430.5Z" stroke="#2F528F" stroke-width="1.33333" stroke-miterlimit="8" fill="#4472C4" fill-rule="evenodd"/><text fill="#FFFFFF" font-family="Yu Gothic,Yu Gothic_MSFontService,sans-serif" font-weight="700" font-size="48" transform="translate(1047.43 445)">1</text><path d="M197 128C197 95.9675 226.773 70 263.5 70 300.227 70 330 95.9675 330 128 330 160.033 300.227 186 263.5 186 226.773 186 197 160.033 197 128Z" fill="#ED7D31" fill-rule="evenodd" fill-opacity="0.701961"/><text fill="#FFFFFF" font-family="Yu Gothic,Yu Gothic_MSFontService,sans-serif" font-weight="700" font-size="72" transform="translate(238.693 151)">A</text><path d="M464 404.5C464 372.191 493.773 346 530.5 346 567.227 346 597 372.191 597 404.5 597 436.809 567.227 463 530.5 463 493.773 463 464 436.809 464 404.5Z" fill="#ED7D31" fill-rule="evenodd" fill-opacity="0.701961"/><text fill="#FFFFFF" font-family="Yu Gothic,Yu Gothic_MSFontService,sans-serif" font-weight="700" font-size="72" transform="translate(514.732 427)">C</text><path d="M242 257C242 224.967 271.773 199 308.5 199 345.227 199 375 224.967 375 257 375 289.033 345.227 315 308.5 315 271.773 315 242 289.033 242 257Z" fill="#ED7D31" fill-rule="evenodd" fill-opacity="0.701961"/><text fill="#FFFFFF" font-family="Yu Gothic,Yu Gothic_MSFontService,sans-serif" font-weight="700" font-size="72" transform="translate(282.992 280)">B</text><path d="M453.5 401.5C453.5 385.484 466.484 372.5 482.5 372.5 498.516 372.5 511.5 385.484 511.5 401.5 511.5 417.516 498.516 430.5 482.5 430.5 466.484 430.5 453.5 417.516 453.5 401.5Z" stroke="#2F528F" stroke-width="1.33333" stroke-miterlimit="8" fill="#4472C4" fill-rule="evenodd"/><text fill="#FFFFFF" font-family="Yu Gothic,Yu Gothic_MSFontService,sans-serif" font-weight="700" font-size="48" transform="translate(468.452 416)">2</text><path d="M616 407.5C616 375.191 645.997 349 683 349 720.003 349 750 375.191 750 407.5 750 439.809 720.003 466 683 466 645.997 466 616 439.809 616 407.5Z" fill="#ED7D31" fill-rule="evenodd" fill-opacity="0.701961"/><text fill="#FFFFFF" font-family="Yu Gothic,Yu Gothic_MSFontService,sans-serif" font-weight="700" font-size="72" transform="translate(655.248 430)">D</text><path d="M723 454C723 421.967 752.997 396 790 396 827.003 396 857 421.967 857 454 857 486.033 827.003 512 790 512 752.997 512 723 486.033 723 454Z" fill="#ED7D31" fill-rule="evenodd" fill-opacity="0.701961"/><text fill="#FFFFFF" font-family="Yu Gothic,Yu Gothic_MSFontService,sans-serif" font-weight="700" font-size="72" transform="translate(766.531 477)">E</text><path d="M489.522 328.154 480 108" stroke="#A5A5A5" stroke-width="4" stroke-miterlimit="8" stroke-dasharray="16 12" fill="none" fill-rule="evenodd"/><path d="M0 0 40.7118 199.193" stroke="#A5A5A5" stroke-width="4" stroke-miterlimit="8" stroke-dasharray="16 12" fill="none" fill-rule="evenodd" transform="matrix(1 0 0 -1 614 339.193)"/><path d="M0 0 297.037 275.147" stroke="#A5A5A5" stroke-width="4" stroke-miterlimit="8" stroke-dasharray="16 12" fill="none" fill-rule="evenodd" transform="matrix(1 0 0 -1 158 345.147)"/><path d="M491 315 622.481 335.363" stroke="#A5A5A5" stroke-width="4" stroke-miterlimit="8" stroke-dasharray="16 12" fill="none" fill-rule="evenodd"/><path d="M511.5 194.5C511.5 178.484 524.484 165.5 540.5 165.5 556.516 165.5 569.5 178.484 569.5 194.5 569.5 210.516 556.516 223.5 540.5 223.5 524.484 223.5 511.5 210.516 511.5 194.5Z" stroke="#787878" stroke-width="1.33333" stroke-miterlimit="8" fill="#A5A5A5" fill-rule="evenodd"/><text fill="#FFFFFF" font-family="Yu Gothic,Yu Gothic_MSFontService,sans-serif" font-weight="700" font-size="37" transform="translate(529.407 206)">a</text><path d="M183.5 221.5C183.5 205.484 196.484 192.5 212.5 192.5 228.516 192.5 241.5 205.484 241.5 221.5 241.5 237.516 228.516 250.5 212.5 250.5 196.484 250.5 183.5 237.516 183.5 221.5Z" stroke="#787878" stroke-width="1.33333" stroke-miterlimit="8" fill="#A5A5A5" fill-rule="evenodd"/><text fill="#FFFFFF" font-family="Yu Gothic,Yu Gothic_MSFontService,sans-serif" font-weight="700" font-size="37" transform="translate(200.603 233)">b</text><path d="M696.298 315.608 683 199" stroke="#A5A5A5" stroke-width="4" stroke-miterlimit="8" stroke-dasharray="16 12" fill="none" fill-rule="evenodd"/><path d="M0 0 68.4639 4.68031" stroke="#A5A5A5" stroke-width="4" stroke-miterlimit="8" stroke-dasharray="16 12" fill="none" fill-rule="evenodd" transform="matrix(-1 0 0 1 763.464 311)"/><path d="M0 0 68.4639 4.68031" stroke="#A5A5A5" stroke-width="4" stroke-miterlimit="8" stroke-dasharray="16 12" fill="none" fill-rule="evenodd" transform="matrix(-1 0 0 1 747.464 194)"/><path d="M764.298 308.608 751 192" stroke="#A5A5A5" stroke-width="4" stroke-miterlimit="8" stroke-dasharray="16 12" fill="none" fill-rule="evenodd"/><path d="M698.5 263C698.5 247.26 711.484 234.5 727.5 234.5 743.516 234.5 756.5 247.26 756.5 263 756.5 278.74 743.516 291.5 727.5 291.5 711.484 291.5 698.5 278.74 698.5 263Z" stroke="#787878" stroke-width="1.33333" stroke-miterlimit="8" fill="#A5A5A5" fill-rule="evenodd"/><text fill="#FFFFFF" font-family="Yu Gothic,Yu Gothic_MSFontService,sans-serif" font-weight="700" font-size="37" transform="translate(716.27 274)">c</text><path d="M0 0 266.225 206.844" stroke="#A5A5A5" stroke-width="4" stroke-miterlimit="8" stroke-dasharray="16 12" fill="none" fill-rule="evenodd" transform="matrix(1 0 0 -1 843 289.844)"/><path d="M0 0 266.225 206.844" stroke="#A5A5A5" stroke-width="4" stroke-miterlimit="8" stroke-dasharray="16 12" fill="none" fill-rule="evenodd" transform="matrix(1 0 0 -1 856 316.844)"/><path d="M932.5 216C932.5 200.26 945.484 187.5 961.5 187.5 977.516 187.5 990.5 200.26 990.5 216 990.5 231.74 977.516 244.5 961.5 244.5 945.484 244.5 932.5 231.74 932.5 216Z" stroke="#787878" stroke-width="1.33333" stroke-miterlimit="8" fill="#A5A5A5" fill-rule="evenodd"/><text fill="#FFFFFF" font-family="Yu Gothic,Yu Gothic_MSFontService,sans-serif" font-weight="700" font-size="37" transform="translate(949.216 227)">d</text><path d="M861.406 316.125 836 299" stroke="#A5A5A5" stroke-width="4" stroke-miterlimit="8" stroke-dasharray="16 12" fill="none" fill-rule="evenodd"/><path d="M1110.41 109.125 1085 92" stroke="#A5A5A5" stroke-width="4" stroke-miterlimit="8" stroke-dasharray="16 12" fill="none" fill-rule="evenodd"/><path d="M294 260C295.689 261.077 324.124 278.884 327.798 282.283 331.652 285.848 335.317 289.631 339.361 292.978 347.309 299.558 366.469 309.911 372.27 312.587 432.022 340.15 387.257 317.982 412.294 327.739 420.35 330.879 429.117 332.739 436.309 337.543 446.911 344.627 455.505 350.508 467.439 357.152 472.775 360.123 477.891 363.534 483.448 366.065 487.716 368.009 492.446 368.757 496.79 370.522 503.43 373.219 509.376 377.82 516.357 379.435 520.211 380.326 524.125 380.99 527.92 382.109 540.58 385.84 557.905 392.436 569.723 397.261 578.087 400.676 586.41 404.201 594.627 407.957 603.425 411.978 628.031 424.759 639.098 428.456 641.645 429.307 644.448 428.949 647.103 429.348 650.381 429.841 653.589 430.8 656.887 431.13 665.462 431.99 674.102 432.086 682.68 432.913 689.526 433.573 696.284 435.015 703.137 435.587 712.44 436.364 760.571 437.331 762.729 437.37L824.989 438.261 842.778 439.152 913.932 441.826C919 442.088 924.012 443.014 929.052 443.609 936.96 446.25 940.325 447.239 948.62 450.739 950.452 451.513 952.15 452.578 953.956 453.413 956.006 454.361 958.273 454.879 960.182 456.087 963.942 458.467 967.155 461.637 970.855 464.109 973.524 465.891 976.218 467.636 978.86 469.457 982.467 471.941 985.903 474.045 988.644 477.478 993.533 483.603 998.178 489.921 1002.87 496.196 1004.41 498.24 1006.01 500.243 1007.32 502.435 1011.09 508.728 1009.03 505.45 1013.55 512.239 1015.43 519.78 1012.87 512.106 1017.11 518.478 1018.18 520.091 1018.29 524.26 1018.88 525.609 1019.49 526.966 1020.83 527.875 1021.55 529.174 1022.33 530.573 1022.77 532.132 1023.33 533.63 1023.66 534.51 1024.02 535.386 1024.22 536.304 1026.05 544.871 1026 542.924 1026 547" stroke="#FFC000" stroke-width="8" stroke-miterlimit="8" fill="none" fill-rule="evenodd"/><path d="M829 439.5C832.012 438.158 836.814 436.1 839.475 434.5 841.729 433.144 843.833 431.55 845.959 430 847.492 428.882 849.065 427.8 850.448 426.5 851.738 425.288 852.776 423.833 853.94 422.5 856.286 417.012 854.279 420.787 857.93 416 866.412 404.883 857.483 414.48 874.391 398.5 876.018 396.962 877.363 394.973 879.379 394 883.868 391.833 888.491 389.926 892.847 387.5 896.289 385.583 901.592 382.339 905.317 382L916.29 381 940.731 381.5C946.391 381.705 957.691 382.5 957.691 382.5 969.347 384.837 967.261 384.074 982.631 390 984.792 390.833 987.151 391.27 989.115 392.5 1005.12 402.528 999.109 399.2 1008.57 410 1012.45 414.431 1017.42 417.999 1020.54 423 1026.32 432.264 1024.12 428.187 1027.52 435 1027.69 435.833 1027.77 436.688 1028.02 437.5 1028.44 438.868 1030.31 443.597 1031.01 445 1031.78 446.535 1032.71 447.984 1033.51 449.5 1034.2 450.818 1034.84 452.167 1035.5 453.5 1035.67 455 1035.83 456.501 1036 458 1036.16 459.334 1036.4 460.66 1036.5 462 1036.73 465.162 1036.83 468.333 1037 471.5 1036.68 482.472 1036.86 488.774 1035.5 499 1035.3 500.523 1034.79 501.991 1034.51 503.5 1033.06 511.098 1034.05 507.578 1032.51 514.5 1030.97 521.444 1031.93 515.596 1031.01 522 1030.85 524.333 1030.77 526.675 1030.52 529 1030.44 529.683 1030.2 530.337 1030.02 531 1028.93 534.976 1029.49 533.563 1028.02 536.5 1027.43 540.66 1027.52 538.822 1027.52 542" stroke="#FFC000" stroke-width="8" stroke-miterlimit="8" fill="none" fill-rule="evenodd"/><path d="M912.5 381C912.5 365.26 925.484 352.5 941.5 352.5 957.516 352.5 970.5 365.26 970.5 381 970.5 396.74 957.516 409.5 941.5 409.5 925.484 409.5 912.5 396.74 912.5 381Z" stroke="#BC8C00" stroke-width="1.33333" stroke-miterlimit="8" fill="#FFC000" fill-rule="evenodd"/><text fill="#FFFFFF" font-family="Yu Gothic,Yu Gothic_MSFontService,sans-serif" font-weight="700" font-size="48" transform="translate(916.944 396)">β</text><path d="M904.5 451.5C904.5 435.484 917.484 422.5 933.5 422.5 949.516 422.5 962.5 435.484 962.5 451.5 962.5 467.516 949.516 480.5 933.5 480.5 917.484 480.5 904.5 467.516 904.5 451.5Z" stroke="#BC8C00" stroke-width="1.33333" stroke-miterlimit="8" fill="#FFC000" fill-rule="evenodd"/><text fill="#FFFFFF" font-family="Yu Gothic,Yu Gothic_MSFontService,sans-serif" font-weight="700" font-size="48" transform="translate(908.997 466)">α</text><path d="M297.5 263C297.5 256.096 303.096 250.5 310 250.5 316.904 250.5 322.5 256.096 322.5 263 322.5 269.904 316.904 275.5 310 275.5 303.096 275.5 297.5 269.904 297.5 263Z" stroke="#BC8C00" stroke-width="1.33333" stroke-miterlimit="8" fill="#FFC000" fill-rule="evenodd"/><path d="M1014.5 544C1014.5 537.096 1020.1 531.5 1027 531.5 1033.9 531.5 1039.5 537.096 1039.5 544 1039.5 550.904 1033.9 556.5 1027 556.5 1020.1 556.5 1014.5 550.904 1014.5 544Z" stroke="#BC8C00" stroke-width="1.33333" stroke-miterlimit="8" fill="#FFC000" fill-rule="evenodd"/><path d="M379.5 338.5C379.5 322.484 392.484 309.5 408.5 309.5 424.516 309.5 437.5 322.484 437.5 338.5 437.5 354.516 424.516 367.5 408.5 367.5 392.484 367.5 379.5 354.516 379.5 338.5Z" stroke="#BC8C00" stroke-width="1.33333" stroke-miterlimit="8" fill="#FFC000" fill-rule="evenodd"/><text fill="#FFFFFF" font-family="Yu Gothic,Yu Gothic_MSFontService,sans-serif" font-weight="700" font-size="48" transform="translate(383.691 353)">α</text><path d="M508.5 344.5C508.5 328.484 521.484 315.5 537.5 315.5 553.516 315.5 566.5 328.484 566.5 344.5 566.5 360.516 553.516 373.5 537.5 373.5 521.484 373.5 508.5 360.516 508.5 344.5Z" stroke="#2F528F" stroke-width="1.33333" stroke-miterlimit="8" fill="#4472C4" fill-rule="evenodd"/><text fill="#FFFFFF" font-family="Yu Gothic,Yu Gothic_MSFontService,sans-serif" font-weight="700" font-size="48" transform="translate(523.611 359)">3</text></g></svg>