<svg width="1060" height="587" xmlns="http://www.w3.org/2000/svg" xmlns:xlink="http://www.w3.org/1999/xlink" overflow="hidden"><defs><clipPath id="clip0"><rect x="140" y="29" width="1060" height="587"/></clipPath></defs><g clip-path="url(#clip0)" transform="translate(-140 -29)"><path d="M338.034 69.2095 530.007 178.939 812.089 182.858 1061.85 80.9662 1150 31 1149.02 84.8852 1124.53 298.466 1110.82 167.182 1040.3 280.831 1054.01 428.77 1023.65 558.095 993.288 611 972.719 589.446 971.74 537.52 978.596 468.939 874.774 476.777 506.5 489.513 365.459 441.507 311.589 446.405 293.959 484.615 249.884 472.858 221.479 511.068 149.979 456.203 149 407.216 203.849 359.209 193.075 301.405 241.068 224.007 244.986 191.676 271.431 148.568 283.185 113.297 338.034 69.2095Z" stroke="#70AD47" stroke-width="4" stroke-linejoin="round" stroke-miterlimit="10" fill="none" fill-rule="evenodd"/><path d="M498 213C496.009 221.145 493.661 229.214 492.028 237.435 491.003 242.591 491.011 247.908 490.037 253.073 488.771 259.787 486.127 266.142 484.064 272.621 483.344 274.885 482.696 277.171 482.074 279.463 481.369 282.059 480.907 284.721 480.083 287.282 478.913 290.919 477.428 294.45 476.101 298.034 475.769 300.966 475.531 303.91 475.106 306.831 473.46 318.142 472.293 319.545 472.12 331.266 471.85 349.508 472.12 367.755 472.12 386" stroke="#ED7D31" stroke-width="8" stroke-miterlimit="8" fill="none" fill-rule="evenodd"/><path d="M868 194C864.098 224.694 860.524 255.432 856.293 286.082 855.968 288.436 854.939 290.639 854.341 292.939 852.988 298.15 851.74 303.388 850.439 308.612 844.046 334.288 850.568 307.012 845.561 331.143 844.676 335.408 843.575 339.625 842.634 343.878 842.275 345.503 842.135 347.181 841.659 348.776 841.155 350.46 840.188 351.983 839.707 353.673 838.234 358.852 837.797 364.347 835.805 369.347 835.155 370.98 834.565 372.638 833.854 374.245 833.263 375.579 832.413 376.796 831.903 378.163 829.163 385.5 833.393 378.781 828 386" stroke="#ED7D31" stroke-width="8" stroke-miterlimit="8" fill="none" fill-rule="evenodd"/><path d="M190 386C203.929 387.967 208.937 388.49 227.2 393.742 285.73 410.574 230.941 398.112 259.505 404.387 270.713 413.251 256.918 403.109 279.084 414.065L283 416" stroke="#ED7D31" stroke-width="8" stroke-miterlimit="8" fill="none" fill-rule="evenodd"/><path d="M536 177C542.601 223.401 536.001 175.117 537.671 305.271 537.705 307.902 538.335 310.481 538.507 313.104 538.614 314.731 538.507 316.368 538.507 318" stroke="#BDD7EE" stroke-width="8" stroke-miterlimit="8" fill="none" fill-rule="evenodd"/><path d="M661 190C659.333 203.358 659.339 217.02 656 230.075 654.588 235.597 655.27 232.668 654 238.872 654.527 246.598 654.967 255.481 656 263.308 656.905 270.163 658.496 276.941 659 283.835 660.128 299.269 658.263 293.273 662 302.406L661 320" stroke="#BDD7EE" stroke-width="8" stroke-miterlimit="8" fill="none" fill-rule="evenodd"/><path d="M776 186C777.16 193.101 779.393 235.192 788.5 255.626 789.39 257.622 790.423 259.548 791.385 261.51 791.705 263.471 791.844 265.472 792.346 267.394 794.067 273.974 795.587 277.067 798.115 283.084 800.258 296.194 798.069 281.56 800.038 304.658 800.235 306.961 800.68 309.234 801 311.523 800.038 318.714 799.659 326.012 798.115 333.097 797.71 334.957 795.231 338 795.231 338" stroke="#BDD7EE" stroke-width="8" stroke-miterlimit="8" fill="none" fill-rule="evenodd"/><path d="M445.599 307.37 218 186" stroke="#A5A5A5" stroke-width="4" stroke-miterlimit="8" stroke-dasharray="16 12" fill="none" fill-rule="evenodd"/><path d="M406.929 465.98 182 321" stroke="#A5A5A5" stroke-width="4" stroke-miterlimit="8" stroke-dasharray="16 12" fill="none" fill-rule="evenodd"/><path d="M0 0 141.061 158.222" stroke="#A5A5A5" stroke-width="4" stroke-miterlimit="8" stroke-dasharray="16 12" fill="none" fill-rule="evenodd" transform="matrix(1 0 0 -1 142 537.222)"/><path d="M0 0 60.7984 153.487" stroke="#A5A5A5" stroke-width="4" stroke-miterlimit="8" stroke-dasharray="16 12" fill="none" fill-rule="evenodd" transform="matrix(1 0 0 -1 378 457.487)"/><path d="M407 394 701.807 436.739" stroke="#A5A5A5" stroke-width="4" stroke-miterlimit="8" stroke-dasharray="16 12" fill="none" fill-rule="evenodd"/><path d="M179.5 415.5C179.5 399.484 192.484 386.5 208.5 386.5 224.516 386.5 237.5 399.484 237.5 415.5 237.5 431.516 224.516 444.5 208.5 444.5 192.484 444.5 179.5 431.516 179.5 415.5Z" stroke="#787878" stroke-width="1.33333" stroke-miterlimit="8" fill="#A5A5A5" fill-rule="evenodd"/><text fill="#FFFFFF" font-family="Yu Gothic,Yu Gothic_MSFontService,sans-serif" font-weight="700" font-size="37" transform="translate(194.879 426)">A</text><path d="M0 0 13.6873 184.113" stroke="#A5A5A5" stroke-width="4" stroke-miterlimit="8" stroke-dasharray="16 12" fill="none" fill-rule="evenodd" transform="matrix(1 0 0 -1 684 615.113)"/><path d="M254.5 308.5C254.5 292.484 267.484 279.5 283.5 279.5 299.516 279.5 312.5 292.484 312.5 308.5 312.5 324.516 299.516 337.5 283.5 337.5 267.484 337.5 254.5 324.516 254.5 308.5Z" stroke="#787878" stroke-width="1.33333" stroke-miterlimit="8" fill="#A5A5A5" fill-rule="evenodd"/><text fill="#FFFFFF" font-family="Yu Gothic,Yu Gothic_MSFontService,sans-serif" font-weight="700" font-size="37" transform="translate(269.196 320)">C</text><path d="M268.5 466.5C268.5 450.484 281.484 437.5 297.5 437.5 313.516 437.5 326.5 450.484 326.5 466.5 326.5 482.516 313.516 495.5 297.5 495.5 281.484 495.5 268.5 482.516 268.5 466.5Z" stroke="#787878" stroke-width="1.33333" stroke-miterlimit="8" fill="#A5A5A5" fill-rule="evenodd"/><text fill="#FFFFFF" font-family="Yu Gothic,Yu Gothic_MSFontService,sans-serif" font-weight="700" font-size="37" transform="translate(282.974 478)">D</text><path d="M486.5 460C486.5 444.26 499.26 431.5 515 431.5 530.74 431.5 543.5 444.26 543.5 460 543.5 475.74 530.74 488.5 515 488.5 499.26 488.5 486.5 475.74 486.5 460Z" stroke="#787878" stroke-width="1.33333" stroke-miterlimit="8" fill="#A5A5A5" fill-rule="evenodd"/><text fill="#FFFFFF" font-family="Yu Gothic,Yu Gothic_MSFontService,sans-serif" font-weight="700" font-size="37" transform="translate(501.278 471)">B</text><path d="M493.599 248.37 266 127" stroke="#A5A5A5" stroke-width="4" stroke-miterlimit="8" stroke-dasharray="16 12" fill="none" fill-rule="evenodd"/><path d="M919.999 249.221 469 239" stroke="#A5A5A5" stroke-width="4" stroke-miterlimit="8" stroke-dasharray="16 12" fill="none" fill-rule="evenodd"/><path d="M0 0 271.54 112.801" stroke="#A5A5A5" stroke-width="4" stroke-miterlimit="8" stroke-dasharray="16 12" fill="none" fill-rule="evenodd" transform="matrix(-1 0 0 1 1198.54 136)"/><path d="M633.5 177.5C633.5 161.484 646.484 148.5 662.5 148.5 678.516 148.5 691.5 161.484 691.5 177.5 691.5 193.516 678.516 206.5 662.5 206.5 646.484 206.5 633.5 193.516 633.5 177.5Z" stroke="#787878" stroke-width="1.33333" stroke-miterlimit="8" fill="#A5A5A5" fill-rule="evenodd"/><text fill="#FFFFFF" font-family="Yu Gothic,Yu Gothic_MSFontService,sans-serif" font-weight="700" font-size="37" transform="translate(650.121 189)">E</text><path d="M741.5 360.5C741.5 344.484 754.484 331.5 770.5 331.5 786.516 331.5 799.5 344.484 799.5 360.5 799.5 376.516 786.516 389.5 770.5 389.5 754.484 389.5 741.5 376.516 741.5 360.5Z" stroke="#787878" stroke-width="1.33333" stroke-miterlimit="8" fill="#A5A5A5" fill-rule="evenodd"/><text fill="#FFFFFF" font-family="Yu Gothic,Yu Gothic_MSFontService,sans-serif" font-weight="700" font-size="37" transform="translate(758.48 372)">F</text></g></svg>