<svg width="1212" height="605" xmlns="http://www.w3.org/2000/svg" xmlns:xlink="http://www.w3.org/1999/xlink" overflow="hidden"><defs><clipPath id="clip0"><rect x="-34" y="29" width="1212" height="605"/></clipPath></defs><g clip-path="url(#clip0)" transform="translate(34 -29)"><path d="M338.034 69.2095 530.007 178.939 812.089 182.858 1061.85 80.9662 1150 31 1149.02 84.8852 1124.53 298.466 1110.82 167.182 1040.3 280.831 1054.01 428.77 1023.65 558.095 993.288 611 972.719 589.446 971.74 537.52 978.596 468.939 874.774 476.777 506.5 489.513 365.459 441.507 311.589 446.405 293.959 484.615 249.884 472.858 221.479 511.068 149.979 456.203 149 407.216 203.849 359.209 193.075 301.405 241.068 224.007 244.986 191.676 271.431 148.568 283.185 113.297 338.034 69.2095Z" stroke="#70AD47" stroke-width="4" stroke-linejoin="round" stroke-miterlimit="10" fill="none" fill-rule="evenodd"/><path d="M498 213C496.009 221.145 493.661 229.214 492.028 237.435 491.003 242.591 491.011 247.908 490.037 253.073 488.771 259.787 486.127 266.142 484.064 272.621 483.344 274.885 482.696 277.171 482.074 279.463 481.369 282.059 480.907 284.721 480.083 287.282 478.913 290.919 477.428 294.45 476.101 298.034 475.769 300.966 475.531 303.91 475.106 306.831 473.46 318.142 472.293 319.545 472.12 331.266 471.85 349.508 472.12 367.755 472.12 386" stroke="#ED7D31" stroke-width="8" stroke-miterlimit="8" fill="none" fill-rule="evenodd"/><path d="M868 194C864.098 224.694 860.524 255.432 856.293 286.082 855.968 288.436 854.939 290.639 854.341 292.939 852.988 298.15 851.74 303.388 850.439 308.612 844.046 334.288 850.568 307.012 845.561 331.143 844.676 335.408 843.575 339.625 842.634 343.878 842.275 345.503 842.135 347.181 841.659 348.776 841.155 350.46 840.188 351.983 839.707 353.673 838.234 358.852 837.797 364.347 835.805 369.347 835.155 370.98 834.565 372.638 833.854 374.245 833.263 375.579 832.413 376.796 831.903 378.163 829.163 385.5 833.393 378.781 828 386" stroke="#ED7D31" stroke-width="8" stroke-miterlimit="8" fill="none" fill-rule="evenodd"/><path d="M190 386C203.929 387.967 208.937 388.49 227.2 393.742 285.73 410.574 230.941 398.112 259.505 404.387 270.713 413.251 256.918 403.109 279.084 414.065L283 416" stroke="#ED7D31" stroke-width="8" stroke-miterlimit="8" fill="none" fill-rule="evenodd"/><path d="M536 177C542.601 223.401 536.001 175.117 537.671 305.271 537.705 307.902 538.335 310.481 538.507 313.104 538.614 314.731 538.507 316.368 538.507 318" stroke="#BDD7EE" stroke-width="8" stroke-miterlimit="8" fill="none" fill-rule="evenodd"/><path d="M661 190C659.333 203.358 659.339 217.02 656 230.075 654.588 235.597 655.27 232.668 654 238.872 654.527 246.598 654.967 255.481 656 263.308 656.905 270.163 658.496 276.941 659 283.835 660.128 299.269 658.263 293.273 662 302.406L661 320" stroke="#BDD7EE" stroke-width="8" stroke-miterlimit="8" fill="none" fill-rule="evenodd"/><path d="M776 186C777.16 193.101 779.393 235.192 788.5 255.626 789.39 257.622 790.423 259.548 791.385 261.51 791.705 263.471 791.844 265.472 792.346 267.394 794.067 273.974 795.587 277.067 798.115 283.084 800.258 296.194 798.069 281.56 800.038 304.658 800.235 306.961 800.68 309.234 801 311.523 800.038 318.714 799.659 326.012 798.115 333.097 797.71 334.957 795.231 338 795.231 338" stroke="#BDD7EE" stroke-width="8" stroke-miterlimit="8" fill="none" fill-rule="evenodd"/><path d="M425.5 331.5C425.5 315.484 438.484 302.5 454.5 302.5 470.516 302.5 483.5 315.484 483.5 331.5 483.5 347.516 470.516 360.5 454.5 360.5 438.484 360.5 425.5 347.516 425.5 331.5Z" stroke="#2F528F" stroke-width="1.33333" stroke-miterlimit="8" fill="#4472C4" fill-rule="evenodd"/><text fill="#FFFFFF" font-family="Yu Gothic,Yu Gothic_MSFontService,sans-serif" font-weight="700" font-size="37" transform="translate(435.048 343)">１</text><path d="M219.5 401.5C219.5 385.484 232.484 372.5 248.5 372.5 264.516 372.5 277.5 385.484 277.5 401.5 277.5 417.516 264.516 430.5 248.5 430.5 232.484 430.5 219.5 417.516 219.5 401.5Z" stroke="#2F528F" stroke-width="1.33333" stroke-miterlimit="8" fill="#4472C4" fill-rule="evenodd"/><text fill="#FFFFFF" font-family="Yu Gothic,Yu Gothic_MSFontService,sans-serif" font-weight="700" font-size="37" transform="translate(237.424 413)">2</text><path d="M823.5 309.5C823.5 293.484 836.484 280.5 852.5 280.5 868.516 280.5 881.5 293.484 881.5 309.5 881.5 325.516 868.516 338.5 852.5 338.5 836.484 338.5 823.5 325.516 823.5 309.5Z" stroke="#2F528F" stroke-width="1.33333" stroke-miterlimit="8" fill="#4472C4" fill-rule="evenodd"/><text fill="#FFFFFF" font-family="Yu Gothic,Yu Gothic_MSFontService,sans-serif" font-weight="700" font-size="37" transform="translate(841.519 321)">3</text><path d="M498.5 135.5C498.5 119.484 511.26 106.5 527 106.5 542.74 106.5 555.5 119.484 555.5 135.5 555.5 151.516 542.74 164.5 527 164.5 511.26 164.5 498.5 151.516 498.5 135.5Z" stroke="#2F528F" stroke-width="1.33333" stroke-miterlimit="8" fill="#4472C4" fill-rule="evenodd"/><text fill="#FFFFFF" font-family="Yu Gothic,Yu Gothic_MSFontService,sans-serif" font-weight="700" font-size="37" transform="translate(515.864 146)">4</text><path d="M629.5 145C629.5 129.26 642.484 116.5 658.5 116.5 674.516 116.5 687.5 129.26 687.5 145 687.5 160.74 674.516 173.5 658.5 173.5 642.484 173.5 629.5 160.74 629.5 145Z" stroke="#2F528F" stroke-width="1.33333" stroke-miterlimit="8" fill="#4472C4" fill-rule="evenodd"/><text fill="#FFFFFF" font-family="Yu Gothic,Yu Gothic_MSFontService,sans-serif" font-weight="700" font-size="37" transform="translate(647.619 156)">5</text><path d="M732.5 141C732.5 125.26 745.484 112.5 761.5 112.5 777.516 112.5 790.5 125.26 790.5 141 790.5 156.74 777.516 169.5 761.5 169.5 745.484 169.5 732.5 156.74 732.5 141Z" stroke="#2F528F" stroke-width="1.33333" stroke-miterlimit="8" fill="#4472C4" fill-rule="evenodd"/><text fill="#FFFFFF" font-family="Yu Gothic,Yu Gothic_MSFontService,sans-serif" font-weight="700" font-size="37" transform="translate(750.476 152)">6</text><path d="M1111.5 242C1111.5 226.26 1124.48 213.5 1140.5 213.5 1156.52 213.5 1169.5 226.26 1169.5 242 1169.5 257.74 1156.52 270.5 1140.5 270.5 1124.48 270.5 1111.5 257.74 1111.5 242Z" stroke="#2F528F" stroke-width="1.33333" stroke-miterlimit="8" fill="#4472C4" fill-rule="evenodd"/><text fill="#FFFFFF" font-family="Yu Gothic,Yu Gothic_MSFontService,sans-serif" font-weight="700" font-size="37" transform="translate(1125.83 253)">D</text><path d="M898.934 43C901.061 53.6784 900.283 45.2927 894.056 63.5658 891.626 70.6965 890.086 78.1421 887.228 85.1109 884.952 90.6604 883.568 96.6701 880.4 101.759 874.666 110.969 869.269 118.75 866.743 130.16 861.746 152.735 864.386 141.971 858.939 162.477 858.289 168.027 857.934 173.619 856.988 179.126 856.305 183.105 854.631 186.881 854.062 190.878 853 198.339 852.858 205.903 852.111 213.402L851.136 223.196C850.81 231.357 850.784 239.535 850.16 247.679 849.807 252.281 848.804 256.811 848.209 261.389 847.828 264.32 847.615 267.272 847.234 270.203 846.639 274.781 845.933 279.343 845.283 283.914 844.958 289.137 844.666 294.362 844.307 299.583 843.593 309.984 843.261 313.094 842.356 323.086 840.548 368.472 842.52 326.506 839.43 373.032 838.634 385.019 838.59 390.54 836.504 402.412 834.431 414.201 832.748 426.1 829.675 437.667 827.074 447.461 823.678 457.075 821.872 467.047 820.469 474.789 819.399 482.027 816.994 489.571 813.369 500.944 811.681 502.536 807.239 513.075 800.06 530.111 802.762 527.653 791.632 544.413 790.331 546.372 789.256 548.502 787.73 550.289 785.336 553.094 779.926 558.124 779.926 558.124 778.58 562.179 779.521 560.203 777 564" stroke="#A5A5A5" stroke-width="4" stroke-miterlimit="8" stroke-dasharray="16 12" fill="none" fill-rule="evenodd"/><path d="M0 0 356.308 54.6462" stroke="#A5A5A5" stroke-width="4" stroke-miterlimit="8" stroke-dasharray="16 12" fill="none" fill-rule="evenodd" transform="matrix(-1 0 0 1 709.308 407)"/><path d="M746.617 521.885 716 403" stroke="#A5A5A5" stroke-width="4" stroke-miterlimit="8" stroke-dasharray="16 12" fill="none" fill-rule="evenodd"/><path d="M383.261 463.037 138 320" stroke="#A5A5A5" stroke-width="4" stroke-miterlimit="8" stroke-dasharray="16 12" fill="none" fill-rule="evenodd"/><path d="M0 0 418.886 5.37921" stroke="#A5A5A5" stroke-width="4" stroke-miterlimit="8" stroke-dasharray="16 12" fill="none" fill-rule="evenodd" transform="matrix(-1 0 0 1 850.886 223)"/><path d="M0 0 3.5199 173.683" stroke="#A5A5A5" stroke-width="4" stroke-miterlimit="8" stroke-dasharray="16 12" fill="none" fill-rule="evenodd" transform="matrix(1 0 0 -1 440 230.683)"/><path d="M332.5 293C332.5 277.26 345.484 264.5 361.5 264.5 377.516 264.5 390.5 277.26 390.5 293 390.5 308.74 377.516 321.5 361.5 321.5 345.484 321.5 332.5 308.74 332.5 293Z" stroke="#787878" stroke-width="1.33333" stroke-miterlimit="8" fill="#A5A5A5" fill-rule="evenodd"/><text fill="#FFFFFF" font-family="Yu Gothic,Yu Gothic_MSFontService,sans-serif" font-weight="700" font-size="24" transform="translate(357.883 300)">i</text><path d="M579.5 345.5C579.5 329.484 592.484 316.5 608.5 316.5 624.516 316.5 637.5 329.484 637.5 345.5 637.5 361.516 624.516 374.5 608.5 374.5 592.484 374.5 579.5 361.516 579.5 345.5Z" stroke="#787878" stroke-width="1.33333" stroke-miterlimit="8" fill="#A5A5A5" fill-rule="evenodd"/><text fill="#FFFFFF" font-family="Yu Gothic,Yu Gothic_MSFontService,sans-serif" font-weight="700" font-size="24" transform="translate(604.91 352)">i</text><path d="M576.5 467.5C576.5 451.484 589.484 438.5 605.5 438.5 621.516 438.5 634.5 451.484 634.5 467.5 634.5 483.516 621.516 496.5 605.5 496.5 589.484 496.5 576.5 483.516 576.5 467.5Z" stroke="#787878" stroke-width="1.33333" stroke-miterlimit="8" fill="#A5A5A5" fill-rule="evenodd"/><text fill="#FFFFFF" font-family="Yu Gothic,Yu Gothic_MSFontService,sans-serif" font-weight="700" font-size="24" transform="translate(595.169 475)">iv</text><path d="M203.5 473.5C203.5 457.484 216.484 444.5 232.5 444.5 248.516 444.5 261.5 457.484 261.5 473.5 261.5 489.516 248.516 502.5 232.5 502.5 216.484 502.5 203.5 489.516 203.5 473.5Z" stroke="#787878" stroke-width="1.33333" stroke-miterlimit="8" fill="#A5A5A5" fill-rule="evenodd"/><text fill="#FFFFFF" font-family="Yu Gothic,Yu Gothic_MSFontService,sans-serif" font-weight="700" font-size="24" transform="translate(225.67 480)">v</text><path d="M891.5 407.5C891.5 391.484 904.484 378.5 920.5 378.5 936.516 378.5 949.5 391.484 949.5 407.5 949.5 423.516 936.516 436.5 920.5 436.5 904.484 436.5 891.5 423.516 891.5 407.5Z" stroke="#787878" stroke-width="1.33333" stroke-miterlimit="8" fill="#A5A5A5" fill-rule="evenodd"/><text fill="#FFFFFF" font-family="Yu Gothic,Yu Gothic_MSFontService,sans-serif" font-weight="700" font-size="24" transform="translate(912.899 415)">ii</text><path d="M569.5 186.5C569.5 170.484 582.26 157.5 598 157.5 613.74 157.5 626.5 170.484 626.5 186.5 626.5 202.516 613.74 215.5 598 215.5 582.26 215.5 569.5 202.516 569.5 186.5Z" stroke="#787878" stroke-width="1.33333" stroke-miterlimit="8" fill="#A5A5A5" fill-rule="evenodd"/><text fill="#FFFFFF" font-family="Yu Gothic,Yu Gothic_MSFontService,sans-serif" font-weight="700" font-size="24" transform="translate(587.301 194)">iii</text><path d="M986.708 424.364 1069.19 408.13 1052.63 432.809 1087.12 455.955 1103.68 431.276 1119.91 513.758 1037.43 529.992 1053.99 505.313 1019.5 482.167 1002.94 506.846Z" stroke="#787878" stroke-width="1.33333" stroke-miterlimit="8" fill="#A5A5A5" fill-rule="evenodd"/><path d="M1022.5 471.5C1022.5 455.484 1035.48 442.5 1051.5 442.5 1067.52 442.5 1080.5 455.484 1080.5 471.5 1080.5 487.516 1067.52 500.5 1051.5 500.5 1035.48 500.5 1022.5 487.516 1022.5 471.5Z" stroke="#787878" stroke-width="1.33333" stroke-miterlimit="8" fill="#A5A5A5" fill-rule="evenodd"/><text fill="#FFFFFF" font-family="Yu Gothic,Yu Gothic_MSFontService,sans-serif" font-weight="700" font-size="24" transform="translate(1042.51 478)">A</text><path d="M302.5 247.5C302.5 231.484 315.484 218.5 331.5 218.5 347.516 218.5 360.5 231.484 360.5 247.5 360.5 263.516 347.516 276.5 331.5 276.5 315.484 276.5 302.5 263.516 302.5 247.5Z" stroke="#2F528F" stroke-width="1.33333" stroke-miterlimit="8" fill="#4472C4" fill-rule="evenodd"/><text fill="#FFFFFF" font-family="Yu Gothic,Yu Gothic_MSFontService,sans-serif" font-weight="700" font-size="37" transform="translate(317.913 259)">A</text><path d="M667.5 229C667.5 213.26 680.484 200.5 696.5 200.5 712.516 200.5 725.5 213.26 725.5 229 725.5 244.74 712.516 257.5 696.5 257.5 680.484 257.5 667.5 244.74 667.5 229Z" stroke="#2F528F" stroke-width="1.33333" stroke-miterlimit="8" fill="#4472C4" fill-rule="evenodd"/><text fill="#FFFFFF" font-family="Yu Gothic,Yu Gothic_MSFontService,sans-serif" font-weight="700" font-size="37" transform="translate(682.678 240)">B</text><rect x="250" y="494" width="110" height="128" fill="#5B9BD5" fill-opacity="0.501961"/><text fill="#FFFFFF" font-family="Yu Gothic,Yu Gothic_MSFontService,sans-serif" font-weight="700" font-size="37" writing-mode="tb-rl" transform="translate(315.045 498)" x="12.7549" y="4.44434">カスピ</text><text fill="#FFFFFF" font-family="Yu Gothic,Yu Gothic_MSFontService,sans-serif" font-weight="700" font-size="37" writing-mode="tb-rl" transform="translate(270.045 498)" x="12.7549" y="4.44434">海</text><rect x="74" y="421" width="65" height="103" fill="#5B9BD5" fill-opacity="0.501961"/><text fill="#FFFFFF" font-family="Yu Gothic,Yu Gothic_MSFontService,sans-serif" font-weight="700" font-size="37" writing-mode="tb-rl" transform="translate(94.4882 426)" x="12.7549" y="4.44434">黒海</text><rect x="-10" y="296" width="200" height="46" fill="#70AD47" fill-opacity="0.501961"/><text fill="#FFFFFF" font-family="Yu Gothic,Yu Gothic_MSFontService,sans-serif" font-weight="700" font-size="37" transform="translate(-10.266 330)">ウクライナ</text><path d="M546.5 236.5C546.5 220.484 559.26 207.5 575 207.5 590.74 207.5 603.5 220.484 603.5 236.5 603.5 252.516 590.74 265.5 575 265.5 559.26 265.5 546.5 252.516 546.5 236.5Z" stroke="#2F528F" stroke-width="1.33333" stroke-miterlimit="8" fill="#4472C4" fill-rule="evenodd"/><text fill="#FFFFFF" font-family="Yu Gothic,Yu Gothic_MSFontService,sans-serif" font-weight="700" font-size="37" transform="translate(561.042 248)">C</text></g></svg>