<svg width="1208" height="750" xmlns="http://www.w3.org/2000/svg" xmlns:xlink="http://www.w3.org/1999/xlink" overflow="hidden"><defs><clipPath id="clip0"><rect x="26" y="1" width="1208" height="750"/></clipPath></defs><g clip-path="url(#clip0)" transform="translate(-26 -1)"><path d="M203 99.9686 250.404 283.8 303.149 265.082 317.17 327.25 317.17 380.06 437.349 481 464.056 477.658 470.733 452.924 389.945 355.995 391.948 322.571 419.99 305.191 454.709 328.587 542.84 300.511 544.176 283.131 524.813 202.245 537.499 144.756 576.934 99.5775 695.953 52.4452 761 3" stroke="#70AD47" stroke-width="4" stroke-miterlimit="8" fill="none" fill-rule="evenodd"/><path d="M397.093 534 529.278 588.625 546 626.625 535.648 648 434.519 642.458 374 595.75 374 546.667 397.093 534Z" stroke="#70AD47" stroke-width="4" stroke-miterlimit="8" fill="none" fill-rule="evenodd"/><path d="M575.655 707.8 674 715 761.241 715 766 699.8 740.621 686.2 622.448 684.6 573.276 683 559 692.6 570.103 701.4 575.655 707.8Z" stroke="#70AD47" stroke-width="4" stroke-miterlimit="8" fill="none" fill-rule="evenodd"/><path d="M651 632.206 731.75 645 765.792 634.899 803 568.236 780.833 533.894 702.458 511 651 605.945 651 632.206Z" stroke="#70AD47" stroke-width="4" stroke-miterlimit="8" fill="none" fill-rule="evenodd"/><path d="M876.8 686.4 930.4 681 952 689.486 928 707.229 872.8 708 860 696.429 876.8 686.4Z" stroke="#70AD47" stroke-width="4" stroke-miterlimit="8" fill="none" fill-rule="evenodd"/><path d="M988.617 676.6 1041.63 671 1063 679.8 1039.26 698.2 984.661 699 972 687 988.617 676.6Z" stroke="#70AD47" stroke-width="4" stroke-miterlimit="8" fill="none" fill-rule="evenodd"/><path d="M1099.62 672.4 1152.63 667 1174 675.486 1150.26 693.229 1095.66 694 1083 682.429 1099.62 672.4Z" stroke="#70AD47" stroke-width="4" stroke-miterlimit="8" fill="none" fill-rule="evenodd"/><path d="M721.933 378 812.156 382.957 819 405.88 787.267 424.467 741.844 435 715.711 410.837 707 391.63 721.933 378Z" stroke="#70AD47" stroke-width="4" stroke-miterlimit="8" fill="none" fill-rule="evenodd"/><path d="M739.134 320.908 822.493 324 825 299.882 818.106 285.039 779.873 277 743.521 279.474 736 294.934 739.134 320.908Z" stroke="#70AD47" stroke-width="4" stroke-miterlimit="8" fill="none" fill-rule="evenodd"/><path d="M736 339C736 334.029 740.029 330 745 330 749.971 330 754 334.029 754 339 754 343.971 749.971 348 745 348 740.029 348 736 343.971 736 339Z" stroke="#70AD47" stroke-width="4" stroke-miterlimit="8" fill="none" fill-rule="evenodd"/><path d="M763 350.5C763 345.806 766.806 342 771.5 342 776.194 342 780 345.806 780 350.5 780 355.194 776.194 359 771.5 359 766.806 359 763 355.194 763 350.5Z" stroke="#70AD47" stroke-width="4" stroke-miterlimit="8" fill="none" fill-rule="evenodd"/><path d="M799 339C799 334.029 803.029 330 808 330 812.971 330 817 334.029 817 339 817 343.971 812.971 348 808 348 803.029 348 799 343.971 799 339Z" stroke="#70AD47" stroke-width="4" stroke-miterlimit="8" fill="none" fill-rule="evenodd"/><path d="M790 368.5C790 363.806 794.029 360 799 360 803.971 360 808 363.806 808 368.5 808 373.194 803.971 377 799 377 794.029 377 790 373.194 790 368.5Z" stroke="#70AD47" stroke-width="4" stroke-miterlimit="8" fill="none" fill-rule="evenodd"/><path d="M735 366C735 361.029 739.029 357 744 357 748.971 357 753 361.029 753 366 753 370.971 748.971 375 744 375 739.029 375 735 370.971 735 366Z" stroke="#70AD47" stroke-width="4" stroke-miterlimit="8" fill="none" fill-rule="evenodd"/><path d="M263.156 279C262.874 270.518 262.311 262.04 262.311 253.554 262.311 232.953 262.774 229.163 264 213 263.719 205.048 263.638 197.088 263.156 189.145 263.074 187.795 262.547 186.502 262.311 185.169 261.984 183.32 261.813 181.448 261.467 179.602 260.969 176.94 260.653 174.225 259.779 171.651 258.393 167.572 254.713 159.723 254.713 159.723 253.895 155.097 253.553 153.565 253.025 148.59 252.969 148.063 253.025 147.53 253.025 147" stroke="#BDD7EE" stroke-width="8" stroke-miterlimit="8" fill="none" fill-rule="evenodd"/><path d="M400 317C399.458 315.421 398.816 313.871 398.375 312.263 397.732 309.919 397.455 307.485 396.75 305.158 396.097 303.001 395.125 300.947 394.312 298.842 394.042 294.895 393.919 290.935 393.5 287 393.106 283.298 392.185 279.657 391.875 275.947 391.371 269.909 391.496 263.833 391.062 257.789 390.684 252.513 389.979 247.263 389.438 242 389.167 230.158 389.112 218.309 388.625 206.474 388.212 196.443 389.866 186.097 384.562 177.263 382.271 173.446 379.003 171.496 375.625 168.579 375.053 168.084 374.542 167.526 374 167" stroke="#BDD7EE" stroke-width="8" stroke-miterlimit="8" fill="none" fill-rule="evenodd"/><path d="M485 321C484.736 309.599 484.739 298.188 484.207 286.796 483.446 270.517 480.541 259.274 478.655 242.25 477.287 229.902 478.892 239.828 476.276 230.318 469.897 207.127 474.531 218.673 467.552 203.273 465.678 188.239 468.104 205.063 465.172 191.341 464.781 189.508 464.929 187.565 464.379 185.773 463.858 184.073 462 181 462 181" stroke="#BDD7EE" stroke-width="8" stroke-miterlimit="8" fill="none" fill-rule="evenodd"/><path d="M452.484 265.002C450.78 255.948 454.991 247.555 461.89 246.257 468.788 244.958 475.762 251.246 477.467 260.3 479.171 269.355 474.96 277.747 468.061 279.046 461.163 280.344 454.188 274.057 452.484 265.002Z" fill="#BDD7EE" fill-rule="evenodd"/><path d="M659 68C657.808 66.5185 656.341 65.219 655.423 63.5555 651.257 56.0035 651.008 45.2219 643.798 40.4444 638.346 36.8317 642.665 39.3184 632.173 36 628.58 34.8636 624.993 33.705 621.442 32.4444 616.645 30.7415 611.967 28.7122 607.135 27.1111 604.287 26.1676 596.59 25.5515 594.615 25.3333 591.701 24.6894 584.391 23.3625 581.202 21.7777 579.869 21.1152 578.889 19.8963 577.625 19.1111 576.495 18.4088 575.179 18.0356 574.048 17.3333 572.784 16.5481 571.735 15.4519 570.471 14.6667 565.199 11.3914 568.253 14.24 566 12" stroke="#BDD7EE" stroke-width="8" stroke-miterlimit="8" fill="none" fill-rule="evenodd"/><path d="M709.744 231.93 707.431 232.368 707.587 232.335 705.842 232.738 704.595 232.946 704.722 232.922 704.097 233.047 704.411 232.971 673.446 241.818 672.688 239.87 701.211 225.61 701.211 232.765 701.086 232.703 703.441 233.085 702.887 233.164 702.02 233.236 702.085 233.23 700.835 233.355 701.003 233.335 699.253 233.585 699.281 233.581 696.781 233.956 696.807 233.952 693.62 234.452 693.8 234.419 690.699 235.052 687.485 235.642 681.824 236.35 676.215 236.917 677.272 236.662 671.193 239.043 665.546 241.2 659.526 243.25 656.051 244.279 652.251 245.356 645.475 247.176 645.499 247.169 638.686 249.044 639.061 248.921 634.157 250.807 628.904 252.735 622.402 254.049 616.261 255.239 616.734 255.117 607.484 258.117 607.53 258.102 598.229 261.245 595.739 262.011 595.827 261.982 593.697 262.692 590.426 263.654 588.224 264.284 586.474 264.784 586.551 264.761 584.926 265.261 585.117 265.197 583.054 265.947 583.101 265.929 580.289 266.992 578.481 267.677 578.548 267.651 576.361 268.526 576.447 268.49 567.822 272.178 568.075 272.059 565.584 273.337 562.768 274.674 558.158 276.098 553.76 277.245 554.889 276.755 551.735 278.75 548.258 280.697 544.194 282.239 540.266 283.352 537.316 284.168 535.037 284.801 533.316 285.247 533.33 285.243 532.084 285.571 530.985 285.825 529.972 285.938 529.062 285.938 529.395 285.924 528.645 285.986 527.895 286.049 528.059 286.032 527.059 286.157 527.378 286.103 525.878 286.416 525.917 286.408 523.917 286.845 523.969 286.834 521.281 287.459 521.311 287.451 517.936 288.264 518.024 288.242 510.658 290.193 503.038 291.986 494.587 293.395 486.689 294.422 471.714 295.311 464.112 295.437 456.219 295.5 447.654 295.562 447.791 295.559 441.135 295.836 440.803 287.842 447.527 287.563 456.156 287.5 464.031 287.438 463.996 287.438 471.496 287.313 471.326 287.32 486.076 286.445 485.797 286.471 493.484 285.471 493.342 285.492 501.592 284.117 501.334 284.169 508.771 282.419 508.663 282.446 516.02 280.497 519.454 279.67 522.182 279.036 524.227 278.588 525.905 278.238 527.148 278.083 527.98 278.014 528.896 277.938 529.75 277.938 529.308 277.962 529.871 277.899 529.413 277.977 530.226 277.79 530.107 277.819 531.302 277.505 532.996 277.066 532.929 277.083 535.184 276.457 538.121 275.645 538.097 275.651 541.847 274.589 541.519 274.698 545.144 273.323 544.608 273.572 547.733 271.822 547.549 271.932 551.138 269.662 556.053 268.38 555.882 268.428 560.132 267.116 559.596 267.324 562.096 266.137 561.987 266.191 564.549 264.877 573.346 261.116 575.61 260.21 577.461 259.508 580.297 258.437 582.478 257.644 584.237 257.103 586.026 256.591 588.214 255.966 588.184 255.975 591.371 255.038 591.235 255.08 593.342 254.378 595.824 253.614 595.72 253.648 604.993 250.515 614.499 247.432 620.864 246.198 620.833 246.204 627.02 244.954 626.434 245.12 631.372 243.308 631.314 243.329 636.373 241.383 643.388 239.453 650.15 237.637 650.097 237.651 653.847 236.589 653.801 236.602 657.176 235.602 657.023 235.651 662.898 233.651 662.76 233.701 668.323 231.576 668.291 231.588 674.864 229.013 680.973 228.395 680.879 228.406 686.379 227.718 686.152 227.753 689.215 227.191 689.138 227.206 692.29 226.562 695.581 226.046 698.108 225.667 699.955 225.403 701.322 225.267 702.105 225.201 701.872 225.228 703.546 224.989 711.945 229.188 704.664 232.828 701.776 225.404 702.369 225.234 703.216 225.065 704.405 224.867 704.163 224.915 705.866 224.522 708.256 224.07ZM445.632 303.597 421 292.956 444.293 279.634Z" fill="#5B9BD5"/><path d="M1129 613 1129 747.937" stroke="#4472C4" stroke-width="4" stroke-miterlimit="8" stroke-dasharray="16 12" fill="none" fill-rule="evenodd"/><path d="M40.5001 152.5C40.5001 136.484 53.4838 123.5 69.5001 123.5 85.5163 123.5 98.5001 136.484 98.5001 152.5 98.5001 168.516 85.5163 181.5 69.5001 181.5 53.4838 181.5 40.5001 168.516 40.5001 152.5Z" stroke="#41719C" stroke-width="1.33333" stroke-miterlimit="8" fill="#5B9BD5" fill-rule="evenodd"/><text fill="#FFFFFF" font-family="Yu Gothic,Yu Gothic_MSFontService,sans-serif" font-weight="700" font-size="48" transform="translate(55.2374 167)">1</text><path d="M613.5 229.5C613.5 213.484 626.484 200.5 642.5 200.5 658.516 200.5 671.5 213.484 671.5 229.5 671.5 245.516 658.516 258.5 642.5 258.5 626.484 258.5 613.5 245.516 613.5 229.5Z" stroke="#41719C" stroke-width="1.33333" stroke-miterlimit="8" fill="#5B9BD5" fill-rule="evenodd"/><text fill="#FFFFFF" font-family="Yu Gothic,Yu Gothic_MSFontService,sans-serif" font-weight="700" font-size="48" transform="translate(627.996 244)">2</text><path d="M1161.5 691.5C1161.5 675.484 1174.48 662.5 1190.5 662.5 1206.52 662.5 1219.5 675.484 1219.5 691.5 1219.5 707.516 1206.52 720.5 1190.5 720.5 1174.48 720.5 1161.5 707.516 1161.5 691.5Z" stroke="#41719C" stroke-width="1.33333" stroke-miterlimit="8" fill="#5B9BD5" fill-rule="evenodd"/><text fill="#FFFFFF" font-family="Yu Gothic,Yu Gothic_MSFontService,sans-serif" font-weight="700" font-size="48" transform="translate(1176.41 706)">3</text><path d="M324.5 262.5C324.5 246.484 337.484 233.5 353.5 233.5 369.516 233.5 382.5 246.484 382.5 262.5 382.5 278.516 369.516 291.5 353.5 291.5 337.484 291.5 324.5 278.516 324.5 262.5Z" stroke="#41719C" stroke-width="1.33333" stroke-miterlimit="8" fill="#5B9BD5" fill-rule="evenodd"/><text fill="#FFFFFF" font-family="Yu Gothic,Yu Gothic_MSFontService,sans-serif" font-weight="700" font-size="48" transform="translate(339.501 277)">6</text><path d="M0 0 4.99454 216.361" stroke="#5B9BD5" stroke-width="4" stroke-miterlimit="8" stroke-dasharray="16 12" fill="none" fill-rule="evenodd" transform="matrix(-1 0 0 1 420.995 134)"/><path d="M276 103 304.236 350.131" stroke="#5B9BD5" stroke-width="4" stroke-miterlimit="8" stroke-dasharray="16 12" fill="none" fill-rule="evenodd"/><path d="M421.001 350.812 302 346" stroke="#5B9BD5" stroke-width="4" stroke-miterlimit="8" stroke-dasharray="16 12" fill="none" fill-rule="evenodd"/><path d="M422.234 136.889 276 109" stroke="#5B9BD5" stroke-width="4" stroke-miterlimit="8" stroke-dasharray="16 12" fill="none" fill-rule="evenodd"/><path d="M116.55 185.157 118.237 188.407 118.178 188.296 119.053 189.858 118.59 189.198 119.777 190.573 119.379 190.172 129.129 198.672 128.974 198.544 138.661 206.169 138.578 206.105 148.39 213.418 148.346 213.385 159.714 221.615 161.006 226.78 160.978 226.675 161.728 229.362 161.497 228.74 162.434 230.74 161.97 229.982 163.282 231.669 162.555 230.948 164.68 232.573 164.358 232.35 167.483 234.288 167.371 234.221 169.433 235.409 171.817 236.788 174.626 238.412 177.874 240.285 177.793 240.24 183.168 243.177 183.104 243.143 188.536 245.986 194.108 249.132 199.259 252.896 206.877 259.118 214.366 265.518 220.559 271.902 220.544 271.888 223.607 275.013 223.461 274.871 226.648 277.809 226.327 277.542 229.622 279.997 232.966 282.853 237.492 288.178 241.557 293.513 241.457 293.388 245.645 298.451 245.253 298.04 250.066 302.415 249.704 302.123 254.845 305.804 260.016 309.901 263.516 313.881 266.524 317.721 266.203 317.359 272.391 323.547 272.255 323.417 277.13 327.854 277.062 327.794 281.375 331.544 285.353 335.018 289.141 338.484 292.968 342.311 296.922 346.719 301.203 352.022 303.581 355.107 306.055 358.533 306.029 358.497 309.251 362.856 312.449 367.453 313.828 370.211 313.809 370.175 315.059 372.612 314.907 372.341 316.907 375.591 316.8 375.427 319.112 378.802 318.875 378.49 321.5 381.615 321.099 381.201 323.974 383.764 323.492 383.396 329.742 387.459 329.515 387.321 335.327 390.571 335.134 390.47 341.149 393.415 347.872 396.776 359.137 403.077 362.734 405.432 366.027 407.711 365.91 407.633 369.222 409.758 369.021 409.637 372.583 411.637 372.327 411.505 382.827 416.443 393.342 421.417 399.534 424.639 399.418 424.581 405.668 427.581 405.368 427.452 413.575 430.596 410.713 438.067 402.354 434.864 395.898 431.766 389.716 428.548 389.852 428.616 379.423 423.682 368.792 418.683 365.002 416.555 361.531 414.329 358.223 412.039 358.309 412.097 354.872 409.847 355.11 409.991 344.047 403.804 344.211 403.89 337.586 400.578 337.616 400.593 331.518 397.607 325.494 394.239 318.878 389.938 315.56 386.981 312.624 383.485 310.145 379.867 308.012 376.401 306.681 373.807 305.422 371.289 305.716 371.784 302.716 367.472 302.783 367.565 299.583 363.235 297.132 359.842 297.207 359.942 294.894 356.942 294.95 357.012 290.763 351.825 290.897 351.984 287.085 347.734 287.234 347.891 283.547 344.203 283.674 344.326 279.987 340.951 280.057 341.013 276.125 337.581 271.779 333.801 266.8 329.27 260.375 322.845 257.289 318.904 257.434 319.079 254.246 315.454 254.766 315.948 249.954 312.135 250.109 312.252 244.857 308.492 239.661 303.769 235.242 298.425 231.193 293.112 231.327 293.278 227.077 288.278 227.527 288.729 224.527 286.167 224.735 286.333 221.38 283.833 217.964 280.685 214.824 277.48 208.754 271.223 209.026 271.478 201.714 265.228 201.782 265.286 194.282 259.161 194.452 259.292 189.577 255.73 189.971 255.983 184.658 252.983 184.771 253.044 179.363 250.215 173.916 247.238 170.624 245.338 167.808 243.712 165.442 242.341 163.323 241.121 159.976 239.046 157.285 236.989 155.38 234.54 154.112 231.834 153.258 228.773 152.307 224.97 153.842 227.24 143.632 219.849 133.755 212.488 123.947 204.769 113.908 196.016 112.27 194.12 111.167 192.149 109.45 188.843ZM412.374 421.685 431 441 404.372 444.311Z" fill="#5B9BD5"/><path d="M1015.5 680C1015.5 664.26 1028.48 651.5 1044.5 651.5 1060.52 651.5 1073.5 664.26 1073.5 680 1073.5 695.74 1060.52 708.5 1044.5 708.5 1028.48 708.5 1015.5 695.74 1015.5 680Z" stroke="#41719C" stroke-width="1.33333" stroke-miterlimit="8" fill="#5B9BD5" fill-rule="evenodd"/><text fill="#FFFFFF" font-family="Yu Gothic,Yu Gothic_MSFontService,sans-serif" font-weight="700" font-size="48" transform="translate(1030.29 695)">4</text><path d="M0 0 224.827 118.357" stroke="#5B9BD5" stroke-width="4" stroke-miterlimit="8" stroke-dasharray="16 12" fill="none" fill-rule="evenodd" transform="matrix(-1 0 0 1 548.827 457)"/><path d="M0 0 204.774 34.7588" stroke="#5B9BD5" stroke-width="4" stroke-miterlimit="8" stroke-dasharray="16 12" fill="none" fill-rule="evenodd" transform="matrix(-1 0 0 1 882.774 430)"/><path d="M0 0 37.5872 223.053" stroke="#5B9BD5" stroke-width="4" stroke-miterlimit="8" stroke-dasharray="16 12" fill="none" fill-rule="evenodd" transform="matrix(1 0 0 -1 682 472.053)"/><path d="M905.121 253.365 711 253" stroke="#5B9BD5" stroke-width="4" stroke-miterlimit="8" stroke-dasharray="16 12" fill="none" fill-rule="evenodd"/><path d="M823.5 371.5C823.5 355.484 836.484 342.5 852.5 342.5 868.516 342.5 881.5 355.484 881.5 371.5 881.5 387.516 868.516 400.5 852.5 400.5 836.484 400.5 823.5 387.516 823.5 371.5Z" stroke="#41719C" stroke-width="1.33333" stroke-miterlimit="8" fill="#5B9BD5" fill-rule="evenodd"/><text fill="#FFFFFF" font-family="Yu Gothic,Yu Gothic_MSFontService,sans-serif" font-weight="700" font-size="48" transform="translate(838.523 386)">5</text><path d="M519.5 599C519.5 583.26 532.26 570.5 548 570.5 563.74 570.5 576.5 583.26 576.5 599 576.5 614.74 563.74 627.5 548 627.5 532.26 627.5 519.5 614.74 519.5 599Z" stroke="#41719C" stroke-width="1.33333" stroke-miterlimit="8" fill="#5B9BD5" fill-rule="evenodd"/><text fill="#FFFFFF" font-family="Yu Gothic,Yu Gothic_MSFontService,sans-serif" font-weight="700" font-size="48" transform="translate(533.764 614)">4</text></g></svg>