<svg width="1175" height="722" xmlns="http://www.w3.org/2000/svg" xmlns:xlink="http://www.w3.org/1999/xlink" overflow="hidden"><defs><clipPath id="clip0"><rect x="4" y="-5" width="1175" height="722"/></clipPath></defs><g clip-path="url(#clip0)" transform="translate(-4 5)"><path d="M203 99.9686 250.404 283.8 303.149 265.082 317.17 327.25 317.17 380.06 437.349 481 464.056 477.658 470.733 452.924 389.945 355.995 391.948 322.571 419.99 305.191 454.709 328.587 542.84 300.511 544.176 283.131 524.813 202.245 537.499 144.756 576.934 99.5775 695.953 52.4452 761 3" stroke="#70AD47" stroke-width="4" stroke-miterlimit="8" fill="none" fill-rule="evenodd"/><path d="M397.093 534 529.278 588.625 546 626.625 535.648 648 434.519 642.458 374 595.75 374 546.667 397.093 534Z" stroke="#70AD47" stroke-width="4" stroke-miterlimit="8" fill="none" fill-rule="evenodd"/><path d="M575.655 707.8 674 715 761.241 715 766 699.8 740.621 686.2 622.448 684.6 573.276 683 559 692.6 570.103 701.4 575.655 707.8Z" stroke="#70AD47" stroke-width="4" stroke-miterlimit="8" fill="none" fill-rule="evenodd"/><path d="M651 632.206 731.75 645 765.792 634.899 803 568.236 780.833 533.894 702.458 511 651 605.945 651 632.206Z" stroke="#70AD47" stroke-width="4" stroke-miterlimit="8" fill="none" fill-rule="evenodd"/><path d="M876.8 686.4 930.4 681 952 689.486 928 707.229 872.8 708 860 696.429 876.8 686.4Z" stroke="#70AD47" stroke-width="4" stroke-miterlimit="8" fill="none" fill-rule="evenodd"/><path d="M988.617 676.6 1041.63 671 1063 679.8 1039.26 698.2 984.661 699 972 687 988.617 676.6Z" stroke="#70AD47" stroke-width="4" stroke-miterlimit="8" fill="none" fill-rule="evenodd"/><path d="M1099.62 672.4 1152.63 667 1174 675.486 1150.26 693.229 1095.66 694 1083 682.429 1099.62 672.4Z" stroke="#70AD47" stroke-width="4" stroke-miterlimit="8" fill="none" fill-rule="evenodd"/><path d="M721.933 378 812.156 382.957 819 405.88 787.267 424.467 741.844 435 715.711 410.837 707 391.63 721.933 378Z" stroke="#70AD47" stroke-width="4" stroke-miterlimit="8" fill="none" fill-rule="evenodd"/><path d="M739.134 320.908 822.493 324 825 299.882 818.106 285.039 779.873 277 743.521 279.474 736 294.934 739.134 320.908Z" stroke="#70AD47" stroke-width="4" stroke-miterlimit="8" fill="none" fill-rule="evenodd"/><path d="M736 339C736 334.029 740.029 330 745 330 749.971 330 754 334.029 754 339 754 343.971 749.971 348 745 348 740.029 348 736 343.971 736 339Z" stroke="#70AD47" stroke-width="4" stroke-miterlimit="8" fill="none" fill-rule="evenodd"/><path d="M763 350.5C763 345.806 766.806 342 771.5 342 776.194 342 780 345.806 780 350.5 780 355.194 776.194 359 771.5 359 766.806 359 763 355.194 763 350.5Z" stroke="#70AD47" stroke-width="4" stroke-miterlimit="8" fill="none" fill-rule="evenodd"/><path d="M799 339C799 334.029 803.029 330 808 330 812.971 330 817 334.029 817 339 817 343.971 812.971 348 808 348 803.029 348 799 343.971 799 339Z" stroke="#70AD47" stroke-width="4" stroke-miterlimit="8" fill="none" fill-rule="evenodd"/><path d="M790 368.5C790 363.806 794.029 360 799 360 803.971 360 808 363.806 808 368.5 808 373.194 803.971 377 799 377 794.029 377 790 373.194 790 368.5Z" stroke="#70AD47" stroke-width="4" stroke-miterlimit="8" fill="none" fill-rule="evenodd"/><path d="M735 366C735 361.029 739.029 357 744 357 748.971 357 753 361.029 753 366 753 370.971 748.971 375 744 375 739.029 375 735 370.971 735 366Z" stroke="#70AD47" stroke-width="4" stroke-miterlimit="8" fill="none" fill-rule="evenodd"/><path d="M263.156 279C262.874 270.518 262.311 262.04 262.311 253.554 262.311 232.953 262.774 229.163 264 213 263.719 205.048 263.638 197.088 263.156 189.145 263.074 187.795 262.547 186.502 262.311 185.169 261.984 183.32 261.813 181.448 261.467 179.602 260.969 176.94 260.653 174.225 259.779 171.651 258.393 167.572 254.713 159.723 254.713 159.723 253.895 155.097 253.553 153.565 253.025 148.59 252.969 148.063 253.025 147.53 253.025 147" stroke="#BDD7EE" stroke-width="8" stroke-miterlimit="8" fill="none" fill-rule="evenodd"/><path d="M400 317C399.458 315.421 398.816 313.871 398.375 312.263 397.732 309.919 397.455 307.485 396.75 305.158 396.097 303.001 395.125 300.947 394.312 298.842 394.042 294.895 393.919 290.935 393.5 287 393.106 283.298 392.185 279.657 391.875 275.947 391.371 269.909 391.496 263.833 391.062 257.789 390.684 252.513 389.979 247.263 389.438 242 389.167 230.158 389.112 218.309 388.625 206.474 388.212 196.443 389.866 186.097 384.562 177.263 382.271 173.446 379.003 171.496 375.625 168.579 375.053 168.084 374.542 167.526 374 167" stroke="#BDD7EE" stroke-width="8" stroke-miterlimit="8" fill="none" fill-rule="evenodd"/><path d="M485 321C484.736 309.599 484.739 298.188 484.207 286.796 483.446 270.517 480.541 259.274 478.655 242.25 477.287 229.902 478.892 239.828 476.276 230.318 469.897 207.127 474.531 218.673 467.552 203.273 465.678 188.239 468.104 205.063 465.172 191.341 464.781 189.508 464.929 187.565 464.379 185.773 463.858 184.073 462 181 462 181" stroke="#BDD7EE" stroke-width="8" stroke-miterlimit="8" fill="none" fill-rule="evenodd"/><path d="M452.484 265.002C450.78 255.948 454.991 247.555 461.89 246.257 468.788 244.958 475.762 251.246 477.467 260.3 479.171 269.355 474.96 277.747 468.061 279.046 461.163 280.344 454.188 274.057 452.484 265.002Z" fill="#BDD7EE" fill-rule="evenodd"/><path d="M659 68C657.808 66.5185 656.341 65.219 655.423 63.5555 651.257 56.0035 651.008 45.2219 643.798 40.4444 638.346 36.8317 642.665 39.3184 632.173 36 628.58 34.8636 624.993 33.705 621.442 32.4444 616.645 30.7415 611.967 28.7122 607.135 27.1111 604.287 26.1676 596.59 25.5515 594.615 25.3333 591.701 24.6894 584.391 23.3625 581.202 21.7777 579.869 21.1152 578.889 19.8963 577.625 19.1111 576.495 18.4088 575.179 18.0356 574.048 17.3333 572.784 16.5481 571.735 15.4519 570.471 14.6667 565.199 11.3914 568.253 14.24 566 12" stroke="#BDD7EE" stroke-width="8" stroke-miterlimit="8" fill="none" fill-rule="evenodd"/><path d="M151.72 104.01 176.657 102.26 176.58 102.266 186.33 101.391 185.924 101.449 188.174 101.011 188.153 101.015 190.523 100.541 199.658 99.583 208.545 98.7068 207.933 98.8157 221.23 95.366 228.073 93.7672 235.007 92.5473 251.979 90.2214 269.012 88.0845 281.085 87.0156 281.023 87.0215 287.023 86.3965 286.82 86.423 292.82 85.4855 292.664 85.5131 301.539 83.7631 301.295 83.8192 304.889 82.8733 308.681 81.942 312.513 81.4042 316.144 81.022 314.944 81.3419 318.26 79.8753 321.224 78.6896 324.356 77.6005 328.235 76.6307 332.075 76.0917 335.706 75.7095 334.336 76.1098 337.711 74.4223 337.676 74.4398 340.281 73.1058 342.136 72.2103 341.932 72.3159 343.071 71.6833 343.835 71.2667 372.546 56.9112 375.22 61.7825 347.683 78.3049 347.844 78.2032 347.281 78.5782 348.64 77.0387 348.578 77.1637 344.504 71.4059 345.004 71.3434 344.096 71.5672 345.12 71.1829 346.708 70.6115 346.613 70.647 348.863 69.772 348.774 69.8077 351.024 68.8702 350.938 68.9073 352.063 68.4073 351.189 68.939 351.501 68.689 351.172 74.6411 351.109 74.5786 348.531 72.0003 351.211 68.4268 352.716 67.4239 355.014 66.2349 358.012 65.259 357.031 65.7343 357.406 65.4843 357.126 65.689 357.783 65.1632 359.75 63.6557 361.83 62.1796 363.682 61.0011 366.887 59.883 369.655 59.0462 368.481 59.6245 374.861 55.0493 377.054 53.8392 379.451 52.8122 381.621 51.9186 383.514 51.1611 382.072 52.1493 383.88 50.2075 386.574 47.783 389.357 46.9881 391.315 46.583 390.053 47.0786 394.49 44.3911 394.404 44.445 396.861 42.8701 398.38 41.9205 398.223 42.0237 399.036 41.4612 398.912 41.55 399.412 41.175 398.984 41.5466 399.563 40.968 400.458 40.2353 401.826 39.1933 404.055 37.4887 407.696 35.0826 414.304 30.8661 418.608 37.61 412.027 41.8095 412.08 41.7748 408.58 44.0873 408.805 43.9274 406.674 45.5567 405.362 46.5567 405.47 46.4708 404.783 47.0333 405.078 46.7659 404.44 47.4044 403.652 47.9955 402.7 48.6547 401.12 49.642 401.159 49.6175 398.678 51.2075 393.609 54.2777 391.123 54.792 391.411 54.7211 389.661 55.2211 391.238 54.3482 389.363 56.0357 389.615 55.7882 387.317 58.2562 384.611 59.3389 384.648 59.3237 382.523 60.1987 382.576 60.1766 380.388 61.1141 380.745 60.9398 378.932 61.9398 379.331 61.688 372.605 66.5119 369.283 67.5163 369.442 67.4643 366.755 68.4018 367.585 67.9996 366.21 68.8746 366.377 68.762 364.44 70.137 364.559 70.0494 362.684 71.4869 362.749 71.436 361.988 72.0444 361.011 72.6957 357.801 73.741 358.4 73.4904 356.588 74.4279 356.969 74.2032 356.219 74.7032 357.2 73.7751 357.012 74.0251 356.641 68.7966 356.766 68.9214 359.989 72.1441 355.783 75.5082 354.144 76.2368 351.807 77.2107 349.465 78.1214 347.855 78.701 347.904 78.6828 346.464 79.2232 338.08 80.2711 341.96 72.5111 343.485 71.494 343.879 71.2575 347.726 78.2652 347.476 78.3902 347.603 78.3241 346.915 78.6991 346.943 78.6841 345.717 79.3648 343.801 80.2897 343.886 80.2477 341.306 81.569 337.265 83.5896 332.981 84.0405 333.118 84.0237 329.556 84.5237 329.97 84.4431 326.47 85.3181 326.814 85.2155 323.939 86.2155 324.111 86.1514 321.298 87.2764 321.431 87.2206 317.606 88.9123 313.419 89.353 313.556 89.3362 309.993 89.8362 310.392 89.7595 306.829 90.6345 306.893 90.6183 303.209 91.5877 294.133 93.3773 287.954 94.3429 281.821 94.9817 269.79 96.0469 269.935 96.0314 252.998 98.1564 253.043 98.1505 236.168 100.463 236.318 100.439 229.568 101.627 229.785 101.583 223.098 103.145 223.192 103.122 209.64 106.638 200.455 107.543 200.48 107.541 191.542 108.478 191.909 108.422 189.711 108.862 187.249 109.341 177.256 110.237 152.28 111.99ZM406.404 26.5593 433 23 419.89 46.4121Z" fill="#5B9BD5"/><path d="M228.486 94.866 230.358 96.3509 231.728 97.5255 231.506 97.3483 233.193 98.5983 232.388 98.1359 233.263 98.5109 231.122 98.2277 231.997 98.1027 231.954 98.109 233.787 97.827 235.474 97.7467 237.597 97.8199 240.129 98.0937 243.28 98.5533 247.133 99.2716 252.136 100.437 254.294 101.375 256.019 102.607 258.649 104.659 257.926 104.21 259.764 105.097 261.802 106.117 263.996 107.652 265.446 108.772 265.4 108.738 266.543 109.595 267.379 110.347 269.764 112.732 268.621 116.161 267.891 116.891 266.851 110.485 267.351 110.735 267.976 111.047 267.791 110.96 268.885 111.439 270.351 112.172 272.824 113.409 276.605 117.261 276.547 117.203 279.422 120.016 279.331 119.929 282.393 122.741 282.307 122.665 284.182 124.29 284.115 124.232 286.302 126.045 286.159 125.932 289.735 128.63 293.456 131.487 309.641 147.672 309.54 147.574 313.331 151.108 316.921 154.964 323.277 163.1 323.132 162.925 326.27 166.502 329.448 170.199 332.629 174.549 335.445 178.58 340.331 186.132 344.994 193.881 347.503 198.085 350.197 202.657 350.093 202.491 353.013 206.934 354.458 209.342 355.728 211.953 357.293 215.932 358.503 219.117 359.457 221.787 360.209 223.919 360.188 223.861 360.818 225.559 361.327 226.96 362.02 228.912 361.975 228.792 362.537 230.23 362.39 229.899 363.14 231.399 363.029 231.192 364.216 233.254 364.167 233.17 365.059 234.636 366.44 236.992 366.891 238.886 366.865 238.782 367.123 239.75 367.381 240.78 367.078 239.961 367.203 240.211 360.796 239.172 362.46 237.508 366.093 238.416 367.716 240.219 369.012 242.325 370.91 246.242 363.711 249.731 361.9 245.994 362.093 246.346 361.093 244.721 361.527 245.301 360.964 244.676 362.967 245.881 362.717 245.818 366.516 244.766 362.529 248.753 359.726 243.146 359.369 241.72 359.385 241.781 359.121 240.791 358.796 239.426 359.237 240.523 358.174 238.71 358.208 238.767 357.308 237.288 356.037 235.081 355.154 233.314 354.502 231.648 353.793 229.65 353.803 229.679 353.303 228.304 353.311 228.327 352.676 226.61 351.916 224.456 351.921 224.47 350.983 221.845 351.011 221.921 349.823 218.796 349.84 218.84 348.34 215.027 348.466 215.312 347.341 213 347.508 213.308 346.195 211.12 346.282 211.259 343.353 206.802 340.616 202.155 340.628 202.175 338.128 197.988 338.135 198 333.51 190.312 333.579 190.423 328.767 182.986 328.846 183.103 326.096 179.165 326.146 179.236 323.084 175.049 323.279 175.295 320.217 171.733 320.243 171.763 317.043 168.115 310.723 160.025 310.947 160.288 307.572 156.663 307.772 156.863 304.034 153.378 287.984 137.328 288.376 137.673 284.876 134.985 284.904 135.006 281.268 132.263 278.976 130.364 277.024 128.673 273.873 125.778 270.924 122.893 267.583 119.489 268.649 120.265 266.774 119.328 265.399 118.64 265.584 118.727 264.49 118.249 263.774 117.89 258.31 115.158 262.297 111.172 261.33 112.735 261.393 112.548 262.359 116.641 261.797 116.078 261.949 116.223 261.324 115.661 261.6 115.887 260.577 115.12 259.179 114.04 259.331 114.152 257.456 112.839 257.961 113.14 256.211 112.265 256.261 112.29 254.063 111.229 251.164 108.966 251.3 109.067 249.988 108.13 250.718 108.543 249.28 107.918 249.968 108.146 245.405 107.083 245.579 107.12 241.892 106.432 242.048 106.458 239.048 106.021 239.195 106.039 236.883 105.789 237.175 105.81 235.362 105.748 235.69 105.745 234.378 105.808 234.796 105.766 233.149 106.019 231.143 106.306 228.807 105.305 226.63 103.692 225.209 102.475 225.327 102.571 223.514 101.134ZM376.381 239.17 376 266 354.765 249.597Z" fill="#5B9BD5"/><path d="M83.4774 310.808 85.6892 311.404 88.1449 312.343 90.4066 313.814 92.9263 315.52 95.8138 317.566 95.7561 317.526 98.8505 319.638 98.7885 319.596 105.054 323.703 104.805 323.552 107.645 325.132 107.25 324.94 109.712 325.973 109.378 325.85 116.436 328.1 120.141 329.315 123.793 330.891 129.006 333.584 134.004 336.527 138.844 339.406 138.707 339.328 143.685 342.031 143.612 341.992 148.603 344.57 148.568 344.552 154.042 347.311 153.901 347.243 159.224 349.671 159.01 349.58 163.83 351.447 163.453 351.322 167.295 352.386 167.041 352.325 171.036 353.155 170.95 353.138 178.917 354.612 186.174 356.269 197.274 359.186 208.604 362.818 208.5 362.787 214.163 364.435 213.96 364.381 219.658 365.718 219.457 365.677 222.231 366.18 222.176 366.17 224.522 366.562 224.445 366.55 226.394 366.836 228.023 367.154 227.818 367.12 230.156 367.451 231.749 367.767 233.17 368.054 233.109 368.042 234.876 368.371 237.574 368.934 239.43 369.334 239.365 369.321 241.579 369.76 241.158 369.7 342.404 378.779 342.016 378.763 344.093 378.747 343.567 378.786 345.828 378.468 352.548 378.474 352.541 386.474 346.103 386.468 346.663 386.429 344.42 386.745 341.884 386.764 240.231 377.649 237.775 377.161 235.901 376.757 235.928 376.763 233.285 376.212 233.37 376.228 231.614 375.901 230.17 375.609 230.184 375.612 228.708 375.319 228.926 375.356 226.594 375.026 224.953 374.706 225.137 374.738 223.243 374.459 220.831 374.056 217.929 373.53 212.029 372.145 206.213 370.453 194.933 366.837 195.137 366.897 184.203 364.023 184.33 364.054 177.218 362.43 177.38 362.464 169.451 360.996 165.286 360.131 161.126 358.979 156.012 356.998 150.511 354.49 144.95 351.687 139.904 349.081 134.821 346.321 129.921 343.407 129.937 343.416 125.043 340.534 125.237 340.641 120.245 338.063 120.495 338.181 117.137 336.732 117.476 336.86 113.959 335.707 113.99 335.717 106.779 333.418 103.949 332.231 100.79 330.473 94.3719 326.267 91.2176 324.114 88.3358 322.072 88.4052 322.12 85.9516 320.459 86.0145 320.5 84.1398 319.282 84.8909 319.664 83.022 318.949 83.4105 319.075 81.3963 318.533ZM349.325 370.241 372.503 383.76 347.781 394.191Z" fill="#5B9BD5"/><path d="M18.5001 324.5C18.5001 308.484 31.4838 295.5 47.5001 295.5 63.5163 295.5 76.5001 308.484 76.5001 324.5 76.5001 340.516 63.5163 353.5 47.5001 353.5 31.4838 353.5 18.5001 340.516 18.5001 324.5Z" stroke="#41719C" stroke-width="1.33333" stroke-miterlimit="8" fill="#5B9BD5" fill-rule="evenodd"/><text fill="#FFFFFF" font-family="Yu Gothic,Yu Gothic_MSFontService,sans-serif" font-weight="700" font-size="48" transform="translate(33.1896 339)">3</text><path d="M693 361.5C693 278.933 730.384 212 776.5 212 822.616 212 860 278.933 860 361.5 860 444.067 822.616 511 776.5 511 730.384 511 693 444.067 693 361.5Z" stroke="#5B9BD5" stroke-width="8" stroke-linejoin="round" stroke-miterlimit="10" fill="none" fill-rule="evenodd"/><path d="M825.5 273.5C825.5 257.484 838.26 244.5 854 244.5 869.74 244.5 882.5 257.484 882.5 273.5 882.5 289.516 869.74 302.5 854 302.5 838.26 302.5 825.5 289.516 825.5 273.5Z" stroke="#41719C" stroke-width="1.33333" stroke-miterlimit="8" fill="#5B9BD5" fill-rule="evenodd"/><text fill="#FFFFFF" font-family="Yu Gothic,Yu Gothic_MSFontService,sans-serif" font-weight="700" font-size="48" transform="translate(839.747 288)">4</text><path d="M409.5 34.5001C409.5 18.4838 422.484 5.50005 438.5 5.50005 454.516 5.50005 467.5 18.4838 467.5 34.5001 467.5 50.5163 454.516 63.5001 438.5 63.5001 422.484 63.5001 409.5 50.5163 409.5 34.5001Z" stroke="#41719C" stroke-width="1.33333" stroke-miterlimit="8" fill="#5B9BD5" fill-rule="evenodd"/><text fill="#FFFFFF" font-family="Yu Gothic,Yu Gothic_MSFontService,sans-serif" font-weight="700" font-size="43" transform="translate(425.738 48)">1</text><path d="M347.5 277.5C347.5 261.484 360.484 248.5 376.5 248.5 392.516 248.5 405.5 261.484 405.5 277.5 405.5 293.516 392.516 306.5 376.5 306.5 360.484 306.5 347.5 293.516 347.5 277.5Z" stroke="#41719C" stroke-width="1.33333" stroke-miterlimit="8" fill="#5B9BD5" fill-rule="evenodd"/><text fill="#FFFFFF" font-family="Yu Gothic,Yu Gothic_MSFontService,sans-serif" font-weight="700" font-size="48" transform="translate(362.512 292)">2</text></g></svg>