<svg width="1158" height="718" xmlns="http://www.w3.org/2000/svg" xmlns:xlink="http://www.w3.org/1999/xlink" overflow="hidden"><defs><clipPath id="clip0"><rect x="76" y="-1" width="1158" height="718"/></clipPath></defs><g clip-path="url(#clip0)" transform="translate(-76 1)"><path d="M203 99.9686 250.404 283.8 303.149 265.082 317.17 327.25 317.17 380.06 437.349 481 464.056 477.658 470.733 452.924 389.945 355.995 391.948 322.571 419.99 305.191 454.709 328.587 542.84 300.511 544.176 283.131 524.813 202.245 537.499 144.756 576.934 99.5775 695.953 52.4452 761 3" stroke="#70AD47" stroke-width="4" stroke-miterlimit="8" fill="none" fill-rule="evenodd"/><path d="M397.093 534 529.278 588.625 546 626.625 535.648 648 434.519 642.458 374 595.75 374 546.667 397.093 534Z" stroke="#70AD47" stroke-width="4" stroke-miterlimit="8" fill="none" fill-rule="evenodd"/><path d="M575.655 707.8 674 715 761.241 715 766 699.8 740.621 686.2 622.448 684.6 573.276 683 559 692.6 570.103 701.4 575.655 707.8Z" stroke="#70AD47" stroke-width="4" stroke-miterlimit="8" fill="none" fill-rule="evenodd"/><path d="M651 632.206 731.75 645 765.792 634.899 803 568.236 780.833 533.894 702.458 511 651 605.945 651 632.206Z" stroke="#70AD47" stroke-width="4" stroke-miterlimit="8" fill="none" fill-rule="evenodd"/><path d="M876.8 686.4 930.4 681 952 689.486 928 707.229 872.8 708 860 696.429 876.8 686.4Z" stroke="#70AD47" stroke-width="4" stroke-miterlimit="8" fill="none" fill-rule="evenodd"/><path d="M988.617 676.6 1041.63 671 1063 679.8 1039.26 698.2 984.661 699 972 687 988.617 676.6Z" stroke="#70AD47" stroke-width="4" stroke-miterlimit="8" fill="none" fill-rule="evenodd"/><path d="M1099.62 672.4 1152.63 667 1174 675.486 1150.26 693.229 1095.66 694 1083 682.429 1099.62 672.4Z" stroke="#70AD47" stroke-width="4" stroke-miterlimit="8" fill="none" fill-rule="evenodd"/><path d="M721.933 378 812.156 382.957 819 405.88 787.267 424.467 741.844 435 715.711 410.837 707 391.63 721.933 378Z" stroke="#70AD47" stroke-width="4" stroke-miterlimit="8" fill="none" fill-rule="evenodd"/><path d="M739.134 320.908 822.493 324 825 299.882 818.106 285.039 779.873 277 743.521 279.474 736 294.934 739.134 320.908Z" stroke="#70AD47" stroke-width="4" stroke-miterlimit="8" fill="none" fill-rule="evenodd"/><path d="M736 339C736 334.029 740.029 330 745 330 749.971 330 754 334.029 754 339 754 343.971 749.971 348 745 348 740.029 348 736 343.971 736 339Z" stroke="#70AD47" stroke-width="4" stroke-miterlimit="8" fill="none" fill-rule="evenodd"/><path d="M763 350.5C763 345.806 766.806 342 771.5 342 776.194 342 780 345.806 780 350.5 780 355.194 776.194 359 771.5 359 766.806 359 763 355.194 763 350.5Z" stroke="#70AD47" stroke-width="4" stroke-miterlimit="8" fill="none" fill-rule="evenodd"/><path d="M799 339C799 334.029 803.029 330 808 330 812.971 330 817 334.029 817 339 817 343.971 812.971 348 808 348 803.029 348 799 343.971 799 339Z" stroke="#70AD47" stroke-width="4" stroke-miterlimit="8" fill="none" fill-rule="evenodd"/><path d="M790 368.5C790 363.806 794.029 360 799 360 803.971 360 808 363.806 808 368.5 808 373.194 803.971 377 799 377 794.029 377 790 373.194 790 368.5Z" stroke="#70AD47" stroke-width="4" stroke-miterlimit="8" fill="none" fill-rule="evenodd"/><path d="M735 366C735 361.029 739.029 357 744 357 748.971 357 753 361.029 753 366 753 370.971 748.971 375 744 375 739.029 375 735 370.971 735 366Z" stroke="#70AD47" stroke-width="4" stroke-miterlimit="8" fill="none" fill-rule="evenodd"/><path d="M263.156 279C262.874 270.518 262.311 262.04 262.311 253.554 262.311 232.953 262.774 229.163 264 213 263.719 205.048 263.638 197.088 263.156 189.145 263.074 187.795 262.547 186.502 262.311 185.169 261.984 183.32 261.813 181.448 261.467 179.602 260.969 176.94 260.653 174.225 259.779 171.651 258.393 167.572 254.713 159.723 254.713 159.723 253.895 155.097 253.553 153.565 253.025 148.59 252.969 148.063 253.025 147.53 253.025 147" stroke="#BDD7EE" stroke-width="8" stroke-miterlimit="8" fill="none" fill-rule="evenodd"/><path d="M400 317C399.458 315.421 398.816 313.871 398.375 312.263 397.732 309.919 397.455 307.485 396.75 305.158 396.097 303.001 395.125 300.947 394.312 298.842 394.042 294.895 393.919 290.935 393.5 287 393.106 283.298 392.185 279.657 391.875 275.947 391.371 269.909 391.496 263.833 391.062 257.789 390.684 252.513 389.979 247.263 389.438 242 389.167 230.158 389.112 218.309 388.625 206.474 388.212 196.443 389.866 186.097 384.562 177.263 382.271 173.446 379.003 171.496 375.625 168.579 375.053 168.084 374.542 167.526 374 167" stroke="#BDD7EE" stroke-width="8" stroke-miterlimit="8" fill="none" fill-rule="evenodd"/><path d="M485 321C484.736 309.599 484.739 298.188 484.207 286.796 483.446 270.517 480.541 259.274 478.655 242.25 477.287 229.902 478.892 239.828 476.276 230.318 469.897 207.127 474.531 218.673 467.552 203.273 465.678 188.239 468.104 205.063 465.172 191.341 464.781 189.508 464.929 187.565 464.379 185.773 463.858 184.073 462 181 462 181" stroke="#BDD7EE" stroke-width="8" stroke-miterlimit="8" fill="none" fill-rule="evenodd"/><path d="M452.484 265.002C450.78 255.948 454.991 247.555 461.89 246.257 468.788 244.958 475.762 251.246 477.467 260.3 479.171 269.355 474.96 277.747 468.061 279.046 461.163 280.344 454.188 274.057 452.484 265.002Z" fill="#BDD7EE" fill-rule="evenodd"/><path d="M659 68C657.808 66.5185 656.341 65.219 655.423 63.5555 651.257 56.0035 651.008 45.2219 643.798 40.4444 638.346 36.8317 642.665 39.3184 632.173 36 628.58 34.8636 624.993 33.705 621.442 32.4444 616.645 30.7415 611.967 28.7122 607.135 27.1111 604.287 26.1676 596.59 25.5515 594.615 25.3333 591.701 24.6894 584.391 23.3625 581.202 21.7777 579.869 21.1152 578.889 19.8963 577.625 19.1111 576.495 18.4088 575.179 18.0356 574.048 17.3333 572.784 16.5481 571.735 15.4519 570.471 14.6667 565.199 11.3914 568.253 14.24 566 12" stroke="#BDD7EE" stroke-width="8" stroke-miterlimit="8" fill="none" fill-rule="evenodd"/><path d="M630.5 104.5C630.5 88.4838 643.484 75.5001 659.5 75.5001 675.516 75.5001 688.5 88.4838 688.5 104.5 688.5 120.516 675.516 133.5 659.5 133.5 643.484 133.5 630.5 120.516 630.5 104.5Z" stroke="#2F528F" stroke-width="1.33333" stroke-miterlimit="8" fill="#4472C4" fill-rule="evenodd"/><text fill="#FFFFFF" font-family="Yu Gothic,Yu Gothic_MSFontService,sans-serif" font-weight="700" font-size="48" transform="translate(644.917 119)">1</text><path d="M474.5 350C474.5 334.26 487.484 321.5 503.5 321.5 519.516 321.5 532.5 334.26 532.5 350 532.5 365.74 519.516 378.5 503.5 378.5 487.484 378.5 474.5 365.74 474.5 350Z" stroke="#2F528F" stroke-width="1.33333" stroke-miterlimit="8" fill="#4472C4" fill-rule="evenodd"/><text fill="#FFFFFF" font-family="Yu Gothic,Yu Gothic_MSFontService,sans-serif" font-weight="700" font-size="48" transform="translate(489.103 365)">2</text><path d="M358.5 346.5C358.5 330.484 371.484 317.5 387.5 317.5 403.516 317.5 416.5 330.484 416.5 346.5 416.5 362.516 403.516 375.5 387.5 375.5 371.484 375.5 358.5 362.516 358.5 346.5Z" stroke="#2F528F" stroke-width="1.33333" stroke-miterlimit="8" fill="#4472C4" fill-rule="evenodd"/><text fill="#FFFFFF" font-family="Yu Gothic,Yu Gothic_MSFontService,sans-serif" font-weight="700" font-size="48" transform="translate(373.396 361)">3</text><path d="M240.5 306.5C240.5 290.484 253.484 277.5 269.5 277.5 285.516 277.5 298.5 290.484 298.5 306.5 298.5 322.516 285.516 335.5 269.5 335.5 253.484 335.5 240.5 322.516 240.5 306.5Z" stroke="#2F528F" stroke-width="1.33333" stroke-miterlimit="8" fill="#4472C4" fill-rule="evenodd"/><text fill="#FFFFFF" font-family="Yu Gothic,Yu Gothic_MSFontService,sans-serif" font-weight="700" font-size="48" transform="translate(255.246 321)">4</text><path d="M409.5 220.5C409.5 204.484 422.26 191.5 438 191.5 453.74 191.5 466.5 204.484 466.5 220.5 466.5 236.516 453.74 249.5 438 249.5 422.26 249.5 409.5 236.516 409.5 220.5Z" stroke="#2F528F" stroke-width="1.33333" stroke-miterlimit="8" fill="#4472C4" fill-rule="evenodd"/><text fill="#FFFFFF" font-family="Yu Gothic,Yu Gothic_MSFontService,sans-serif" font-weight="700" font-size="48" transform="translate(423.675 235)">5</text><path d="M846.023 96C837.109 109.846 841.506 104.952 834.457 111.99 834.161 112.879 833.937 113.795 833.568 114.655 833.045 115.873 832.137 116.931 831.788 118.209 831.237 120.229 831.195 122.355 830.899 124.427 829.422 145.075 831.378 129.724 828.23 143.083 827.537 146.022 827.304 149.069 826.451 151.966 825.813 154.13 824.496 156.045 823.782 158.185 820.854 166.957 823.308 163.092 820.223 170.622 818.262 175.408 815.419 179.863 813.996 184.835 813.403 186.908 812.702 188.953 812.216 191.054 811.811 192.809 811.601 194.604 811.327 196.384 811.008 198.453 810.909 200.562 810.437 202.602 809.921 204.836 806.528 213.605 805.989 215.039 805.906 215.704 804.502 227.255 804.21 228.365 803.255 231.987 802.018 235.537 800.651 239.025 799.346 242.357 797.573 245.491 796.203 248.797 794.013 254.081 792.063 259.462 789.976 264.787 789.394 266.272 788.81 267.757 788.196 269.229 787.328 271.311 786.148 273.279 785.527 275.448 784.934 277.52 784.431 279.621 783.748 281.666 780.059 292.718 777.103 295.459 773.962 310.093L771.293 322.53C767.038 365.019 769.713 335.073 771.293 434.463 771.341 437.438 771.871 440.387 772.183 443.346 772.357 444.994 773.433 455.269 773.962 457.56 779.225 480.331 771.517 439.414 777.521 470.885 779.765 482.651 778.692 481.097 781.969 493.094 782.709 495.804 783.844 498.394 784.638 501.089 785.328 503.432 785.323 506.012 786.417 508.196 787.743 510.845 790.251 512.751 791.755 515.303 793.236 517.817 794.007 520.69 795.313 523.298 797.622 527.91 799.444 529.307 802.43 533.958 808.469 543.366 814.311 552.898 820.223 562.386 825.925 571.536 828.775 576.833 835.347 585.483 839.042 590.346 842.998 595.007 846.912 599.697 848.93 602.115 850.746 604.755 853.14 606.803 857.453 610.496 860.735 613.622 865.594 616.575 877.158 623.604 885.914 627.737 898.511 633.454 902.02 635.047 905.556 636.601 909.187 637.896 913.868 639.565 918.778 640.565 923.421 642.338 928.877 644.421 934.104 647.058 939.434 649.444 942.704 650.908 946.074 652.173 949.22 653.886 958.023 658.681 959.279 659.999 968.792 662.77 972.59 663.876 976.529 664.438 980.357 665.435 993.791 668.934 984.615 667.526 998.15 669.877 1001.99 670.544 1005.88 670.95 1009.72 671.653 1049.67 678.981 1029.46 677.105 1055.98 678.76 1067.08 680.465 1070.95 680.974 1082.67 683.202 1090.09 684.614 1097.42 686.594 1104.91 687.644 1114.34 688.966 1123.86 689.696 1133.37 690.309 1182.19 693.454 1177.76 692.974 1217 692.974" stroke="#ED7D31" stroke-width="4" stroke-miterlimit="8" stroke-dasharray="16 12" fill="none" fill-rule="evenodd"/><path d="M144 67C145.482 67.592 147.117 67.8919 148.445 68.7762 154.323 72.691 159.483 86.5311 160.891 89.2031 161.747 95.1895 162.198 98.9053 163.558 105.189 165.229 112.91 165.85 120.989 168.891 128.28 170.373 131.833 172.064 135.305 173.336 138.938 174.144 141.242 174.46 143.691 175.114 146.043 175.942 149.021 176.803 151.992 177.781 154.924 179.199 159.173 187.784 182.833 189.338 189.561L192.005 201.106C192.275 204.076 193.098 214.329 193.783 217.981 194.233 220.38 194.931 222.727 195.561 225.086 196.117 227.168 196.418 229.354 197.339 231.302 201.855 240.857 215.428 266.065 221.341 276.597 224.524 282.265 227.799 287.882 231.12 293.471 233.429 297.357 236.209 300.975 238.232 305.017 239.417 307.385 240.444 309.839 241.788 312.122 243.413 314.882 245.629 317.281 247.122 320.115 248.608 322.936 249.059 326.248 250.678 328.996 252.063 331.348 254.527 332.921 256.011 335.213 257.811 337.991 258.773 341.243 260.456 344.094 265.594 352.798 271.698 360.934 276.458 369.849 278.829 374.29 281.366 378.646 283.57 383.171 286.703 389.604 288.907 396.498 292.46 402.71 293.645 404.782 295.005 406.764 296.016 408.927 301.737 421.176 303.669 428.621 310.239 439.123 312.722 443.092 315.829 446.655 318.24 450.668 319.129 452.149 319.903 453.704 320.907 455.109 321.394 455.79 322.139 456.25 322.685 456.885 323.92 458.325 325.056 459.846 326.241 461.326 326.537 462.51 326.482 463.843 327.13 464.878 329.485 468.644 332.431 472.008 335.131 475.536 336.283 477.042 337.71 478.351 338.687 479.977 339.576 481.457 340.206 483.127 341.353 484.417 342.614 485.834 344.457 486.629 345.798 487.97 347.435 489.604 348.797 491.493 350.243 493.298 350.78 493.969 354.087 498.313 354.688 499.515 355.107 500.352 354.963 501.472 355.577 502.18 368.288 516.831 364.158 508.311 375.135 523.495 378.987 528.823 382.039 534.833 386.691 539.481 388.173 540.961 389.809 542.301 391.136 543.921 392.489 545.573 393.181 547.74 394.692 549.25 396.495 551.051 399.025 551.982 400.915 553.691 405.266 557.623 409.212 561.98 413.361 566.124 419.226 571.984 420.289 573.314 428.473 579.446 430.844 581.222 433.06 583.227 435.585 584.775 446.112 591.228 457.016 597.048 467.589 603.425 472.725 606.524 477.603 610.034 482.701 613.195 486.199 615.364 489.813 617.339 493.369 619.412 496.925 621.484 500.223 624.08 504.037 625.628 506.906 626.793 529.808 636.387 539.596 639.838 542.247 640.773 544.888 641.751 547.597 642.503 550.229 643.233 553.006 643.416 555.598 644.279 579.732 652.316 552.874 645.405 576.933 652.272 598.901 658.543 583.164 653.674 603.602 657.601 607.202 658.292 610.692 659.471 614.27 660.265 640.195 666.021 617.706 660.985 634.717 663.818 637.698 664.314 640.626 665.097 643.607 665.594 647.74 666.282 651.91 666.734 656.052 667.37 659.615 667.918 663.139 668.734 666.72 669.146 694.962 672.402 661.557 667.014 695.167 671.811 702.305 672.829 709.406 674.091 716.503 675.363 738.081 679.232 722.23 677.078 736.949 678.916 752.655 683.06 768.715 686.041 784.065 691.349 791.77 694.014 799.061 698.582 807.179 699.343 837.285 702.162 867.629 701.119 897.855 702.007 902.299 702.303 906.758 702.441 911.189 702.895 964.682 708.376 905.31 703.157 948.526 707.336 952.372 707.707 956.221 708.103 960.083 708.224 975.191 708.695 990.31 708.752 1005.42 709.112L1034.76 710 1069.43 709.112C1073.58 708.955 1077.71 708.246 1081.87 708.224L1233 708.224" stroke="#ED7D31" stroke-width="4" stroke-miterlimit="8" stroke-dasharray="16 12" fill="none" fill-rule="evenodd"/><path d="M371.5 419C371.5 403.26 384.484 390.5 400.5 390.5 416.516 390.5 429.5 403.26 429.5 419 429.5 434.74 416.516 447.5 400.5 447.5 384.484 447.5 371.5 434.74 371.5 419Z" stroke="#787878" stroke-width="1.33333" stroke-miterlimit="8" fill="#A5A5A5" fill-rule="evenodd"/><text fill="#FFFFFF" font-family="Yu Gothic,Yu Gothic_MSFontService,sans-serif" font-weight="700" font-size="24" transform="translate(396.262 426)">i</text><path d="M183.5 167C183.5 151.26 196.26 138.5 212 138.5 227.74 138.5 240.5 151.26 240.5 167 240.5 182.74 227.74 195.5 212 195.5 196.26 195.5 183.5 182.74 183.5 167Z" stroke="#787878" stroke-width="1.33333" stroke-miterlimit="8" fill="#A5A5A5" fill-rule="evenodd"/><text fill="#FFFFFF" font-family="Yu Gothic,Yu Gothic_MSFontService,sans-serif" font-weight="700" font-size="24" transform="translate(204.684 174)">ii</text><path d="M681.5 47.5001C681.5 31.4838 694.484 18.5001 710.5 18.5001 726.516 18.5001 739.5 31.4838 739.5 47.5001 739.5 63.5163 726.516 76.5001 710.5 76.5001 694.484 76.5001 681.5 63.5163 681.5 47.5001Z" stroke="#787878" stroke-width="1.33333" stroke-miterlimit="8" fill="#A5A5A5" fill-rule="evenodd"/><text fill="#FFFFFF" font-family="Yu Gothic,Yu Gothic_MSFontService,sans-serif" font-weight="700" font-size="24" transform="translate(699.632 55)">iii</text><path d="M259.835 363.036 279.266 317.632 285.759 333.841 558.408 224.621 551.915 208.412 597.319 227.844 577.888 273.248 571.395 257.039 298.746 366.259 305.239 382.468Z" fill="#A5A5A5" fill-rule="evenodd" fill-opacity="0.501961"/><path d="M215.5 364.5C215.5 348.484 228.484 335.5 244.5 335.5 260.516 335.5 273.5 348.484 273.5 364.5 273.5 380.516 260.516 393.5 244.5 393.5 228.484 393.5 215.5 380.516 215.5 364.5Z" stroke="#787878" stroke-width="1.33333" stroke-miterlimit="8" fill="#A5A5A5" fill-rule="evenodd"/><text fill="#FFFFFF" font-family="Yu Gothic,Yu Gothic_MSFontService,sans-serif" font-weight="700" font-size="24" transform="translate(231.632 371)">γ</text><path d="M100.5 44.0001C100.5 28.2599 113.484 15.5001 129.5 15.5001 145.516 15.5001 158.5 28.2599 158.5 44.0001 158.5 59.7402 145.516 72.5001 129.5 72.5001 113.484 72.5001 100.5 59.7402 100.5 44.0001Z" stroke="#2F528F" stroke-width="1.33333" stroke-miterlimit="8" fill="#4472C4" fill-rule="evenodd"/><text fill="#FFFFFF" font-family="Yu Gothic,Yu Gothic_MSFontService,sans-serif" font-weight="700" font-size="48" transform="translate(105.134 59)">α</text><path d="M820.5 91.0001C820.5 75.2599 833.484 62.5001 849.5 62.5001 865.516 62.5001 878.5 75.2599 878.5 91.0001 878.5 106.74 865.516 119.5 849.5 119.5 833.484 119.5 820.5 106.74 820.5 91.0001Z" stroke="#2F528F" stroke-width="1.33333" stroke-miterlimit="8" fill="#4472C4" fill-rule="evenodd"/><text fill="#FFFFFF" font-family="Yu Gothic,Yu Gothic_MSFontService,sans-serif" font-weight="700" font-size="48" transform="translate(824.661 106)">β</text></g></svg>