<svg width="979" height="738" xmlns="http://www.w3.org/2000/svg" xmlns:xlink="http://www.w3.org/1999/xlink" overflow="hidden"><defs><clipPath id="clip0"><rect x="200" y="1" width="979" height="738"/></clipPath></defs><g clip-path="url(#clip0)" transform="translate(-200 -1)"><path d="M203 99.9686 250.404 283.8 303.149 265.082 317.17 327.25 317.17 380.06 437.349 481 464.056 477.658 470.733 452.924 389.945 355.995 391.948 322.571 419.99 305.191 454.709 328.587 542.84 300.511 544.176 283.131 524.813 202.245 537.499 144.756 576.934 99.5775 695.953 52.4452 761 3" stroke="#70AD47" stroke-width="4" stroke-miterlimit="8" fill="none" fill-rule="evenodd"/><path d="M397.093 534 529.278 588.625 546 626.625 535.648 648 434.519 642.458 374 595.75 374 546.667 397.093 534Z" stroke="#70AD47" stroke-width="4" stroke-miterlimit="8" fill="none" fill-rule="evenodd"/><path d="M575.655 707.8 674 715 761.241 715 766 699.8 740.621 686.2 622.448 684.6 573.276 683 559 692.6 570.103 701.4 575.655 707.8Z" stroke="#70AD47" stroke-width="4" stroke-miterlimit="8" fill="none" fill-rule="evenodd"/><path d="M651 632.206 731.75 645 765.792 634.899 803 568.236 780.833 533.894 702.458 511 651 605.945 651 632.206Z" stroke="#70AD47" stroke-width="4" stroke-miterlimit="8" fill="none" fill-rule="evenodd"/><path d="M876.8 686.4 930.4 681 952 689.486 928 707.229 872.8 708 860 696.429 876.8 686.4Z" stroke="#70AD47" stroke-width="4" stroke-miterlimit="8" fill="none" fill-rule="evenodd"/><path d="M988.617 676.6 1041.63 671 1063 679.8 1039.26 698.2 984.661 699 972 687 988.617 676.6Z" stroke="#70AD47" stroke-width="4" stroke-miterlimit="8" fill="none" fill-rule="evenodd"/><path d="M1099.62 672.4 1152.63 667 1174 675.486 1150.26 693.229 1095.66 694 1083 682.429 1099.62 672.4Z" stroke="#70AD47" stroke-width="4" stroke-miterlimit="8" fill="none" fill-rule="evenodd"/><path d="M721.933 378 812.156 382.957 819 405.88 787.267 424.467 741.844 435 715.711 410.837 707 391.63 721.933 378Z" stroke="#70AD47" stroke-width="4" stroke-miterlimit="8" fill="none" fill-rule="evenodd"/><path d="M739.134 320.908 822.493 324 825 299.882 818.106 285.039 779.873 277 743.521 279.474 736 294.934 739.134 320.908Z" stroke="#70AD47" stroke-width="4" stroke-miterlimit="8" fill="none" fill-rule="evenodd"/><path d="M736 339C736 334.029 740.029 330 745 330 749.971 330 754 334.029 754 339 754 343.971 749.971 348 745 348 740.029 348 736 343.971 736 339Z" stroke="#70AD47" stroke-width="4" stroke-miterlimit="8" fill="none" fill-rule="evenodd"/><path d="M763 350.5C763 345.806 766.806 342 771.5 342 776.194 342 780 345.806 780 350.5 780 355.194 776.194 359 771.5 359 766.806 359 763 355.194 763 350.5Z" stroke="#70AD47" stroke-width="4" stroke-miterlimit="8" fill="none" fill-rule="evenodd"/><path d="M799 339C799 334.029 803.029 330 808 330 812.971 330 817 334.029 817 339 817 343.971 812.971 348 808 348 803.029 348 799 343.971 799 339Z" stroke="#70AD47" stroke-width="4" stroke-miterlimit="8" fill="none" fill-rule="evenodd"/><path d="M790 368.5C790 363.806 794.029 360 799 360 803.971 360 808 363.806 808 368.5 808 373.194 803.971 377 799 377 794.029 377 790 373.194 790 368.5Z" stroke="#70AD47" stroke-width="4" stroke-miterlimit="8" fill="none" fill-rule="evenodd"/><path d="M735 366C735 361.029 739.029 357 744 357 748.971 357 753 361.029 753 366 753 370.971 748.971 375 744 375 739.029 375 735 370.971 735 366Z" stroke="#70AD47" stroke-width="4" stroke-miterlimit="8" fill="none" fill-rule="evenodd"/><path d="M263.156 279C262.874 270.518 262.311 262.04 262.311 253.554 262.311 232.953 262.774 229.163 264 213 263.719 205.048 263.638 197.088 263.156 189.145 263.074 187.795 262.547 186.502 262.311 185.169 261.984 183.32 261.813 181.448 261.467 179.602 260.969 176.94 260.653 174.225 259.779 171.651 258.393 167.572 254.713 159.723 254.713 159.723 253.895 155.097 253.553 153.565 253.025 148.59 252.969 148.063 253.025 147.53 253.025 147" stroke="#BDD7EE" stroke-width="8" stroke-miterlimit="8" fill="none" fill-rule="evenodd"/><path d="M400 317C399.458 315.421 398.816 313.871 398.375 312.263 397.732 309.919 397.455 307.485 396.75 305.158 396.097 303.001 395.125 300.947 394.312 298.842 394.042 294.895 393.919 290.935 393.5 287 393.106 283.298 392.185 279.657 391.875 275.947 391.371 269.909 391.496 263.833 391.062 257.789 390.684 252.513 389.979 247.263 389.438 242 389.167 230.158 389.112 218.309 388.625 206.474 388.212 196.443 389.866 186.097 384.562 177.263 382.271 173.446 379.003 171.496 375.625 168.579 375.053 168.084 374.542 167.526 374 167" stroke="#BDD7EE" stroke-width="8" stroke-miterlimit="8" fill="none" fill-rule="evenodd"/><path d="M485 321C484.736 309.599 484.739 298.188 484.207 286.796 483.446 270.517 480.541 259.274 478.655 242.25 477.287 229.902 478.892 239.828 476.276 230.318 469.897 207.127 474.531 218.673 467.552 203.273 465.678 188.239 468.104 205.063 465.172 191.341 464.781 189.508 464.929 187.565 464.379 185.773 463.858 184.073 462 181 462 181" stroke="#BDD7EE" stroke-width="8" stroke-miterlimit="8" fill="none" fill-rule="evenodd"/><path d="M452.484 265.002C450.78 255.948 454.991 247.555 461.89 246.257 468.788 244.958 475.762 251.246 477.467 260.3 479.171 269.355 474.96 277.747 468.061 279.046 461.163 280.344 454.188 274.057 452.484 265.002Z" fill="#BDD7EE" fill-rule="evenodd"/><path d="M659 68C657.808 66.5185 656.341 65.219 655.423 63.5555 651.257 56.0035 651.008 45.2219 643.798 40.4444 638.346 36.8317 642.665 39.3184 632.173 36 628.58 34.8636 624.993 33.705 621.442 32.4444 616.645 30.7415 611.967 28.7122 607.135 27.1111 604.287 26.1676 596.59 25.5515 594.615 25.3333 591.701 24.6894 584.391 23.3625 581.202 21.7777 579.869 21.1152 578.889 19.8963 577.625 19.1111 576.495 18.4088 575.179 18.0356 574.048 17.3333 572.784 16.5481 571.735 15.4519 570.471 14.6667 565.199 11.3914 568.253 14.24 566 12" stroke="#BDD7EE" stroke-width="8" stroke-miterlimit="8" fill="none" fill-rule="evenodd"/><path d="M358.5 411.5C358.5 395.484 371.484 382.5 387.5 382.5 403.516 382.5 416.5 395.484 416.5 411.5 416.5 427.516 403.516 440.5 387.5 440.5 371.484 440.5 358.5 427.516 358.5 411.5Z" stroke="#2F528F" stroke-width="1.33333" stroke-miterlimit="8" fill="#4472C4" fill-rule="evenodd"/><text fill="#FFFFFF" font-family="Yu Gothic,Yu Gothic_MSFontService,sans-serif" font-weight="700" font-size="48" transform="translate(373.218 426)">1</text><path d="M604.5 82.0001C604.5 66.2599 617.484 53.5001 633.5 53.5001 649.516 53.5001 662.5 66.2599 662.5 82.0001 662.5 97.7402 649.516 110.5 633.5 110.5 617.484 110.5 604.5 97.7402 604.5 82.0001Z" stroke="#2F528F" stroke-width="1.33333" stroke-miterlimit="8" fill="#4472C4" fill-rule="evenodd"/><text fill="#FFFFFF" font-family="Yu Gothic,Yu Gothic_MSFontService,sans-serif" font-weight="700" font-size="48" transform="translate(619.581 97)">2</text><path d="M318.5 156.5C318.5 140.484 331.484 127.5 347.5 127.5 363.516 127.5 376.5 140.484 376.5 156.5 376.5 172.516 363.516 185.5 347.5 185.5 331.484 185.5 318.5 172.516 318.5 156.5Z" stroke="#787878" stroke-width="1.33333" stroke-miterlimit="8" fill="#A5A5A5" fill-rule="evenodd"/><text fill="#FFFFFF" font-family="Yu Gothic,Yu Gothic_MSFontService,sans-serif" font-weight="700" font-size="37" transform="translate(335.91 168)">a</text><path d="M331.657 243.898 308 93" stroke="#A5A5A5" stroke-width="4" stroke-miterlimit="8" stroke-dasharray="16 12" fill="none" fill-rule="evenodd"/><path d="M0 0 19.8553 175.376" stroke="#A5A5A5" stroke-width="4" stroke-miterlimit="8" stroke-dasharray="16 12" fill="none" fill-rule="evenodd" transform="matrix(1 0 0 -1 364 250.376)"/><path d="M0 0 66.4371 4.61932" stroke="#A5A5A5" stroke-width="4" stroke-miterlimit="8" stroke-dasharray="16 12" fill="none" fill-rule="evenodd" transform="matrix(1 0 0 -1 312 86.6193)"/><path d="M0 0 56.2659 6.62824" stroke="#A5A5A5" stroke-width="4" stroke-miterlimit="8" stroke-dasharray="16 12" fill="none" fill-rule="evenodd" transform="matrix(1 0 0 -1 320 250.628)"/><path d="M311.5 429.5C311.5 413.484 324.484 400.5 340.5 400.5 356.516 400.5 369.5 413.484 369.5 429.5 369.5 445.516 356.516 458.5 340.5 458.5 324.484 458.5 311.5 445.516 311.5 429.5Z" stroke="#787878" stroke-width="1.33333" stroke-miterlimit="8" fill="#A5A5A5" fill-rule="evenodd"/><text fill="#FFFFFF" font-family="Yu Gothic,Yu Gothic_MSFontService,sans-serif" font-weight="700" font-size="37" transform="translate(328.444 441)">b</text><path d="M0 0 144.238 26.4538" stroke="#A5A5A5" stroke-width="4" stroke-miterlimit="8" stroke-dasharray="16 12" fill="none" fill-rule="evenodd" transform="matrix(1 0 0 -1 277 377.454)"/><path d="M481.5 565.5C481.5 549.484 494.26 536.5 510 536.5 525.74 536.5 538.5 549.484 538.5 565.5 538.5 581.516 525.74 594.5 510 594.5 494.26 594.5 481.5 581.516 481.5 565.5Z" stroke="#787878" stroke-width="1.33333" stroke-miterlimit="8" fill="#A5A5A5" fill-rule="evenodd"/><text fill="#FFFFFF" font-family="Yu Gothic,Yu Gothic_MSFontService,sans-serif" font-weight="700" font-size="37" transform="translate(498.001 576)">b</text><path d="M449 591 565.824 627.253" stroke="#A5A5A5" stroke-width="4" stroke-miterlimit="8" stroke-dasharray="16 12" fill="none" fill-rule="evenodd"/><path d="M438 514 446.884 593.597" stroke="#A5A5A5" stroke-width="4" stroke-miterlimit="8" stroke-dasharray="16 12" fill="none" fill-rule="evenodd"/><path d="M653.5 554.5C653.5 538.484 666.484 525.5 682.5 525.5 698.516 525.5 711.5 538.484 711.5 554.5 711.5 570.516 698.516 583.5 682.5 583.5 666.484 583.5 653.5 570.516 653.5 554.5Z" stroke="#787878" stroke-width="1.33333" stroke-miterlimit="8" fill="#A5A5A5" fill-rule="evenodd"/><text fill="#FFFFFF" font-family="Yu Gothic,Yu Gothic_MSFontService,sans-serif" font-weight="700" font-size="37" transform="translate(671.819 566)">c</text><path d="M0 0 33.5066 97.3243" stroke="#A5A5A5" stroke-width="4" stroke-miterlimit="8" stroke-dasharray="16 12" fill="none" fill-rule="evenodd" transform="matrix(-1 0 0 1 662.507 493)"/><path d="M588.5 511.5C588.5 495.484 601.484 482.5 617.5 482.5 633.516 482.5 646.5 495.484 646.5 511.5 646.5 527.516 633.516 540.5 617.5 540.5 601.484 540.5 588.5 527.516 588.5 511.5Z" stroke="#787878" stroke-width="1.33333" stroke-miterlimit="8" fill="#A5A5A5" fill-rule="evenodd"/><text fill="#FFFFFF" font-family="Yu Gothic,Yu Gothic_MSFontService,sans-serif" font-weight="700" font-size="37" transform="translate(605.627 522)">d</text><path d="M531.5 415.5C531.5 399.484 544.26 386.5 560 386.5 575.74 386.5 588.5 399.484 588.5 415.5 588.5 431.516 575.74 444.5 560 444.5 544.26 444.5 531.5 431.516 531.5 415.5Z" stroke="#787878" stroke-width="1.33333" stroke-miterlimit="8" fill="#A5A5A5" fill-rule="evenodd"/><text fill="#FFFFFF" font-family="Yu Gothic,Yu Gothic_MSFontService,sans-serif" font-weight="700" font-size="37" transform="translate(548.167 427)">d</text><path d="M0 0 115.081 86.8042" stroke="#A5A5A5" stroke-width="4" stroke-miterlimit="8" stroke-dasharray="16 12" fill="none" fill-rule="evenodd" transform="matrix(-1 0 0 1 587.081 310)"/><path d="M389.5 613.5C389.5 597.484 402.484 584.5 418.5 584.5 434.516 584.5 447.5 597.484 447.5 613.5 447.5 629.516 434.516 642.5 418.5 642.5 402.484 642.5 389.5 629.516 389.5 613.5Z" stroke="#787878" stroke-width="1.33333" stroke-miterlimit="8" fill="#A5A5A5" fill-rule="evenodd"/><text fill="#FFFFFF" font-family="Yu Gothic,Yu Gothic_MSFontService,sans-serif" font-weight="700" font-size="37" transform="translate(407.358 625)">c</text><path d="M659.5 681.5C659.5 665.484 672.26 652.5 688 652.5 703.74 652.5 716.5 665.484 716.5 681.5 716.5 697.516 703.74 710.5 688 710.5 672.26 710.5 659.5 697.516 659.5 681.5Z" stroke="#787878" stroke-width="1.33333" stroke-miterlimit="8" fill="#A5A5A5" fill-rule="evenodd"/><text fill="#FFFFFF" font-family="Yu Gothic,Yu Gothic_MSFontService,sans-serif" font-weight="700" font-size="37" transform="translate(677.231 693)">c</text><path d="M859.5 693.5C859.5 677.484 872.484 664.5 888.5 664.5 904.516 664.5 917.5 677.484 917.5 693.5 917.5 709.516 904.516 722.5 888.5 722.5 872.484 722.5 859.5 709.516 859.5 693.5Z" stroke="#787878" stroke-width="1.33333" stroke-miterlimit="8" fill="#A5A5A5" fill-rule="evenodd"/><text fill="#FFFFFF" font-family="Yu Gothic,Yu Gothic_MSFontService,sans-serif" font-weight="700" font-size="37" transform="translate(877.633 705)">c</text></g></svg>