<svg width="979" height="752" xmlns="http://www.w3.org/2000/svg" xmlns:xlink="http://www.w3.org/1999/xlink" overflow="hidden"><defs><clipPath id="clip0"><rect x="200" y="1" width="979" height="752"/></clipPath></defs><g clip-path="url(#clip0)" transform="translate(-200 -1)"><path d="M203 99.9686 250.404 283.8 303.149 265.082 317.17 327.25 317.17 380.06 437.349 481 464.056 477.658 470.733 452.924 389.945 355.995 391.948 322.571 419.99 305.191 454.709 328.587 542.84 300.511 544.176 283.131 524.813 202.245 537.499 144.756 576.934 99.5775 695.953 52.4452 761 3" stroke="#70AD47" stroke-width="4" stroke-miterlimit="8" fill="none" fill-rule="evenodd"/><path d="M397.093 534 529.278 588.625 546 626.625 535.648 648 434.519 642.458 374 595.75 374 546.667 397.093 534Z" stroke="#70AD47" stroke-width="4" stroke-miterlimit="8" fill="none" fill-rule="evenodd"/><path d="M575.655 707.8 674 715 761.241 715 766 699.8 740.621 686.2 622.448 684.6 573.276 683 559 692.6 570.103 701.4 575.655 707.8Z" stroke="#70AD47" stroke-width="4" stroke-miterlimit="8" fill="none" fill-rule="evenodd"/><path d="M651 632.206 731.75 645 765.792 634.899 803 568.236 780.833 533.894 702.458 511 651 605.945 651 632.206Z" stroke="#70AD47" stroke-width="4" stroke-miterlimit="8" fill="none" fill-rule="evenodd"/><path d="M876.8 686.4 930.4 681 952 689.486 928 707.229 872.8 708 860 696.429 876.8 686.4Z" stroke="#70AD47" stroke-width="4" stroke-miterlimit="8" fill="none" fill-rule="evenodd"/><path d="M988.617 676.6 1041.63 671 1063 679.8 1039.26 698.2 984.661 699 972 687 988.617 676.6Z" stroke="#70AD47" stroke-width="4" stroke-miterlimit="8" fill="none" fill-rule="evenodd"/><path d="M1099.62 672.4 1152.63 667 1174 675.486 1150.26 693.229 1095.66 694 1083 682.429 1099.62 672.4Z" stroke="#70AD47" stroke-width="4" stroke-miterlimit="8" fill="none" fill-rule="evenodd"/><path d="M721.933 378 812.156 382.957 819 405.88 787.267 424.467 741.844 435 715.711 410.837 707 391.63 721.933 378Z" stroke="#70AD47" stroke-width="4" stroke-miterlimit="8" fill="none" fill-rule="evenodd"/><path d="M739.134 320.908 822.493 324 825 299.882 818.106 285.039 779.873 277 743.521 279.474 736 294.934 739.134 320.908Z" stroke="#70AD47" stroke-width="4" stroke-miterlimit="8" fill="none" fill-rule="evenodd"/><path d="M736 339C736 334.029 740.029 330 745 330 749.971 330 754 334.029 754 339 754 343.971 749.971 348 745 348 740.029 348 736 343.971 736 339Z" stroke="#70AD47" stroke-width="4" stroke-miterlimit="8" fill="none" fill-rule="evenodd"/><path d="M763 350.5C763 345.806 766.806 342 771.5 342 776.194 342 780 345.806 780 350.5 780 355.194 776.194 359 771.5 359 766.806 359 763 355.194 763 350.5Z" stroke="#70AD47" stroke-width="4" stroke-miterlimit="8" fill="none" fill-rule="evenodd"/><path d="M799 339C799 334.029 803.029 330 808 330 812.971 330 817 334.029 817 339 817 343.971 812.971 348 808 348 803.029 348 799 343.971 799 339Z" stroke="#70AD47" stroke-width="4" stroke-miterlimit="8" fill="none" fill-rule="evenodd"/><path d="M790 368.5C790 363.806 794.029 360 799 360 803.971 360 808 363.806 808 368.5 808 373.194 803.971 377 799 377 794.029 377 790 373.194 790 368.5Z" stroke="#70AD47" stroke-width="4" stroke-miterlimit="8" fill="none" fill-rule="evenodd"/><path d="M735 366C735 361.029 739.029 357 744 357 748.971 357 753 361.029 753 366 753 370.971 748.971 375 744 375 739.029 375 735 370.971 735 366Z" stroke="#70AD47" stroke-width="4" stroke-miterlimit="8" fill="none" fill-rule="evenodd"/><path d="M263.156 279C262.874 270.518 262.311 262.04 262.311 253.554 262.311 232.953 262.774 229.163 264 213 263.719 205.048 263.638 197.088 263.156 189.145 263.074 187.795 262.547 186.502 262.311 185.169 261.984 183.32 261.813 181.448 261.467 179.602 260.969 176.94 260.653 174.225 259.779 171.651 258.393 167.572 254.713 159.723 254.713 159.723 253.895 155.097 253.553 153.565 253.025 148.59 252.969 148.063 253.025 147.53 253.025 147" stroke="#BDD7EE" stroke-width="8" stroke-miterlimit="8" fill="none" fill-rule="evenodd"/><path d="M400 317C399.458 315.421 398.816 313.871 398.375 312.263 397.732 309.919 397.455 307.485 396.75 305.158 396.097 303.001 395.125 300.947 394.312 298.842 394.042 294.895 393.919 290.935 393.5 287 393.106 283.298 392.185 279.657 391.875 275.947 391.371 269.909 391.496 263.833 391.062 257.789 390.684 252.513 389.979 247.263 389.438 242 389.167 230.158 389.112 218.309 388.625 206.474 388.212 196.443 389.866 186.097 384.562 177.263 382.271 173.446 379.003 171.496 375.625 168.579 375.053 168.084 374.542 167.526 374 167" stroke="#BDD7EE" stroke-width="8" stroke-miterlimit="8" fill="none" fill-rule="evenodd"/><path d="M485 321C484.736 309.599 484.739 298.188 484.207 286.796 483.446 270.517 480.541 259.274 478.655 242.25 477.287 229.902 478.892 239.828 476.276 230.318 469.897 207.127 474.531 218.673 467.552 203.273 465.678 188.239 468.104 205.063 465.172 191.341 464.781 189.508 464.929 187.565 464.379 185.773 463.858 184.073 462 181 462 181" stroke="#BDD7EE" stroke-width="8" stroke-miterlimit="8" fill="none" fill-rule="evenodd"/><path d="M452.484 265.002C450.78 255.948 454.991 247.555 461.89 246.257 468.788 244.958 475.762 251.246 477.467 260.3 479.171 269.355 474.96 277.747 468.061 279.046 461.163 280.344 454.188 274.057 452.484 265.002Z" fill="#BDD7EE" fill-rule="evenodd"/><path d="M659 68C657.808 66.5185 656.341 65.219 655.423 63.5555 651.257 56.0035 651.008 45.2219 643.798 40.4444 638.346 36.8317 642.665 39.3184 632.173 36 628.58 34.8636 624.993 33.705 621.442 32.4444 616.645 30.7415 611.967 28.7122 607.135 27.1111 604.287 26.1676 596.59 25.5515 594.615 25.3333 591.701 24.6894 584.391 23.3625 581.202 21.7777 579.869 21.1152 578.889 19.8963 577.625 19.1111 576.495 18.4088 575.179 18.0356 574.048 17.3333 572.784 16.5481 571.735 15.4519 570.471 14.6667 565.199 11.3914 568.253 14.24 566 12" stroke="#BDD7EE" stroke-width="8" stroke-miterlimit="8" fill="none" fill-rule="evenodd"/><path d="M325.5 290.5C325.5 274.484 338.26 261.5 354 261.5 369.74 261.5 382.5 274.484 382.5 290.5 382.5 306.516 369.74 319.5 354 319.5 338.26 319.5 325.5 306.516 325.5 290.5Z" stroke="#787878" stroke-width="1.33333" stroke-miterlimit="8" fill="#A5A5A5" fill-rule="evenodd"/><text fill="#FFFFFF" font-family="Yu Gothic,Yu Gothic_MSFontService,sans-serif" font-weight="700" font-size="37" transform="translate(340.603 301)">A</text><path d="M0 0 29.0174 283.929" stroke="#A5A5A5" stroke-width="4" stroke-miterlimit="8" stroke-dasharray="16 12" fill="none" fill-rule="evenodd" transform="matrix(1 0 0 -1 684 471.929)"/><path d="M0 0 6.18089 141.728" stroke="#A5A5A5" stroke-width="4" stroke-miterlimit="8" stroke-dasharray="16 12" fill="none" fill-rule="evenodd" transform="matrix(1 0 0 -1 297 329.728)"/><path d="M0 0 220.802 5.61092" stroke="#A5A5A5" stroke-width="4" stroke-miterlimit="8" stroke-dasharray="16 12" fill="none" fill-rule="evenodd" transform="matrix(-1 0 0 1 523.802 406)"/><path d="M662 454 912.939 454" stroke="#A5A5A5" stroke-width="4" stroke-miterlimit="8" stroke-dasharray="16 12" fill="none" fill-rule="evenodd"/><path d="M816.5 323.5C816.5 307.484 829.484 294.5 845.5 294.5 861.516 294.5 874.5 307.484 874.5 323.5 874.5 339.516 861.516 352.5 845.5 352.5 829.484 352.5 816.5 339.516 816.5 323.5Z" stroke="#787878" stroke-width="1.33333" stroke-miterlimit="8" fill="#A5A5A5" fill-rule="evenodd"/><text fill="#FFFFFF" font-family="Yu Gothic,Yu Gothic_MSFontService,sans-serif" font-weight="700" font-size="37" transform="translate(831.53 335)">B</text><path d="M718.5 569.5C718.5 553.484 731.484 540.5 747.5 540.5 763.516 540.5 776.5 553.484 776.5 569.5 776.5 585.516 763.516 598.5 747.5 598.5 731.484 598.5 718.5 585.516 718.5 569.5Z" stroke="#787878" stroke-width="1.33333" stroke-miterlimit="8" fill="#A5A5A5" fill-rule="evenodd"/><text fill="#FFFFFF" font-family="Yu Gothic,Yu Gothic_MSFontService,sans-serif" font-weight="700" font-size="37" transform="translate(733.918 580)">C</text><path d="M0 0 79.7603 194.232" stroke="#A5A5A5" stroke-width="4" stroke-miterlimit="8" stroke-dasharray="16 12" fill="none" fill-rule="evenodd" transform="matrix(1 0 0 -1 603 666.232)"/><path d="M384.5 446.5C384.5 430.484 397.484 417.5 413.5 417.5 429.516 417.5 442.5 430.484 442.5 446.5 442.5 462.516 429.516 475.5 413.5 475.5 397.484 475.5 384.5 462.516 384.5 446.5Z" stroke="#787878" stroke-width="1.33333" stroke-miterlimit="8" fill="#A5A5A5" fill-rule="evenodd"/><text fill="#FFFFFF" font-family="Yu Gothic,Yu Gothic_MSFontService,sans-serif" font-weight="700" font-size="37" transform="translate(398.739 458)">D</text><path d="M210.5 253C210.5 237.26 223.484 224.5 239.5 224.5 255.516 224.5 268.5 237.26 268.5 253 268.5 268.74 255.516 281.5 239.5 281.5 223.484 281.5 210.5 268.74 210.5 253Z" stroke="#787878" stroke-width="1.33333" stroke-miterlimit="8" fill="#A5A5A5" fill-rule="evenodd"/><text fill="#FFFFFF" font-family="Yu Gothic,Yu Gothic_MSFontService,sans-serif" font-weight="700" font-size="37" transform="translate(226.578 264)">E</text><path d="M523.755 409.07 460 136" stroke="#A5A5A5" stroke-width="4" stroke-miterlimit="8" stroke-dasharray="16 12" fill="none" fill-rule="evenodd"/><path d="M506.5 215.5C506.5 199.484 519.26 186.5 535 186.5 550.74 186.5 563.5 199.484 563.5 215.5 563.5 231.516 550.74 244.5 535 244.5 519.26 244.5 506.5 231.516 506.5 215.5Z" stroke="#787878" stroke-width="1.33333" stroke-miterlimit="8" fill="#A5A5A5" fill-rule="evenodd"/><text fill="#FFFFFF" font-family="Yu Gothic,Yu Gothic_MSFontService,sans-serif" font-weight="700" font-size="37" transform="translate(522.763 227)">F</text><path d="M0 0 20.997 75.6107" stroke="#A5A5A5" stroke-width="4" stroke-miterlimit="8" stroke-dasharray="16 12" fill="none" fill-rule="evenodd" transform="matrix(1 0 0 -1 641 746.611)"/><path d="M689.5 707.5C689.5 691.484 702.484 678.5 718.5 678.5 734.516 678.5 747.5 691.484 747.5 707.5 747.5 723.516 734.516 736.5 718.5 736.5 702.484 736.5 689.5 723.516 689.5 707.5Z" stroke="#787878" stroke-width="1.33333" stroke-miterlimit="8" fill="#A5A5A5" fill-rule="evenodd"/><text fill="#FFFFFF" font-family="Yu Gothic,Yu Gothic_MSFontService,sans-serif" font-weight="700" font-size="37" transform="translate(706.2 719)">F</text></g></svg>