<svg width="1008" height="929" xmlns="http://www.w3.org/2000/svg" xmlns:xlink="http://www.w3.org/1999/xlink" overflow="hidden"><defs><clipPath id="clip0"><rect x="127" y="-159" width="1008" height="929"/></clipPath></defs><g clip-path="url(#clip0)" transform="translate(-127 159)"><rect x="177.5" y="-156.5" width="856" height="459" stroke="#2F528F" stroke-width="1.33333" stroke-miterlimit="8" fill="#C9C9C9"/><path d="M100.883 0 755.117 0 856 100.883 856 399 856 399 0 399 0 399 0 100.883Z" stroke="#787878" stroke-width="1.33333" stroke-miterlimit="8" fill="#A5A5A5" fill-rule="evenodd" transform="matrix(1 0 0 -1 177.5 701.5)"/><path d="M633.5 701.5 278.918 701.5 177.5 600.082 177.5 381.5 633.5 381.5Z" stroke="#2F528F" stroke-width="1.33333" stroke-miterlimit="8" fill="#7C7C7C" fill-rule="evenodd"/><path d="M817.777 601.245 817.777 625.283 819.721 625.112C823.697 624.402 827.584 623.438 831.365 622.237L841.554 618.259 841.554 601.245ZM765.227 601.245 765.227 618.083 767.481 619.305C772.999 621.639 778.792 623.45 784.798 624.679L789.004 625.32 789.004 601.245ZM870.327 548.719 870.327 572.485 887.093 572.485 889.246 568.151C891.174 563.265 892.696 558.175 893.771 552.923L894.413 548.719ZM817.777 548.719 817.777 572.485 841.554 572.485 841.554 548.719ZM765.227 548.719 765.227 572.485 789.004 572.485 789.004 548.719ZM712.276 548.719 715.283 561.76 719.511 572.485 736.454 572.485 736.454 548.719ZM870.327 496.192 870.327 519.959 894.413 519.959 893.771 515.754C892.696 510.502 891.174 505.412 889.246 500.526L887.093 496.192ZM817.777 496.192 817.777 519.959 841.554 519.959 841.554 496.192ZM765.227 496.192 765.227 519.959 789.004 519.959 789.004 496.192ZM719.511 496.192 715.283 506.917 712.276 519.959 736.454 519.959 736.454 496.192ZM817.777 443.394 817.777 467.432 841.554 467.432 841.554 450.418 831.365 446.441C827.584 445.24 823.697 444.275 819.721 443.565ZM789.004 443.357 784.798 443.999C778.792 445.227 772.999 447.039 767.481 449.372L765.227 450.595 765.227 467.432 789.004 467.432ZM803.391 418.5 815.213 419.097 815.213 418.5 1134.5 418.5 1134.5 442.134 873.338 442.134 877.108 444.952C902.864 466.199 919.281 498.352 919.281 534.339 919.281 594.316 873.678 643.647 815.24 649.579L815.213 649.58 815.213 769.5 791.568 769.5 791.568 649.58 791.541 649.579C733.103 643.647 687.5 594.316 687.5 534.339 687.5 470.363 739.386 418.5 803.391 418.5Z" stroke="#AE5A21" stroke-width="1.33333" stroke-miterlimit="8" fill="#ED7D31" fill-rule="evenodd"/><path d="M465.874 598.353 465.874 622.402 467.821 622.23C471.801 621.52 475.693 620.555 479.479 619.353L489.68 615.374 489.68 598.353ZM413.261 598.353 413.261 615.198 415.518 616.421C421.043 618.755 426.843 620.568 432.856 621.797L437.067 622.439 437.067 598.353ZM518.488 545.804 518.488 569.581 535.273 569.581 537.429 565.244C539.359 560.357 540.883 555.265 541.96 550.01L542.602 545.804ZM465.874 545.804 465.874 569.581 489.68 569.581 489.68 545.804ZM413.261 545.804 413.261 569.581 437.067 569.581 437.067 545.804ZM360.247 545.804 363.258 558.851 367.491 569.581 384.454 569.581 384.454 545.804ZM518.488 493.254 518.488 517.031 542.602 517.031 541.96 512.825C540.883 507.57 539.359 502.478 537.429 497.59L535.273 493.254ZM465.874 493.254 465.874 517.031 489.68 517.031 489.68 493.254ZM413.261 493.254 413.261 517.031 437.067 517.031 437.067 493.254ZM367.491 493.254 363.258 503.984 360.247 517.031 384.454 517.031 384.454 493.254ZM465.874 440.433 465.874 464.482 489.68 464.482 489.68 447.461 479.479 443.482C475.693 442.28 471.801 441.315 467.821 440.605ZM437.067 440.396 432.856 441.038C426.843 442.267 421.043 444.08 415.518 446.414L413.261 447.637 413.261 464.482 437.067 464.482ZM463.307 333.141 463.307 371.315 466.805 370.51C481.338 365.995 493.115 355.232 498.987 341.368L501.543 333.141ZM401.398 333.141 403.954 341.368C409.826 355.232 421.603 365.995 436.136 370.51L439.634 371.315 439.634 333.141ZM463.307 271.323 463.307 309.497 501.543 309.497 498.987 301.27C493.115 287.406 481.338 276.643 466.805 272.128ZM439.634 271.323 436.136 272.128C421.603 276.643 409.826 287.406 403.954 301.27L401.398 309.497 439.634 309.497ZM451.471 248.5C491.736 248.5 524.378 281.102 524.378 321.319 524.378 356.509 499.387 385.869 466.164 392.659L463.307 392.946 463.307 416.126 463.334 416.127C521.843 422.062 567.5 471.414 567.5 531.417 567.5 591.421 521.843 640.773 463.334 646.708L463.307 646.709 463.307 769.5 439.634 769.5 439.634 646.709 439.607 646.708C381.099 640.773 335.441 591.421 335.441 531.417 335.441 471.414 381.099 422.062 439.607 416.127L439.634 416.126 439.634 393.095 438.565 393.001C409.243 387.769 385.993 365.029 380.044 335.995L379.363 329.245 128.5 329.245 128.5 305.601 380.369 305.601 384.293 292.975C395.361 266.839 421.271 248.5 451.471 248.5Z" stroke="#AE5A21" stroke-width="1.33333" stroke-miterlimit="8" fill="#ED7D31" fill-rule="evenodd"/><path d="M354.203-48.6072C381.48-49.3419 406.43-30.8651 412.86-3.25311 418.371 20.4143 408.709 44.0714 390.221 57.5207L388.071 58.78 420.311 197.24 427.502 199.983C435.767 205.126 442.07 213.422 444.452 223.652 449.216 244.111 436.492 264.559 416.033 269.323 395.573 274.086 375.126 261.363 370.362 240.903 367.384 228.116 371.238 215.334 379.542 206.382L380.182 205.814 348.104 68.0491 345.74 67.8781C323.212 63.9792 304.095 47.0234 298.584 23.3559 291.236-8.20062 310.861-39.7388 342.417-47.0867 346.362-48.0052 350.306-48.5023 354.203-48.6072Z" stroke="#BC8C00" stroke-width="1.33333" stroke-miterlimit="8" fill="#FFC000" fill-rule="evenodd"/><path d="M336.208 16.9589C333.638 5.92458 340.501-5.10334 351.535-7.67266 362.569-10.242 373.597-3.37976 376.166 7.65455 378.736 18.6889 371.874 29.7168 360.839 32.2861 349.805 34.8554 338.777 27.9932 336.208 16.9589Z" stroke="#BC8C00" stroke-width="1.33333" stroke-miterlimit="8" fill="#BF9000" fill-rule="evenodd"/><path d="M566.576-46.5965C569.907-46.8568 573.287-46.8328 576.682-46.5067 580.562-46.134 584.463-45.367 588.335-44.1794 619.312-34.6791 636.722-1.86606 627.221 29.1106 620.096 52.343 599.857 67.9442 577.115 70.2848L574.623 70.2933 533.158 205.491 533.758 206.103C541.427 215.604 544.392 228.621 540.543 241.173 534.383 261.257 513.109 272.544 493.026 266.385 472.942 260.225 461.655 238.951 467.814 218.868 470.894 208.826 477.752 200.983 486.351 196.421L493.714 194.179 535.409 58.2287 533.451 56.8933C515.932 42.2046 507.92 17.9392 515.045-5.29324 522.319-29.0097 543.258-44.7736 566.576-46.5965Z" stroke="#BC8C00" stroke-width="1.33333" stroke-miterlimit="8" fill="#FFC000" fill-rule="evenodd"/><path d="M550.79 8.07749C554.112-2.75404 565.586-8.84173 576.417-5.51977 587.249-2.1978 593.337 9.27587 590.015 20.1074 586.693 30.9389 575.219 37.0266 564.387 33.7046 553.556 30.3827 547.468 18.909 550.79 8.07749Z" stroke="#BC8C00" stroke-width="1.33333" stroke-miterlimit="8" fill="#BF9000" fill-rule="evenodd"/><path d="M725.432-18.6622C757.737-21.1514 785.943 3.01896 788.432 35.3239 790.299 59.5527 777.17 81.4759 756.86 91.9733L754.544 92.8928 775.788 368.6 776.57 368.95C787.182 374.987 794.704 386.018 795.713 399.108 797.327 420.053 781.656 438.34 760.711 439.954 739.767 441.568 721.479 425.897 719.866 404.953 718.857 391.862 724.6 379.81 734.163 372.217L734.881 371.752 713.635 96.0087 711.324 95.482C689.645 88.22 673.313 68.5669 671.446 44.3382 668.956 12.0332 693.127-16.173 725.432-18.6622Z" stroke="#BC8C00" stroke-width="1.33333" stroke-miterlimit="8" fill="#FFC000" fill-rule="evenodd"/><path d="M709.604 43.7069C708.734 32.4109 717.186 22.548 728.482 21.6776 739.778 20.8072 749.641 29.2589 750.511 40.5549 751.381 51.8509 742.93 61.7137 731.634 62.5841 720.338 63.4545 710.475 55.0029 709.604 43.7069Z" stroke="#BC8C00" stroke-width="1.33333" stroke-miterlimit="8" fill="#BF9000" fill-rule="evenodd"/><path d="M939.841-5.50013C943.737-5.6376 947.705-5.38667 951.699-4.71513 983.651 0.657175 1005.2 30.9146 999.826 62.8669 995.797 86.8311 977.77 104.942 955.528 110.234L953.058 110.568 907.208 383.265 907.882 383.793C916.727 392.211 921.367 404.729 919.19 417.677 915.707 438.393 896.09 452.362 875.374 448.879 854.658 445.396 840.688 425.779 844.172 405.063 846.348 392.116 854.828 381.803 865.939 376.74L866.748 376.462 912.604 103.73 910.489 102.661C891.201 90.3871 880.088 67.3763 884.117 43.4121 888.818 15.4538 912.571-4.53803 939.841-5.50013Z" stroke="#BC8C00" stroke-width="1.33333" stroke-miterlimit="8" fill="#FFC000" fill-rule="evenodd"/><path d="M921.302 51.9987C923.181 40.826 933.761 33.2916 944.934 35.1701 956.106 37.0487 963.641 47.6287 961.762 58.8014 959.884 69.9741 949.304 77.5085 938.131 75.63 926.958 73.7514 919.424 63.1714 921.302 51.9987Z" stroke="#BC8C00" stroke-width="1.33333" stroke-miterlimit="8" fill="#BF9000" fill-rule="evenodd"/><path d="M165.5-103.5C165.5-127.801 185.2-147.5 209.5-147.5 233.801-147.5 253.5-127.801 253.5-103.5 253.5-79.1995 233.801-59.5 209.5-59.5 185.2-59.5 165.5-79.1995 165.5-103.5Z" stroke="#507E32" stroke-width="1.33333" stroke-miterlimit="8" fill="#70AD47" fill-rule="evenodd"/><text fill="#FFFFFF" font-family="Yu Gothic,Yu Gothic_MSFontService,sans-serif" font-weight="700" font-size="48" transform="translate(195.672 -89)">1</text><path d="M880.5 208.5C880.5 184.2 900.2 164.5 924.5 164.5 948.801 164.5 968.5 184.2 968.5 208.5 968.5 232.801 948.801 252.5 924.5 252.5 900.2 252.5 880.5 232.801 880.5 208.5Z" stroke="#507E32" stroke-width="1.33333" stroke-miterlimit="8" fill="#70AD47" fill-rule="evenodd"/><text fill="#FFFFFF" font-family="Yu Gothic,Yu Gothic_MSFontService,sans-serif" font-weight="700" font-size="48" transform="translate(910.062 223)">a</text><path d="M177.5 549.5C177.5 525.2 197.2 505.5 221.5 505.5 245.801 505.5 265.5 525.2 265.5 549.5 265.5 573.801 245.801 593.5 221.5 593.5 197.2 593.5 177.5 573.801 177.5 549.5Z" stroke="#507E32" stroke-width="1.33333" stroke-miterlimit="8" fill="#70AD47" fill-rule="evenodd"/><text fill="#FFFFFF" font-family="Yu Gothic,Yu Gothic_MSFontService,sans-serif" font-weight="700" font-size="48" transform="translate(207.346 564)">3</text><path d="M953.5 580.5C953.5 556.2 973.2 536.5 997.5 536.5 1021.8 536.5 1041.5 556.2 1041.5 580.5 1041.5 604.801 1021.8 624.5 997.5 624.5 973.2 624.5 953.5 604.801 953.5 580.5Z" stroke="#507E32" stroke-width="1.33333" stroke-miterlimit="8" fill="#70AD47" fill-rule="evenodd"/><text fill="#FFFFFF" font-family="Yu Gothic,Yu Gothic_MSFontService,sans-serif" font-weight="700" font-size="48" transform="translate(973.347 595)">２</text><path d="M701.5 211.5C701.5 187.2 721.2 167.5 745.5 167.5 769.801 167.5 789.5 187.2 789.5 211.5 789.5 235.801 769.801 255.5 745.5 255.5 721.2 255.5 701.5 235.801 701.5 211.5Z" stroke="#507E32" stroke-width="1.33333" stroke-miterlimit="8" fill="#70AD47" fill-rule="evenodd"/><text fill="#FFFFFF" font-family="Yu Gothic,Yu Gothic_MSFontService,sans-serif" font-weight="700" font-size="48" transform="translate(731.43 226)">a</text><path d="M487.5 121.5C487.5 97.1995 507.2 77.5001 531.5 77.5001 555.801 77.5001 575.5 97.1995 575.5 121.5 575.5 145.801 555.801 165.5 531.5 165.5 507.2 165.5 487.5 145.801 487.5 121.5Z" stroke="#507E32" stroke-width="1.33333" stroke-miterlimit="8" fill="#70AD47" fill-rule="evenodd"/><text fill="#FFFFFF" font-family="Yu Gothic,Yu Gothic_MSFontService,sans-serif" font-weight="700" font-size="48" transform="translate(516.962 136)">a</text><path d="M338.5 141.5C338.5 117.2 358.2 97.5001 382.5 97.5001 406.801 97.5001 426.5 117.2 426.5 141.5 426.5 165.801 406.801 185.5 382.5 185.5 358.2 185.5 338.5 165.801 338.5 141.5Z" stroke="#507E32" stroke-width="1.33333" stroke-miterlimit="8" fill="#70AD47" fill-rule="evenodd"/><text fill="#FFFFFF" font-family="Yu Gothic,Yu Gothic_MSFontService,sans-serif" font-weight="700" font-size="48" transform="translate(367.618 157)">a</text></g></svg>