<svg width="966" height="826" xmlns="http://www.w3.org/2000/svg" xmlns:xlink="http://www.w3.org/1999/xlink" overflow="hidden"><defs><clipPath id="clip0"><rect x="36" y="-118" width="966" height="826"/></clipPath></defs><g clip-path="url(#clip0)" transform="translate(-36 118)"><rect x="487" y="-50" width="60" height="743" fill="#ED7D31"/><rect x="530" y="24" width="17" height="637" fill="#A5A5A5"/><rect x="474" y="-58" width="18" height="719" fill="#A5A5A5"/><rect x="529" y="-58" width="18" height="42" fill="#A5A5A5"/><rect x="530" y="24" width="17" height="675" fill="#A5A5A5"/><rect x="474" y="-58" width="18" height="762" fill="#A5A5A5"/><path d="M628.5 471.5 628.5 704.5 336.5 471.5Z" stroke="#2F528F" stroke-width="1.33333" stroke-miterlimit="8" fill="#4472C4" fill-rule="evenodd"/><path d="M0 233 0 0 293 233Z" stroke="#AE5A21" stroke-width="1.33333" stroke-miterlimit="8" fill="#ED7D31" fill-rule="evenodd" transform="matrix(1 -1.22465e-16 -1.22465e-16 -1 628.5 704.5)"/><path d="M862.9 238.5 921.5 471.5 628.5 471.5 628.5 238.5Z" stroke="#2F528F" stroke-width="1.33333" stroke-miterlimit="8" fill="#4472C4" fill-rule="evenodd"/><path d="M0 58.4 233 0 233 292 0 292Z" stroke="#2F528F" stroke-width="1.33333" stroke-miterlimit="8" fill="#4472C4" fill-rule="evenodd" transform="matrix(1.83697e-16 1 1 -1.83697e-16 336.5 238.5)"/><path d="M862.9 238.5 921.5 471.5 628.5 471.5 628.5 238.5Z" stroke="#AE5A21" stroke-width="1.33333" stroke-miterlimit="8" fill="#ED7D31" fill-rule="evenodd"/><rect x="490" y="460" width="284" height="18" fill="#A5A5A5"/><rect x="617.5" y="240.5" width="25" height="466" stroke="#787878" stroke-width="1.33333" stroke-miterlimit="8" fill="#A5A5A5"/><path d="M459.532 29.0903 565.93 229.473 348.036 507.804 25.0622 364.162 25.0622 137.283ZM473.312 0 0.795906 117.667 1.19003 119.25 0.16357 119.25 0.16357 379.897 0 380.265 346.18 534.228 351.588 522.068 362.068 530.272 595.617 231.943 595.3 231.695 474.225 3.66961Z" stroke="#787878" stroke-width="1.33333" stroke-miterlimit="8" fill="#A5A5A5" fill-rule="evenodd" transform="matrix(-0.970365 0.241643 0.241643 0.970365 844.238 103.591)"/><path d="M642.479 243.415 642.479 671.161 908.28 463.716 853.44 243.415ZM405.56 243.415 350.72 463.716 617.573 671.982 617.573 243.415ZM385.154 218.5 872.253 218.5 872.253 220.132 873.249 219.884 936.252 472.975 936.5 473.293 642.479 702.762 642.479 706.361 637.868 706.361 637.689 706.5 637.581 706.361 621.42 706.361 621.311 706.5 621.133 706.361 617.573 706.361 617.573 703.582 322.5 473.293 322.748 472.975 385.154 222.284Z" stroke="#787878" stroke-width="1.33333" stroke-miterlimit="8" fill="#A5A5A5" fill-rule="evenodd"/><rect x="451" y="136" width="424" height="50" fill="#ED7D31"/><rect x="774" y="159" width="50" height="165" fill="#ED7D31"/><rect x="813" y="175" width="18" height="157" fill="#A5A5A5"/><rect x="765" y="175" width="18" height="157" fill="#A5A5A5"/><rect x="446" y="175" width="337" height="18" fill="#A5A5A5"/><rect x="446" y="127" width="437" height="17" fill="#A5A5A5"/><rect x="813" y="175" width="70" height="18" fill="#A5A5A5"/><rect x="549" y="75" width="43" height="422" fill="#4472C4"/><rect x="397" y="62.0001" width="463" height="44" fill="#4472C4"/><rect x="586" y="97" width="18" height="429" fill="#A5A5A5"/><rect x="542" y="97" width="18" height="429" fill="#A5A5A5"/><rect x="391" y="96.0001" width="169" height="18" fill="#A5A5A5"/><rect x="586" y="95" width="284" height="18" fill="#A5A5A5"/><rect x="391" y="49.0001" width="479" height="18" fill="#A5A5A5"/><rect x="547" y="-19" width="156" height="53" fill="#ED7D31"/><rect x="666" y="-19" width="54" height="541" fill="#ED7D31"/><rect x="718" y="-31" width="18" height="545" fill="#A5A5A5"/><rect x="661" y="25" width="18" height="489" fill="#A5A5A5"/><rect x="530" y="-33" width="206" height="18" fill="#A5A5A5"/><rect x="531" y="24" width="148" height="18" fill="#A5A5A5"/><rect x="170" y="312" width="273" height="51" fill="#4472C4"/><rect x="169" y="174" width="54" height="323" fill="#4472C4"/><rect x="215" y="355" width="238" height="18" fill="#A5A5A5"/><rect x="215" y="299" width="237" height="18" fill="#A5A5A5"/><rect x="156" y="167" width="18" height="342" fill="#A5A5A5"/><rect x="214" y="167" width="18" height="150" fill="#A5A5A5"/><rect x="214" y="355" width="18" height="154" fill="#A5A5A5"/><path d="M434.5 366.5C434.5 334.468 460.468 308.5 492.5 308.5 524.533 308.5 550.5 334.468 550.5 366.5 550.5 398.533 524.533 424.5 492.5 424.5 460.468 424.5 434.5 398.533 434.5 366.5Z" stroke="#507E32" stroke-width="1.33333" stroke-miterlimit="8" fill="#70AD47" fill-rule="evenodd"/><text fill="#FFFFFF" font-family="Yu Gothic,Yu Gothic_MSFontService,sans-serif" font-weight="700" font-size="64" transform="translate(473.737 387)">1</text><path d="M490.5 586.5C490.5 554.468 516.468 528.5 548.5 528.5 580.533 528.5 606.5 554.468 606.5 586.5 606.5 618.533 580.533 644.5 548.5 644.5 516.468 644.5 490.5 618.533 490.5 586.5Z" stroke="#507E32" stroke-width="1.33333" stroke-miterlimit="8" fill="#70AD47" fill-rule="evenodd"/><text fill="#FFFFFF" font-family="Yu Gothic,Yu Gothic_MSFontService,sans-serif" font-weight="700" font-size="64" transform="translate(529.967 607)">2</text><path d="M754.5 402.5C754.5 370.468 780.468 344.5 812.5 344.5 844.533 344.5 870.5 370.468 870.5 402.5 870.5 434.533 844.533 460.5 812.5 460.5 780.468 460.5 754.5 434.533 754.5 402.5Z" stroke="#507E32" stroke-width="1.33333" stroke-miterlimit="8" fill="#70AD47" fill-rule="evenodd"/><text fill="#FFFFFF" font-family="Yu Gothic,Yu Gothic_MSFontService,sans-serif" font-weight="700" font-size="64" transform="translate(794.047 423)">3</text><path d="M693.5 586.5C693.5 554.468 719.468 528.5 751.5 528.5 783.533 528.5 809.5 554.468 809.5 586.5 809.5 618.533 783.533 644.5 751.5 644.5 719.468 644.5 693.5 618.533 693.5 586.5Z" stroke="#507E32" stroke-width="1.33333" stroke-miterlimit="8" fill="#70AD47" fill-rule="evenodd"/><text fill="#FFFFFF" font-family="Yu Gothic,Yu Gothic_MSFontService,sans-serif" font-weight="700" font-size="64" transform="translate(732.19 606)">4</text><path d="M39.5001 324.5C39.5001 292.468 65.4675 266.5 97.5001 266.5 129.533 266.5 155.5 292.468 155.5 324.5 155.5 356.533 129.533 382.5 97.5001 382.5 65.4675 382.5 39.5001 356.533 39.5001 324.5Z" stroke="#41719C" stroke-width="1.33333" stroke-miterlimit="8" fill="#5B9BD5" fill-rule="evenodd"/><text fill="#FFFFFF" font-family="Yu Gothic,Yu Gothic_MSFontService,sans-serif" font-weight="700" font-size="64" transform="translate(75.3065 345)">A</text><path d="M556.5-57.5C556.5-89.5325 582.691-115.5 615-115.5 647.309-115.5 673.5-89.5325 673.5-57.5 673.5-25.4675 647.309 0.500053 615 0.500053 582.691 0.500053 556.5-25.4675 556.5-57.5Z" stroke="#41719C" stroke-width="1.33333" stroke-miterlimit="8" fill="#5B9BD5" fill-rule="evenodd"/><text fill="#FFFFFF" font-family="Yu Gothic,Yu Gothic_MSFontService,sans-serif" font-weight="700" font-size="64" transform="translate(591.815 -38)">B</text><path d="M854.5 44.5C854.5 12.4675 880.468-13.5001 912.5-13.5001 944.533-13.5001 970.5 12.4675 970.5 44.5 970.5 76.5325 944.533 102.5 912.5 102.5 880.468 102.5 854.5 76.5325 854.5 44.5Z" stroke="#41719C" stroke-width="1.33333" stroke-miterlimit="8" fill="#5B9BD5" fill-rule="evenodd"/><text fill="#FFFFFF" font-family="Yu Gothic,Yu Gothic_MSFontService,sans-serif" font-weight="700" font-size="64" transform="translate(889.024 65)">C</text><path d="M880.5 175.5C880.5 143.468 906.468 117.5 938.5 117.5 970.533 117.5 996.5 143.468 996.5 175.5 996.5 207.533 970.533 233.5 938.5 233.5 906.468 233.5 880.5 207.533 880.5 175.5Z" stroke="#41719C" stroke-width="1.33333" stroke-miterlimit="8" fill="#5B9BD5" fill-rule="evenodd"/><text fill="#FFFFFF" font-family="Yu Gothic,Yu Gothic_MSFontService,sans-serif" font-weight="700" font-size="64" transform="translate(913.745 196)">D</text></g></svg>