<svg width="627" height="693" xmlns="http://www.w3.org/2000/svg" xmlns:xlink="http://www.w3.org/1999/xlink" overflow="hidden"><defs><clipPath id="clip0"><rect x="12" y="-1" width="627" height="693"/></clipPath></defs><g clip-path="url(#clip0)" transform="translate(-12 1)"><rect x="99.5001" y="221.5" width="376" height="33" stroke="#AE5A21" stroke-width="1.33333" stroke-miterlimit="8" fill="#ED7D31"/><rect x="99.5001" y="273.5" width="376" height="32" stroke="#2F528F" stroke-width="1.33333" stroke-miterlimit="8" fill="#4472C4"/><path d="M138.894 511.987C215.126 510.705 303.655 344.419 303.999 259.096 304.343 173.772 226.128 2.55726 140.96 0.0437516 55.7915-2.46975 4.54682 103.751 2.07309 152.222-0.400649 200.693 20.8827 216.36 36.4121 215.873 51.9415 215.387 83.585 142.851 95.2496 149.305 106.914 155.759 105 213.828 106.4 254.596 107.8 295.363 100.957 356.57 88.6984 363.913 76.4402 371.257 47.6325 299.341 32.8507 298.657 18.0688 297.973 0.772434 297.754 0.00687938 359.809-0.758676 421.863 62.6613 513.268 138.894 511.987Z" stroke="#787878" stroke-width="1.33333" stroke-miterlimit="8" fill="#A5A5A5" fill-rule="evenodd" transform="matrix(1 0 0 -1 295.5 512.5)"/><path d="M516.5 218.5 550 218.5C568.502 218.5 583.5 233.946 583.5 253 583.5 272.054 568.502 287.5 550 287.5L516.5 287.5Z" stroke="#2F528F" stroke-width="1.33333" stroke-miterlimit="8" fill="#7F7F7F" fill-rule="evenodd"/><path d="M509.43 301.273 533.074 324.917C546.132 337.975 545.744 359.535 532.206 373.072 518.669 386.61 497.109 386.998 484.051 373.94L460.407 350.296Z" stroke="#2F528F" stroke-width="1.33333" stroke-miterlimit="8" fill="#7F7F7F" fill-rule="evenodd"/><path d="M452.5 355.5 452.5 389C452.5 407.502 437.054 422.5 418 422.5 398.946 422.5 383.5 407.502 383.5 389L383.5 355.5Z" stroke="#2F528F" stroke-width="1.33333" stroke-miterlimit="8" fill="#7F7F7F" fill-rule="evenodd"/><path d="M374.843 374.519 359.718 389.644C351.364 397.998 337.572 397.749 328.912 389.089 320.253 380.429 320.004 366.638 328.358 358.284L343.483 343.159Z" stroke="#2F528F" stroke-width="1.33333" stroke-miterlimit="8" fill="#7F7F7F" fill-rule="evenodd"/><path d="M0 0 33.4375 0C51.9046-8.82647e-15 66.8751 15.5198 66.8751 34.6644 66.8751 53.809 51.9046 69.3287 33.4375 69.3287L0 69.3287Z" stroke="#2F528F" stroke-width="1.33333" stroke-miterlimit="8" fill="#7F7F7F" fill-rule="evenodd" transform="matrix(0.707107 -0.707107 -0.707107 -0.707107 518.401 207.708)"/><path d="M0 0 33.5 0C52.0015-8.91193e-15 67 15.67 67 35 67 54.33 52.0015 70 33.5 70L0 70Z" stroke="#2F528F" stroke-width="1.33333" stroke-miterlimit="8" fill="#7F7F7F" fill-rule="evenodd" transform="matrix(-1.83697e-16 -1 -1 1.83697e-16 446.5 154.5)"/><path d="M0 0 21.3901 0C33.2036-5.64634e-15 42.7803 9.92807 42.7803 22.175 42.7803 34.4218 33.2036 44.3499 21.3901 44.3499L0 44.3499Z" stroke="#2F528F" stroke-width="1.33333" stroke-miterlimit="8" fill="#7F7F7F" fill-rule="evenodd" transform="matrix(-0.707107 -0.707107 -0.707107 0.707107 372.21 146.807)"/><path d="M229 247.534C259.472 222.86 299.833 223.194 324.5 217.859 349.167 212.524 359.5 216.303 377 215.525L377 135.5 441.5 135.5 441.5 203.521 488.5 156.506 531 199.02 499 231.029 537.5 231.029 537.5 289.047 490.5 289.047 515 313.555 524 322.558 487 359.569 446.5 319.056 446.5 378.075 383.5 378.075 383.5 305.552 383.5 288.047 313.167 288.047C292.778 288.047 266.889 292.409 252 313.388 237.111 334.367 234.722 313.721 223.833 413.919 212.944 514.116 218.056 576.969 217.833 677.166L161.5 678.5C162 521.841 162.417 461.739 173.667 389.911 184.917 318.084 198.528 272.209 229 247.534Z" stroke="#BC8C00" stroke-width="1.33333" stroke-miterlimit="8" fill="#FFC000" fill-rule="evenodd"/><path d="M13.5001 204.5C13.5001 180.2 33.1995 160.5 57.5001 160.5 81.8006 160.5 101.5 180.2 101.5 204.5 101.5 228.801 81.8006 248.5 57.5001 248.5 33.1995 248.5 13.5001 228.801 13.5001 204.5Z" stroke="#507E32" stroke-width="1.33333" stroke-miterlimit="8" fill="#70AD47" fill-rule="evenodd"/><text fill="#FFFFFF" font-family="Yu Gothic,Yu Gothic_MSFontService,sans-serif" font-weight="700" font-size="48" transform="translate(43.2805 219)">a</text><path d="M13.5001 321.5C13.5001 297.2 33.1995 277.5 57.5001 277.5 81.8006 277.5 101.5 297.2 101.5 321.5 101.5 345.801 81.8006 365.5 57.5001 365.5 33.1995 365.5 13.5001 345.801 13.5001 321.5Z" stroke="#507E32" stroke-width="1.33333" stroke-miterlimit="8" fill="#70AD47" fill-rule="evenodd"/><text fill="#FFFFFF" font-family="Yu Gothic,Yu Gothic_MSFontService,sans-serif" font-weight="700" font-size="48" transform="translate(42.6139 336)">b</text><path d="M152.5 634.5C152.5 610.2 172.2 590.5 196.5 590.5 220.801 590.5 240.5 610.2 240.5 634.5 240.5 658.801 220.801 678.5 196.5 678.5 172.2 678.5 152.5 658.801 152.5 634.5Z" stroke="#507E32" stroke-width="1.33333" stroke-miterlimit="8" fill="#70AD47" fill-rule="evenodd"/><text fill="#FFFFFF" font-family="Yu Gothic,Yu Gothic_MSFontService,sans-serif" font-weight="700" font-size="48" transform="translate(183.133 649)">c</text><path d="M386.5 258.5C386.5 234.2 406.423 214.5 431 214.5 455.577 214.5 475.5 234.2 475.5 258.5 475.5 282.801 455.577 302.5 431 302.5 406.423 302.5 386.5 282.801 386.5 258.5Z" stroke="#507E32" stroke-width="1.33333" stroke-miterlimit="8" fill="#70AD47" fill-rule="evenodd"/><text fill="#FFFFFF" font-family="Yu Gothic,Yu Gothic_MSFontService,sans-serif" font-weight="700" font-size="48" transform="translate(416.711 273)">1</text><path d="M458.5 555.5C458.5 531.2 478.2 511.5 502.5 511.5 526.801 511.5 546.5 531.2 546.5 555.5 546.5 579.801 526.801 599.5 502.5 599.5 478.2 599.5 458.5 579.801 458.5 555.5Z" stroke="#507E32" stroke-width="1.33333" stroke-miterlimit="8" fill="#70AD47" fill-rule="evenodd"/><text fill="#FFFFFF" font-family="Yu Gothic,Yu Gothic_MSFontService,sans-serif" font-weight="700" font-size="48" transform="translate(487.867 570)">3</text><path d="M549.5 470C549.5 445.423 569.2 425.5 593.5 425.5 617.801 425.5 637.5 445.423 637.5 470 637.5 494.577 617.801 514.5 593.5 514.5 569.2 514.5 549.5 494.577 549.5 470Z" stroke="#507E32" stroke-width="1.33333" stroke-miterlimit="8" fill="#70AD47" fill-rule="evenodd"/><text fill="#FFFFFF" font-family="Yu Gothic,Yu Gothic_MSFontService,sans-serif" font-weight="700" font-size="48" transform="translate(579.446 485)">2</text><path d="M548.951 473.4 528 473.4 528 393 536 393 536 469.4 532 465.4 548.951 465.4ZM520 397 532 373 544 397Z" fill="#70AD47"/><path d="M457.804 558.854 420 558.854 420 491 428 491 428 554.854 424 550.854 457.804 550.854ZM412 495 424 471 436 495Z" fill="#70AD47"/></g></svg>