<svg width="1047" height="510" xmlns="http://www.w3.org/2000/svg" xmlns:xlink="http://www.w3.org/1999/xlink" overflow="hidden"><defs><clipPath id="clip0"><rect x="111" y="51" width="1047" height="510"/></clipPath></defs><g clip-path="url(#clip0)" transform="translate(-111 -51)"><path d="M674.487 151 718.918 151 718.918 271.526 881.532 271.526 881.532 151.445 894.861 151.445 894.861 151.445 1157 151.445 1157 195.919 925.962 195.919 925.962 271.526 925.963 271.526 925.963 316 674.487 316 674.487 271.526 674.487 271.526 674.487 195.919 393.244 195.919 393.244 271.526 348.814 271.526 348.814 271.526 303.939 271.526 303.939 271.526 259.508 271.526 259.508 271.526 259.508 227.051 259.508 195.919 112 195.919 112 151.445 259.508 151.445 259.508 151 303.939 151 303.939 151.445 303.939 195.919 303.939 227.051 348.814 227.051 348.814 151 393.244 151 393.244 151.445 674.487 151.445Z" fill="#ED7D31" fill-rule="evenodd"/><path d="M200 202 244.408 202 244.408 289.183 409.608 289.183 409.608 202 454.017 202 454.017 332.774 452.684 332.774 452.684 333.664 349.213 333.664 349.213 427.519 674.726 427.519 674.726 355.015 674.725 355.015 674.725 310.534 881.668 310.534 881.668 310.089 926.077 310.089 926.077 310.534 926.077 310.534 926.077 355.015 926.077 355.015 926.077 427.074 1157 427.074 1157 471.555 894.991 471.555 894.991 471.11 881.668 471.11 881.668 355.015 719.134 355.015 719.134 472 674.726 472 674.726 472 349.213 472 349.213 472 304.804 472 304.804 333.664 201.333 333.664 201.333 332.774 200 332.774Z" fill="#FFC000" fill-rule="evenodd"/><path d="M299.5 95.0001C299.5 78.1554 313.155 64.5001 330 64.5001 346.845 64.5001 360.5 78.1554 360.5 95.0001 360.5 111.845 346.845 125.5 330 125.5 313.155 125.5 299.5 111.845 299.5 95.0001Z" stroke="#507E32" stroke-width="1.33333" stroke-miterlimit="8" fill="#70AD47" fill-rule="evenodd"/><text fill="#FFFFFF" font-family="Yu Gothic,Yu Gothic_MSFontService,sans-serif" font-weight="700" font-size="48" transform="translate(315.725 110)">1</text><path d="M333 125 333 213 325 213 325 125ZM341 209 329 233 317 209Z" fill="#70AD47"/><path d="M186.5 503.5C186.5 486.379 200.155 472.5 217 472.5 233.845 472.5 247.5 486.379 247.5 503.5 247.5 520.621 233.845 534.5 217 534.5 200.155 534.5 186.5 520.621 186.5 503.5Z" stroke="#507E32" stroke-width="1.33333" stroke-miterlimit="8" fill="#70AD47" fill-rule="evenodd"/><text fill="#FFFFFF" font-family="Yu Gothic,Yu Gothic_MSFontService,sans-serif" font-weight="700" font-size="48" transform="translate(202.925 518)">2</text><path d="M543.5 450C543.5 433.155 557.155 419.5 574 419.5 590.845 419.5 604.5 433.155 604.5 450 604.5 466.845 590.845 480.5 574 480.5 557.155 480.5 543.5 466.845 543.5 450Z" stroke="#507E32" stroke-width="1.33333" stroke-miterlimit="8" fill="#70AD47" fill-rule="evenodd"/><text fill="#FFFFFF" font-family="Yu Gothic,Yu Gothic_MSFontService,sans-serif" font-weight="700" font-size="48" transform="translate(559.725 465)">4</text><path d="M543.5 172C543.5 155.155 557.155 141.5 574 141.5 590.845 141.5 604.5 155.155 604.5 172 604.5 188.845 590.845 202.5 574 202.5 557.155 202.5 543.5 188.845 543.5 172Z" stroke="#507E32" stroke-width="1.33333" stroke-miterlimit="8" fill="#70AD47" fill-rule="evenodd"/><text fill="#FFFFFF" font-family="Yu Gothic,Yu Gothic_MSFontService,sans-serif" font-weight="700" font-size="48" transform="translate(559.725 186)">3</text><path d="M0-4 32.7495-4 32.7495 148.667 24.7495 148.667 24.7495 0 28.7495 4 0 4ZM40.7495 144.667 28.7495 168.667 16.7495 144.667Z" fill="#70AD47" transform="matrix(1 0 0 -1 247 502.667)"/><path d="M331.75 249.5 331.75 269 344.5 269 319 288.5 293.5 269 306.25 269 306.25 249.5Z" stroke="#2F528F" stroke-width="1.33333" stroke-miterlimit="8" fill="#4472C4" fill-rule="evenodd"/><path d="M786.25 335.5 786.25 316 773.5 316 799 296.5 824.5 316 811.75 316 811.75 335.5Z" stroke="#2F528F" stroke-width="1.33333" stroke-miterlimit="8" fill="#4472C4" fill-rule="evenodd"/><path d="M232.5 253C232.5 236.155 246.155 222.5 263 222.5 279.845 222.5 293.5 236.155 293.5 253 293.5 269.845 279.845 283.5 263 283.5 246.155 283.5 232.5 269.845 232.5 253Z" stroke="#2F528F" stroke-width="1.33333" stroke-miterlimit="8" fill="#4472C4" fill-rule="evenodd"/><text fill="#FFFFFF" font-family="Yu Gothic,Yu Gothic_MSFontService,sans-serif" font-weight="700" font-size="48" transform="translate(248.542 268)">a</text><path d="M841.5 316C841.5 299.155 855.379 285.5 872.5 285.5 889.621 285.5 903.5 299.155 903.5 316 903.5 332.845 889.621 346.5 872.5 346.5 855.379 346.5 841.5 332.845 841.5 316Z" stroke="#2F528F" stroke-width="1.33333" stroke-miterlimit="8" fill="#4472C4" fill-rule="evenodd"/><text fill="#FFFFFF" font-family="Yu Gothic,Yu Gothic_MSFontService,sans-serif" font-weight="700" font-size="48" transform="translate(857.389 331)">b</text><path d="M953.5 457C953.5 440.155 967.155 426.5 984 426.5 1000.84 426.5 1014.5 440.155 1014.5 457 1014.5 473.845 1000.84 487.5 984 487.5 967.155 487.5 953.5 473.845 953.5 457Z" stroke="#507E32" stroke-width="1.33333" stroke-miterlimit="8" fill="#70AD47" fill-rule="evenodd"/><text fill="#FFFFFF" font-family="Yu Gothic,Yu Gothic_MSFontService,sans-serif" font-weight="700" font-size="48" transform="translate(970.125 472)">4</text><path d="M969.5 174C969.5 157.155 983.155 143.5 1000 143.5 1016.84 143.5 1030.5 157.155 1030.5 174 1030.5 190.845 1016.84 204.5 1000 204.5 983.155 204.5 969.5 190.845 969.5 174Z" stroke="#507E32" stroke-width="1.33333" stroke-miterlimit="8" fill="#70AD47" fill-rule="evenodd"/><text fill="#FFFFFF" font-family="Yu Gothic,Yu Gothic_MSFontService,sans-serif" font-weight="700" font-size="48" transform="translate(986.125 189)">3</text></g></svg>