<svg width="1317" height="652" xmlns="http://www.w3.org/2000/svg" xmlns:xlink="http://www.w3.org/1999/xlink" overflow="hidden"><defs><clipPath id="clip0"><rect x="-7" y="-4" width="1317" height="652"/></clipPath></defs><g clip-path="url(#clip0)" transform="translate(7 4)"><path d="M604.5 102.5C604.5 78.1995 624.2 58.5001 648.5 58.5001 672.801 58.5001 692.5 78.1995 692.5 102.5 692.5 126.801 672.801 146.5 648.5 146.5 624.2 146.5 604.5 126.801 604.5 102.5Z" stroke="#507E32" stroke-width="1.33333" stroke-miterlimit="8" fill="#70AD47" fill-rule="evenodd"/><text fill="#FFFFFF" font-family="Yu Gothic,Yu Gothic_MSFontService,sans-serif" font-weight="400" font-size="43" transform="translate(636.204 115)">6</text><rect x="911.5" y="567.5" width="41" height="42" stroke="#BC8C00" stroke-width="1.33333" stroke-miterlimit="8" fill="#FFC000"/><rect x="1023.5" y="567.5" width="41.9999" height="42" stroke="#BC8C00" stroke-width="1.33333" stroke-miterlimit="8" fill="#FFC000"/><rect x="967.5" y="567.5" width="42" height="42" stroke="#BC8C00" stroke-width="1.33333" stroke-miterlimit="8" fill="#FFC000"/><rect x="1079.5" y="567.5" width="42" height="42" stroke="#BC8C00" stroke-width="1.33333" stroke-miterlimit="8" fill="#FFC000"/><rect x="1192.5" y="567.5" width="42" height="42" stroke="#BC8C00" stroke-width="1.33333" stroke-miterlimit="8" fill="#FFC000"/><rect x="1136.5" y="567.5" width="41" height="42" stroke="#BC8C00" stroke-width="1.33333" stroke-miterlimit="8" fill="#FFC000"/><path d="M1020.21 522.1 1061.61 516.468 1067.24 557.865 1025.84 563.496Z" stroke="#BC8C00" stroke-width="1.33333" stroke-miterlimit="8" fill="#FFC000" fill-rule="evenodd"/><path d="M1075.97 514.514 1117.36 508.883 1122.99 550.279 1081.6 555.911Z" stroke="#BC8C00" stroke-width="1.33333" stroke-miterlimit="8" fill="#FFC000" fill-rule="evenodd"/><path d="M1187.48 499.344 1228.88 493.712 1234.51 535.109 1193.11 540.74Z" stroke="#BC8C00" stroke-width="1.33333" stroke-miterlimit="8" fill="#FFC000" fill-rule="evenodd"/><path d="M1131.72 506.929 1173.12 501.297 1178.75 542.694 1137.35 548.326Z" stroke="#BC8C00" stroke-width="1.33333" stroke-miterlimit="8" fill="#FFC000" fill-rule="evenodd"/><path d="M893.556 516.383 933.084 502.859 946.608 542.387 907.08 555.911Z" stroke="#BC8C00" stroke-width="1.33333" stroke-miterlimit="8" fill="#FFC000" fill-rule="evenodd"/><path d="M1000.04 479.952 1039.57 466.428 1053.09 505.956 1013.56 519.48Z" stroke="#BC8C00" stroke-width="1.33333" stroke-miterlimit="8" fill="#FFC000" fill-rule="evenodd"/><path d="M946.797 498.167 986.325 484.643 999.849 524.172 960.321 537.696Z" stroke="#BC8C00" stroke-width="1.33333" stroke-miterlimit="8" fill="#FFC000" fill-rule="evenodd"/><path d="M1053.28 461.736 1092.81 448.212 1106.33 487.741 1066.8 501.265Z" stroke="#BC8C00" stroke-width="1.33333" stroke-miterlimit="8" fill="#FFC000" fill-rule="evenodd"/><path d="M1159.76 425.306 1199.29 411.782 1212.81 451.31 1173.28 464.834Z" stroke="#BC8C00" stroke-width="1.33333" stroke-miterlimit="8" fill="#FFC000" fill-rule="evenodd"/><path d="M1106.52 443.521 1146.05 429.997 1159.57 469.525 1120.04 483.049Z" stroke="#BC8C00" stroke-width="1.33333" stroke-miterlimit="8" fill="#FFC000" fill-rule="evenodd"/><path d="M982.758 436.976 1018.08 414.666 1040.39 449.988 1005.07 472.298Z" stroke="#BC8C00" stroke-width="1.33333" stroke-miterlimit="8" fill="#FFC000" fill-rule="evenodd"/><path d="M1030.33 406.927 1065.66 384.616 1087.97 419.938 1052.64 442.249Z" stroke="#BC8C00" stroke-width="1.33333" stroke-miterlimit="8" fill="#FFC000" fill-rule="evenodd"/><path d="M1125.48 346.828 1160.81 324.518 1183.12 359.84 1147.79 382.15Z" stroke="#BC8C00" stroke-width="1.33333" stroke-miterlimit="8" fill="#FFC000" fill-rule="evenodd"/><path d="M1077.91 376.877 1113.23 354.567 1135.54 389.889 1100.22 412.199Z" stroke="#BC8C00" stroke-width="1.33333" stroke-miterlimit="8" fill="#FFC000" fill-rule="evenodd"/><path d="M864.841 480.959 895.051 452.102 923.908 482.313 893.698 511.17Z" stroke="#BC8C00" stroke-width="1.33333" stroke-miterlimit="8" fill="#FFC000" fill-rule="evenodd"/><path d="M946.221 403.225 976.432 374.368 1005.29 404.578 975.078 433.435Z" stroke="#BC8C00" stroke-width="1.33333" stroke-miterlimit="8" fill="#FFC000" fill-rule="evenodd"/><path d="M905.531 442.092 935.741 413.235 964.598 443.445 934.388 472.302Z" stroke="#BC8C00" stroke-width="1.33333" stroke-miterlimit="8" fill="#FFC000" fill-rule="evenodd"/><path d="M986.911 364.357 1017.12 335.5 1045.98 365.711 1015.77 394.568Z" stroke="#BC8C00" stroke-width="1.33333" stroke-miterlimit="8" fill="#FFC000" fill-rule="evenodd"/><path d="M1068.29 286.623 1098.5 257.766 1127.36 287.976 1097.15 316.833Z" stroke="#BC8C00" stroke-width="1.33333" stroke-miterlimit="8" fill="#FFC000" fill-rule="evenodd"/><path d="M1027.6 325.49 1057.81 296.633 1086.67 326.844 1056.46 355.7Z" stroke="#BC8C00" stroke-width="1.33333" stroke-miterlimit="8" fill="#FFC000" fill-rule="evenodd"/><path d="M907.672 374.321 931.504 340.008 965.818 363.84 941.985 398.154Z" stroke="#BC8C00" stroke-width="1.33333" stroke-miterlimit="8" fill="#FFC000" fill-rule="evenodd"/><path d="M939.771 328.105 963.604 293.791 997.917 317.624 974.085 351.937Z" stroke="#BC8C00" stroke-width="1.33333" stroke-miterlimit="8" fill="#FFC000" fill-rule="evenodd"/><path d="M1003.97 235.672 1027.8 201.358 1062.12 225.19 1038.28 259.504Z" stroke="#BC8C00" stroke-width="1.33333" stroke-miterlimit="8" fill="#FFC000" fill-rule="evenodd"/><path d="M971.871 281.888 995.703 247.575 1030.02 271.407 1006.18 305.72Z" stroke="#BC8C00" stroke-width="1.33333" stroke-miterlimit="8" fill="#FFC000" fill-rule="evenodd"/><path d="M826.819 464.545 840.744 425.156 880.133 439.082 866.207 478.471Z" stroke="#BC8C00" stroke-width="1.33333" stroke-miterlimit="8" fill="#FFC000" fill-rule="evenodd"/><path d="M864.332 358.44 878.258 319.052 917.646 332.978 903.72 372.366Z" stroke="#BC8C00" stroke-width="1.33333" stroke-miterlimit="8" fill="#FFC000" fill-rule="evenodd"/><path d="M845.575 411.493 859.501 372.104 898.89 386.03 884.964 425.418Z" stroke="#BC8C00" stroke-width="1.33333" stroke-miterlimit="8" fill="#FFC000" fill-rule="evenodd"/><path d="M883.089 305.388 897.014 265.999 936.403 279.925 922.477 319.314Z" stroke="#BC8C00" stroke-width="1.33333" stroke-miterlimit="8" fill="#FFC000" fill-rule="evenodd"/><path d="M920.602 199.283 934.528 159.895 973.916 173.821 959.99 213.209Z" stroke="#BC8C00" stroke-width="1.33333" stroke-miterlimit="8" fill="#FFC000" fill-rule="evenodd"/><path d="M901.845 252.336 915.771 212.947 955.16 226.873 941.234 266.262Z" stroke="#BC8C00" stroke-width="1.33333" stroke-miterlimit="8" fill="#FFC000" fill-rule="evenodd"/><path d="M815.029 351.087 819.948 309.599 861.435 314.518 856.516 356.006Z" stroke="#BC8C00" stroke-width="1.33333" stroke-miterlimit="8" fill="#FFC000" fill-rule="evenodd"/><path d="M821.654 295.208 826.573 253.72 868.06 258.639 863.141 300.127Z" stroke="#BC8C00" stroke-width="1.33333" stroke-miterlimit="8" fill="#FFC000" fill-rule="evenodd"/><path d="M834.905 183.45 839.824 141.963 881.311 146.882 876.392 188.369Z" stroke="#BC8C00" stroke-width="1.33333" stroke-miterlimit="8" fill="#FFC000" fill-rule="evenodd"/><path d="M828.28 239.329 833.199 197.841 874.686 202.76 869.767 244.248Z" stroke="#BC8C00" stroke-width="1.33333" stroke-miterlimit="8" fill="#FFC000" fill-rule="evenodd"/><path d="M772.203 466.97 769.98 425.251 811.699 423.028 813.922 464.747Z" stroke="#BC8C00" stroke-width="1.33333" stroke-miterlimit="8" fill="#FFC000" fill-rule="evenodd"/><path d="M766.216 354.588 763.993 312.87 805.711 310.647 807.934 352.365Z" stroke="#BC8C00" stroke-width="1.33333" stroke-miterlimit="8" fill="#FFC000" fill-rule="evenodd"/><path d="M769.209 410.779 766.987 369.06 808.705 366.837 810.928 408.556Z" stroke="#BC8C00" stroke-width="1.33333" stroke-miterlimit="8" fill="#FFC000" fill-rule="evenodd"/><path d="M763.222 298.398 760.999 256.679 802.718 254.456 804.94 296.175Z" stroke="#BC8C00" stroke-width="1.33333" stroke-miterlimit="8" fill="#FFC000" fill-rule="evenodd"/><path d="M757.234 186.016 755.011 144.298 796.73 142.075 798.953 183.794Z" stroke="#BC8C00" stroke-width="1.33333" stroke-miterlimit="8" fill="#FFC000" fill-rule="evenodd"/><path d="M760.228 242.207 758.005 200.488 799.724 198.265 801.946 239.984Z" stroke="#BC8C00" stroke-width="1.33333" stroke-miterlimit="8" fill="#FFC000" fill-rule="evenodd"/><path d="M1010.16 52.5001C1037.86 52.5001 1060.32 74.9893 1060.32 102.731 1060.32 130.473 1037.86 152.962 1010.16 152.962 1006.7 152.962 1003.32 152.611 1000.05 151.942L992.498 149.593 892.722 275.127 970.597 341.188 1071.03 214.835 1064.65 203.077C1060.89 194.17 1058.81 184.377 1058.81 174.098 1058.81 132.98 1092.1 99.6474 1133.16 99.6474 1174.21 99.6474 1207.5 132.98 1207.5 174.098 1207.5 215.215 1174.21 248.548 1133.16 248.548 1122.89 248.548 1113.11 246.464 1104.22 242.697L1096.16 238.315 996.753 363.376 996.829 363.44 994.739 365.911 869.485 523.499 873.352 527.631C895.057 553.421 906.676 586.452 905.67 620.5L768.137 616.424 758.5 478.974C787.584 476.929 816.298 484.196 840.667 499.333L843.392 501.231 949.25 368.047 862.929 294.821 844.777 280.352 845.218 279.797 842.785 277.733 864.931 251.552 866.566 252.938 966.567 127.122 963.944 122.283C961.406 116.274 960.002 109.667 960.002 102.731 960.002 74.9893 982.46 52.5001 1010.16 52.5001Z" stroke="#AE5A21" stroke-width="1.33333" stroke-miterlimit="8" fill="#ED7D31" fill-rule="evenodd"/><path d="M1204.51 242.123C1232.25 242.123 1254.73 264.605 1254.73 292.338 1254.73 320.07 1232.25 342.552 1204.51 342.552L1201.54 342.251 1202.52 343.395 920.98 548.154 1157.28 308.761 1155.32 302.457C1154.65 299.189 1154.3 295.804 1154.3 292.338 1154.3 264.605 1176.78 242.123 1204.51 242.123Z" stroke="#AE5A21" stroke-width="1.33333" stroke-miterlimit="8" fill="#ED7D31" fill-rule="evenodd"/><path d="M488.5 287.5 576.5 287.5 576.5 256.5 638.5 318.5 576.5 380.5 576.5 349.5 488.5 349.5Z" stroke="#787878" stroke-width="1.33333" stroke-miterlimit="8" fill="#A5A5A5" fill-rule="evenodd"/><path d="M1086.5 165.5C1086.5 141.2 1106.2 121.5 1130.5 121.5 1154.8 121.5 1174.5 141.2 1174.5 165.5 1174.5 189.801 1154.8 209.5 1130.5 209.5 1106.2 209.5 1086.5 189.801 1086.5 165.5Z" stroke="#507E32" stroke-width="1.33333" stroke-miterlimit="8" fill="#70AD47" fill-rule="evenodd"/><text fill="#FFFFFF" font-family="Yu Gothic,Yu Gothic_MSFontService,sans-serif" font-weight="400" font-size="43" transform="translate(1118.46 178)">3</text><path d="M908.5 41.5C908.5 17.1994 928.2-2.50005 952.5-2.50005 976.801-2.50005 996.5 17.1994 996.5 41.5 996.5 65.8006 976.801 85.5 952.5 85.5 928.2 85.5 908.5 65.8006 908.5 41.5Z" stroke="#507E32" stroke-width="1.33333" stroke-miterlimit="8" fill="#70AD47" fill-rule="evenodd"/><text fill="#FFFFFF" font-family="Yu Gothic,Yu Gothic_MSFontService,sans-serif" font-weight="400" font-size="43" transform="translate(939.725 55)">4</text><path d="M1221.5 340.5C1221.5 316.2 1241.2 296.5 1265.5 296.5 1289.8 296.5 1309.5 316.2 1309.5 340.5 1309.5 364.801 1289.8 384.5 1265.5 384.5 1241.2 384.5 1221.5 364.801 1221.5 340.5Z" stroke="#507E32" stroke-width="1.33333" stroke-miterlimit="8" fill="#70AD47" fill-rule="evenodd"/><text fill="#FFFFFF" font-family="Yu Gothic,Yu Gothic_MSFontService,sans-serif" font-weight="400" font-size="43" transform="translate(1252.98 353)">5</text><path d="M1050.5 417.5C1050.5 393.2 1070.2 373.5 1094.5 373.5 1118.8 373.5 1138.5 393.2 1138.5 417.5 1138.5 441.801 1118.8 461.5 1094.5 461.5 1070.2 461.5 1050.5 441.801 1050.5 417.5Z" stroke="#507E32" stroke-width="1.33333" stroke-miterlimit="8" fill="#70AD47" fill-rule="evenodd"/><text fill="#FFFFFF" font-family="Yu Gothic,Yu Gothic_MSFontService,sans-serif" font-weight="400" font-size="43" transform="translate(1082.39 430)">a</text><path d="M994.5 325.5C994.5 301.2 1014.2 281.5 1038.5 281.5 1062.8 281.5 1082.5 301.2 1082.5 325.5 1082.5 349.801 1062.8 369.5 1038.5 369.5 1014.2 369.5 994.5 349.801 994.5 325.5Z" stroke="#507E32" stroke-width="1.33333" stroke-miterlimit="8" fill="#70AD47" fill-rule="evenodd"/><text fill="#FFFFFF" font-family="Yu Gothic,Yu Gothic_MSFontService,sans-serif" font-weight="400" font-size="43" transform="translate(1025.95 339)">b</text><path d="M730.395 167.992 644 167.992 644 146 652 146 652 163.992 648 159.992 730.395 159.992ZM726.395 151.992 750.395 163.992 726.395 175.992Z" fill="#A5A5A5"/><path d="M210.5 408 260.25 308.5 370.75 308.5 420.5 408 370.75 507.5 260.25 507.5Z" stroke="#BC8C00" stroke-width="1.33333" stroke-miterlimit="8" fill="#FFC000" fill-rule="evenodd"/><path d="M296.5 407.5C296.5 397.007 305.007 388.5 315.5 388.5 325.993 388.5 334.5 397.007 334.5 407.5 334.5 417.993 325.993 426.5 315.5 426.5 305.007 426.5 296.5 417.993 296.5 407.5Z" stroke="#AE5A21" stroke-width="1.33333" stroke-miterlimit="8" fill="#ED7D31" fill-rule="evenodd"/><path d="M242.5 298C242.5 291.096 247.873 285.5 254.5 285.5 261.127 285.5 266.5 291.096 266.5 298 266.5 304.904 261.127 310.5 254.5 310.5 247.873 310.5 242.5 304.904 242.5 298Z" stroke="#AE5A21" stroke-width="1.33333" stroke-miterlimit="8" fill="#ED7D31" fill-rule="evenodd"/><path d="M235.5 319C235.5 313.201 239.977 308.5 245.5 308.5 251.023 308.5 255.5 313.201 255.5 319 255.5 324.799 251.023 329.5 245.5 329.5 239.977 329.5 235.5 324.799 235.5 319Z" stroke="#AE5A21" stroke-width="1.33333" stroke-miterlimit="8" fill="#ED7D31" fill-rule="evenodd"/><path d="M264.5 302.5C264.5 296.977 268.977 292.5 274.5 292.5 280.023 292.5 284.5 296.977 284.5 302.5 284.5 308.023 280.023 312.5 274.5 312.5 268.977 312.5 264.5 308.023 264.5 302.5Z" stroke="#AE5A21" stroke-width="1.33333" stroke-miterlimit="8" fill="#ED7D31" fill-rule="evenodd"/><path d="M372.864 294.417C378.883 291.48 386.143 293.979 389.08 299.998 392.017 306.017 389.518 313.277 383.499 316.214 377.48 319.151 370.22 316.652 367.283 310.633 364.346 304.614 366.845 297.354 372.864 294.417Z" stroke="#AE5A21" stroke-width="1.33333" stroke-miterlimit="8" fill="#ED7D31" fill-rule="evenodd"/><path d="M350.806 297.218C355.79 294.786 361.802 296.855 364.234 301.839 366.666 306.824 364.597 312.836 359.613 315.268 354.629 317.7 348.617 315.631 346.185 310.646 343.753 305.662 345.822 299.65 350.806 297.218Z" stroke="#AE5A21" stroke-width="1.33333" stroke-miterlimit="8" fill="#ED7D31" fill-rule="evenodd"/><path d="M378.226 316.597C383.211 314.165 389.223 316.234 391.655 321.218 394.087 326.203 392.018 332.215 387.033 334.647 382.049 337.079 376.037 335.01 373.605 330.025 371.173 325.041 373.242 319.029 378.226 316.597Z" stroke="#AE5A21" stroke-width="1.33333" stroke-miterlimit="8" fill="#ED7D31" fill-rule="evenodd"/><path d="M433.276 394.584C439.136 397.826 441.259 405.205 438.017 411.065 434.775 416.925 427.396 419.048 421.536 415.806 415.675 412.564 413.553 405.185 416.795 399.325 420.037 393.465 427.416 391.342 433.276 394.584Z" stroke="#AE5A21" stroke-width="1.33333" stroke-miterlimit="8" fill="#ED7D31" fill-rule="evenodd"/><path d="M418.318 378.132C423.171 380.817 424.929 386.927 422.244 391.78 419.56 396.633 413.449 398.391 408.596 395.706 403.743 393.021 401.986 386.911 404.67 382.058 407.355 377.205 413.465 375.447 418.318 378.132Z" stroke="#AE5A21" stroke-width="1.33333" stroke-miterlimit="8" fill="#ED7D31" fill-rule="evenodd"/><path d="M418.195 411.709C423.048 414.393 424.805 420.504 422.121 425.357 419.436 430.21 413.326 431.967 408.473 429.283 403.62 426.598 401.862 420.488 404.547 415.635 407.231 410.782 413.342 409.024 418.195 411.709Z" stroke="#AE5A21" stroke-width="1.33333" stroke-miterlimit="8" fill="#ED7D31" fill-rule="evenodd"/><path d="M387.773 511.193C389.532 517.655 385.72 524.32 379.257 526.079 372.795 527.838 366.131 524.025 364.372 517.563 362.613 511.101 366.425 504.436 372.888 502.677 379.35 500.918 386.014 504.731 387.773 511.193Z" stroke="#AE5A21" stroke-width="1.33333" stroke-miterlimit="8" fill="#ED7D31" fill-rule="evenodd"/><path d="M389.148 489.001C390.605 494.352 387.448 499.871 382.096 501.328 376.745 502.784 371.226 499.627 369.77 494.276 368.313 488.924 371.47 483.405 376.821 481.949 382.173 480.492 387.692 483.649 389.148 489.001Z" stroke="#AE5A21" stroke-width="1.33333" stroke-miterlimit="8" fill="#ED7D31" fill-rule="evenodd"/><path d="M364.982 512.312C366.439 517.663 363.281 523.182 357.93 524.639 352.579 526.095 347.06 522.938 345.603 517.587 344.147 512.235 347.304 506.716 352.655 505.26 358.006 503.803 363.525 506.96 364.982 512.312Z" stroke="#AE5A21" stroke-width="1.33333" stroke-miterlimit="8" fill="#ED7D31" fill-rule="evenodd"/><path d="M195.999 418.785C189.968 415.872 187.441 408.622 190.353 402.592 193.266 396.561 200.516 394.033 206.547 396.946 212.578 399.858 215.105 407.108 212.193 413.139 209.28 419.17 202.03 421.698 195.999 418.785Z" stroke="#AE5A21" stroke-width="1.33333" stroke-miterlimit="8" fill="#ED7D31" fill-rule="evenodd"/><path d="M211.845 434.384C206.85 431.972 204.757 425.968 207.169 420.974 209.581 415.98 215.585 413.887 220.579 416.299 225.573 418.711 227.666 424.714 225.254 429.709 222.842 434.703 216.839 436.796 211.845 434.384Z" stroke="#AE5A21" stroke-width="1.33333" stroke-miterlimit="8" fill="#ED7D31" fill-rule="evenodd"/><path d="M210.109 400.852C205.115 398.44 203.022 392.436 205.434 387.442 207.846 382.448 213.85 380.355 218.844 382.767 223.838 385.179 225.931 391.182 223.519 396.176 221.107 401.17 215.103 403.264 210.109 400.852Z" stroke="#AE5A21" stroke-width="1.33333" stroke-miterlimit="8" fill="#ED7D31" fill-rule="evenodd"/><path d="M250.006 520.656C243.512 522.294 236.92 518.357 235.282 511.863 233.644 505.369 237.581 498.777 244.075 497.139 250.569 495.502 257.161 499.438 258.799 505.932 260.437 512.426 256.5 519.018 250.006 520.656Z" stroke="#AE5A21" stroke-width="1.33333" stroke-miterlimit="8" fill="#ED7D31" fill-rule="evenodd"/><path d="M272.169 522.446C266.791 523.802 261.332 520.542 259.976 515.165 258.62 509.787 261.88 504.328 267.257 502.972 272.635 501.616 278.094 504.876 279.45 510.253 280.806 515.631 277.546 521.09 272.169 522.446Z" stroke="#AE5A21" stroke-width="1.33333" stroke-miterlimit="8" fill="#ED7D31" fill-rule="evenodd"/><path d="M249.314 497.848C243.936 499.204 238.477 495.944 237.121 490.567 235.765 485.189 239.025 479.73 244.402 478.374 249.78 477.017 255.239 480.277 256.595 485.655 257.951 491.033 254.691 496.492 249.314 497.848Z" stroke="#AE5A21" stroke-width="1.33333" stroke-miterlimit="8" fill="#ED7D31" fill-rule="evenodd"/><path d="M16.5001 282 66.25 182.5 177.75 182.5 227.5 282 177.75 381.5 66.25 381.5Z" stroke="#BC8C00" stroke-width="1.33333" stroke-miterlimit="8" fill="#FFC000" fill-rule="evenodd"/><path d="M102.5 282C102.5 271.23 111.23 262.5 122 262.5 132.77 262.5 141.5 271.23 141.5 282 141.5 292.77 132.77 301.5 122 301.5 111.23 301.5 102.5 292.77 102.5 282Z" stroke="#AE5A21" stroke-width="1.33333" stroke-miterlimit="8" fill="#ED7D31" fill-rule="evenodd"/><path d="M48.5001 172.5C48.5001 165.873 53.8726 160.5 60.5001 160.5 67.1275 160.5 72.5001 165.873 72.5001 172.5 72.5001 179.127 67.1275 184.5 60.5001 184.5 53.8726 184.5 48.5001 179.127 48.5001 172.5Z" stroke="#AE5A21" stroke-width="1.33333" stroke-miterlimit="8" fill="#ED7D31" fill-rule="evenodd"/><path d="M41.5001 193.5C41.5001 187.977 45.9772 183.5 51.5001 183.5 57.0229 183.5 61.5001 187.977 61.5001 193.5 61.5001 199.023 57.0229 203.5 51.5001 203.5 45.9772 203.5 41.5001 199.023 41.5001 193.5Z" stroke="#AE5A21" stroke-width="1.33333" stroke-miterlimit="8" fill="#ED7D31" fill-rule="evenodd"/><path d="M70.5001 177.5C70.5001 171.977 75.2011 167.5 81.0001 167.5 86.799 167.5 91.5001 171.977 91.5001 177.5 91.5001 183.023 86.799 187.5 81.0001 187.5 75.2011 187.5 70.5001 183.023 70.5001 177.5Z" stroke="#AE5A21" stroke-width="1.33333" stroke-miterlimit="8" fill="#ED7D31" fill-rule="evenodd"/><path d="M179.242 168.966C185.261 166.029 192.521 168.528 195.458 174.547 198.395 180.566 195.896 187.826 189.877 190.763 183.858 193.7 176.598 191.201 173.661 185.182 170.724 179.163 173.223 171.903 179.242 168.966Z" stroke="#AE5A21" stroke-width="1.33333" stroke-miterlimit="8" fill="#ED7D31" fill-rule="evenodd"/><path d="M157.184 171.767C162.168 169.335 168.18 171.404 170.612 176.388 173.044 181.373 170.975 187.385 165.991 189.817 161.007 192.249 154.994 190.179 152.562 185.195 150.131 180.211 152.2 174.199 157.184 171.767Z" stroke="#AE5A21" stroke-width="1.33333" stroke-miterlimit="8" fill="#ED7D31" fill-rule="evenodd"/><path d="M184.604 191.146C189.589 188.714 195.601 190.783 198.033 195.767 200.465 200.752 198.396 206.764 193.411 209.196 188.427 211.628 182.415 209.558 179.983 204.574 177.551 199.59 179.62 193.578 184.604 191.146Z" stroke="#AE5A21" stroke-width="1.33333" stroke-miterlimit="8" fill="#ED7D31" fill-rule="evenodd"/><path d="M239.654 269.133C245.514 272.375 247.637 279.754 244.395 285.614 241.153 291.474 233.774 293.597 227.914 290.355 222.053 287.113 219.931 279.734 223.173 273.874 226.415 268.013 233.794 265.891 239.654 269.133Z" stroke="#AE5A21" stroke-width="1.33333" stroke-miterlimit="8" fill="#ED7D31" fill-rule="evenodd"/><path d="M224.696 252.681C229.549 255.365 231.307 261.476 228.622 266.329 225.938 271.182 219.827 272.939 214.974 270.255 210.121 267.57 208.364 261.46 211.048 256.607 213.733 251.754 219.843 249.996 224.696 252.681Z" stroke="#AE5A21" stroke-width="1.33333" stroke-miterlimit="8" fill="#ED7D31" fill-rule="evenodd"/><path d="M224.573 286.258C229.426 288.942 231.183 295.053 228.499 299.906 225.814 304.758 219.704 306.516 214.851 303.832 209.998 301.147 208.24 295.037 210.925 290.184 213.609 285.331 219.72 283.573 224.573 286.258Z" stroke="#AE5A21" stroke-width="1.33333" stroke-miterlimit="8" fill="#ED7D31" fill-rule="evenodd"/><path d="M194.151 385.742C195.91 392.204 192.098 398.869 185.635 400.628 179.173 402.387 172.509 398.574 170.75 392.112 168.991 385.65 172.803 378.985 179.265 377.226 185.728 375.467 192.392 379.28 194.151 385.742Z" stroke="#AE5A21" stroke-width="1.33333" stroke-miterlimit="8" fill="#ED7D31" fill-rule="evenodd"/><path d="M195.526 363.549C196.983 368.901 193.826 374.42 188.474 375.876 183.123 377.333 177.604 374.176 176.148 368.824 174.691 363.473 177.848 357.954 183.199 356.498 188.551 355.041 194.07 358.198 195.526 363.549Z" stroke="#AE5A21" stroke-width="1.33333" stroke-miterlimit="8" fill="#ED7D31" fill-rule="evenodd"/><path d="M171.36 386.861C172.817 392.212 169.659 397.731 164.308 399.187 158.957 400.644 153.438 397.487 151.981 392.135 150.524 386.784 153.682 381.265 159.033 379.809 164.384 378.352 169.903 381.509 171.36 386.861Z" stroke="#AE5A21" stroke-width="1.33333" stroke-miterlimit="8" fill="#ED7D31" fill-rule="evenodd"/><path d="M2.3772 293.334C-3.6536 290.421-6.1814 283.171-3.26878 277.14-0.356156 271.11 6.89393 268.582 12.9247 271.494 18.9555 274.407 21.4833 281.657 18.5707 287.688 15.6581 293.719 8.40802 296.246 2.3772 293.334Z" stroke="#AE5A21" stroke-width="1.33333" stroke-miterlimit="8" fill="#ED7D31" fill-rule="evenodd"/><path d="M18.2225 308.933C13.2284 306.521 11.1351 300.517 13.5471 295.523 15.959 290.529 21.9628 288.436 26.9568 290.848 31.9509 293.259 34.0442 299.263 31.6322 304.257 29.2203 309.251 23.2166 311.345 18.2225 308.933Z" stroke="#AE5A21" stroke-width="1.33333" stroke-miterlimit="8" fill="#ED7D31" fill-rule="evenodd"/><path d="M16.4873 275.401C11.4932 272.989 9.39992 266.985 11.8118 261.991 14.2238 256.997 20.2275 254.903 25.2216 257.315 30.2157 259.727 32.3089 265.731 29.897 270.725 27.4851 275.719 21.4813 277.812 16.4873 275.401Z" stroke="#AE5A21" stroke-width="1.33333" stroke-miterlimit="8" fill="#ED7D31" fill-rule="evenodd"/><path d="M56.3839 395.205C49.8899 396.843 43.2978 392.906 41.66 386.412 40.0221 379.918 43.9588 373.326 50.4528 371.688 56.9467 370.05 63.5389 373.987 65.1767 380.481 66.8145 386.975 62.8778 393.567 56.3839 395.205Z" stroke="#AE5A21" stroke-width="1.33333" stroke-miterlimit="8" fill="#ED7D31" fill-rule="evenodd"/><path d="M78.5468 396.995C73.1692 398.351 67.7103 395.091 66.354 389.714 64.9978 384.336 68.2577 378.877 73.6353 377.521 79.0129 376.164 84.4718 379.424 85.8281 384.802 87.1844 390.18 83.9244 395.639 78.5468 396.995Z" stroke="#AE5A21" stroke-width="1.33333" stroke-miterlimit="8" fill="#ED7D31" fill-rule="evenodd"/><path d="M55.6918 372.397C50.3142 373.753 44.8553 370.493 43.499 365.115 42.1428 359.738 45.4027 354.279 50.7803 352.923 56.1579 351.566 61.6168 354.826 62.9731 360.204 64.3294 365.581 61.0694 371.04 55.6918 372.397Z" stroke="#AE5A21" stroke-width="1.33333" stroke-miterlimit="8" fill="#ED7D31" fill-rule="evenodd"/><path d="M15.5001 528 65.25 428.5 176.75 428.5 226.5 528 176.75 627.5 65.25 627.5Z" stroke="#BC8C00" stroke-width="1.33333" stroke-miterlimit="8" fill="#FFC000" fill-rule="evenodd"/><path d="M101.5 528C101.5 517.231 110.23 508.5 121 508.5 131.77 508.5 140.5 517.231 140.5 528 140.5 538.77 131.77 547.5 121 547.5 110.23 547.5 101.5 538.77 101.5 528Z" stroke="#AE5A21" stroke-width="1.33333" stroke-miterlimit="8" fill="#ED7D31" fill-rule="evenodd"/><path d="M47.5001 418.5C47.5001 411.873 52.8726 406.5 59.5001 406.5 66.1275 406.5 71.5001 411.873 71.5001 418.5 71.5001 425.127 66.1275 430.5 59.5001 430.5 52.8726 430.5 47.5001 425.127 47.5001 418.5Z" stroke="#AE5A21" stroke-width="1.33333" stroke-miterlimit="8" fill="#ED7D31" fill-rule="evenodd"/><path d="M40.5001 439.5C40.5001 433.977 44.9772 429.5 50.5001 429.5 56.0229 429.5 60.5001 433.977 60.5001 439.5 60.5001 445.023 56.0229 449.5 50.5001 449.5 44.9772 449.5 40.5001 445.023 40.5001 439.5Z" stroke="#AE5A21" stroke-width="1.33333" stroke-miterlimit="8" fill="#ED7D31" fill-rule="evenodd"/><path d="M69.5001 423.5C69.5001 417.977 73.9772 413.5 79.5001 413.5 85.0229 413.5 89.5001 417.977 89.5001 423.5 89.5001 429.023 85.0229 433.5 79.5001 433.5 73.9772 433.5 69.5001 429.023 69.5001 423.5Z" stroke="#AE5A21" stroke-width="1.33333" stroke-miterlimit="8" fill="#ED7D31" fill-rule="evenodd"/><path d="M178.195 414.882C184.214 411.945 191.475 414.443 194.411 420.462 197.348 426.481 194.85 433.742 188.831 436.678 182.811 439.615 175.551 437.117 172.614 431.098 169.678 425.079 172.176 417.818 178.195 414.882Z" stroke="#AE5A21" stroke-width="1.33333" stroke-miterlimit="8" fill="#ED7D31" fill-rule="evenodd"/><path d="M156.137 417.682C161.122 415.25 167.134 417.32 169.566 422.304 171.998 427.288 169.929 433.3 164.944 435.732 159.96 438.164 153.948 436.095 151.516 431.111 149.084 426.126 151.153 420.114 156.137 417.682Z" stroke="#AE5A21" stroke-width="1.33333" stroke-miterlimit="8" fill="#ED7D31" fill-rule="evenodd"/><path d="M183.558 437.061C188.542 434.629 194.554 436.699 196.986 441.683 199.418 446.667 197.349 452.679 192.365 455.111 187.38 457.543 181.368 455.474 178.936 450.49 176.504 445.505 178.573 439.493 183.558 437.061Z" stroke="#AE5A21" stroke-width="1.33333" stroke-miterlimit="8" fill="#ED7D31" fill-rule="evenodd"/><path d="M238.607 515.048C244.468 518.29 246.59 525.669 243.348 531.53 240.106 537.39 232.727 539.513 226.867 536.271 221.007 533.029 218.884 525.65 222.126 519.789 225.368 513.929 232.747 511.806 238.607 515.048Z" stroke="#AE5A21" stroke-width="1.33333" stroke-miterlimit="8" fill="#ED7D31" fill-rule="evenodd"/><path d="M223.65 498.596C228.503 501.281 230.26 507.391 227.576 512.244 224.891 517.097 218.781 518.855 213.928 516.17 209.075 513.486 207.317 507.375 210.002 502.522 212.686 497.669 218.797 495.912 223.65 498.596Z" stroke="#AE5A21" stroke-width="1.33333" stroke-miterlimit="8" fill="#ED7D31" fill-rule="evenodd"/><path d="M223.526 532.173C228.379 534.858 230.137 540.968 227.452 545.821 224.768 550.674 218.657 552.432 213.804 549.747 208.951 547.063 207.193 540.952 209.878 536.099 212.563 531.246 218.673 529.489 223.526 532.173Z" stroke="#AE5A21" stroke-width="1.33333" stroke-miterlimit="8" fill="#ED7D31" fill-rule="evenodd"/><path d="M193.105 631.658C194.864 638.12 191.051 644.784 184.589 646.544 178.127 648.302 171.462 644.49 169.703 638.028 167.944 631.565 171.757 624.901 178.219 623.142 184.681 621.383 191.346 625.195 193.105 631.658Z" stroke="#AE5A21" stroke-width="1.33333" stroke-miterlimit="8" fill="#ED7D31" fill-rule="evenodd"/><path d="M194.48 609.465C195.936 614.816 192.779 620.335 187.428 621.792 182.076 623.249 176.558 620.091 175.101 614.74 173.644 609.389 176.802 603.87 182.153 602.413 187.504 600.957 193.023 604.114 194.48 609.465Z" stroke="#AE5A21" stroke-width="1.33333" stroke-miterlimit="8" fill="#ED7D31" fill-rule="evenodd"/><path d="M170.313 632.776C171.77 638.128 168.613 643.646 163.261 645.103 157.91 646.56 152.391 643.402 150.934 638.051 149.478 632.7 152.635 627.181 157.986 625.724 163.338 624.268 168.857 627.425 170.313 632.776Z" stroke="#AE5A21" stroke-width="1.33333" stroke-miterlimit="8" fill="#ED7D31" fill-rule="evenodd"/><path d="M1.33059 539.25C-4.70022 536.337-7.22801 529.087-4.31539 523.056-1.40277 517.025 5.84731 514.497 11.8781 517.41 17.9089 520.323 20.4367 527.573 17.5241 533.604 14.6115 539.634 7.3614 542.162 1.33059 539.25Z" stroke="#AE5A21" stroke-width="1.33333" stroke-miterlimit="8" fill="#ED7D31" fill-rule="evenodd"/><path d="M17.1759 554.848C12.1818 552.437 10.0885 546.433 12.5005 541.439 14.9124 536.445 20.9161 534.351 25.9102 536.763 30.9043 539.175 32.9976 545.179 30.5856 550.173 28.1737 555.167 22.1699 557.26 17.1759 554.848Z" stroke="#AE5A21" stroke-width="1.33333" stroke-miterlimit="8" fill="#ED7D31" fill-rule="evenodd"/><path d="M15.4406 521.316C10.4466 518.904 8.35331 512.901 10.7652 507.906 13.1772 502.912 19.1809 500.819 24.175 503.231 29.1691 505.643 31.2623 511.647 28.8504 516.641 26.4385 521.635 20.4347 523.728 15.4406 521.316Z" stroke="#AE5A21" stroke-width="1.33333" stroke-miterlimit="8" fill="#ED7D31" fill-rule="evenodd"/><path d="M55.3372 641.121C48.8433 642.758 42.2512 638.822 40.6133 632.328 38.9755 625.834 42.9122 619.242 49.4062 617.604 55.9001 615.966 62.4922 619.903 64.1301 626.397 65.7679 632.891 61.8312 639.483 55.3372 641.121Z" stroke="#AE5A21" stroke-width="1.33333" stroke-miterlimit="8" fill="#ED7D31" fill-rule="evenodd"/><path d="M77.5002 642.911C72.1226 644.267 66.6637 641.007 65.3074 635.629 63.9511 630.252 67.2111 624.793 72.5887 623.436 77.9663 622.08 83.4252 625.34 84.7815 630.718 86.1378 636.095 82.8778 641.554 77.5002 642.911Z" stroke="#AE5A21" stroke-width="1.33333" stroke-miterlimit="8" fill="#ED7D31" fill-rule="evenodd"/><path d="M54.6452 618.312C49.2676 619.669 43.8087 616.409 42.4524 611.031 41.0961 605.653 44.3561 600.195 49.7337 598.838 55.1113 597.482 60.5702 600.742 61.9265 606.12 63.2828 611.497 60.0228 616.956 54.6452 618.312Z" stroke="#AE5A21" stroke-width="1.33333" stroke-miterlimit="8" fill="#ED7D31" fill-rule="evenodd"/><path d="M196.5 72.5001C196.5 48.1995 216.423 28.5001 241 28.5001 265.577 28.5001 285.5 48.1995 285.5 72.5001 285.5 96.8006 265.577 116.5 241 116.5 216.423 116.5 196.5 96.8006 196.5 72.5001Z" stroke="#507E32" stroke-width="1.33333" stroke-miterlimit="8" fill="#70AD47" fill-rule="evenodd"/><text fill="#FFFFFF" font-family="Yu Gothic,Yu Gothic_MSFontService,sans-serif" font-weight="400" font-size="43" transform="translate(228.661 85)">1</text><path d="M0-4 80.8631-4 80.8631 84.586 72.8631 84.586 72.8631 0 76.8631 4 0 4ZM88.8631 80.586 76.8631 104.586 64.8631 80.586Z" fill="#A5A5A5" transform="matrix(-1 1.22465e-16 1.22465e-16 1 196.863 72)"/><path d="M0-4 95.7514-4 95.7514 73.3677 91.7514 69.3677 163.503 69.3677 163.503 77.3677 87.7514 77.3677 87.7514 0 91.7514 4 0 4ZM159.503 61.3677 183.503 73.3677 159.503 85.3677Z" fill="#A5A5A5" transform="matrix(1.83697e-16 1 1 -1.83697e-16 243 120)"/><rect x="318" y="236" width="171" height="164" fill="#A5A5A5" fill-opacity="0.501961"/><path d="M736.5 574.5C736.5 550.2 756.2 530.5 780.5 530.5 804.801 530.5 824.5 550.2 824.5 574.5 824.5 598.801 804.801 618.5 780.5 618.5 756.2 618.5 736.5 598.801 736.5 574.5Z" stroke="#507E32" stroke-width="1.33333" stroke-miterlimit="8" fill="#70AD47" fill-rule="evenodd"/><text fill="#FFFFFF" font-family="Yu Gothic,Yu Gothic_MSFontService,sans-serif" font-weight="400" font-size="43" transform="translate(768.142 588)">2</text></g></svg>