<svg width="836" height="448" xmlns="http://www.w3.org/2000/svg" xmlns:xlink="http://www.w3.org/1999/xlink" overflow="hidden"><defs><filter id="fx0" x="-10%" y="-10%" width="120%" height="120%" filterUnits="userSpaceOnUse" primitiveUnits="userSpaceOnUse"><feComponentTransfer color-interpolation-filters="sRGB"><feFuncR type="discrete" tableValues="0 0"/><feFuncG type="discrete" tableValues="0 0"/><feFuncB type="discrete" tableValues="0 0"/><feFuncA type="linear" slope="0.631373" intercept="0"/></feComponentTransfer><feGaussianBlur stdDeviation="2 2"/></filter><filter id="fx1" x="-10%" y="-10%" width="120%" height="120%" filterUnits="userSpaceOnUse" primitiveUnits="userSpaceOnUse"><feComponentTransfer color-interpolation-filters="sRGB"><feFuncR type="discrete" tableValues="0 0"/><feFuncG type="discrete" tableValues="0 0"/><feFuncB type="discrete" tableValues="0 0"/><feFuncA type="linear" slope="0.631373" intercept="0"/></feComponentTransfer><feGaussianBlur stdDeviation="2 2"/></filter><filter id="fx2" x="-10%" y="-10%" width="120%" height="120%" filterUnits="userSpaceOnUse" primitiveUnits="userSpaceOnUse"><feComponentTransfer color-interpolation-filters="sRGB"><feFuncR type="discrete" tableValues="0 0"/><feFuncG type="discrete" tableValues="0 0"/><feFuncB type="discrete" tableValues="0 0"/><feFuncA type="linear" slope="0.631373" intercept="0"/></feComponentTransfer><feGaussianBlur stdDeviation="2 2"/></filter><filter id="fx3" x="-10%" y="-10%" width="120%" height="120%" filterUnits="userSpaceOnUse" primitiveUnits="userSpaceOnUse"><feComponentTransfer color-interpolation-filters="sRGB"><feFuncR type="discrete" tableValues="0 0"/><feFuncG type="discrete" tableValues="0 0"/><feFuncB type="discrete" tableValues="0 0"/><feFuncA type="linear" slope="0.631373" intercept="0"/></feComponentTransfer><feGaussianBlur stdDeviation="2 2"/></filter><filter id="fx4" x="-10%" y="-10%" width="120%" height="120%" filterUnits="userSpaceOnUse" primitiveUnits="userSpaceOnUse"><feComponentTransfer color-interpolation-filters="sRGB"><feFuncR type="discrete" tableValues="0 0"/><feFuncG type="discrete" tableValues="0 0"/><feFuncB type="discrete" tableValues="0 0"/><feFuncA type="linear" slope="0.631373" intercept="0"/></feComponentTransfer><feGaussianBlur stdDeviation="2 2"/></filter><filter id="fx5" x="-10%" y="-10%" width="120%" height="120%" filterUnits="userSpaceOnUse" primitiveUnits="userSpaceOnUse"><feComponentTransfer color-interpolation-filters="sRGB"><feFuncR type="discrete" tableValues="0 0"/><feFuncG type="discrete" tableValues="0 0"/><feFuncB type="discrete" tableValues="0 0"/><feFuncA type="linear" slope="0.631373" intercept="0"/></feComponentTransfer><feGaussianBlur stdDeviation="2 2"/></filter><filter id="fx6" x="-10%" y="-10%" width="120%" height="120%" filterUnits="userSpaceOnUse" primitiveUnits="userSpaceOnUse"><feComponentTransfer color-interpolation-filters="sRGB"><feFuncR type="discrete" tableValues="0 0"/><feFuncG type="discrete" tableValues="0 0"/><feFuncB type="discrete" tableValues="0 0"/><feFuncA type="linear" slope="0.631373" intercept="0"/></feComponentTransfer><feGaussianBlur stdDeviation="2 2"/></filter><filter id="fx7" x="-10%" y="-10%" width="120%" height="120%" filterUnits="userSpaceOnUse" primitiveUnits="userSpaceOnUse"><feComponentTransfer color-interpolation-filters="sRGB"><feFuncR type="discrete" tableValues="0 0"/><feFuncG type="discrete" tableValues="0 0"/><feFuncB type="discrete" tableValues="0 0"/><feFuncA type="linear" slope="0.631373" intercept="0"/></feComponentTransfer><feGaussianBlur stdDeviation="2 2"/></filter><filter id="fx8" x="-10%" y="-10%" width="120%" height="120%" filterUnits="userSpaceOnUse" primitiveUnits="userSpaceOnUse"><feComponentTransfer color-interpolation-filters="sRGB"><feFuncR type="discrete" tableValues="0 0"/><feFuncG type="discrete" tableValues="0 0"/><feFuncB type="discrete" tableValues="0 0"/><feFuncA type="linear" slope="0.631373" intercept="0"/></feComponentTransfer><feGaussianBlur stdDeviation="2 2"/></filter><filter id="fx9" x="-10%" y="-10%" width="120%" height="120%" filterUnits="userSpaceOnUse" primitiveUnits="userSpaceOnUse"><feComponentTransfer color-interpolation-filters="sRGB"><feFuncR type="discrete" tableValues="0 0"/><feFuncG type="discrete" tableValues="0 0"/><feFuncB type="discrete" tableValues="0 0"/><feFuncA type="linear" slope="0.631373" intercept="0"/></feComponentTransfer><feGaussianBlur stdDeviation="2 2"/></filter><filter id="fx10" x="-10%" y="-10%" width="120%" height="120%" filterUnits="userSpaceOnUse" primitiveUnits="userSpaceOnUse"><feComponentTransfer color-interpolation-filters="sRGB"><feFuncR type="discrete" tableValues="0 0"/><feFuncG type="discrete" tableValues="0 0"/><feFuncB type="discrete" tableValues="0 0"/><feFuncA type="linear" slope="0.631373" intercept="0"/></feComponentTransfer><feGaussianBlur stdDeviation="2 2"/></filter><filter id="fx11" x="-10%" y="-10%" width="120%" height="120%" filterUnits="userSpaceOnUse" primitiveUnits="userSpaceOnUse"><feComponentTransfer color-interpolation-filters="sRGB"><feFuncR type="discrete" tableValues="0 0"/><feFuncG type="discrete" tableValues="0 0"/><feFuncB type="discrete" tableValues="0 0"/><feFuncA type="linear" slope="0.631373" intercept="0"/></feComponentTransfer><feGaussianBlur stdDeviation="2 2"/></filter><filter id="fx12" x="-10%" y="-10%" width="120%" height="120%" filterUnits="userSpaceOnUse" primitiveUnits="userSpaceOnUse"><feComponentTransfer color-interpolation-filters="sRGB"><feFuncR type="discrete" tableValues="0 0"/><feFuncG type="discrete" tableValues="0 0"/><feFuncB type="discrete" tableValues="0 0"/><feFuncA type="linear" slope="0.631373" intercept="0"/></feComponentTransfer><feGaussianBlur stdDeviation="2 2"/></filter><filter id="fx13" x="-10%" y="-10%" width="120%" height="120%" filterUnits="userSpaceOnUse" primitiveUnits="userSpaceOnUse"><feComponentTransfer color-interpolation-filters="sRGB"><feFuncR type="discrete" tableValues="0 0"/><feFuncG type="discrete" tableValues="0 0"/><feFuncB type="discrete" tableValues="0 0"/><feFuncA type="linear" slope="0.631373" intercept="0"/></feComponentTransfer><feGaussianBlur stdDeviation="2 2"/></filter><clipPath id="clip14"><rect x="256" y="111" width="836" height="448"/></clipPath><clipPath id="clip15"><rect x="-2" y="-2" width="169" height="169"/></clipPath><clipPath id="clip16"><rect x="0" y="0" width="166" height="166"/></clipPath><clipPath id="clip17"><rect x="20" y="9" width="117" height="34"/></clipPath><clipPath id="clip18"><rect x="0" y="0" width="151" height="65"/></clipPath><linearGradient x1="338" y1="115" x2="338" y2="267" gradientUnits="userSpaceOnUse" spreadMethod="reflect" id="fill19"><stop offset="0" stop-color="#6083CB"/><stop offset="0.5" stop-color="#3E70CA"/><stop offset="1" stop-color="#2E61BA"/></linearGradient><clipPath id="clip20"><rect x="-2" y="-2" width="169" height="167"/></clipPath><clipPath id="clip21"><rect x="0" y="0" width="166" height="165"/></clipPath><clipPath id="clip22"><rect x="18" y="9" width="104" height="34"/></clipPath><clipPath id="clip23"><rect x="0" y="0" width="136" height="65"/></clipPath><linearGradient x1="338" y1="379" x2="338" y2="530" gradientUnits="userSpaceOnUse" spreadMethod="reflect" id="fill24"><stop offset="0" stop-color="#6083CB"/><stop offset="0.5" stop-color="#3E70CA"/><stop offset="1" stop-color="#2E61BA"/></linearGradient><clipPath id="clip25"><rect x="-2" y="-2" width="252" height="96"/></clipPath><clipPath id="clip26"><rect x="0" y="0" width="249" height="93"/></clipPath><clipPath id="clip27"><rect x="13" y="9" width="64" height="34"/></clipPath><clipPath id="clip28"><rect x="0" y="0" width="91" height="64"/></clipPath><linearGradient x1="657.5" y1="154" x2="657.5" y2="233" gradientUnits="userSpaceOnUse" spreadMethod="reflect" id="fill29"><stop offset="0" stop-color="#F18C55"/><stop offset="0.5" stop-color="#F67B28"/><stop offset="1" stop-color="#E56B17"/></linearGradient><clipPath id="clip30"><rect x="-2" y="-2" width="252" height="99"/></clipPath><clipPath id="clip31"><rect x="0" y="0" width="249" height="94"/></clipPath><clipPath id="clip32"><rect x="13" y="11" width="64" height="34"/></clipPath><clipPath id="clip33"><rect x="0" y="0" width="91" height="65"/></clipPath><linearGradient x1="657.5" y1="368" x2="657.5" y2="448" gradientUnits="userSpaceOnUse" spreadMethod="reflect" id="fill34"><stop offset="0" stop-color="#F18C55"/><stop offset="0.5" stop-color="#F67B28"/><stop offset="1" stop-color="#E56B17"/></linearGradient><clipPath id="clip35"><rect x="-2" y="-2" width="252" height="96"/></clipPath><clipPath id="clip36"><rect x="0" y="0" width="249" height="93"/></clipPath><clipPath id="clip37"><rect x="13" y="9" width="30" height="34"/></clipPath><clipPath id="clip38"><rect x="0" y="0" width="59" height="65"/></clipPath><linearGradient x1="657.5" y1="471" x2="657.5" y2="550" gradientUnits="userSpaceOnUse" spreadMethod="reflect" id="fill39"><stop offset="0" stop-color="#F18C55"/><stop offset="0.5" stop-color="#F67B28"/><stop offset="1" stop-color="#E56B17"/></linearGradient><clipPath id="clip40"><rect x="-2" y="-2" width="167" height="167"/></clipPath><clipPath id="clip41"><rect x="0" y="0" width="165" height="165"/></clipPath><clipPath id="clip42"><rect x="20" y="9" width="117" height="34"/></clipPath><clipPath id="clip43"><rect x="0" y="0" width="151" height="65"/></clipPath><linearGradient x1="1009.5" y1="151" x2="1009.5" y2="302" gradientUnits="userSpaceOnUse" spreadMethod="reflect" id="fill44"><stop offset="0" stop-color="#6083CB"/><stop offset="0.5" stop-color="#3E70CA"/><stop offset="1" stop-color="#2E61BA"/></linearGradient><clipPath id="clip45"><rect x="-2" y="-2" width="167" height="169"/></clipPath><clipPath id="clip46"><rect x="0" y="0" width="165" height="166"/></clipPath><clipPath id="clip47"><rect x="18" y="11" width="102" height="34"/></clipPath><clipPath id="clip48"><rect x="0" y="0" width="135" height="65"/></clipPath><linearGradient x1="1009.5" y1="354" x2="1009.5" y2="506" gradientUnits="userSpaceOnUse" spreadMethod="reflect" id="fill49"><stop offset="0" stop-color="#6083CB"/><stop offset="0.5" stop-color="#3E70CA"/><stop offset="1" stop-color="#2E61BA"/></linearGradient></defs><g clip-path="url(#clip14)" transform="translate(-256 -111)"><g clip-path="url(#clip15)" filter="url(#fx0)" transform="translate(255 110)"><g clip-path="url(#clip16)"><rect x="7" y="7" width="152" height="152" fill="#FF0000"/></g></g><g clip-path="url(#clip17)" filter="url(#fx1)" transform="translate(262 164)"><g clip-path="url(#clip18)"><path d="M12.5508-9.21094 12.5508-7.00781 18.2109-7.00781 18.2109-5.95312 12.5508-5.95312 12.5508-0.0234375 11.4727-0.0234375 11.4727-5.95312 5.8125-5.95312 5.8125-7.00781 11.4727-7.00781 11.4727-9.21094C10.1992-9.38281 9.17578-9.94141 8.40234-10.8867 7.71484-11.7148 7.37109-12.6797 7.37109-13.7812 7.37109-15.1641 7.88281-16.3125 8.90625-17.2266 9.78906-18.0156 10.8281-18.4102 12.0234-18.4102 13.4062-18.4102 14.5547-17.9062 15.4688-16.8984 16.2578-16.0156 16.6523-14.9766 16.6523-13.7812 16.6523-12.5156 16.2109-11.4414 15.3281-10.5586 14.5781-9.80078 13.6523-9.35156 12.5508-9.21094ZM12.0234-17.3555C10.9688-17.3555 10.0898-16.9609 9.38672-16.1719 8.77734-15.4922 8.47266-14.6914 8.47266-13.7695 8.47266-12.7305 8.86328-11.8594 9.64453-11.1562 10.3164-10.5469 11.1094-10.2422 12.0234-10.2422 13.0625-10.2422 13.9336-10.6328 14.6367-11.4141 15.2461-12.0859 15.5508-12.8711 15.5508-13.7695 15.5508-14.832 15.1641-15.7187 14.3906-16.4297 13.7187-17.0469 12.9297-17.3555 12.0234-17.3555Z" fill="#FFFFFF" transform="translate(21.9999 36)"/><path d="M1.72266-13.4883C2.04297-15.0664 2.70312-16.2461 3.70312-17.0273 4.54688-17.6914 5.58594-18.0234 6.82031-18.0234 8.28906-18.0234 9.45312-17.582 10.3125-16.6992 11.0859-15.9102 11.4727-14.8789 11.4727-13.6055 11.4727-12.582 11.1953-11.6406 10.6406-10.7812 10.1172-9.98438 9.1875-8.98438 7.85156-7.78125 5.59375-5.80469 4.00781-3.82812 3.09375-1.85156L11.4961-1.85156 11.4961-0.527344 1.58203-0.527344 1.58203-1.71094C2.57422-4.08594 4.30469-6.40234 6.77344-8.66016 8.08594-9.88672 8.94922-10.8594 9.36328-11.5781 9.71484-12.1875 9.89062-12.8633 9.89062-13.6055 9.89062-14.6289 9.56641-15.4219 8.91797-15.9844 8.36328-16.4609 7.65625-16.6992 6.79688-16.6992 4.82812-16.6992 3.64062-15.5 3.23438-13.1016ZM22.1458-18.0234 27.9232-0.527344 26.2474-0.527344 24.3958-6.30469 17.7982-6.30469 15.8997-0.527344 14.3177-0.527344 20.1068-18.0234ZM24.0326-7.58203 22.5794-12.1406C22.056-13.7266 21.5911-15.2734 21.1849-16.7812L20.9622-16.7812C20.5404-15.2187 20.0872-13.6797 19.6029-12.1641L18.1615-7.58203ZM30.7786-7.80469 36.9427-7.80469 36.9427-13.9688 38.0443-13.9688 38.0443-7.80469 44.2552-7.80469 44.2552-6.72656 38.0443-6.72656 38.0443-0.527344 36.9427-0.527344 36.9427-6.72656 30.7786-6.72656ZM60.3932-18.0234 54.8268-9.62109 60.7331-0.527344 58.8815-0.527344 54.6159-7.24219C54.2956-7.75781 54.0456-8.15234 53.8659-8.42578 53.6549-8.05859 53.4089-7.65625 53.1276-7.21875L48.9323-0.527344 47.151-0.527344 52.987-9.57422 47.5612-18.0234 49.3776-18.0234 53.1979-11.9766 53.9948-10.7578C54.1042-10.9141 54.2448-11.1367 54.4167-11.4258 54.5964-11.7227 54.7174-11.9219 54.7799-12.0234L58.6237-18.0234ZM75.8932-18.0234 70.3268-9.62109 76.2331-0.527344 74.3815-0.527344 70.1159-7.24219C69.7956-7.75781 69.5456-8.15234 69.3659-8.42578 69.155-8.05859 68.9089-7.65625 68.6276-7.21875L64.4323-0.527344 62.651-0.527344 68.487-9.57422 63.0612-18.0234 64.8776-18.0234 68.6979-11.9766 69.4948-10.7578C69.6042-10.9141 69.7448-11.1367 69.9167-11.4258 70.0964-11.7227 70.2175-11.9219 70.28-12.0234L74.1237-18.0234Z" fill="#FFFFFF" transform="translate(52.8333 36)"/></g></g><rect x="262" y="115" width="152" height="152" fill="url(#fill19)"/><path d="M12.5508-9.21094 12.5508-7.00781 18.2109-7.00781 18.2109-5.95312 12.5508-5.95312 12.5508-0.0234375 11.4727-0.0234375 11.4727-5.95312 5.8125-5.95312 5.8125-7.00781 11.4727-7.00781 11.4727-9.21094C10.1992-9.38281 9.17578-9.94141 8.40234-10.8867 7.71484-11.7148 7.37109-12.6797 7.37109-13.7812 7.37109-15.1641 7.88281-16.3125 8.90625-17.2266 9.78906-18.0156 10.8281-18.4102 12.0234-18.4102 13.4062-18.4102 14.5547-17.9062 15.4688-16.8984 16.2578-16.0156 16.6523-14.9766 16.6523-13.7812 16.6523-12.5156 16.2109-11.4414 15.3281-10.5586 14.5781-9.80078 13.6523-9.35156 12.5508-9.21094ZM12.0234-17.3555C10.9688-17.3555 10.0898-16.9609 9.38672-16.1719 8.77734-15.4922 8.47266-14.6914 8.47266-13.7695 8.47266-12.7305 8.86328-11.8594 9.64453-11.1562 10.3164-10.5469 11.1094-10.2422 12.0234-10.2422 13.0625-10.2422 13.9336-10.6328 14.6367-11.4141 15.2461-12.0859 15.5508-12.8711 15.5508-13.7695 15.5508-14.832 15.1641-15.7187 14.3906-16.4297 13.7187-17.0469 12.9297-17.3555 12.0234-17.3555Z" fill="#FFFFFF" transform="translate(284 198)"/><text fill="#000000" fill-opacity="0" font-family="Arial,Arial_MSFontService,sans-serif" font-size="18.3867" x="5.8125" y="-2.32178">♀</text><text fill="#FFFFFF" font-family="Yu Gothic,Yu Gothic_MSFontService,sans-serif" font-weight="400" font-size="24" transform="translate(314.833 198)">2A+XX</text><g clip-path="url(#clip20)" filter="url(#fx2)" transform="translate(255 374)"><g clip-path="url(#clip21)"><rect x="7" y="7" width="152" height="151" fill="#FF0000"/></g></g><g clip-path="url(#clip22)" filter="url(#fx3)" transform="translate(270 428)"><g clip-path="url(#clip23)"><path d="M11.4727-9.59766 17.8008-15.8906 11.6367-15.8906 11.6367-16.8984 19.6055-16.8984 19.6055-8.95312 18.5508-8.95312 18.5508-15.1523 12.2578-8.85938C12.9453-8.01562 13.2891-7.03906 13.2891-5.92969 13.2891-4.55469 12.7812-3.41016 11.7656-2.49609 10.8906-1.69922 9.85547-1.30078 8.66016-1.30078 7.26953-1.30078 6.11719-1.80859 5.20312-2.82422 4.40625-3.69922 4.00781-4.73438 4.00781-5.92969 4.00781-7.30469 4.51953-8.44531 5.54297-9.35156 6.42578-10.1406 7.46484-10.5352 8.66016-10.5352 9.73828-10.5352 10.6758-10.2227 11.4727-9.59766ZM8.66016-9.48047C7.60547-9.48047 6.72656-9.08984 6.02344-8.30859 5.41406-7.63672 5.10938-6.84375 5.10938-5.92969 5.10938-4.875 5.5-3.99219 6.28125-3.28125 6.95312-2.66406 7.74609-2.35547 8.66016-2.35547 9.72266-2.35547 10.6016-2.75 11.2969-3.53906 11.8906-4.21094 12.1875-5.00781 12.1875-5.92969 12.1875-6.99219 11.8047-7.87109 11.0391-8.56641 10.375-9.17578 9.58203-9.48047 8.66016-9.48047Z" fill="#FFFFFF" transform="translate(21.75 36)"/><path d="M1.72266-13.4883C2.04297-15.0664 2.70312-16.2461 3.70312-17.0273 4.54688-17.6914 5.58594-18.0234 6.82031-18.0234 8.28906-18.0234 9.45312-17.582 10.3125-16.6992 11.0859-15.9102 11.4727-14.8789 11.4727-13.6055 11.4727-12.582 11.1953-11.6406 10.6406-10.7812 10.1172-9.98438 9.1875-8.98438 7.85156-7.78125 5.59375-5.80469 4.00781-3.82812 3.09375-1.85156L11.4961-1.85156 11.4961-0.527344 1.58203-0.527344 1.58203-1.71094C2.57422-4.08594 4.30469-6.40234 6.77344-8.66016 8.08594-9.88672 8.94922-10.8594 9.36328-11.5781 9.71484-12.1875 9.89062-12.8633 9.89062-13.6055 9.89062-14.6289 9.56641-15.4219 8.91797-15.9844 8.36328-16.4609 7.65625-16.6992 6.79688-16.6992 4.82812-16.6992 3.64062-15.5 3.23438-13.1016ZM22.1458-18.0234 27.9232-0.527344 26.2474-0.527344 24.3958-6.30469 17.7982-6.30469 15.8997-0.527344 14.3177-0.527344 20.1068-18.0234ZM24.0326-7.58203 22.5794-12.1406C22.056-13.7266 21.5911-15.2734 21.1849-16.7812L20.9622-16.7812C20.5404-15.2187 20.0872-13.6797 19.6029-12.1641L18.1615-7.58203ZM30.7786-7.80469 36.9427-7.80469 36.9427-13.9688 38.0443-13.9688 38.0443-7.80469 44.2552-7.80469 44.2552-6.72656 38.0443-6.72656 38.0443-0.527344 36.9427-0.527344 36.9427-6.72656 30.7786-6.72656ZM60.3932-18.0234 54.8268-9.62109 60.7331-0.527344 58.8815-0.527344 54.6159-7.24219C54.2956-7.75781 54.0456-8.15234 53.8659-8.42578 53.6549-8.05859 53.4089-7.65625 53.1276-7.21875L48.9323-0.527344 47.151-0.527344 52.987-9.57422 47.5612-18.0234 49.3776-18.0234 53.1979-11.9766 53.9948-10.7578C54.1042-10.9141 54.2448-11.1367 54.4167-11.4258 54.5964-11.7227 54.7174-11.9219 54.7799-12.0234L58.6237-18.0234Z" fill="#FFFFFF" transform="translate(52.5833 36)"/></g></g><rect x="262" y="379" width="152" height="151" fill="url(#fill24)"/><path d="M11.4727-9.59766 17.8008-15.8906 11.6367-15.8906 11.6367-16.8984 19.6055-16.8984 19.6055-8.95312 18.5508-8.95312 18.5508-15.1523 12.2578-8.85938C12.9453-8.01562 13.2891-7.03906 13.2891-5.92969 13.2891-4.55469 12.7812-3.41016 11.7656-2.49609 10.8906-1.69922 9.85547-1.30078 8.66016-1.30078 7.26953-1.30078 6.11719-1.80859 5.20312-2.82422 4.40625-3.69922 4.00781-4.73438 4.00781-5.92969 4.00781-7.30469 4.51953-8.44531 5.54297-9.35156 6.42578-10.1406 7.46484-10.5352 8.66016-10.5352 9.73828-10.5352 10.6758-10.2227 11.4727-9.59766ZM8.66016-9.48047C7.60547-9.48047 6.72656-9.08984 6.02344-8.30859 5.41406-7.63672 5.10938-6.84375 5.10938-5.92969 5.10938-4.875 5.5-3.99219 6.28125-3.28125 6.95312-2.66406 7.74609-2.35547 8.66016-2.35547 9.72266-2.35547 10.6016-2.75 11.2969-3.53906 11.8906-4.21094 12.1875-5.00781 12.1875-5.92969 12.1875-6.99219 11.8047-7.87109 11.0391-8.56641 10.375-9.17578 9.58203-9.48047 8.66016-9.48047Z" fill="#FFFFFF" transform="translate(291.75 462)"/><text fill="#000000" fill-opacity="0" font-family="Arial,Arial_MSFontService,sans-serif" font-size="15.5977" x="4.00781" y="-3.25049">♂</text><text fill="#FFFFFF" font-family="Yu Gothic,Yu Gothic_MSFontService,sans-serif" font-weight="400" font-size="24" transform="translate(322.583 462)">2A+X</text><path d="M414.078 187.001 519.859 189.056 519.704 197.055 413.922 194.999ZM516.016 180.98 539.778 193.444 515.549 204.976Z" fill="#4472C4"/><g clip-path="url(#clip25)" filter="url(#fx4)" transform="translate(533 149)"><g clip-path="url(#clip26)"><path d="M7 46.5C7 24.6848 24.6848 7 46.5 7L202.5 7C224.315 7 242 24.6848 242 46.5L242 46.5C242 68.3152 224.315 86 202.5 86L46.5 86C24.6848 86 7 68.3152 7 46.5Z" fill="#FF0000" fill-rule="evenodd"/></g></g><g clip-path="url(#clip27)" filter="url(#fx5)" transform="translate(612 167)"><g clip-path="url(#clip28)"><path d="M8.8125-18.0234 14.5898-0.527344 12.9141-0.527344 11.0625-6.30469 4.46484-6.30469 2.56641-0.527344 0.984375-0.527344 6.77344-18.0234ZM10.6992-7.58203 9.24609-12.1406C8.72266-13.7266 8.25781-15.2734 7.85156-16.7812L7.62891-16.7812C7.20703-15.2187 6.75391-13.6797 6.26953-12.1641L4.82812-7.58203ZM17.4453-7.80469 23.6094-7.80469 23.6094-13.9688 24.7109-13.9688 24.7109-7.80469 30.9219-7.80469 30.9219-6.72656 24.7109-6.72656 24.7109-0.527344 23.6094-0.527344 23.6094-6.72656 17.4453-6.72656ZM47.0599-18.0234 41.4935-9.62109 47.3997-0.527344 45.5482-0.527344 41.2826-7.24219C40.9622-7.75781 40.7122-8.15234 40.5326-8.42578 40.3216-8.05859 40.0755-7.65625 39.7943-7.21875L35.599-0.527344 33.8177-0.527344 39.6536-9.57422 34.2279-18.0234 36.0443-18.0234 39.8646-11.9766 40.6615-10.7578C40.7708-10.9141 40.9115-11.1367 41.0833-11.4258 41.263-11.7227 41.3841-11.9219 41.4466-12.0234L45.2904-18.0234Z" fill="#FFFFFF" transform="translate(21.1667 36)"/></g></g><path d="M540 193.5C540 171.685 557.685 154 579.5 154L735.5 154C757.315 154 775 171.685 775 193.5L775 193.5C775 215.315 757.315 233 735.5 233L579.5 233C557.685 233 540 215.315 540 193.5Z" fill="url(#fill29)" fill-rule="evenodd"/><text fill="#FFFFFF" font-family="Yu Gothic,Yu Gothic_MSFontService,sans-serif" font-weight="400" font-size="24" transform="translate(633.167 201)">A+X</text><g clip-path="url(#clip30)" filter="url(#fx6)" transform="translate(533 363)"><g clip-path="url(#clip31)"><path d="M7 47.0001C7 24.9087 24.9087 7 47.0001 7L202 7C224.092 7 242 24.9087 242 47.0001L242 47.0001C242 69.0916 224.091 87.0003 202 87.0003L47.0001 87C24.9087 87 7 69.0913 7 46.9999Z" fill="#FF0000" fill-rule="evenodd"/></g></g><g clip-path="url(#clip32)" filter="url(#fx7)" transform="translate(612 381)"><g clip-path="url(#clip33)"><path d="M8.8125-18.0234 14.5898-0.527344 12.9141-0.527344 11.0625-6.30469 4.46484-6.30469 2.56641-0.527344 0.984375-0.527344 6.77344-18.0234ZM10.6992-7.58203 9.24609-12.1406C8.72266-13.7266 8.25781-15.2734 7.85156-16.7812L7.62891-16.7812C7.20703-15.2187 6.75391-13.6797 6.26953-12.1641L4.82812-7.58203ZM17.4453-7.80469 23.6094-7.80469 23.6094-13.9688 24.7109-13.9688 24.7109-7.80469 30.9219-7.80469 30.9219-6.72656 24.7109-6.72656 24.7109-0.527344 23.6094-0.527344 23.6094-6.72656 17.4453-6.72656ZM47.0599-18.0234 41.4935-9.62109 47.3997-0.527344 45.5482-0.527344 41.2826-7.24219C40.9622-7.75781 40.7122-8.15234 40.5326-8.42578 40.3216-8.05859 40.0755-7.65625 39.7943-7.21875L35.599-0.527344 33.8177-0.527344 39.6536-9.57422 34.2279-18.0234 36.0443-18.0234 39.8646-11.9766 40.6615-10.7578C40.7708-10.9141 40.9115-11.1367 41.0833-11.4258 41.263-11.7227 41.3841-11.9219 41.4466-12.0234L45.2904-18.0234Z" fill="#FFFFFF" transform="translate(21.1667 37)"/></g></g><path d="M540 408C540 385.909 557.909 368 580 368L735 368C757.092 368 775 385.909 775 408L775 408C775 430.092 757.091 448 735 448L580 448C557.909 448 540 430.091 540 408Z" fill="url(#fill34)" fill-rule="evenodd"/><text fill="#FFFFFF" font-family="Yu Gothic,Yu Gothic_MSFontService,sans-serif" font-weight="400" font-size="24" transform="translate(633.167 416)">A+X</text><g clip-path="url(#clip35)" filter="url(#fx8)" transform="translate(533 466)"><g clip-path="url(#clip36)"><path d="M7 46.5C7 24.6848 24.6848 7 46.5 7L202.5 7C224.315 7 242 24.6848 242 46.5L242 46.5C242 68.3152 224.315 86 202.5 86L46.5 86C24.6848 86 7 68.3152 7 46.5Z" fill="#FF0000" fill-rule="evenodd"/></g></g><g clip-path="url(#clip37)" filter="url(#fx9)" transform="translate(628 484)"><g clip-path="url(#clip38)"><path d="M8.8125-18.0234 14.5898-0.527344 12.9141-0.527344 11.0625-6.30469 4.46484-6.30469 2.56641-0.527344 0.984375-0.527344 6.77344-18.0234ZM10.6992-7.58203 9.24609-12.1406C8.72266-13.7266 8.25781-15.2734 7.85156-16.7812L7.62891-16.7812C7.20703-15.2187 6.75391-13.6797 6.26953-12.1641L4.82812-7.58203Z" fill="#FFFFFF" transform="translate(21.5833 36)"/></g></g><path d="M540 510.5C540 488.685 557.685 471 579.5 471L735.5 471C757.315 471 775 488.685 775 510.5L775 510.5C775 532.315 757.315 550 735.5 550L579.5 550C557.685 550 540 532.315 540 510.5Z" fill="url(#fill39)" fill-rule="evenodd"/><text fill="#FFFFFF" font-family="Yu Gothic,Yu Gothic_MSFontService,sans-serif" font-weight="400" font-size="24" transform="translate(649.583 518)">A</text><path d="M1.38559-3.75235 108.402 35.7642 105.63 43.2689-1.38559 3.75235ZM107.42 26.8739 125.778 46.4445 99.107 49.3881Z" fill="#4472C4" transform="matrix(1 0 0 -1 414 454.445)"/><path d="M415.632 450.348 523.151 498.409 519.887 505.712 412.368 457.652ZM522.764 489.473 539.778 510.222 512.97 511.384Z" fill="#4472C4"/><g clip-path="url(#clip40)" filter="url(#fx10)" transform="translate(927 146)"><g clip-path="url(#clip41)"><rect x="7" y="7" width="151" height="151" fill="#FF0000"/></g></g><g clip-path="url(#clip42)" filter="url(#fx11)" transform="translate(934 200)"><g clip-path="url(#clip43)"><path d="M12.5508-9.21094 12.5508-7.00781 18.2109-7.00781 18.2109-5.95312 12.5508-5.95312 12.5508-0.0234375 11.4727-0.0234375 11.4727-5.95312 5.8125-5.95312 5.8125-7.00781 11.4727-7.00781 11.4727-9.21094C10.1992-9.38281 9.17578-9.94141 8.40234-10.8867 7.71484-11.7148 7.37109-12.6797 7.37109-13.7812 7.37109-15.1641 7.88281-16.3125 8.90625-17.2266 9.78906-18.0156 10.8281-18.4102 12.0234-18.4102 13.4062-18.4102 14.5547-17.9062 15.4688-16.8984 16.2578-16.0156 16.6523-14.9766 16.6523-13.7812 16.6523-12.5156 16.2109-11.4414 15.3281-10.5586 14.5781-9.80078 13.6523-9.35156 12.5508-9.21094ZM12.0234-17.3555C10.9688-17.3555 10.0898-16.9609 9.38672-16.1719 8.77734-15.4922 8.47266-14.6914 8.47266-13.7695 8.47266-12.7305 8.86328-11.8594 9.64453-11.1562 10.3164-10.5469 11.1094-10.2422 12.0234-10.2422 13.0625-10.2422 13.9336-10.6328 14.6367-11.4141 15.2461-12.0859 15.5508-12.8711 15.5508-13.7695 15.5508-14.832 15.1641-15.7187 14.3906-16.4297 13.7187-17.0469 12.9297-17.3555 12.0234-17.3555Z" fill="#FFFFFF" transform="translate(21.5555 36)"/><path d="M1.72266-13.4883C2.04297-15.0664 2.70312-16.2461 3.70312-17.0273 4.54688-17.6914 5.58594-18.0234 6.82031-18.0234 8.28906-18.0234 9.45312-17.582 10.3125-16.6992 11.0859-15.9102 11.4727-14.8789 11.4727-13.6055 11.4727-12.582 11.1953-11.6406 10.6406-10.7812 10.1172-9.98438 9.1875-8.98438 7.85156-7.78125 5.59375-5.80469 4.00781-3.82812 3.09375-1.85156L11.4961-1.85156 11.4961-0.527344 1.58203-0.527344 1.58203-1.71094C2.57422-4.08594 4.30469-6.40234 6.77344-8.66016 8.08594-9.88672 8.94922-10.8594 9.36328-11.5781 9.71484-12.1875 9.89062-12.8633 9.89062-13.6055 9.89062-14.6289 9.56641-15.4219 8.91797-15.9844 8.36328-16.4609 7.65625-16.6992 6.79688-16.6992 4.82812-16.6992 3.64062-15.5 3.23438-13.1016ZM22.1458-18.0234 27.9232-0.527344 26.2474-0.527344 24.3958-6.30469 17.7982-6.30469 15.8997-0.527344 14.3177-0.527344 20.1068-18.0234ZM24.0326-7.58203 22.5794-12.1406C22.056-13.7266 21.5911-15.2734 21.1849-16.7812L20.9622-16.7812C20.5404-15.2187 20.0872-13.6797 19.6029-12.1641L18.1615-7.58203ZM30.7786-7.80469 36.9427-7.80469 36.9427-13.9688 38.0443-13.9688 38.0443-7.80469 44.2552-7.80469 44.2552-6.72656 38.0443-6.72656 38.0443-0.527344 36.9427-0.527344 36.9427-6.72656 30.7786-6.72656ZM60.3932-18.0234 54.8268-9.62109 60.7331-0.527344 58.8815-0.527344 54.6159-7.24219C54.2956-7.75781 54.0456-8.15234 53.8659-8.42578 53.6549-8.05859 53.4089-7.65625 53.1276-7.21875L48.9323-0.527344 47.151-0.527344 52.987-9.57422 47.5612-18.0234 49.3776-18.0234 53.1979-11.9766 53.9948-10.7578C54.1042-10.9141 54.2448-11.1367 54.4167-11.4258 54.5964-11.7227 54.7174-11.9219 54.7799-12.0234L58.6237-18.0234ZM75.8932-18.0234 70.3268-9.62109 76.2331-0.527344 74.3815-0.527344 70.1159-7.24219C69.7956-7.75781 69.5456-8.15234 69.3659-8.42578 69.155-8.05859 68.9089-7.65625 68.6276-7.21875L64.4323-0.527344 62.651-0.527344 68.487-9.57422 63.0612-18.0234 64.8776-18.0234 68.6979-11.9766 69.4948-10.7578C69.6042-10.9141 69.7448-11.1367 69.9167-11.4258 70.0964-11.7227 70.2175-11.9219 70.28-12.0234L74.1237-18.0234Z" fill="#FFFFFF" transform="translate(52.3889 36)"/></g></g><rect x="934" y="151" width="151" height="151" fill="url(#fill44)"/><path d="M12.5508-9.21094 12.5508-7.00781 18.2109-7.00781 18.2109-5.95312 12.5508-5.95312 12.5508-0.0234375 11.4727-0.0234375 11.4727-5.95312 5.8125-5.95312 5.8125-7.00781 11.4727-7.00781 11.4727-9.21094C10.1992-9.38281 9.17578-9.94141 8.40234-10.8867 7.71484-11.7148 7.37109-12.6797 7.37109-13.7812 7.37109-15.1641 7.88281-16.3125 8.90625-17.2266 9.78906-18.0156 10.8281-18.4102 12.0234-18.4102 13.4062-18.4102 14.5547-17.9062 15.4688-16.8984 16.2578-16.0156 16.6523-14.9766 16.6523-13.7812 16.6523-12.5156 16.2109-11.4414 15.3281-10.5586 14.5781-9.80078 13.6523-9.35156 12.5508-9.21094ZM12.0234-17.3555C10.9688-17.3555 10.0898-16.9609 9.38672-16.1719 8.77734-15.4922 8.47266-14.6914 8.47266-13.7695 8.47266-12.7305 8.86328-11.8594 9.64453-11.1562 10.3164-10.5469 11.1094-10.2422 12.0234-10.2422 13.0625-10.2422 13.9336-10.6328 14.6367-11.4141 15.2461-12.0859 15.5508-12.8711 15.5508-13.7695 15.5508-14.832 15.1641-15.7187 14.3906-16.4297 13.7187-17.0469 12.9297-17.3555 12.0234-17.3555Z" fill="#FFFFFF" transform="translate(955.556 234)"/><text fill="#000000" fill-opacity="0" font-family="Arial,Arial_MSFontService,sans-serif" font-size="18.3867" x="5.8125" y="-2.32178">♀</text><text fill="#FFFFFF" font-family="Yu Gothic,Yu Gothic_MSFontService,sans-serif" font-weight="400" font-size="24" transform="translate(986.389 234)">2A+XX</text><g clip-path="url(#clip45)" filter="url(#fx12)" transform="translate(927 349)"><g clip-path="url(#clip46)"><rect x="7" y="7" width="151" height="152" fill="#FF0000"/></g></g><g clip-path="url(#clip47)" filter="url(#fx13)" transform="translate(942 403)"><g clip-path="url(#clip48)"><path d="M11.4727-9.59766 17.8008-15.8906 11.6367-15.8906 11.6367-16.8984 19.6055-16.8984 19.6055-8.95312 18.5508-8.95312 18.5508-15.1523 12.2578-8.85938C12.9453-8.01562 13.2891-7.03906 13.2891-5.92969 13.2891-4.55469 12.7812-3.41016 11.7656-2.49609 10.8906-1.69922 9.85547-1.30078 8.66016-1.30078 7.26953-1.30078 6.11719-1.80859 5.20312-2.82422 4.40625-3.69922 4.00781-4.73438 4.00781-5.92969 4.00781-7.30469 4.51953-8.44531 5.54297-9.35156 6.42578-10.1406 7.46484-10.5352 8.66016-10.5352 9.73828-10.5352 10.6758-10.2227 11.4727-9.59766ZM8.66016-9.48047C7.60547-9.48047 6.72656-9.08984 6.02344-8.30859 5.41406-7.63672 5.10938-6.84375 5.10938-5.92969 5.10938-4.875 5.5-3.99219 6.28125-3.28125 6.95312-2.66406 7.74609-2.35547 8.66016-2.35547 9.72266-2.35547 10.6016-2.75 11.2969-3.53906 11.8906-4.21094 12.1875-5.00781 12.1875-5.92969 12.1875-6.99219 11.8047-7.87109 11.0391-8.56641 10.375-9.17578 9.58203-9.48047 8.66016-9.48047Z" fill="#FFFFFF" transform="translate(21.3055 37)"/><path d="M1.72266-13.4883C2.04297-15.0664 2.70312-16.2461 3.70312-17.0273 4.54688-17.6914 5.58594-18.0234 6.82031-18.0234 8.28906-18.0234 9.45312-17.582 10.3125-16.6992 11.0859-15.9102 11.4727-14.8789 11.4727-13.6055 11.4727-12.582 11.1953-11.6406 10.6406-10.7812 10.1172-9.98438 9.1875-8.98438 7.85156-7.78125 5.59375-5.80469 4.00781-3.82812 3.09375-1.85156L11.4961-1.85156 11.4961-0.527344 1.58203-0.527344 1.58203-1.71094C2.57422-4.08594 4.30469-6.40234 6.77344-8.66016 8.08594-9.88672 8.94922-10.8594 9.36328-11.5781 9.71484-12.1875 9.89062-12.8633 9.89062-13.6055 9.89062-14.6289 9.56641-15.4219 8.91797-15.9844 8.36328-16.4609 7.65625-16.6992 6.79688-16.6992 4.82812-16.6992 3.64062-15.5 3.23438-13.1016ZM22.1458-18.0234 27.9232-0.527344 26.2474-0.527344 24.3958-6.30469 17.7982-6.30469 15.8997-0.527344 14.3177-0.527344 20.1068-18.0234ZM24.0326-7.58203 22.5794-12.1406C22.056-13.7266 21.5911-15.2734 21.1849-16.7812L20.9622-16.7812C20.5404-15.2187 20.0872-13.6797 19.6029-12.1641L18.1615-7.58203ZM30.7786-7.80469 36.9427-7.80469 36.9427-13.9688 38.0443-13.9688 38.0443-7.80469 44.2552-7.80469 44.2552-6.72656 38.0443-6.72656 38.0443-0.527344 36.9427-0.527344 36.9427-6.72656 30.7786-6.72656ZM60.3932-18.0234 54.8268-9.62109 60.7331-0.527344 58.8815-0.527344 54.6159-7.24219C54.2956-7.75781 54.0456-8.15234 53.8659-8.42578 53.6549-8.05859 53.4089-7.65625 53.1276-7.21875L48.9323-0.527344 47.151-0.527344 52.987-9.57422 47.5612-18.0234 49.3776-18.0234 53.1979-11.9766 53.9948-10.7578C54.1042-10.9141 54.2448-11.1367 54.4167-11.4258 54.5964-11.7227 54.7174-11.9219 54.7799-12.0234L58.6237-18.0234Z" fill="#FFFFFF" transform="translate(52.1389 37)"/></g></g><rect x="934" y="354" width="151" height="152" fill="url(#fill49)"/><path d="M11.4727-9.59766 17.8008-15.8906 11.6367-15.8906 11.6367-16.8984 19.6055-16.8984 19.6055-8.95312 18.5508-8.95312 18.5508-15.1523 12.2578-8.85938C12.9453-8.01562 13.2891-7.03906 13.2891-5.92969 13.2891-4.55469 12.7812-3.41016 11.7656-2.49609 10.8906-1.69922 9.85547-1.30078 8.66016-1.30078 7.26953-1.30078 6.11719-1.80859 5.20312-2.82422 4.40625-3.69922 4.00781-4.73438 4.00781-5.92969 4.00781-7.30469 4.51953-8.44531 5.54297-9.35156 6.42578-10.1406 7.46484-10.5352 8.66016-10.5352 9.73828-10.5352 10.6758-10.2227 11.4727-9.59766ZM8.66016-9.48047C7.60547-9.48047 6.72656-9.08984 6.02344-8.30859 5.41406-7.63672 5.10938-6.84375 5.10938-5.92969 5.10938-4.875 5.5-3.99219 6.28125-3.28125 6.95312-2.66406 7.74609-2.35547 8.66016-2.35547 9.72266-2.35547 10.6016-2.75 11.2969-3.53906 11.8906-4.21094 12.1875-5.00781 12.1875-5.92969 12.1875-6.99219 11.8047-7.87109 11.0391-8.56641 10.375-9.17578 9.58203-9.48047 8.66016-9.48047Z" fill="#FFFFFF" transform="translate(963.306 438)"/><text fill="#000000" fill-opacity="0" font-family="Arial,Arial_MSFontService,sans-serif" font-size="15.5977" x="4.00781" y="-3.25049">♂</text><text fill="#FFFFFF" font-family="Yu Gothic,Yu Gothic_MSFontService,sans-serif" font-weight="400" font-size="24" transform="translate(994.139 438)">2A+X</text><path d="M775 193 933.667 226.333" stroke="#70AD47" stroke-width="8" stroke-miterlimit="8" fill="none" fill-rule="evenodd"/><path d="M775 193 933.667 429.667" stroke="#70AD47" stroke-width="8" stroke-miterlimit="8" fill="none" fill-rule="evenodd"/><path d="M0 0 158.667 181.333" stroke="#70AD47" stroke-width="8" stroke-miterlimit="8" fill="none" fill-rule="evenodd" transform="matrix(1 0 0 -1 775 408.333)"/><path d="M0 0 158.667 80.6667" stroke="#70AD47" stroke-width="8" stroke-miterlimit="8" fill="none" fill-rule="evenodd" transform="matrix(1 0 0 -1 775 510.667)"/><rect x="615" y="281" width="98" height="39" fill="#000000" fill-opacity="0.501961"/><text fill="#FFFFFF" font-family="Yu Gothic,Yu Gothic_MSFontService,sans-serif" font-weight="400" font-size="24" transform="translate(628.333 308)">配偶子</text><rect x="409" y="292" width="117" height="39" fill="#000000" fill-opacity="0.501961"/><text fill="#FFFFFF" font-family="Yu Gothic,Yu Gothic_MSFontService,sans-serif" font-weight="400" font-size="24" transform="translate(419.778 319)">減数分裂</text><rect x="306" y="298" width="48" height="39" fill="#000000" fill-opacity="0.501961"/><text fill="#FFFFFF" font-family="Yu Gothic,Yu Gothic_MSFontService,sans-serif" font-weight="400" font-size="24" transform="translate(318 325)">親</text><rect x="996" y="310" width="48" height="38" fill="#000000" fill-opacity="0.501961"/><text fill="#FFFFFF" font-family="Yu Gothic,Yu Gothic_MSFontService,sans-serif" font-weight="400" font-size="24" transform="translate(1007.78 336)">子</text></g></svg>