<svg width="918" height="614" xmlns="http://www.w3.org/2000/svg" xmlns:xlink="http://www.w3.org/1999/xlink" overflow="hidden"><defs><linearGradient x1="300" y1="441.5" x2="300" y2="510.5" gradientUnits="userSpaceOnUse" spreadMethod="reflect" id="fill0"><stop offset="0" stop-color="#81B861"/><stop offset="0.5" stop-color="#6FB242"/><stop offset="1" stop-color="#61A235"/></linearGradient><linearGradient x1="640.5" y1="243.5" x2="640.5" y2="311.5" gradientUnits="userSpaceOnUse" spreadMethod="reflect" id="fill1"><stop offset="0" stop-color="#FFC746"/><stop offset="0.5" stop-color="#FFC600"/><stop offset="1" stop-color="#E5B600"/></linearGradient><linearGradient x1="981" y1="441.5" x2="981" y2="509.5" gradientUnits="userSpaceOnUse" spreadMethod="reflect" id="fill2"><stop offset="0" stop-color="#71A6DB"/><stop offset="0.5" stop-color="#559BDB"/><stop offset="1" stop-color="#438AC9"/></linearGradient><linearGradient x1="639.5" y1="63.5001" x2="639.5" y2="174.5" gradientUnits="userSpaceOnUse" spreadMethod="reflect" id="fill3"><stop offset="0" stop-color="#AFAFAF"/><stop offset="0.5" stop-color="#A5A5A5"/><stop offset="1" stop-color="#929292"/></linearGradient><linearGradient x1="673.5" y1="564.5" x2="673.5" y2="675.5" gradientUnits="userSpaceOnUse" spreadMethod="reflect" id="fill4"><stop offset="0" stop-color="#AFAFAF"/><stop offset="0.5" stop-color="#A5A5A5"/><stop offset="1" stop-color="#929292"/></linearGradient><linearGradient x1="250" y1="564.5" x2="250" y2="675.5" gradientUnits="userSpaceOnUse" spreadMethod="reflect" id="fill5"><stop offset="0" stop-color="#AFAFAF"/><stop offset="0.5" stop-color="#A5A5A5"/><stop offset="1" stop-color="#929292"/></linearGradient><linearGradient x1="640.5" y1="364.5" x2="640.5" y2="432.5" gradientUnits="userSpaceOnUse" spreadMethod="reflect" id="fill6"><stop offset="0" stop-color="#F18C55"/><stop offset="0.5" stop-color="#F67B28"/><stop offset="1" stop-color="#E56B17"/></linearGradient></defs><g transform="translate(-180 -62)"><rect x="203.5" y="441.5" width="193" height="69" stroke="#70AD47" stroke-width="0.666667" stroke-miterlimit="8" fill="url(#fill0)"/><rect x="543.5" y="243.5" width="194" height="68" stroke="#FFC000" stroke-width="0.666667" stroke-miterlimit="8" fill="url(#fill1)"/><rect x="884.5" y="441.5" width="193" height="68" stroke="#5B9BD5" stroke-width="0.666667" stroke-miterlimit="8" fill="url(#fill2)"/><path d="M18.8139 7.87641 229.218 149.938 224.742 156.568 14.3373 14.5066ZM13.1758 23.3752 0 0 26.6056 3.48449ZM230.38 141.069 243.555 164.444 216.95 160.96Z" fill="#FF0000" transform="matrix(1 0 0 -1 300 441.444)"/><path d="M961.732 433.147 751.355 291.489 755.824 284.853 966.2 426.511ZM967.351 417.641 980.556 441 953.946 437.549ZM750.205 300.359 737 277 763.61 280.451Z" fill="#FF0000"/><path d="M20.0038-3.98175 467.115-3.57373 467.108 4.42626 19.9965 4.01825ZM23.989 12.0219 0 0 24.0109-11.9781ZM463.122-11.5774 487.111 0.444514 463.1 12.4226Z" fill="#FF0000" transform="matrix(1 0 0 -1 396 475.445)"/><rect x="181.5" y="63.5001" width="916" height="111" stroke="#A5A5A5" stroke-width="0.666667" stroke-miterlimit="8" fill="url(#fill3)"/><path d="M4.06652 19.9866 4.88869 267.098-3.11126 267.124-3.93344 20.0133ZM-11.9201 24.0398 0 0 12.0798 23.9599Z" fill="#FF0000" transform="matrix(1 0 0 -1 300 441.111)"/><path d="M976.823 420.68 976 174.013 984 173.987 984.822 420.653ZM992.809 416.626 980.889 440.666 968.809 416.706Z" fill="#FF0000"/><path d="M635.629 222.498 635 174.052 643 173.948 643.629 222.394ZM651.576 218.291 639.889 242.444 627.578 218.602Z" fill="#00B0F0"/><rect x="421.5" y="564.5" width="504" height="111" stroke="#A5A5A5" stroke-width="0.666667" stroke-miterlimit="8" fill="url(#fill4)"/><path d="M317.554 520.385 424.45 616.357 419.105 622.31 312.21 526.338ZM309.842 534.963 300 510 325.875 517.104Z" fill="#FF0000"/><path d="M12.548 16.0794 58.686 107.983 51.5364 111.573 5.3984 19.6687ZM0.0434154 26.8328 0 0 21.4923 16.0649Z" fill="#00B0F0" transform="matrix(-1 0 0 1 980.111 509)"/><rect x="188.5" y="564.5" width="123" height="111" stroke="#A5A5A5" stroke-width="0.666667" stroke-miterlimit="8" fill="url(#fill5)"/><path d="M16.5213 11.9602 39.128 36.3833 33.2571 41.8176 10.6503 17.3945ZM7.49655 25.7643 0 0 25.1094 9.46137ZM42.2818 28.0135 49.7784 53.7778 24.669 44.3165Z" fill="#FF0000" transform="matrix(1 0 0 -1 250 563.778)"/><path d="M602.5 120C602.5 99.2894 619.513 82.5001 640.5 82.5001 661.487 82.5001 678.5 99.2894 678.5 120 678.5 140.711 661.487 157.5 640.5 157.5 619.513 157.5 602.5 140.711 602.5 120Z" stroke="#000000" stroke-width="1.33333" stroke-miterlimit="8" fill-rule="evenodd"/><text fill="#FFFFFF" font-family="Yu Gothic,Yu Gothic_MSFontService,sans-serif" font-weight="700" font-size="43" transform="translate(625.333 133)">A</text><path d="M636.5 623.5C636.5 602.513 653.289 585.5 674 585.5 694.711 585.5 711.5 602.513 711.5 623.5 711.5 644.487 694.711 661.5 674 661.5 653.289 661.5 636.5 644.487 636.5 623.5Z" stroke="#000000" stroke-width="1.33333" stroke-miterlimit="8" fill-rule="evenodd"/><text fill="#FFFFFF" font-family="Yu Gothic,Yu Gothic_MSFontService,sans-serif" font-weight="700" font-size="43" transform="translate(658.167 636)">B</text><path d="M212.5 619.5C212.5 598.513 229.289 581.5 250 581.5 270.711 581.5 287.5 598.513 287.5 619.5 287.5 640.487 270.711 657.5 250 657.5 229.289 657.5 212.5 640.487 212.5 619.5Z" stroke="#000000" stroke-width="1.33333" stroke-miterlimit="8" fill-rule="evenodd"/><text fill="#FFFFFF" font-family="Yu Gothic,Yu Gothic_MSFontService,sans-serif" font-weight="700" font-size="43" transform="translate(234.444 633)">C</text><rect x="543.5" y="364.5" width="194" height="68" stroke="#ED7D31" stroke-width="0.666667" stroke-miterlimit="8" fill="url(#fill6)"/><path d="M263.5 478.5C263.5 457.513 280.289 440.5 301 440.5 321.711 440.5 338.5 457.513 338.5 478.5 338.5 499.487 321.711 516.5 301 516.5 280.289 516.5 263.5 499.487 263.5 478.5Z" stroke="#000000" stroke-width="1.33333" stroke-miterlimit="8" fill-rule="evenodd"/><text fill="#FFFFFF" font-family="Yu Gothic,Yu Gothic_MSFontService,sans-serif" font-weight="700" font-size="43" transform="translate(288.194 491)">1</text><path d="M943.5 474.5C943.5 453.513 960.289 436.5 981 436.5 1001.71 436.5 1018.5 453.513 1018.5 474.5 1018.5 495.487 1001.71 512.5 981 512.5 960.289 512.5 943.5 495.487 943.5 474.5Z" stroke="#000000" stroke-width="1.33333" stroke-miterlimit="8" fill-rule="evenodd"/><text fill="#FFFFFF" font-family="Yu Gothic,Yu Gothic_MSFontService,sans-serif" font-weight="700" font-size="43" transform="translate(968.178 487)">2</text><path d="M600.5 278.5C600.5 257.513 617.513 240.5 638.5 240.5 659.487 240.5 676.5 257.513 676.5 278.5 676.5 299.487 659.487 316.5 638.5 316.5 617.513 316.5 600.5 299.487 600.5 278.5Z" stroke="#000000" stroke-width="1.33333" stroke-miterlimit="8" fill-rule="evenodd"/><text fill="#FFFFFF" font-family="Yu Gothic,Yu Gothic_MSFontService,sans-serif" font-weight="700" font-size="43" transform="translate(625.655 292)">3</text><path d="M602.5 398C602.5 377.289 619.513 360.5 640.5 360.5 661.487 360.5 678.5 377.289 678.5 398 678.5 418.711 661.487 435.5 640.5 435.5 619.513 435.5 602.5 418.711 602.5 398Z" stroke="#000000" stroke-width="1.33333" stroke-miterlimit="8" fill-rule="evenodd"/><text fill="#FFFFFF" font-family="Yu Gothic,Yu Gothic_MSFontService,sans-serif" font-weight="700" font-size="43" transform="translate(627.75 411)">4</text></g></svg>